<?xml version="1.0" standalone="no"?>
<!DOCTYPE svg PUBLIC "-//W3C//DTD SVG 1.1//EN" "http://www.w3.org/Graphics/SVG/1.1/DTD/svg11.dtd" >
<svg xmlns="http://www.w3.org/2000/svg">
<metadata>
This is a custom SVG webfont generated by Font Squirrel.
Designer    : Igino Marini
Foundry     : Igino Marini
Foundry URL : www.iginomarini.com
</metadata>
<defs>
<font id="webfontJrduSLaX" horiz-adv-x="1304" >
<font-face units-per-em="2048" ascent="1638" descent="-410" />
<missing-glyph horiz-adv-x="439" />
<glyph unicode=" "  horiz-adv-x="439" />
<glyph unicode="&#x09;" horiz-adv-x="439" />
<glyph unicode="&#xa0;" horiz-adv-x="439" />
<glyph unicode="!" horiz-adv-x="593" d="M200 682v1q2 3 6.5 14.5t7.5 13.5v42q0 34 -6 65t-8 66v95q0 3 -2 15.5t-5 27t-5 27t-2 15.5v9q0 11 3.5 20.5t3.5 20.5v4q-1 8 -2 21.5l-2 26.5t-2 23t-1 12q0 1 -1 5.5t-2.5 9t-2.5 8.5l-1 4v4v3q0 1 1 7.5t2.5 13.5t2.5 12.5t1 6.5v161q2 19 12.5 43t26.5 45 t36.5 35.5t42.5 14.5q35 0 59.5 -21t44.5 -48q1 -5 6.5 -15.5t5.5 -12.5v-12v-29q0 -2 3.5 -11t3.5 -12v-5q0 -2 0.5 -3.5t0.5 -3.5q0 -1 -0.5 -7.5t-0.5 -7.5q0 -6 -2 -29t-4 -50t-4.5 -50t-3.5 -29v-53q0 -5 -6 -16t-6 -14q-1 -1 -2 -7.5t-2.5 -14t-2.5 -15t-2 -11.5 q-2 -32 -4.5 -65t-2.5 -68q0 -21 4.5 -41t4.5 -42v-20t-2 -20q-11 -12 -18.5 -33t-7.5 -35q0 -1 1 -7t2.5 -13.5t2.5 -14t1 -8.5q0 -1 -1 -5.5t-2 -11l-2 -13t-2 -10.5q-2 -2 -4.5 -10t-2.5 -10q-5 -17 -8 -35.5t-9.5 -34t-18.5 -26t-33 -10.5q-15 0 -31 12.5t-29 30.5 t-21.5 38.5t-8.5 36.5zM228 7q-2 1 -6 4.5t-8.5 8t-8.5 9t-5 6.5q0 1 -3.5 10t-3.5 10q-3 8 -8.5 13t-11.5 9.5t-10 8.5t-4 9v9q0 7 1 20l2 26.5t2 23.5t1 11q1 13 9 24t18.5 20.5t22 17.5l20.5 14q2 1 7 1.5t11 0.5h11.5h8.5q22 0 47 -4t48 -13t42.5 -24t31.5 -37v-34 v-17.5t-1 -21.5l-2 -21t-4 -15l-5.5 -5.5t-12 -13l-14 -16t-11.5 -13.5q-8 -9 -22.5 -22t-27.5 -13h-4q-2 0 -14 3.5t-15 3.5q-5 1 -16.5 2l-24 2l-24.5 2t-16 1z" />
<glyph unicode="&#x22;" horiz-adv-x="1017" d="M588 882q0 25 6 38t16 20.5t22.5 13.5t26.5 18l14.5 15l19.5 20l17.5 18t9.5 11q17 20 30 45.5t13 51.5q0 6 -0.5 14t-2.5 16t-6 14.5t-12 9.5q-2 1 -9 2t-15 2.5t-15 2.5t-9 1q-14 3 -24.5 8t-19.5 12t-17 15.5l-17 18.5q-7 9 -13.5 15.5l-12.5 12.5t-11.5 12.5 t-9.5 16.5v35q0 24 3.5 41.5t12.5 31t23.5 23.5t36.5 20q7 3 18 7t21.5 8.5t19 8.5t10.5 5h18q14 0 39.5 -8.5t52 -21t48 -27t28.5 -26.5q0 -1 2.5 -6.5l5 -11.5l4.5 -11t3 -6q3 -9 9 -21.5l12 -26t10 -26.5t4 -22q0 -14 -4.5 -25.5t-4.5 -25.5t4.5 -27.5t4.5 -27.5 q0 -20 -1 -34.5t-6 -32.5l-4.5 -4.5t-4.5 -2.5l-33.5 -69t-42.5 -63q-9 -11 -24.5 -24.5t-15.5 -32.5q-5 -2 -20.5 -6t-20.5 -6q-2 0 -8 -1t-13 -2.5t-13 -2.5t-8 -1q-1 -1 -5.5 -3t-9 -4.5t-8.5 -5t-4 -3.5q-4 0 -12.5 -2t-17.5 -4.5t-17 -4t-11 -1.5h-22h-24 q-12 3 -14 10.5t-2 15.5zM95 882q0 25 6 38t16 20.5t22.5 13.5t26.5 18l14.5 15l19.5 20l17.5 18t9.5 11q17 20 30 45.5t13 51.5q0 6 -0.5 14t-2.5 16t-6 14.5t-12 9.5q-2 1 -9 2t-15 2.5t-15 2.5t-9 1q-14 3 -24.5 8t-19.5 12t-17 15.5l-17 18.5q-7 9 -13.5 15.5 l-12.5 12.5t-11.5 12.5t-9.5 16.5v35q0 24 3.5 41.5t12.5 31t23.5 23.5t36.5 20q7 3 18 7t21.5 8.5t19 8.5t10.5 5h18q14 0 39.5 -8.5t52 -21t48 -27t28.5 -26.5q0 -1 2.5 -6.5l5 -11.5l4.5 -11t3 -6q3 -9 9 -21.5l12 -26t10 -26.5t4 -22q0 -14 -4.5 -25.5t-4.5 -25.5 t4.5 -27.5t4.5 -27.5q0 -20 -1 -34.5t-6 -32.5l-4.5 -4.5t-4.5 -2.5l-33.5 -69t-42.5 -63q-9 -11 -24.5 -24.5t-15.5 -32.5q-5 -2 -20.5 -6t-20.5 -6q-2 0 -8 -1t-13 -2.5t-13 -2.5t-8 -1q-1 -1 -5.5 -3t-9 -4.5t-8.5 -5t-4 -3.5q-4 0 -12.5 -2t-17.5 -4.5t-17 -4t-11 -1.5 h-22h-24q-12 3 -14 10.5t-2 15.5z" />
<glyph unicode="#" horiz-adv-x="1644" d="M767 163q0 16 6 29.5t13.5 26t14 26t8.5 28.5q1 16 2.5 25t3.5 15t4.5 10.5t4.5 10.5q3 4 6.5 10.5t6.5 17.5q2 9 3 14.5t3 10.5t6.5 11.5t14.5 18.5q-1 7 -1 12v10v14t1 18q0 4 3.5 9t3.5 10h-2q-1 0 -2.5 0.5t-3.5 0.5q-15 0 -48 -3.5t-82 -10.5l-95 13q-25 0 -25 -9 h-64q0 -18 -13 -26q-5 -2 -9.5 -8t-9.5 -6q0 -8 0.5 -13.5t0.5 -10.5q0 -21 -3.5 -30t-10.5 -13q0 -32 -1 -54.5t-6 -34.5q-1 -4 -12 -12t-15 -10q-8 -13 -9.5 -22.5t-1.5 -22.5q0 -14 -1 -17q-3 -14 -7.5 -19.5t-8.5 -9.5t-7.5 -9t-6.5 -18l-53 -20q-6 0 -15 10t-18 22 t-15 22.5t-6 12.5q0 16 4 28.5t9.5 24.5l11 24t8.5 27q2 4 3 15t6 16q1 14 8.5 26.5t11.5 30.5q0 2 0.5 8.5t1.5 14t2 14t1 8.5q2 4 14 15t14 18q0 4 -0.5 10.5t-4.5 6.5q-17 -9 -32 -13t-16 -4q-5 2 -8.5 2h-7.5q-11 0 -19.5 -2.5t-16.5 -5.5t-16.5 -5.5t-18.5 -2.5l-66 9 q-20 -4 -26.5 -5.5t-11.5 -1.5q-13 0 -29.5 2t-31.5 7.5t-25.5 15.5t-10.5 27q0 8 5 20t12.5 23.5t16 21t15.5 13.5q49 7 81.5 9.5t61.5 2.5h44.5t44.5 -2q24 -7 32.5 -8.5t10.5 -1.5q45 13 64 35t26.5 50.5t12 61.5t21.5 69q3 8 8.5 11.5t10 7t8 8t3.5 14.5q-1 1 -1 3 q-1 2 -1 4q-7 0 -10.5 0.5t-7 2t-8.5 3t-14 3.5q-6 -2 -11 -3t-13 -1l-38 7q-9 0 -18 -4t-18 -9.5t-18.5 -9.5t-19.5 -4l-63 15q-20 -5 -26.5 -7.5t-11.5 -2.5q-13 0 -29.5 2.5t-31 8.5t-24.5 16.5t-10 27.5q0 8 4.5 19.5t11 23.5t15 21.5t16.5 13.5h28l204 10l39 -12 q15 0 30 7.5t33 11.5q5 0 15 -3.5t12 -3.5q1 1 3 2q3 3 3 5q23 38 40.5 86t26.5 93v26q0 4 5 10.5t7 11.5q9 8 12.5 15t3.5 18q0 22 8 41.5t21 36.5t30 31.5t36 25.5q14 0 23.5 -9t15 -21.5t7.5 -24.5t2 -18q0 -13 -8.5 -18.5t-8.5 -12.5q4 -8 6.5 -21.5t3.5 -18.5 q0 -10 -3 -16t-7.5 -11t-9.5 -9t-9 -10q-1 -3 -4 -13l-6.5 -22.5t-6 -24.5t-2.5 -17q0 -25 -5.5 -41.5t-13.5 -30l-16 -26t-12 -30.5l135 -7h75q17 0 35.5 0.5t36 3t32.5 7t25 12.5q0 1 6.5 18.5l14 39.5l14 41.5t5.5 23.5v31q2 6 7.5 11l11.5 10t11 11t5 13q0 24 5.5 44.5 t14 38.5t18 34.5t17.5 32.5q7 2 13 3t11 1q14 0 23.5 -3t9.5 -6q8 -17 17 -27.5t14 -15.5q0 -5 -3 -14t-7 -18t-7 -16.5t-3 -8.5q1 -12 1 -20v-13q0 -11 -1.5 -16t-4 -9t-6.5 -8t-10 -12q-5 -6 -6.5 -12t-3 -13.5t-4 -17t-9.5 -23.5l7 -33q0 -8 -1.5 -18t-4.5 -20t-8 -18 t-12 -11l68 5q11 0 19 -7.5t22 -7.5q11 0 23.5 7.5t28.5 7.5l102 -5l76 5q19 0 27.5 -16.5t12.5 -31.5q-26 -32 -58.5 -50t-72.5 -18h-15t-3 2q-20 -3 -38 -7.5t-22 -6.5l-11.5 -5.5t-18.5 -3.5t-20 9q-16 -2 -21.5 -2h-9.5h-35.5t-11.5 2q-21 -11 -33 -16t-28 -5 q-18 5 -26 5.5t-12 0.5q-17 -16 -25.5 -32t-13 -33t-6 -35t-5.5 -39q-4 -10 -13.5 -24l-19 -28l-17 -25.5t-7.5 -15.5q2 -7 4.5 -14t4.5 -9q10 3 26 5.5t33.5 4t34 2t28.5 0.5l39 -12q11 0 24 6t29 6l102 -7l76 7q19 0 28.5 -16t13.5 -30q-50 -71 -133 -71q-5 0 -11.5 2.5 t-7.5 2.5q-2 0 -13 -5t-15 -5q-8 0 -16.5 -2.5t-16.5 -4.5q-14 -6 -24 -6q-9 1 -16 3l-12 2t-8 1q-5 -2 -10 -2h-10h-38t-8 2q-18 -16 -31.5 -18.5t-27.5 -2.5l-78 15q-7 -5 -8 -15t-1 -19l-32 -76q-2 -4 -4 -12t-3 -16t-1.5 -15.5t-0.5 -10.5q0 -20 -3 -32t-9 -22 t-14.5 -20.5t-20.5 -27.5q-5 -12 -5 -16q0 -11 1 -16t1 -10q0 -4 -1 -7t-1 -5q-2 -4 -9.5 -13t-11.5 -11q-1 -5 -4 -14t-3 -14q-13 -8 -25.5 -11.5t-27.5 -3.5q-6 0 -15.5 8.5t-18.5 19.5t-15.5 22t-6.5 16zM741 877q-28 0 -44 -4.5t-25 -15t-12 -27t-5 -41.5 q-2 -26 -12.5 -40t-10.5 -15t-1 -6t-2 -11t-1.5 -11l-0.5 -5q-8 -13 -15 -19t-12.5 -9.5t-9 -8.5t-3.5 -17q-3 -3 -3 -28v-29l170 10q6 0 25 -1.5t66 -8.5q23 0 44.5 1t37.5 9q2 0 8 21l13.5 48l14.5 52.5t10 34.5q3 6 5 7.5t4.5 2t5.5 1.5t6 6q17 35 17 87 q-15 17 -26.5 21.5t-25.5 4.5l-124 -24z" />
<glyph unicode="$" horiz-adv-x="1137" d="M485 893q0 -2 2 -3.5t3 -3.5q3 39 13 83q-2 4 -6.5 15t-6.5 19l13 42q0 11 -6.5 23.5t-6.5 28.5l7 98l-5 94h-7q-31 -20 -59 -45t-53 -52v-14q0 -18 -3.5 -30t-3.5 -30v-11q0 -2 3.5 -13t3.5 -13q1 -17 1 -30t1.5 -25t5.5 -24t13 -26q3 -2 6 -5l9 -9q3 -3 14 -13 l23.5 -21.5l24 -21.5t14.5 -13zM601 586h-2q-1 0 -1 2v-10q0 -25 7 -51.5t7 -52.5l-4 -33q0 -25 -0.5 -39t-0.5 -21t-0.5 -9.5t-0.5 -4.5q3 -5 8 -25.5t10 -45t8.5 -46.5t3.5 -29l-14 -50q0 -15 2.5 -22.5t2.5 -17.5l-2 -8q19 4 35.5 12.5t32.5 13.5q2 2 14 4.5t14 2.5 q1 1 9.5 8.5t12.5 11.5q2 3 6.5 9l9 11.5l8 9.5t4.5 5q0 1 0.5 6.5t1.5 11.5t2 11t3 6q0 1 2 5.5l4 9l4 9t2 5.5q1 2 2 8l2 12.5t2 12t1 7.5q0 4 -3.5 15.5t-3.5 13.5q-1 4 -2 17t-2 28t-2 27.5t-1 17.5q-1 5 -7 13.5t-13.5 18t-15.5 18l-13 13.5q-11 15 -27 28t-33 20 q-3 2 -12 4.5t-11 2.5q-1 1 -6 5.5t-10.5 9l-10.5 8.5t-7 5l-7 3.5t-9 2.5zM522 -66v50q-39 2 -79.5 6t-76.5 13q-10 3 -18 8.5l-16.5 11.5l-16.5 12t-18 10q-7 3 -23 8.5l-32.5 11.5l-30.5 11.5t-18 9.5q-3 4 -11 13l-17 19l-16.5 19t-10.5 12q-5 13 -6 22t-1 23q0 21 4 41 t9.5 39l11 37.5t9.5 37.5l9.5 47.5t25.5 37.5q3 1 11 2t17 2t16.5 2t10.5 1q4 0 11.5 -5t9.5 -9q16 -29 25 -53l23 -59l7 -54q3 -12 8.5 -20.5t12.5 -15t14.5 -12.5t15.5 -14q7 -10 12.5 -20.5t12.5 -19.5t17 -15.5t27 -6.5q6 -2 24.5 -4.5t40.5 -4.5q0 34 -3 67 q-2 28 -6 56t-4 60l15 38q0 13 -7.5 23.5t-7.5 28.5q4 41 5.5 73.5t1.5 63.5q0 22 -1.5 47t-4.5 50v12l-14.5 9.5l-11.5 7.5q-30 16 -57.5 37l-54.5 42.5l-54.5 42t-56.5 37.5q-4 5 -13 19l-18.5 30t-18.5 29.5t-12 18.5q-2 2 -5 8l-6.5 12.5t-6 12.5t-3.5 9v52q0 38 2.5 76 t11.5 73q8 28 28.5 60.5t47.5 63t56 54t55 33.5q1 0 7 0.5t13.5 1t14 1.5t8.5 2q3 0 12 2t19 5t19 5t12 2h9l-3 93q0 8 2.5 20t16.5 15q13 1 21.5 2t16.5 1q17 0 27 -4t19 -6q0 -4 2 -18t2 -22q7 0 7 -43l8 -38h18q9 -4 19 -5.5l19.5 -3t19 -3.5t18.5 -7q2 -3 7 -8.5t7 -7.5 q20 -25 44 -41t58 -16q24 0 36 6.5t20 15t16 15t25 6.5q9 0 13 -1.5t11 -12.5q2 -3 6 -11l8.5 -17l8 -16.5t5.5 -10.5v-14q-1 -1 -2.5 -6t-3 -11t-2.5 -11t-1 -6v-83q-13 -19 -16.5 -35t-11.5 -36q0 -2 -5 -13.5t-7 -12.5l-8.5 -22.5t-9 -16t-15 -9.5t-26.5 -3q-23 0 -38 9 t-24 23t-14.5 32t-10.5 36.5t-11 36t-16 30.5q-2 2 -8.5 10l-14.5 17l-15.5 17.5t-11.5 12.5q-5 6 -16 16l-23 20.5t-24 18t-20 7.5h-23l-1 -9l12 -104l-7 -38l6 -20t3 -11t1 -5.5v-2.5q0 -14 -2 -19t-8 -14q6 -7 11 -29t8.5 -47t5 -48t1.5 -32l-14 -83q21 -12 44 -21.5 t46 -9.5l102 -67t99 -73q4 -2 8.5 -7t6.5 -7q1 -2 3.5 -7.5t6 -12.5t6 -13t3.5 -7q17 -26 35 -47.5t27 -50.5q1 -2 2.5 -9t2.5 -15.5t2 -16t2 -8.5q0 -2 3.5 -11.5t3.5 -23.5q0 -17 -6.5 -27.5t-9.5 -29.5q0 -4 1 -20.5t1 -32.5q0 -19 -2 -23q0 -1 -2.5 -6t-6 -10.5 l-6.5 -10.5t-4 -7q-2 -3 -9 -17.5l-15.5 -31l-15.5 -31t-10 -17.5q0 -2 -6.5 -9l-15.5 -16l-17.5 -17.5l-13.5 -13.5q-32 -29 -66 -50.5t-74 -32.5q-5 -1 -18.5 -4t-31 -6.5l-35.5 -7t-31 -6.5q2 -14 5 -28t5 -32q-2 -7 -5.5 -9t-3.5 -10t-1 -17.5t-6 -17.5t-15.5 -13.5 t-29.5 -5.5q-14 0 -22.5 4t-16.5 24v53z" />
<glyph unicode="%" horiz-adv-x="1559" d="M488 29q-5 -8 -14 -17t-19 -18q-11 -11 -24 -21h-13q-11 1 -21 2.5t-18.5 5t-15.5 10.5t-12 20q-4 8 -6.5 16t-2.5 10q0 8 1 13.5t3.5 11t7 12.5l11.5 18l-2 -3l4.5 6.5t4.5 7.5l60 77q20 23 40.5 42t33.5 46l61.5 81l45.5 56.5l43 53l55 70.5l48 64l38.5 50.5l31.5 40 l28 33.5l-2 -2q18 28 40 56t39 52l23 25l6 9t7 11v-1q22 38 54 74.5l64 74.5l88 101q7 2 10 3.5l6 3t6.5 3t10.5 3.5q21 -2 34.5 -17.5t13.5 -35.5q-2 -7 -2 -11v-12q-1 -12 -7 -25t-13.5 -25t-16.5 -23.5t-16 -21.5q-8 -3 -23 -20t-29 -46q-36 -53 -62.5 -86l-50 -61.5 l-48 -58.5t-55.5 -75l3 10q-2 -2 -7 -10.5t-11 -15.5l1 1q-22 -27 -36 -42.5t-25 -32.5q-5 -8 -11.5 -17.5t-18.5 -23.5l-36 -41q-7 -13 -23.5 -34l-34 -42.5t-30.5 -39.5t-13 -25l-18.5 -22t-12 -17t-13.5 -20.5l-23 -31.5q-8 -10 -12.5 -14t-8.5 -7q-4 -7 -8.5 -17.5 t-8.5 -16.5q-9 -8 -17 -18.5l-15 -20.5v1q-9 -13 -13.5 -19l-10.5 -13.5l-15.5 -19.5l-28.5 -37zM1136 405q8 4 6 3l-6 -3v0zM1134 109q0 1 3 1l3 -1q2 -1 2.5 -2t2.5 -2q1 -1 3 -2zM1004 250q0 -16 13.5 -35.5t24.5 -32.5q12 -12 26.5 -24t28 -21.5t24.5 -16.5l14 -9 q6 0 8 1l7 2q5 0 9.5 -0.5t9.5 -0.5h16q12 0 29.5 9t31.5 27q1 0 4.5 1t3.5 2q21 12 32 25.5t22 39.5q4 -1 6.5 3.5t3.5 10t1.5 11.5t2.5 8l-7 27.5t-10.5 31t-16 29.5t-22.5 25q-9 6 -16 19q-8 13 -11.5 14.5t-10.5 6.5q-5 2 -7 3h-46q-4 0 -10 1.5t-8 1.5t-10 -1.5 t-13 -3.5q-20 -14 -27.5 -20t-23.5 -6q0 -1 -4 -4l-8.5 -6.5l-8.5 -6.5t-3 -3h-35q3 -2 0.5 -5t-4.5 -5l-2 -3q-2 -2 -3.5 -4t-3.5 -2q0 -2 1.5 -6.5t1.5 -7.5v-9q0 -14 -1 -27.5t-3 -25.5q-1 -2 -3 -8q-1 -3 -3 -5zM896 300q0 25 4.5 43.5t10 31t10.5 19l5 6.5q0 3 1 6 q0 2 0.5 3.5t0.5 2.5l10 11q20 17 37.5 33.5t42.5 31.5q11 15 31.5 18.5t43.5 14.5q3 1 9.5 2.5t14 3t14 3t9.5 2.5h10q20 0 35 -2.5t33 -6.5h29q14 -2 22.5 -9t19.5 -12q34 -14 63 -36t50 -50.5t32.5 -62.5t11.5 -71v-16q0 -3 -3 -10.5t-7 -14.5v-49q-3 -32 -19.5 -64 t-41.5 -59t-57.5 -45.5t-67.5 -22.5q-18 -7 -37.5 -7.5t-29.5 -4.5l-8 -2h-17l-25 9h-6q-3 0 -6 -0.5t-5 -0.5h-8q-12 0 -25.5 4.5t-25.5 11.5t-22.5 15.5t-17.5 15.5l-17 16q-4 2 -8.5 3.5t-6.5 2.5q-15 12 -28 27.5t-23.5 32t-17 31.5t-9.5 26q0 5 -1.5 20t-3.5 33 t-3.5 36zM339 985q8 4 6 3l-6 -3v0zM337 689q0 1 3 1l3 -1q2 -1 2.5 -2t2.5 -2q1 -1 3 -2zM207 830q0 -16 13.5 -35.5t24.5 -32.5q12 -12 26.5 -24t28 -21.5t24.5 -16.5l14 -9q6 0 8 1l7 2q5 0 9.5 -0.5t9.5 -0.5h16q12 0 29.5 9t31.5 27q1 0 4.5 1t3.5 2q21 12 32 25.5 t22 39.5q4 -1 6.5 3.5t3.5 10t1.5 11.5t2.5 8l-7 27.5t-10.5 31t-16 29.5t-22.5 25q-9 6 -16 19q-8 13 -11.5 14.5t-10.5 6.5q-5 2 -7 3h-46q-4 0 -10 1.5t-8 1.5t-10 -1.5t-13 -3.5q-20 -14 -27.5 -20t-23.5 -6q0 -1 -4 -4l-8.5 -6.5l-8.5 -6.5t-3 -3h-35q3 -2 0.5 -5 t-4.5 -5l-2 -3q-2 -2 -3.5 -4t-3.5 -2q0 -2 1.5 -6.5t1.5 -7.5v-9q0 -14 -1 -27.5t-3 -25.5q-1 -2 -3 -8q-1 -3 -3 -5zM99 880q0 25 4.5 43.5t10 31t10.5 19l5 6.5q0 3 1 6q0 2 0.5 3.5t0.5 2.5l10 11q20 17 37.5 33.5t42.5 31.5q11 15 31.5 18.5t43.5 14.5q3 1 9.5 2.5 t14 3t14 3t9.5 2.5h10q20 0 35 -2.5t33 -6.5h29q14 -2 22.5 -9t19.5 -12q34 -14 63 -36t50 -50.5t32.5 -62.5t11.5 -71v-16q0 -3 -3 -10.5t-7 -14.5v-49q-3 -32 -19.5 -64t-41.5 -59t-57.5 -45.5t-67.5 -22.5q-18 -7 -37.5 -7.5t-29.5 -4.5l-8 -2h-17l-25 9h-6q-3 0 -6 -0.5 t-5 -0.5h-8q-12 0 -25.5 4.5t-25.5 11.5t-22.5 15.5t-17.5 15.5l-17 16q-4 2 -8.5 3.5t-6.5 2.5q-15 12 -28 27.5t-23.5 32t-17 31.5t-9.5 26q0 5 -1.5 20t-3.5 33t-3.5 36z" />
<glyph unicode="&#x26;" horiz-adv-x="1576" d="M503 1209q0 -30 6.5 -55.5t14.5 -53.5q2 -5 4.5 -12.5t3.5 -7.5q1 -2 6.5 -7.5l11 -11l10.5 -10.5t7 -6q8 -9 15 -19t15 -18.5t18.5 -14t24.5 -5.5q11 0 17.5 3.5t11 9t8 13t8.5 15.5q17 27 29.5 43.5t20 32.5t11 35.5t3.5 51.5q0 30 -10 58.5t-28 50.5t-44 35t-59 13 q-9 0 -16 -1t-18 -6q-24 -14 -38 -26t-21.5 -27t-9.5 -34t-2 -46zM288 436v-10q0 -2 3.5 -10.5t3.5 -10.5v-19v-50q2 -12 3.5 -23.5t12.5 -18.5q1 -1 5.5 -4t10.5 -6.5l11.5 -7t7.5 -4.5q20 -14 34.5 -36.5t34.5 -38.5q11 -11 30 -14t32 -8q2 0 10.5 -3.5t10.5 -3.5h76 q3 0 11 -1t17.5 -1.5t17.5 -1.5t11 -1h29q18 0 35 5.5t33 14l31.5 17.5t30.5 16l30 17.5t26.5 19.5t19 25.5t7.5 34.5q0 25 -11.5 52.5t-28.5 54t-36 49.5t-35 40q-2 2 -10.5 10l-18 17l-18 17t-10.5 11q0 2 -3 8.5t-7 13.5t-7 13l-3 6q-14 28 -35.5 60.5t-47.5 52.5 q-2 1 -7 2.5t-11 3.5t-11 3.5t-6 2.5q-12 9 -19 17.5t-14 16t-17 12t-28 4.5q-34 0 -49 -6.5t-22.5 -18.5t-13 -30t-19.5 -42q0 -1 -5 -6t-7 -9q-1 -1 -5 -4t-9 -6t-9 -6l-4 -3q-12 -12 -17 -25t-7 -27t-2.5 -29.5t-3.5 -31.5l-2 -4t-4 -8.5l-4 -9t-2 -5.5q-1 -3 -3 -11.5 t-5 -18t-5 -18.5t-3 -13v-12zM88 336v20q0 1 1 5t2.5 8.5t2.5 9t1 5.5q2 43 2 80.5t3 80.5q2 0 4.5 8.5t3.5 10.5l12.5 32t14 34t17 32.5t21.5 27.5q5 7 17 19.5l25 25.5l24.5 24l14.5 14q2 2 10 7l17.5 11t18 10.5t11.5 6.5q11 9 22 16.5t25 9.5q1 2 8 2t12.5 -1t6.5 -1 q23 4 40 19t17 38q0 14 -5.5 25t-14 20.5t-18.5 18.5t-19 21q0 1 -2.5 9t-2.5 10q-1 3 -3.5 7t-4.5 8.5t-4 8l-2 3.5q-1 5 -10 15.5t-10 12.5q-16 32 -25.5 67.5t-9.5 69.5q0 19 4 35t9 31.5t9.5 32t5.5 36.5q3 4 10.5 13l16 18.5l16 18.5t10.5 12q2 2 8 10.5t8 10.5 q0 7 7 7q6 3 22 8l33.5 10.5l33 10t20.5 5.5q4 2 19 4.5t19 2.5q16 5 31 13t33 8h10q5 0 15 -1t20 -1.5t18 -1.5t11 -1l12 -7q4 -2 12 -4.5t11 -4.5l5 -1t10.5 -2l11 -2t7.5 -2q1 0 6 -2.5l10.5 -5.5t10.5 -6.5t8 -4.5q1 0 4.5 -4.5t8 -9l9 -9t6.5 -4.5l35.5 -31.5 t26.5 -38.5l23 -58t12 -59q0 -54 -22 -105.5t-48 -97.5q-5 -8 -12 -14.5t-15 -12l-15.5 -11t-12.5 -12.5q-3 -2 -10.5 -13.5t-12.5 -14.5q0 -1 -6 -5l-13 -8.5t-13.5 -8t-8.5 -3.5q-3 -5 -11 -13l-10 -10v-7q0 -34 18 -63t38 -55l20 -25.5l28.5 -36l26.5 -34.5l16 -21 q4 -6 18 -17t31 -21.5t32.5 -18t22.5 -7.5t14 1t14 7q25 24 42 59t34 66q2 2 7.5 9.5t7.5 9.5q1 6 3.5 15.5l5 18.5t3.5 15.5t1 7.5l-7 12q-26 0 -51.5 11t-45.5 24q0 2 -1 8t-1 7q0 19 11.5 32.5t24.5 25.5q3 0 11.5 0.5l17.5 1t17 1.5t11 2q1 0 5.5 2t10.5 5t11.5 5t7.5 2 h9q13 0 23 -3.5t23 -3.5h14q2 0 7.5 2t12.5 4t12.5 4t7.5 3h168q1 0 7 -3t13.5 -7.5t15 -8.5t12.5 -6q5 -5 6 -7t1 -9v-7q-9 -21 -27.5 -41t-41.5 -28q-1 -1 -7 -3l-13.5 -4.5t-14 -5t-7.5 -3.5q-4 -1 -14.5 -8t-22.5 -16l-23 -17t-17 -12l-8 -8t-12.5 -13.5l-12.5 -14 t-7 -8.5q-2 0 -7 -4l-11 -8.5l-11 -8.5t-6 -5q-18 -15 -32 -35t-32 -36q-4 -6 -13 -23.5l-18.5 -37l-18.5 -37t-12 -24.5q-1 -3 -3 -12.5t-4 -20.5t-3.5 -20t-1.5 -11q-2 -2 -4.5 -7l-5 -10.5t-4.5 -11t-2 -6.5t2 -7l4.5 -13l5 -13.5t4.5 -9.5q4 -8 11.5 -13t16.5 -9.5 t18 -8.5t16 -9q2 -2 9.5 -11.5t9.5 -10.5q13 -10 31 -15t31 -11q3 -1 10.5 -1.5t15 -0.5h15h10.5q9 0 16.5 -1t14.5 -1q9 0 18 2t20 8q19 10 35.5 22t33.5 22.5t35.5 18t42.5 7.5h14l4.5 -4.5l8 -8t8.5 -9t6 -6.5q5 -8 6 -21.5t1 -26.5v-18q0 -50 -26 -91.5t-66.5 -71.5 t-89.5 -46.5t-95 -16.5q-36 0 -69.5 6t-64.5 21q-1 1 -2 3t-2.5 2.5t-2.5 1.5l-11.5 16.5l-20 29l-19.5 28.5t-12 16q-1 3 -9 11l-17.5 17.5l-18 17.5t-10.5 11q-5 4 -8 9t-6 9.5t-7.5 7t-13.5 2.5h-8.5t-4.5 -2q-2 0 -5 -5l-6.5 -11l-6.5 -11.5t-3 -6.5q-30 -43 -67.5 -82 t-84.5 -64q-2 0 -8 -2l-13.5 -4.5t-14 -5t-8.5 -3.5q-8 -3 -19 -13.5t-22 -12.5q-3 -1 -14.5 -2l-24 -2t-23.5 -2.5t-13 -2.5q-2 0 -8.5 -2l-13.5 -4l-13.5 -4t-7.5 -2h-41q-33 0 -64 4t-63 17q-1 1 -9 5l-17 8.5t-17.5 8t-11.5 4.5q-1 1 -6.5 3.5t-13 5l-14 4.5t-8.5 2 q-27 14 -50.5 35l-45.5 41q-11 10 -26 29t-29.5 40.5t-26 42.5t-15.5 35q-5 19 -6 38.5t-1 38.5z" />
<glyph unicode="'" horiz-adv-x="524" d="M95 882q0 25 6 38t16 20.5t22.5 13.5t26.5 18l14.5 15l19.5 20l17.5 18t9.5 11q17 20 30 45.5t13 51.5q0 6 -0.5 14t-2.5 16t-6 14.5t-12 9.5q-2 1 -9 2t-15 2.5t-15 2.5t-9 1q-14 3 -24.5 8t-19.5 12t-17 15.5l-17 18.5q-7 9 -13.5 15.5l-12.5 12.5t-11.5 12.5 t-9.5 16.5v35q0 24 3.5 41.5t12.5 31t23.5 23.5t36.5 20q7 3 18 7t21.5 8.5t19 8.5t10.5 5h18q14 0 39.5 -8.5t52 -21t48 -27t28.5 -26.5q0 -1 2.5 -6.5l5 -11.5l4.5 -11t3 -6q3 -9 9 -21.5l12 -26t10 -26.5t4 -22q0 -14 -4.5 -25.5t-4.5 -25.5t4.5 -27.5t4.5 -27.5 q0 -20 -1 -34.5t-6 -32.5l-4.5 -4.5t-4.5 -2.5l-33.5 -69t-42.5 -63q-9 -11 -24.5 -24.5t-15.5 -32.5q-5 -2 -20.5 -6t-20.5 -6q-2 0 -8 -1t-13 -2.5t-13 -2.5t-8 -1q-1 -1 -5.5 -3t-9 -4.5t-8.5 -5t-4 -3.5q-4 0 -12.5 -2t-17.5 -4.5t-17 -4t-11 -1.5h-22h-24 q-12 3 -14 10.5t-2 15.5z" />
<glyph unicode="(" horiz-adv-x="668" d="M668 1384v-5q-2 -3 -3 -6l-4 -6q-1 -2 -4 -7.5l-6.5 -11.5t-6.5 -10.5t-4 -5.5q-1 -2 -3 -7.5t-4.5 -11.5t-4 -10.5t-2.5 -5.5t-6 -7t-9 -8q-16 -12 -28.5 -26l-25.5 -28q-1 -2 -7 -8.5t-13.5 -13.5l-14 -13.5t-8.5 -7.5q-3 -3 -9.5 -10.5l-13 -15l-12 -14t-7.5 -8.5 q-1 -2 -5.5 -14t-6.5 -14q-1 -1 -4 -3.5t-6.5 -6l-7 -7l-4.5 -4.5q-8 -9 -9 -23t-3 -25q-1 -3 -5 -11l-9 -17.5l-9 -17.5l-5 -10q-3 -2 -5 -10t-2 -10q-5 -14 -15 -24.5t-13 -24.5q-1 -2 -2.5 -8t-2.5 -13t-1.5 -13t-0.5 -7q-1 -2 -3.5 -8t-4.5 -6q-12 -29 -19 -58.5 t-7 -59.5t6 -59t6 -60v-7q-3 -13 -9 -30.5l-12 -35.5t-10 -35t-4 -29v-15q0 -3 2 -16.5t5 -28.5t5 -28t2 -17q-2 -11 -5 -22q-2 -9 -4.5 -18t-4.5 -14q0 -2 -2.5 -11.5t-2.5 -11.5v-1v-5q1 -5 1.5 -14.5t1.5 -18.5t1.5 -15.5t0.5 -7.5q1 -2 4.5 -7l7.5 -10.5t7 -10.5t4 -6 q1 -3 2.5 -16.5t3.5 -28.5t3.5 -29t2.5 -18q1 -2 5.5 -12t9 -21.5l9 -22t5.5 -13.5q0 -1 0.5 -4.5t1.5 -8t2 -8.5t2 -5q1 -2 4.5 -6t7 -8.5l6.5 -8.5t4 -5q10 -20 16.5 -41t12.5 -42.5t13.5 -42.5t19.5 -40q1 -3 8 -11l15.5 -17.5l16 -17.5t9.5 -11q3 -4 15 -22l26 -39.5 l25.5 -40.5t14.5 -23q4 -1 11 -12t12 -14q1 -1 3 -4t2 -4q2 -1 7.5 -4l11 -6t10.5 -6l5 -3q8 -6 18 -21t18.5 -32.5t14.5 -34.5t6 -28q0 -9 -5 -20t-17 -11q-18 0 -42 2.5t-41 17.5h-5q-10 2 -23.5 10.5t-27 18.5l-26 19.5t-20.5 14.5q-2 0 -8 3.5t-8 3.5q0 2 -3 8.5 l-6 13.5t-6 12.5t-4 6.5q-6 10 -17 17.5t-22.5 14t-22 13.5t-16.5 17q0 5 -5.5 19t-7.5 16q0 2 -6.5 11t-6.5 12v5v14q-2 4 -7 8t-10.5 8t-10.5 7t-6 4q-15 10 -24 22.5t-14.5 26t-9.5 27.5t-9 28q0 2 -2.5 8t-2.5 8q-2 1 -6 7l-9 13l-9.5 13t-5.5 8q-14 23 -18.5 44 t-15.5 46q-5 12 -10.5 21.5t-10.5 19t-9 19.5t-5 23v40q0 2 -2 7.5t-4.5 11.5t-4.5 11.5t-3 7.5q0 3 -4 11q-2 4 -3 8v62q-2 32 -7.5 60l-11.5 56t-10.5 56.5t-4.5 61.5v2q0 2 2 12.5t4.5 22.5t5 22t3.5 12q0 4 -1 23.5t-1 36.5v15.5t2 9.5l1 5t1.5 11t1.5 11.5t1 6.5 q0 3 1 13t2.5 21t2.5 21t1 14q14 9 20.5 28.5t10 42.5t5.5 45.5t6 36.5q3 8 8.5 24.5l11 33l10 29.5t4.5 16l5 10l9 17.5l9 17.5t5 11q1 0 2 4.5l2 9l2 9l1 4.5q2 3 4.5 8t4.5 6q0 1 2.5 5.5t6 9l6.5 8.5t4 5q1 2 4 11t3 11l4 8l6 12.5t6 12t4 7.5l27 30.5l40 46l40 46 t27 29.5q0 2 5 10.5t7 10.5q10 16 23.5 33.5t29.5 32t35 24t40 9.5q10 0 26 -4.5t31.5 -12.5t26.5 -19t11 -23z" />
<glyph unicode=")" horiz-adv-x="696" d="M28 -498v5q1 2 2 5q2 5 5 7q1 2 4 7.5l6.5 11.5t6.5 10.5t4 5.5q1 2 2.5 7.5t3.5 11l4 10.5t4 5q2 3 6.5 8.5t7.5 7.5q17 11 29.5 25l25.5 28q1 2 7.5 8.5l13.5 14t13.5 13.5t8.5 8l9.5 10t13 15l11.5 14.5t6 8.5q3 2 7.5 14t6.5 14t10.5 10t10.5 12q9 8 9 23t5 24 q0 3 4.5 11t9 17.5t9 17.5t4.5 11q2 2 4.5 9.5t2.5 9.5q5 13 15 24t13 26q1 1 2 7.5l2 13l2 12.5t1 7q2 3 4.5 8.5t3.5 5.5q12 29 19 58.5t7 60.5q0 29 -6.5 58.5t-6.5 59.5v7q3 13 8.5 30l11.5 35t10 35.5t4 29.5v15q0 3 -2 16.5t-4 28.5t-4 28t-2 17q2 11 5 22 q2 9 3.5 18.5t3.5 15.5q0 1 3.5 10t3.5 10v2v5q-1 6 -2 15l-2 18t-2 15.5t-1 7.5q-1 2 -4 7l-6.5 10.5l-6.5 10.5t-4 6q0 3 -2 16.5t-4 29t-4 29t-3 17.5q-1 3 -5 12.5l-9 21t-9 22t-5 13.5q0 2 -2.5 13t-4.5 13q-1 1 -4 5.5t-6.5 9l-6.5 8.5t-4 5q-10 19 -16.5 40.5 l-13 43.5t-13.5 43t-19 39q-2 3 -8.5 11t-15 17.5l-15.5 17.5t-9 11q-3 4 -15.5 22l-27 39t-26 39.5t-13.5 23.5q-4 3 -11 13.5t-11 12.5q-2 3 -4.5 5t-2.5 4q-2 1 -7 4t-10.5 6l-11 6t-6.5 5q-7 5 -16.5 19.5t-18 32t-14.5 34.5t-6 28q0 9 5 21t16 12q8 0 10 -3.5t2 -8.5 v-14q3 0 12 0.5t19.5 1l21.5 1t18 0.5h7q10 -1 23 -9t26.5 -18.5l26 -20.5t20.5 -14q2 0 8 -3.5t8 -3.5q1 -1 3.5 -7t6 -13.5t6 -13.5t3.5 -7q6 -11 17 -18t22.5 -13.5t22 -14t16.5 -17.5q0 -1 1.5 -6.5t3.5 -11.5t4 -11t3 -5q0 -2 7 -10.5t7 -10.5v-7v-14q1 -4 6 -8 t10.5 -7.5l10.5 -6.5t7 -5q28 -21 37.5 -47.5t18.5 -56.5q0 -2 3.5 -7.5t3.5 -8.5q0 -1 4.5 -7l9 -12.5l9 -13t4.5 -7.5q8 -12 12.5 -23.5t7.5 -22l6.5 -22t8.5 -23.5q5 -11 11 -20.5t11 -18.5t8.5 -19.5t4.5 -23.5v-41q0 -2 2 -7.5t4.5 -11.5t5 -11t3.5 -6q0 -7 3 -13l4 -8 v-63q1 -32 7 -59.5l12 -55.5t11 -56.5t5 -61.5v-2q-1 -3 -3 -13t-5 -21.5t-5 -21.5t-3 -13v-61v-24q0 -1 -1 -5.5t-2.5 -10.5t-2.5 -11t-1 -7q0 -3 -1 -13t-1.5 -21.5t-1.5 -21.5t-1 -14q-14 -8 -21 -27t-10 -42t-5 -45.5t-6 -35.5l-8.5 -25.5l-11 -33.5l-9.5 -30t-5 -15 q-1 -3 -5 -11l-9 -17.5l-9 -17.5t-5 -11q-2 -2 -4.5 -14t-2.5 -14q-1 -1 -4 -6t-4 -7q0 -2 -3 -6l-6.5 -8.5l-6.5 -8.5t-3 -5q-3 -2 -5 -10.5t-2 -10.5l-5.5 -8.5t-6.5 -12l-6 -12.5t-5 -8q-7 -9 -26 -30.5l-40 -46l-39.5 -46t-25.5 -30.5q0 -1 -5.5 -9.5t-6.5 -10.5 q-11 -17 -25 -34t-30 -31t-34 -23t-39 -9q-10 0 -26 4.5t-31.5 12.5t-27 18t-11.5 22z" />
<glyph unicode="*" horiz-adv-x="792" d="M412 1299q12 20 17 43.5t13 43t23 32.5t45 13h26q14 -11 18.5 -23.5t4.5 -30.5q0 -25 -5 -57t-17.5 -60t-34 -47t-54.5 -19q-3 0 -9 1.5t-12 4.5t-10.5 6.5t-4.5 7.5v85zM126 1317v24q5 8 14.5 14.5t20.5 6.5q3 0 10.5 -1t15 -2.5t14 -3t8.5 -2.5q3 0 14 -7.5t16 -11.5 q4 -5 16 -16.5l25 -25l24.5 -26t15.5 -17.5q8 -13 15.5 -31.5t7.5 -32.5q0 -6 -4 -9.5t-9.5 -5t-11.5 -2t-10 -0.5q-20 0 -37.5 6.5t-33.5 16.5t-31.5 22l-30.5 24q-14 10 -23 17.5t-15 15.5t-8.5 18.5t-2.5 28.5zM521 1076v7q2 3 6 9.5t8.5 13l8.5 12t6 8.5q4 4 15 11.5 t13 7.5h69q7 -6 15 -9t16 -4.5t16 -4.5t15 -9q2 -1 6.5 -4.5t9 -8t8 -8.5t4.5 -7q0 -2 -2.5 -9.5t-2.5 -9.5q-3 -3 -7.5 -10l-9 -13.5l-8.5 -12t-5 -6.5q-9 -10 -20 -12.5t-24 -2.5h-20h-32q-1 0 -6 2.5l-11.5 6l-13.5 7t-11 6.5q-16 8 -29.5 15.5t-13.5 24.5zM85 986v9 q1 3 2 8.5l2 11t2 10l1 4.5q4 8 18.5 14.5t32.5 11.5t35.5 9t25.5 7q1 0 4.5 2t8 4t8.5 4t5 2h4l10.5 -3t23 -7t23 -9.5t10.5 -9.5v-6q-2 0 -6.5 -5t-8.5 -7q-17 -14 -36 -32.5t-40 -35t-43.5 -28t-45.5 -11.5q-25 0 -30.5 17t-5.5 40zM405 1021q25 -4 41 -18.5t26.5 -34.5 t17 -43l12.5 -43v-7q0 -14 -2 -31t-9 -31.5t-19 -24.5t-31 -10q-20 0 -32 13t-20 29q-3 4 -6 10.5l-6 13.5t-5 12.5t-2 6.5v109q0 16 12 29t23 20z" />
<glyph unicode="+" horiz-adv-x="1163" d="M124 699q11 11 33 16.5t50 5.5q20 0 27 -1t12 -4h151q34 0 58 3.5t34 12.5q17 17 17 71l-19 235q0 26 4 48t15 33q16 14 50 14q23 0 44 -6.5t32 -17.5l28 -61q1 0 2 -2t2.5 -9t3 -21.5t4.5 -39.5q-8 -3 -16 -11q-8 -11 -11.5 -21t-3.5 -24q0 -23 3.5 -50.5t8.5 -47.5 q2 -14 2.5 -18t0.5 -8q0 -16 -1.5 -32t-1.5 -27q0 -2 1 -2q0 -1 1 -1q6 -7 8 -7q34 0 71.5 8.5t68.5 8.5q16 0 28 -3t23 -7h154q4 0 12 -3t10 -4q9 -11 9 -30v-76l-18 -19q-33 -33 -90 -33q-22 0 -45 3.5t-45.5 7.5l-43.5 7.5t-40 4.5l-23 -9l-62 -5q-5 -9 -9 -26.5 t-7 -39.5t-5 -46.5t-2 -46.5q0 -23 2.5 -41t6.5 -34q3 -9 4 -17t1 -12t-2.5 -17.5t-2.5 -15.5l4 -48q0 -12 -2.5 -19t-6.5 -11q-14 -10 -45 -10q-26 0 -49 6t-31 11q-13 24 -18 53t-7 60.5t-4.5 64t-9.5 63.5l20 77q0 5 -1 10.5t-6 10.5q-10 9 -20.5 14t-24.5 5 q-17 0 -33.5 -4t-36.5 -4h-20t-10 1q-4 7 -24 7l-24 -2q-16 -4 -32.5 -5t-33.5 -1t-33 1t-33 5q-16 0 -26.5 3.5t-21.5 17.5q-7 12 -9.5 26.5t-2.5 34.5q2 31 4.5 39.5t2.5 10.5z" />
<glyph unicode="," horiz-adv-x="552" d="M112 -337q0 25 6 38t15.5 20.5t22.5 13.5t27 18l14.5 14.5l19 19.5l17.5 18.5t9 11.5q17 20 30 45t13 51q0 6 -0.5 14t-2 16t-6 14.5t-11.5 9.5q-2 1 -9.5 2t-15.5 2.5t-15 2.5t-9 2q-14 3 -24.5 8t-19.5 11.5t-17 15l-17 18.5q-14 19 -25.5 28.5t-20.5 28.5v35 q0 24 3.5 41.5t12.5 31t23.5 23.5t36.5 20q6 3 17 7t22 8.5t19.5 8.5t10.5 5h17q14 0 40 -8.5t52 -21t48 -27t28 -26.5q1 -1 3 -6t5 -11t5 -11t3 -6q3 -9 8.5 -21.5l11.5 -26t10 -26.5t4 -23q0 -13 -4 -25t-4 -25q0 -14 4 -28t4 -28q0 -20 -1 -34.5t-6 -32.5q-1 -2 -4 -4.5 t-4 -2.5l-34 -68t-43 -64q-9 -11 -24 -24.5t-15 -32.5q-3 0 -8.5 -2t-12.5 -4l-12.5 -3.5t-8.5 -2.5q-2 0 -8 -1t-12.5 -2.5t-12.5 -2.5t-8 -1q-3 -1 -14.5 -7t-13.5 -8l-12 -3t-17 -4t-17 -3.5t-11 -1.5h-23h-24q-11 2 -13 10t-2 16z" />
<glyph unicode="-" horiz-adv-x="831" d="M159 452q0 18 10 29.5t24.5 18t31.5 9t31 3.5q3 1 15.5 1h26.5t26 -0.5t15 -0.5q6 1 32 2t55 2.5t55 2.5t32 2h42h40q29 -14 47.5 -36.5t36.5 -48.5q1 -1 1.5 -3t2.5 -4q1 -3 3 -5q0 -20 -9 -42t-18 -36q-11 -14 -27 -22t-30 -20q-6 0 -21 -1t-31.5 -2t-31 -2t-20.5 -1 h-11h-8q-4 0 -19.5 1t-33.5 2t-33.5 2t-19.5 1h-60q-5 0 -15 1t-21 2.5t-21.5 2.5t-15.5 1q-30 5 -46 16.5t-23.5 28.5t-9 39t-2.5 48v9z" />
<glyph unicode="&#xad;" horiz-adv-x="831" d="M159 452q0 18 10 29.5t24.5 18t31.5 9t31 3.5q3 1 15.5 1h26.5t26 -0.5t15 -0.5q6 1 32 2t55 2.5t55 2.5t32 2h42h40q29 -14 47.5 -36.5t36.5 -48.5q1 -1 1.5 -3t2.5 -4q1 -3 3 -5q0 -20 -9 -42t-18 -36q-11 -14 -27 -22t-30 -20q-6 0 -21 -1t-31.5 -2t-31 -2t-20.5 -1 h-11h-8q-4 0 -19.5 1t-33.5 2t-33.5 2t-19.5 1h-60q-5 0 -15 1t-21 2.5t-21.5 2.5t-15.5 1q-30 5 -46 16.5t-23.5 28.5t-9 39t-2.5 48v9z" />
<glyph unicode="." horiz-adv-x="485" d="M104 81q-5 23 -6 41.5t-1 41.5v30q0 2 3 8t7 13l7.5 13t3.5 7q0 2 2.5 11t4.5 12q12 29 42 45.5t62 16.5q12 0 20 -2.5t14 -7t12 -9.5t16 -9q3 -2 11 -4.5t10 -3.5q10 -3 16 -8t9.5 -11l7.5 -13.5t10 -16.5q4 -6 10.5 -12t13 -13t11 -14.5t5.5 -15.5v-38q0 -21 -1.5 -32 t-5.5 -17.5t-12 -12.5t-21 -18q-2 -1 -8.5 -7l-14 -13.5l-13.5 -13.5l-7 -7q-3 -2 -7 -5l-9 -7t-10 -9h-78q-2 2 -10 7t-11 5q-1 1 -5.5 3.5l-9 5t-8.5 4.5t-4 3l-11 10.5l-17 16l-17 16z" />
<glyph unicode="/" horiz-adv-x="557" d="M30 -112q0 16 3.5 28.5t8.5 24.5t10.5 23.5t10.5 26.5l8 31q2 15 8 26t10 25l8 50q0 2 4 6t8.5 8t9 7.5t4.5 4.5v46q1 11 6 20.5t11.5 18.5l13 18t9.5 20q2 5 6 16l8.5 22.5l8 21t3.5 12.5q0 4 5.5 26.5t14 48.5t18.5 48.5t19 25.5q21 38 33 85t21 86l40 95 q10 47 16.5 74t11 40.5t7.5 18t6 6.5l14 38q2 16 6 27t9 21t11 20t12 25q21 48 34.5 98l27.5 98q5 21 14.5 38l20.5 38q2 5 6.5 19.5l10 32.5t10.5 36t7 30q3 16 6 30t11 24t22 16t38 6q13 0 30.5 -5t27.5 -16v-55q-1 -2 -7 -12.5t-6 -12.5q-5 -20 -3.5 -40t-5.5 -41 q-4 -16 -13 -22.5t-20 -17.5q-4 -6 -4.5 -13t-0.5 -25q-3 -13 -9.5 -27.5t-15.5 -28.5l-18.5 -27.5t-17.5 -23.5q-11 -16 -12.5 -22.5t-1.5 -10.5l-1 -31q-5 -27 -16 -52.5t-24 -42.5q0 -9 1 -16t1 -12q0 -17 -2 -27t-5.5 -16t-7.5 -10t-8 -9q-3 -5 -6.5 -14.5t-6.5 -21 t-5.5 -22t-2.5 -17.5q0 -26 -5.5 -44t-12.5 -30.5t-13.5 -20t-7.5 -12.5q0 -4 -4.5 -11.5t-4.5 -9.5q-2 -20 -7.5 -35t-13.5 -29t-18 -27.5t-20 -30.5q-6 -10 -8 -21.5t-2 -22.5q0 -32 -0.5 -43.5t-4.5 -18.5q-14 -18 -19.5 -36t-6.5 -19q-1 -2 -5.5 -7t-10 -10.5t-10.5 -10 t-7 -5.5q-5 -8 -7.5 -26t-5 -38t-5 -38t-8.5 -26q-1 -3 -4.5 -7t-7.5 -8l-7.5 -7.5t-3.5 -5.5q5 -9 6 -15t1 -13q0 -23 -11.5 -37.5t-19.5 -19.5q-4 -23 -4.5 -35t-10.5 -17q0 -4 0.5 -12.5t0.5 -19.5q0 -16 -1 -27t-5 -20t-10.5 -17.5t-17.5 -17.5q-9 -9 -11.5 -17 t-2.5 -17v-12v-6.5t-2 -6.5q-4 -13 -7.5 -18t-7 -8.5t-6.5 -8.5t-5 -18l-57 -21q-6 0 -14.5 10t-16.5 22t-13.5 23t-5.5 13z" />
<glyph unicode="0" horiz-adv-x="1102" d="M229 417q0 -18 7.5 -37t18 -37.5t23 -35t22.5 -28.5q1 -2 5.5 -7t9 -11t9 -11t6.5 -6q1 -2 10 -7l19.5 -11l20 -11.5t12.5 -6.5q22 -14 40.5 -31t40.5 -30q4 -2 9 -5.5t7 -3.5t13 4.5t13 4.5q17 0 32.5 -1t29.5 -1t27.5 2.5t29.5 11.5q3 2 12 9l19.5 15l19.5 15.5t11 9.5 q1 0 5 2t8.5 4.5l9 5t5.5 3.5q18 10 31 21t23.5 23t19 26.5t16.5 33.5q2 2 4 7t5 5q0 2 6 8t6 8q1 5 3 10q1 5 2 9.5t2 7.5q1 5 4 18.5t3 16.5v2v5q-6 24 -14 53t-19.5 57.5t-27.5 54t-38 42.5q0 2 -5 4.5t-7 2.5q-13 14 -22 33t-26 30q-2 1 -8.5 4l-13.5 6.5l-13 6.5t-9 3 h-88q-5 0 -14 3.5t-14 3.5q-3 0 -9.5 -1.5t-14 -3t-15 -4t-11.5 -3.5q-2 -2 -13.5 -4.5t-14.5 -2.5q-1 -4 -7.5 -14.5t-11.5 -12.5q-4 -3 -18 -5t-16 -2q-5 -2 -13 -4.5t-10 -4.5q0 -1 -4 -5t-8.5 -9t-9 -9t-5.5 -5h-40h-14q-13 0 -18 -9t-11 -17q-2 -2 -6.5 -6t-9 -9 t-8.5 -10t-4 -9t3.5 -15.5t3.5 -14.5v-17q0 -21 -1.5 -42.5t-5.5 -43.5q0 -2 -3.5 -7.5t-3.5 -6.5q-1 -3 -1 -6q-1 -2 -1 -4.5v-3.5zM106 503v2q1 6 2.5 21.5t4 32t4 32t2.5 21.5q5 11 13.5 20t15.5 20q2 3 3.5 7.5t1.5 6.5q3 2 5 10.5t4 10.5l7 7l61 54t65 50q1 0 4.5 3 l8 7l8.5 7.5t5 4.5q21 14 46.5 21l50.5 14q6 1 19 4t26.5 6.5l25 6.5t14.5 3h12q31 0 59.5 -5.5t59.5 -9.5h47q18 -2 33 -15t31 -20q57 -23 103.5 -57.5t79 -79t50.5 -99t18 -115.5v-29q0 -2 -2 -7t-5 -11l-5.5 -11t-3.5 -6v-66v-24q-4 -34 -17.5 -72.5t-30.5 -65.5 q-24 -28 -52 -55.5t-60 -50.5t-67 -39t-72 -21q-3 -2 -16 -3t-28 -2t-28 -2t-16 -2q-2 0 -7 -2t-11 -5t-11 -5t-6 -2h-16h-12q-2 0 -7.5 2t-11 5t-10.5 5l-5 2q-5 2 -10.5 2h-10.5q-9 0 -17 -1t-16 -1q-9 0 -18 2t-20 7q-2 0 -15 7t-20 12q-5 4 -14.5 10.5l-19.5 13l-18 12 t-10 7.5q-1 1 -6 5.5t-10.5 10.5l-10.5 11l-7 7q-2 0 -10.5 2.5t-10.5 4.5q-32 24 -55.5 57.5t-43.5 67.5q-9 17 -16 28.5t-10 31.5q0 4 -3 28.5l-6.5 55.5l-7 62.5t-4.5 49.5v3z" />
<glyph unicode="1" horiz-adv-x="752" d="M401 9q-21 0 -43 -4.5t-42 -4.5q-45 0 -87.5 9t-85.5 12q-9 10 -9 22q0 2 1 4q0 1 1 3q5 9 18.5 18.5t22.5 16.5q2 0 7 2.5t7 2.5l27.5 10.5t27.5 13t22.5 18.5t12.5 27q5 29 6 48.5t1 46.5q0 23 -3.5 45t-3.5 45v18q0 1 2 7t5 12.5t5 12.5t2 7q1 16 -6.5 30.5t-7.5 28.5 q0 41 8 78t8 78q0 5 -0.5 14.5t-0.5 18.5t-0.5 16t-0.5 8q0 7 -1 18.5l-2 22t-2 19t-2 9.5l-7 5q-5 2 -17.5 5.5t-27.5 6.5t-28 6t-17 5q-8 3 -21 6t-25 8.5t-21 12.5t-9 18q0 18 13.5 39.5t33.5 26.5q13 4 36.5 5t53.5 1t63.5 -1l66 -2t60.5 -2t47 -1q3 0 16 1t28 1.5 t28.5 1.5t18.5 1h6q23 0 40 -18.5t17 -38.5q0 -9 -5.5 -16.5t-13 -13.5t-16.5 -10.5t-15 -6.5q-5 0 -21 1t-30 1h-11.5t-7.5 -2q-8 -2 -18.5 -7t-20 -12.5t-16.5 -17.5t-7 -20v-5q1 -3 3 -6l4 -6q1 -2 2 -9t2 -16l2 -18t3 -15v-1q0 -14 -4.5 -28t-4.5 -29q0 -21 4.5 -40 t4.5 -40v-19q-2 -3 -5.5 -15.5t-7 -27l-6.5 -27t-4 -15.5v-46q0 -7 -1 -20.5t-2.5 -28.5t-2.5 -27t-1 -16q0 -2 -2.5 -9.5t-2.5 -9.5q-2 -2 -2.5 -7t-0.5 -9q0 -1 0.5 -6.5t2.5 -5.5q0 -5 1.5 -18t3.5 -28t4 -28t3 -18q12 -20 26.5 -29.5t31.5 -14.5t35.5 -8t38.5 -10 q2 0 10 -7t10 -7q7 -2 15.5 -1.5t16 -0.5t12.5 -5t5 -15q0 -9 -5.5 -16t-13.5 -13t-16.5 -10.5t-13.5 -7.5h-43q-32 0 -61.5 4.5l-59.5 9.5q-4 2 -15.5 4.5t-13.5 4.5h-12z" />
<glyph unicode="2" horiz-adv-x="1006" d="M99 35q0 19 10.5 32t26 22t33.5 14.5t33 8.5q3 0 11 0.5t17.5 1.5t17.5 2.5t10 2.5t8 4.5t13 8t13 9t7 6.5q3 0 8 3l6 4q25 8 44 15.5t36 17t33 23.5t34 34q1 2 2 5q1 2 2 4.5t1 4.5q13 14 28 28.5t28 30t23 33.5t13 39v28q2 13 11.5 24t9.5 24q0 1 -0.5 2t-0.5 2 q-1 1 -1 2q0 2 -3.5 11t-3.5 11q0 1 -0.5 8.5t-1.5 15.5t-1.5 15.5t-1.5 10.5q-1 1 -4.5 5.5t-7.5 10.5t-7 11.5t-3 7.5t-5.5 15t-7.5 19q-10 26 -28 47t-41 35q-5 2 -11.5 6l-13.5 8l-16 8h-106q-16 -6 -35.5 -12t-33.5 -17l-3 -3l-4 -2l-15.5 -21.5t-16 -19t-19 -14.5 t-25.5 -9q-12 -3 -28 8.5t-22 20.5v29q0 33 14 55.5t32.5 42.5l37 39.5t28.5 46.5q4 0 7 -1t7 -1q22 0 45 7.5t40 16.5q17 3 34.5 4t34.5 1t34 -1t35 -4q2 0 12.5 -2.5t15.5 -4.5q0 -1 5 -4t7 -4q3 -1 13 -4t22 -6t22 -6t12 -3q3 -2 15.5 -13t19.5 -15l29 -29 q21 -24 39 -42.5t31 -37.5t20 -42t7 -57q0 -38 -4.5 -65.5t-14 -50.5t-24 -46.5l-33.5 -53.5q-4 -6 -6 -13t-4.5 -13.5t-6.5 -12t-11 -9.5q-2 -1 -8.5 -4l-13.5 -6.5l-12.5 -6.5t-6.5 -4q-2 -2 -7.5 -11.5t-8.5 -11.5q-2 0 -12.5 -5l-14.5 -7q-3 -3 -11 -13t-16 -22t-14 -22 t-6 -12q0 -18 14.5 -36t25.5 -28q38 -2 79.5 -8t79.5 -6q3 0 5 1q2 0 3 1q2 0 7.5 3.5t6.5 3.5q21 2 43.5 4.5t43.5 2.5h15.5t15.5 -2q19 16 32.5 32t25 33.5t22 35.5t24.5 38q1 0 7 1.5t8 1.5q1 0 7 -2q3 -1 5 -1q5 -2 12.5 -12.5t10.5 -15.5v-9q0 -16 -5 -31.5t-12 -30.5 l-14 -30t-11 -31q-10 -29 -13.5 -57t-8.5 -60l-3 -3l-2 -2q-9 -5 -25 -10.5t-19 -5.5h-167q-8 5 -18.5 7t-21.5 2h-14q-21 0 -37 -4.5t-36 -4.5q-13 0 -24 4.5t-24 4.5q-25 0 -47.5 -4.5t-47.5 -4.5q-20 0 -39.5 3.5t-40.5 3.5q-18 0 -42 -1.5t-44 -12.5h-132 q-16 0 -28.5 14t-12.5 28z" />
<glyph unicode="3" horiz-adv-x="764" d="M129 -351q-1 1 -1 2v3l1 2q14 23 34 41.5t50 20.5h89q16 9 38.5 19.5t38.5 15.5q2 1 8 2.5t12.5 2.5t12.5 1.5t8 0.5t7.5 3t8.5 3q0 2 2.5 4.5t2.5 4.5q1 0 5.5 1.5t9 3.5l9 4t5.5 3q2 3 3.5 15t1.5 15q1 1 3.5 6l5 10.5t4 10.5t1.5 7q2 0 2 11.5v16.5q0 23 -5 43.5 t-13 39t-17.5 37.5l-19.5 39q-3 0 -5 9t-2 12q-14 18 -29 25t-31.5 9t-34.5 2t-37 4q-2 2 -8 4.5t-7 3.5q-16 6 -45 6t-57.5 3t-49.5 13t-21 37q0 12 7.5 21.5t18.5 17t22.5 12.5t20.5 8q3 1 11 3t17 4t17 4.5t10 3.5q1 0 6.5 2.5l12.5 5.5l13.5 6t9.5 5q1 1 4 3l6.5 4.5 l7 5t4.5 3.5q1 0 4.5 0.5t8 1.5t8.5 2t5 1q3 2 12.5 9l20 15.5l19 15.5t11.5 9l20.5 13.5t13.5 20.5v11v24q3 13 11.5 23t17.5 19.5t17 19.5t9 23q0 1 -2.5 9t-2.5 10v15q0 14 1.5 23.5t10.5 23.5q0 4 -3 13t-6 19t-6 18.5l-4 11.5q0 2 -2.5 9.5t-5 16t-4.5 16t-3 8.5 q-1 2 -4.5 7t-8 10t-8.5 10t-7 8q-4 4 -14 9t-12 5q-16 7 -31 9.5t-31 2.5q-17 0 -34.5 -3.5t-34.5 -8.5q-3 -3 -11.5 -10.5l-17.5 -15l-17 -14t-11 -9.5q-10 -6 -30.5 -13t-32.5 -7t-18 8t-9.5 19t-4.5 22.5t-2 19.5v3v2q0 2 2 6.5t4.5 9t4 8.5t1.5 5q11 23 25 41t39 29 l27 11t33.5 13l29 10.5t14.5 4.5q2 1 10.5 2.5t19.5 2.5l22 2t17 2h48h49q25 -16 46 -34t44 -35l36.5 -27.5t33 -31t24 -36t9.5 -43.5v-28q0 -6 -1.5 -21.5t-3.5 -33.5l-4 -34.5t-3 -23.5q-6 -42 -30.5 -75t-53.5 -63l-21.5 -22l-33.5 -34l-34 -33.5l-22 -21.5 q-2 -1 -3.5 -6t-1.5 -8l2 -8q1 -3 1.5 -6.5t1.5 -5.5q9 -21 23.5 -37t31.5 -29t35.5 -25.5t35.5 -26.5q10 -9 20 -22t18.5 -27.5l16.5 -28.5t14 -26q1 -5 4.5 -11.5t6.5 -13l5.5 -11.5l2.5 -5q1 -3 2 -15.5t2.5 -27t2.5 -27t2 -15.5q0 -2 3.5 -16t3.5 -19v-10 q0 -20 -6 -38.5t-15 -35.5t-20 -33.5l-21 -32.5q-3 -3 -8.5 -15t-5.5 -15q-10 -16 -23 -26.5t-27.5 -18.5t-30.5 -14.5t-32 -14.5q-1 -2 -5.5 -8t-6.5 -8q-3 0 -13 -4l-22 -8.5t-22 -9t-12 -5.5q-8 -3 -10.5 -4t-4 -2t-4.5 -1h-10q-11 0 -17.5 4t-17.5 4q-1 0 -1.5 -0.5 t-1.5 -0.5h-2q-2 0 -7.5 -2t-11.5 -5t-10.5 -5t-5.5 -2q-4 0 -15.5 3.5t-13.5 3.5l-42.5 11.5t-40.5 22.5l-11.5 11l-17.5 17l-16.5 17z" />
<glyph unicode="4" horiz-adv-x="1179" d="M280 240q0 -17 7.5 -26.5t19 -15t25.5 -8t26 -5.5q2 -1 11 -4l19.5 -6.5t19.5 -6t12 -2.5q5 -1 10 -1q5 -1 9 -1h7q6 0 20 1t16 1h31q14 0 29 1.5t27 6.5t20.5 14.5t10.5 26.5q0 3 1.5 16t2.5 28.5t2 28.5t1 16q0 2 2 10.5t4.5 18t4.5 18t3 11.5v31v27q0 21 -2.5 44 t-11.5 36q-3 4 -8.5 4.5t-12.5 0.5h-17h-18q-1 0 -5.5 -3t-9 -7t-8.5 -7t-4 -4q-21 -14 -37 -31t-29.5 -35.5t-26 -39t-27.5 -39.5q-11 -14 -32 -30t-37 -25q-7 -5 -16.5 -8t-18 -7t-14.5 -10.5t-6 -18.5zM607 -474v16q0 3 1 16t2 28t2.5 28t2.5 16q0 4 -0.5 17.5t-0.5 27.5 v10.5t1 6.5q0 2 2 6.5l4 9t4 8.5t2 5v30v33q0 1 -1 2q-2 2 -2 4q-2 3 -3 6v9v6q0 1 1 5t2 8.5l2 9t1 5.5v42v41q-2 3 -10 14t-10 14q0 2 -6 14t-8 14t-6.5 4t-5.5 2q-34 10 -69 12t-70 2h-55h-28.5t-28.5 2q-5 0 -22.5 1t-37.5 2.5t-37.5 2.5t-21.5 1h-11h-9 q-23 -5 -44.5 -10.5t-46.5 -5.5h-7q-23 16 -39 34.5t-16 45.5q0 13 6 24.5t14 20.5q25 31 51.5 59.5t52.5 59.5q3 2 7.5 10.5t6.5 8.5q1 2 4.5 6l8 9t8.5 9t7 6q3 3 15.5 14.5l26.5 24.5l26.5 24.5t15.5 14.5q3 1 10.5 9t8.5 10q2 1 6.5 6t9 11l8 11t4.5 6q5 4 17.5 16 l26 25.5l25 26t16.5 17.5q20 7 27.5 14.5t11.5 15t7.5 15.5t15.5 17l66.5 53t66.5 58q14 13 34.5 34t44 41.5t46.5 35t43 14.5q7 0 14 -4t12 -9q-2 -5 -2 -17.5v-25.5v-25t2 -16q0 -5 2.5 -12t4.5 -11q0 -2 0.5 -9t0.5 -15.5t0.5 -16.5t0.5 -11q0 -5 -0.5 -13t-0.5 -16 t-0.5 -15t-0.5 -8l-5 -15t-9 -25.5t-9 -25.5l-5 -15q-1 -2 -1 -6.5v-10.5q0 -12 0.5 -25t0.5 -15q0 -5 -1 -16t-2.5 -23t-2.5 -22t-1 -13q-6 -44 -18.5 -83.5t-12.5 -81.5q0 -5 2 -20t2 -20q5 -12 14.5 -17t20.5 -7t23 -3.5t23 -6.5q62 5 114 14t109 20q2 2 10.5 4.5 t10.5 4.5q2 0 9 1t15 2t15 2t9 2q1 0 7.5 2t14 4t14 4t8.5 2l2 2q2 2 5 2q7 0 13.5 -5t11 -12t7 -15.5t2.5 -14.5q0 -11 -1 -14.5t-6 -16.5q-3 -7 -9 -23l-12.5 -33.5l-12.5 -33t-9 -21.5q-18 -13 -39 -24.5t-44 -11.5q-5 0 -5 1q-5 0 -13.5 0.5t-16.5 1.5t-14 2.5t-6 2.5 q-1 0 -5 2t-8.5 4l-9 4t-5.5 2h-14h-35q-1 0 -6 1t-11 2.5t-11 2.5t-6 1q-2 0 -9.5 1t-11.5 1q-29 0 -55 -6t-49 -22q-5 -23 -6.5 -48t-1.5 -50v-54v-17.5t0.5 -27.5t0.5 -28.5v-18.5q5 -6 6 -11.5t1 -12.5q0 -11 -1 -16.5t-6 -16.5q9 -51 9 -93q0 -45 -9 -87 q0 -1 -3.5 -9.5t-4.5 -10.5t-4.5 -7l-8 -11l-8.5 -11t-5 -6q-5 -5 -12 -6t-14 -1h-16h-20q-3 1 -10.5 4.5l-17 8t-18 9l-12.5 6.5q-18 11 -18.5 27.5t-1.5 36.5v12z" />
<glyph unicode="5" horiz-adv-x="1018" d="M2 -261q0 7 7.5 15.5t17.5 15.5t21 12t18 5q13 0 24 -4t24 -4h7q1 1 8 5.5t15.5 9t15 9t8.5 5.5l21.5 11l27 14l24 12l12.5 6q1 0 10 0.5t19.5 1.5t20 2t12.5 1q10 3 17 12t12.5 19.5t9.5 21t9 17.5q1 3 9 15.5l17.5 26.5l18 26t11.5 15q1 2 4 7.5t3 7.5v40q0 1 1 5.5 l2 9l2 9t1 5.5v58v60q0 3 -2.5 7.5t-3.5 6.5q-1 1 -4 5t-7 8.5l-7.5 8.5t-4.5 6t-2.5 12t-3.5 22t-3.5 22t-2.5 13t-2 7t-2 9q-2 5 -3 11q-1 2 -6.5 7.5l-11.5 11l-11 10.5l-6 6q-20 22 -37 48t-40 44q-17 13 -34 19.5t-31 15.5t-23 24.5t-9 44.5q0 13 4.5 20.5t11.5 12.5 t16 9.5t18 12.5q4 3 13.5 13l20.5 21l20.5 21t14.5 14q19 5 33.5 15.5t26.5 23.5t22 28.5t22 31.5q12 14 28.5 27.5t35.5 24t39 16.5t39 6h19q5 0 9.5 -0.5t11.5 -4.5q0 -2 5 -6t10.5 -9t11 -9t7.5 -5l12 -8t18.5 -13t18.5 -12.5t13 -6.5q2 -3 13.5 -8.5t12.5 -7.5 q3 -2 11 -10.5t10 -8.5q3 -2 8 -4.5t8 -4.5q5 -2 9 -3l6 -2t4 -1q3 -1 13 -5l22 -9l22 -9t12 -5h9q13 0 23 5.5t20 12.5t21 12.5t26 5.5q13 0 20.5 -0.5t12.5 -3.5t8.5 -10.5t6.5 -21.5v-4v-3q-1 -3 -2.5 -9.5t-3.5 -14t-4.5 -14.5l-3.5 -10q-3 -7 -9 -9.5t-13 -4t-14 -2.5 t-12 -5q-14 -12 -25 -26t-22.5 -25.5t-25.5 -19t-35 -7.5q-22 0 -40 5.5t-41 9.5q-1 1 -9 2t-17 2t-17.5 1.5t-11.5 0.5q-2 2 -10 7.5t-9 7.5q-2 1 -8.5 4l-13.5 6t-13 6t-7 3q-16 10 -30 20.5t-28 19t-30 14t-35 5.5q-20 0 -36 -15t-16 -35q0 -23 8.5 -47.5t19.5 -42.5 q1 -2 5 -6.5t9 -9l9 -8t5 -4.5q8 -11 14.5 -31.5t13.5 -32.5q5 -11 22.5 -20.5t25.5 -19.5q9 -11 10 -27t6 -30q0 -1 3 -7l6.5 -13l6.5 -13t3 -8q7 -20 12 -43.5t8.5 -48t5 -48.5t1.5 -44v-20q0 -14 -1 -27.5t-6 -24.5q0 -2 -3 -8t-7 -13t-7 -13.5t-3 -7.5q0 -2 -1 -7.5 t-2.5 -11t-2.5 -10.5l-1 -5q-7 -30 -25.5 -56.5t-37.5 -49.5q-43 -59 -95.5 -105t-118.5 -75q-45 -20 -91.5 -23.5t-93.5 -3.5h-59q-11 4 -23 10t-22 14t-17 19.5t-7 25.5z" />
<glyph unicode="6" horiz-adv-x="1066" d="M580 808q-1 1 -11 3.5t-21 4.5q-14 3 -31 6q-8 -5 -19 -6t-19 -1h-10q-2 0 -7.5 -1.5t-12.5 -4l-12.5 -4.5t-7.5 -2q-3 0 -5 -4q-1 -2 -2 -3l-38 -65t-31.5 -66t-22 -69.5t-8.5 -74.5q0 -32 7.5 -61t7.5 -59q0 -10 -3.5 -20.5t-3.5 -24.5v-10q0 -4 1 -6.5t6 -10.5 l8.5 -13l14 -21.5t13 -22t6.5 -13.5q1 0 4 -6l6.5 -13l6.5 -13.5t4 -8.5q2 -5 10 -18t12 -17q3 -5 10.5 -8.5t15.5 -6.5l15.5 -6t12.5 -6q3 -1 10 -6t15 -11.5t15 -11.5t10 -6q1 -1 9 -2t17.5 -2t17.5 -2t10 -1t7 -1t11 -2.5t10.5 -2.5t5.5 -1h16q14 0 23.5 1.5t22.5 12.5 q3 0 8.5 8.5t7.5 12.5l26.5 43.5t24.5 44t18 46.5t7 51q0 17 -7 32.5t-7 31.5q0 18 3.5 29t3.5 33q0 28 -5 53t-13 48.5t-19.5 46.5l-24.5 48q-1 1 -4 5.5t-7 9l-7.5 8.5t-4.5 4q-8 14 -14.5 31.5t-19.5 31.5q-1 2 -5.5 7t-10.5 10.5l-11.5 10.5t-7.5 6q-1 3 -9 15l-10 15 q-1 0 -4 2.5t-4 2.5zM137 497q0 37 5.5 71.5t15.5 67.5t22 65.5t26 66.5q1 1 3 7t4 13t4.5 12.5t3.5 7.5t5.5 8t10.5 13l11.5 13t7.5 7q1 2 3.5 8.5t6 14l6 13t3.5 6.5q10 16 20.5 29t21.5 25l23 24.5l25 26.5q6 6 9.5 14l7 15.5t7.5 14t11 10.5q2 3 8 5t6 4l6 6l11 11 l11 11l6 6q3 1 11.5 5.5l17.5 9t17 8t9 3.5q2 2 8.5 7.5l13.5 11.5t13 10.5t7 5.5q2 2 11 4.5t11 4.5q22 9 38 26.5t37 28.5q6 3 21 8.5t31.5 11t31.5 9.5t20 6q12 11 29.5 22t37.5 21.5t39.5 19t35.5 14.5l5 1t10.5 2l11 2t7.5 1q2 1 8 2.5t13.5 3t15 3.5t10.5 4q1 1 4 3 l6.5 4.5l7 5t4.5 3.5q14 4 34 4.5t37 0.5q16 0 24 -3.5t11.5 -9.5t4.5 -15t5 -20q2 -3 8 -11t8 -10v-14q0 -18 -10.5 -31t-24.5 -24l-15.5 -12.5t-11.5 -8.5q-3 -1 -13 -2t-22 -1.5t-22.5 -1.5t-12.5 -2l-8 -4l-13 -6.5l-13 -6.5t-7 -4q-2 0 -7.5 -1l-11.5 -2l-11.5 -2 t-6.5 -2l-13 -7q-2 0 -6.5 -3l-10.5 -7t-11 -7t-7 -3t-16 -2.5t-19 -4.5q-27 -11 -52.5 -25.5t-50.5 -31.5q-26 -16 -56.5 -26t-56.5 -28q-8 -8 -13 -19t-13 -16q-10 -6 -23.5 -11t-25.5 -12t-20.5 -16.5t-8.5 -24.5q0 -18 4 -36t7 -36q9 -4 9 -4.5t8 -0.5q20 0 43 -3t31 -3 h18q1 0 10 -3t11 -3q2 -1 9 -2.5t15 -4t15 -4t9 -2.5l21 -22q22 -17 44.5 -30.5t45.5 -31.5q4 -3 12 -11l16.5 -17l16 -17l10.5 -11q1 -1 3.5 -7t6.5 -13.5l7.5 -13.5t5.5 -7q0 -2 5 -7l10.5 -11t11 -11t7.5 -6q0 -2 2.5 -9.5t2.5 -12.5q1 -3 3.5 -17.5l5 -30.5t4 -30 t1.5 -17q0 -2 3.5 -7.5t5.5 -6.5q12 -50 12 -101q0 -15 -0.5 -34.5t-4.5 -32.5q-3 -2 -8.5 -7t-7.5 -5q-1 -3 -3.5 -11.5t-6 -18t-6 -17.5t-3.5 -10q-5 -8 -12 -23l-14.5 -30.5l-14 -28t-9.5 -15.5q-25 -39 -53 -66.5t-65 -53.5q-17 -11 -39.5 -19.5t-47 -14.5t-49 -9 t-45.5 -3q-17 0 -33.5 1t-36.5 6q-1 1 -12 6.5t-15 6.5h-24h-11q-4 0 -12 2t-17 4.5t-16 5t-8 2.5q-3 1 -11.5 6l-17.5 10.5l-17.5 10.5t-11.5 8q-5 4 -15.5 13.5l-22.5 21l-22.5 21t-13.5 13.5q-2 1 -8.5 8.5t-14 17.5l-15.5 20t-12 16q-7 10 -11 17.5t-6.5 15t-5 16.5 t-5.5 21l-15.5 61.5t-13 57t-9 59t-3.5 66.5z" />
<glyph unicode="7" horiz-adv-x="1079" d="M509 -356q0 10 3.5 17.5t8.5 14.5t9.5 14t7.5 16q1 1 2 7t2 13t1.5 13t0.5 8q1 2 3.5 8t4.5 13t4 12.5t3 6.5q1 3 6 13.5l11 22.5l11 21.5t7 11.5q0 2 1 8.5t2 14t2 13.5t2 8q0 2 4.5 10t9 17.5t9 17.5t4.5 10q1 2 2.5 10.5t4 18l4.5 17.5t3 9l39 121.5l36 121.5 q2 4 4 14.5t4 12.5q0 3 2 16.5l4.5 29.5l4.5 29.5t3 16.5q0 1 2 5t4.5 8.5t5 8.5t4.5 6q9 31 15.5 59.5t23.5 57.5q2 4 6 10.5l7 11.5q4 6 8 13v118q0 14 -5.5 22.5t-13.5 12.5t-19 5t-21 1h-17q-5 0 -23.5 1t-39.5 2.5t-39.5 2.5t-23.5 1h-2q-39 0 -77 -3.5t-77 -3.5h-52 q-8 12 -15 14t-16 2q-32 0 -59 -5.5t-53 -22.5q-5 -3 -12 -10.5t-11 -12.5l-7 -12q-2 -3 -10 -13.5l-17 -22l-17 -21.5t-11 -12q-7 -9 -13 -21t-14 -22t-18 -16.5t-24 -4.5q-24 3 -30.5 19.5t-6.5 35.5q0 12 1 22t1 18v31q0 20 1 38t6 39q1 0 3 5l4 10.5l4 11t3 7.5 q11 30 13 63t13 62q3 5 7.5 14.5t9.5 17.5q5 10 12 21q3 4 18.5 12.5t24.5 10.5h12q17 0 26.5 -9t22.5 -14q1 0 6 -0.5t11 -1.5t11 -1.5t6 -1.5q3 -1 14.5 -5.5t24.5 -9t24.5 -9t14.5 -5.5h70q1 0 10 -2.5t10 -2.5h89q6 -5 11.5 -6t12.5 -1q11 0 19 3.5t17 3.5h4 q36 -11 73.5 -13.5t76.5 -2.5q20 0 40.5 4.5t42.5 4.5h2q25 -5 47 -12.5t38 -20t25 -32t9 -48.5q0 -14 -9 -33.5t-13 -35.5q0 -2 -0.5 -8t-1.5 -12.5t-2.5 -13t-2.5 -8.5q-1 -1 -4 -8l-6.5 -15l-6.5 -15t-4 -8q-5 -25 -6.5 -48.5t-4 -45.5t-9 -43t-21.5 -40q0 -5 -2 -20.5 l-4 -32.5l-4 -33t-3 -23l-4.5 -14t-7 -24l-6.5 -24t-4 -14v-17q0 -17 1.5 -27.5t12.5 -24.5q-2 -3 -7 -9l-10.5 -12.5l-10.5 -12.5t-7 -9q-13 -17 -14.5 -40.5t-6.5 -42.5q0 -2 -3 -12.5t-7 -22.5t-7 -22t-3 -13v-20q-9 -56 -28 -111q-3 -5 -7.5 -17.5t-6.5 -17.5 q0 -1 -3.5 -7t-3.5 -8q-1 -1 -2 -5.5t-2 -10.5l-2 -11.5t-2 -7.5q0 -1 -3 -9l-6.5 -17l-6.5 -17t-3 -10q-2 -4 -4 -11t-4.5 -14l-4.5 -12.5t-3 -6.5q0 -1 1 -7.5t1 -11.5q0 -7 -2 -7q-2 -22 -7.5 -43t-16.5 -38t-27.5 -27.5t-40.5 -10.5h-24q-3 0 -4 3q-2 2 -3 4 q-6 9 -15 20t-16.5 23t-13 24.5t-5.5 24.5z" />
<glyph unicode="8" horiz-adv-x="1025" d="M291 979q0 -2 3.5 -13.5t3.5 -14.5t1.5 -15.5t2.5 -26.5t2 -26t1 -15q0 -1 3 -6t5 -7q21 -39 52.5 -61t77.5 -22q38 0 71 1t76 5q2 2 10 6.5t11 6.5q1 1 5 4.5t8.5 7t9 6.5t6.5 4q7 3 21.5 3t18.5 9l23.5 49.5t24.5 49.5q3 4 6.5 11t6.5 14t5.5 12t2.5 6v28q0 32 -6 58.5 t-17 51t-26.5 48l-33.5 49.5q0 2 -6 4.5t-8 2.5q-10 4 -26.5 10l-33 11.5l-29.5 9.5t-15 4q-1 0 -11.5 1t-15.5 1q-7 0 -20 -1t-15 -1t-8 -4q-3 -2 -6 -3q-1 0 -7 -1t-13.5 -2t-14 -2t-8.5 -2q-2 -2 -12.5 -10.5t-15.5 -10.5q0 -1 -5 -4t-10.5 -6l-11 -6t-7.5 -4l-3.5 -7 t-5.5 -12l-6 -14t-4 -11q-1 -1 -3 -6.5t-5 -12.5t-5 -13t-3 -8q0 -4 -2 -18t-5 -16q0 -2 -4.5 -6t-9 -8.5l-9 -9t-4.5 -6.5q-1 -1 -2 -9t-2 -18l-2 -20t-1 -15zM291 296q0 -24 5 -43t14.5 -35.5t22 -31.5l27.5 -32l22 -23q5 -6 5 -14t8 -13l41.5 -18t44.5 -10q50 0 84 8 t58.5 27t42.5 49t36 75q10 28 14.5 56.5t4.5 57.5q0 24 -1 49.5t-5 46.5l-2 6q-2 4 -4 7l-9.5 12.5l-13 17.5t-12.5 16.5t-8 9.5l-12 14t-15 15.5t-17 13t-16 5.5h-30q-2 0 -16.5 3.5t-31.5 5.5q-29 0 -61 -10.5t-57 -17.5q-13 -5 -17 -11.5l-11 -17.5q-1 -2 -4 -7t-3 -7 q-1 -1 -5 -4t-8.5 -6t-8.5 -6.5t-5 -4.5q-4 -2 -9 -7l-7 -7q-20 -38 -30.5 -82t-10.5 -87zM384 -21q-3 0 -12.5 3.5t-21 8.5l-22.5 9.5t-15 6.5q-3 1 -8 3.5t-10.5 6l-10 6.5t-5.5 5q-2 0 -6.5 4.5l-9 9t-8 9t-4.5 4.5q-2 1 -8.5 5.5t-14 9t-13.5 9t-7 6.5q-3 2 -9 7.5 l-13 12l-13 12.5t-7 8q-20 26 -29.5 53.5t-18.5 56.5q-2 2 -4 7t-5 9q0 2 -5 11t-7 17q1 2 3 5q4 6 4 8q2 7 7 20t7 15q0 2 2 11l4.5 20t4.5 22t3 16q0 2 1 10t2 17.5t2 17.5t1 11q3 11 12.5 18.5t15.5 15.5q7 9 17.5 21t22.5 24l23.5 23t21.5 17q2 1 12 5.5t22 10.5l22 11 t13 7q1 1 6 4t10.5 6t10.5 6t8 4l3 3q1 1 2 3v9q-2 2 -6 9.5t-6 9.5l-58.5 37t-57 40.5t-50.5 47t-38 57.5q-11 27 -17.5 61t-17.5 65q0 2 -5 16t-7 19v1q0 8 4.5 19t10.5 22.5l11.5 22l8.5 16.5q0 2 1 8.5t2 14t2 13.5t1 7q15 48 44.5 82t68 59t82 44l86.5 37q3 0 8 -1 t10.5 -2.5l9.5 -2.5t5 -1t10 3.5t10 3.5q26 4 43 6t40 2q26 0 57.5 -2t53.5 -6q61 -11 108.5 -50t85.5 -84q2 0 6.5 -3.5t9 -8t8 -8.5t4.5 -5q20 -23 25 -51t9 -55q2 -9 4.5 -23.5l5 -29t4.5 -25l2 -10.5q0 -3 -2 -11l-4.5 -18l-5 -19.5t-4.5 -14.5q-16 -61 -52 -101 t-86 -75l-22 -12.5t-30 -18l-26.5 -17t-11.5 -9.5v-5q29 -3 46.5 -17t31.5 -37q0 -4 5 -15t7 -13t11.5 -8t10.5 -7q13 -11 22 -23.5t16.5 -26t14.5 -27.5t16 -27q2 -2 10.5 -9.5t10.5 -9.5q0 -4 2.5 -19t4.5 -19q0 -1 2 -5.5t5 -10.5t5 -11.5t2 -7.5v-39q0 -25 -3 -55 t-9 -60.5t-15 -59t-21 -49.5l-57 -59.5t-63 -55.5t-71 -41.5t-81 -16.5h-7q-2 0 -10 3.5t-12 3.5z" />
<glyph unicode="9" horiz-adv-x="1022" d="M277 500l5 -182q1 -15 10 -34.5t21 -39t24.5 -36.5t22.5 -28q0 -3 6 -12t8 -11q1 -1 7.5 -8t14 -16t15 -17t10.5 -12l12 -12t10 -11q18 -14 44.5 -17t49.5 -3q21 0 36 8.5t27.5 22t22.5 29t21 30.5q2 2 9.5 11.5l15.5 20l15.5 20t9.5 12.5q2 6 6 16.5t6 17.5 q16 50 22.5 96t6.5 98v41q0 3 -2 10.5t-4.5 15.5t-4.5 15.5t-2 9.5q-1 2 -2 11t-2.5 19.5t-2.5 19.5t-2 12q0 5 -2 15.5t-5 12.5q-1 0 -7 8.5l-13.5 19.5l-15 22.5t-11.5 18.5q-6 6 -14.5 9t-12.5 10q-17 21 -31 35.5t-29.5 24t-34 15.5t-44.5 10h-15q-9 0 -20 -4.5 t-22 -10.5t-20 -13.5t-14 -13.5q-2 -2 -7 -9.5t-11 -15.5l-11 -15t-6 -8q-7 -9 -16 -19t-17 -20.5t-14 -21t-8 -22.5q-9 -35 -15 -64t-20 -61zM-85 -343q0 12 7.5 25t18 24t22.5 19t22 10q3 0 14.5 1l24 2t23.5 2t14 2q2 1 10.5 5l18 8.5l17.5 8.5t9 6q2 0 10 2.5t13 4.5 l5 1t10.5 2.5t11 2.5t7.5 1t10 6t9 6q3 2 14.5 4.5t13.5 4.5q8 3 15.5 9.5l15 13t15.5 12t16 6.5q2 0 9.5 1t16 2.5t16 2.5t8.5 1q2 2 10 7.5t9 8.5q3 0 11.5 3.5t18 8l18 8.5t10.5 5q1 2 6.5 7.5t5.5 6.5q2 3 4.5 12t3.5 11l5.5 5.5t9 10.5l8 11t3.5 7q3 0 3.5 8.5 t0.5 12.5t-0.5 12.5t-3.5 8.5q0 2 -12.5 9.5t-21.5 9.5q-2 1 -9 3l-15 4.5l-15 4.5t-8 4q-9 3 -21.5 12.5t-25.5 21l-25 23t-20 17.5q-1 2 -9 9l-17 15l-17 15.5t-10 10.5q-3 3 -9 8l-12 10.5t-10.5 10t-5.5 6.5l-1.5 4t-4 8.5l-5 9t-3.5 5.5q-4 9 -13 10.5t-14 10.5 q-1 1 -3 6.5l-4 11t-3.5 10.5t-1.5 7q-3 1 -5 6.5t-2 7.5q-16 23 -20.5 48.5t-4.5 51.5q0 14 1 29.5t1 30.5v89q0 4 3.5 12t3.5 10q12 27 19 54.5t16 54.5q1 4 4 9t3 7q1 1 10 6t10 8q1 0 4.5 4.5t7.5 9t7 9t4 4.5q48 55 106.5 83.5t128.5 48.5q2 0 8 2.5t13 5l13 4.5t8 2 q0 1 6.5 1h10.5q13 0 25.5 -4.5t24.5 -10.5l25 -12t27 -9h38h16q1 0 6 -2.5l9 -4.5l5 -7q5 -5 16 -12l14 -9q2 0 14 -2.5t14 -4.5q1 -1 9 -6t10 -7l33 -31.5t27.5 -29.5t23.5 -32.5t21 -38.5q0 -1 2 -6.5l4.5 -12.5t4.5 -14t3 -10q0 -1 0.5 -5.5t1.5 -10.5l2 -11.5t3 -7.5 q1 0 4 -4l6.5 -8.5l6.5 -8.5t4 -5v-12q0 -17 -4.5 -31.5t-4.5 -28.5q0 -16 4.5 -26t4.5 -25v-17q0 -2 -3.5 -9.5t-3.5 -9.5v-29v-69q0 -3 -3 -16.5t-6 -18.5q0 -2 -2.5 -10.5t-2.5 -10.5q-2 -3 -4 -12t-4 -19.5t-3.5 -19.5t-2.5 -11q-2 -4 -14 -14.5t-14 -14.5 q-15 -18 -24.5 -36.5l-18.5 -36.5t-20 -35.5t-28 -35.5q-33 -37 -67.5 -66l-71.5 -60l-6 -6t-10.5 -11.5t-10.5 -11.5t-7 -6l-9.5 -5t-17 -8.5t-18 -9t-11.5 -5.5l-4 -4.5t-8.5 -9l-9 -9t-5.5 -4.5q-2 -2 -7 -3t-11 -1.5t-11 -1.5t-6 -1q-8 -3 -12.5 -7t-8.5 -8.5l-8.5 -10 t-11.5 -9.5q-2 -2 -14 -8t-14 -6q-2 -1 -9 -5.5t-15 -9l-15.5 -8.5t-9.5 -4q-20 -12 -44.5 -24t-45.5 -20q-2 0 -14.5 -2t-14.5 -5q-2 0 -10.5 -2.5t-10.5 -2.5q-1 0 -9 -7t-10 -7t-9 -1t-16 -2.5t-18 -2.5t-14 -2h-40h-15q-3 0 -13.5 -6t-12.5 -6h-23q-10 0 -26.5 2.5 t-32 7t-27 12t-11.5 17.5z" />
<glyph unicode=":" horiz-adv-x="534" d="M134 782q8 19 17.5 32.5t21 24t25.5 19.5l31 19q11 7 14 8t12 1q4 0 20 -5.5t34 -13l33.5 -14.5t20.5 -10q25 -17 29.5 -35.5t4.5 -46.5v-7q-6 -33 -13.5 -58.5t-21.5 -43.5t-37.5 -27t-60.5 -9q-8 0 -11 1t-15 6q-5 3 -14 6l-18 6l-16 5.5t-7 3.5q-7 3 -12.5 11 t-10 17.5t-8 18t-4.5 13.5t-3 16.5t-4.5 23.5t-4.5 22.5t-2 15.5zM113 119q0 50 21.5 89t60.5 69q16 -7 29.5 -9.5t27 -3t28.5 -0.5t34 -1q2 -2 9.5 -4t9.5 -5q3 0 12 -6l20 -13.5l21.5 -15t15.5 -11.5q3 0 5 -3.5t4 -3.5q0 -3 1 -11t2 -17t2 -17t2 -11v-12 q0 -32 -18.5 -58.5t-43.5 -46.5l-11 -8l-13.5 -9.5t-11.5 -7.5t-6 -3h-90q-1 0 -6.5 2.5t-12 6l-13 7t-9.5 5.5l-5 5l-8.5 8.5t-9 8t-5.5 4.5q-18 16 -30 29.5t-12 42.5z" />
<glyph unicode=";" horiz-adv-x="604" d="M135 727q0 27 12.5 52.5t30.5 45.5q3 4 9 11t12.5 13.5t12 11.5t7.5 6q1 2 7.5 4.5t14.5 4.5l15.5 4t12.5 2q1 0 10 1t20 2.5t22 2.5t18 1h10h9l84 -83l13 -28q0 -2 1 -7.5l2 -11.5t1.5 -11.5t0.5 -8.5q0 -4 -0.5 -11.5t-1.5 -15t-2 -13l-1 -5.5q0 -2 -5 -9.5 l-11.5 -17.5t-14 -20t-11.5 -16q-8 -10 -21.5 -17.5t-28.5 -13t-30.5 -8t-28.5 -2.5h-16q-2 1 -10.5 2.5t-18.5 3.5l-19.5 4t-13.5 4l-7 3.5t-7 4.5l-33.5 23.5t-24 22.5t-14.5 28t-5 41zM128 -320v9q0 7 8 12q1 1 7.5 5l13.5 8.5t13 9t8 6.5q2 1 7 6l10.5 11l10.5 11t6 7 q2 1 11 3t12 2q19 8 35.5 27.5t28 43.5t18 48.5t6.5 44.5q0 5 -4.5 13.5t-9.5 10.5q-5 3 -15 7t-19.5 8.5l-17.5 8t-10 4.5h-26h-9q-1 0 -8.5 5t-11.5 9q-18 13 -32 25.5t-24 27t-15.5 31.5t-5.5 41q0 19 12 39t30 37.5t39 29t39 13.5h38h36q3 -2 14 -7.5t16 -8.5q2 0 11 -3 l19.5 -6.5l19.5 -6.5l12 -4q21 -7 29.5 -26t17.5 -35q0 -2 3.5 -4.5t3.5 -4.5q4 -1 15 -9t12 -10l5.5 -8.5t7 -12t6.5 -13t4 -9.5v-60q0 -29 -2.5 -52t-8 -43.5t-13.5 -41l-18 -45.5q-9 -20 -15.5 -36t-20.5 -33q-9 -11 -18.5 -24.5t-20.5 -26.5t-23.5 -24t-25.5 -17 q-7 -3 -24 -8.5l-36 -12l-36 -12.5t-24 -8h-31h-17q-8 0 -16 0.5t-12 5.5q-9 14 -12 21.5t-3 20.5z" />
<glyph unicode="&#x37e;" horiz-adv-x="604" d="M135 727q0 27 12.5 52.5t30.5 45.5q3 4 9 11t12.5 13.5t12 11.5t7.5 6q1 2 7.5 4.5t14.5 4.5l15.5 4t12.5 2q1 0 10 1t20 2.5t22 2.5t18 1h10h9l84 -83l13 -28q0 -2 1 -7.5l2 -11.5t1.5 -11.5t0.5 -8.5q0 -4 -0.5 -11.5t-1.5 -15t-2 -13l-1 -5.5q0 -2 -5 -9.5 l-11.5 -17.5t-14 -20t-11.5 -16q-8 -10 -21.5 -17.5t-28.5 -13t-30.5 -8t-28.5 -2.5h-16q-2 1 -10.5 2.5t-18.5 3.5l-19.5 4t-13.5 4l-7 3.5t-7 4.5l-33.5 23.5t-24 22.5t-14.5 28t-5 41zM128 -320v9q0 7 8 12q1 1 7.5 5l13.5 8.5t13 9t8 6.5q2 1 7 6l10.5 11l10.5 11t6 7 q2 1 11 3t12 2q19 8 35.5 27.5t28 43.5t18 48.5t6.5 44.5q0 5 -4.5 13.5t-9.5 10.5q-5 3 -15 7t-19.5 8.5l-17.5 8t-10 4.5h-26h-9q-1 0 -8.5 5t-11.5 9q-18 13 -32 25.5t-24 27t-15.5 31.5t-5.5 41q0 19 12 39t30 37.5t39 29t39 13.5h38h36q3 -2 14 -7.5t16 -8.5q2 0 11 -3 l19.5 -6.5l19.5 -6.5l12 -4q21 -7 29.5 -26t17.5 -35q0 -2 3.5 -4.5t3.5 -4.5q4 -1 15 -9t12 -10l5.5 -8.5t7 -12t6.5 -13t4 -9.5v-60q0 -29 -2.5 -52t-8 -43.5t-13.5 -41l-18 -45.5q-9 -20 -15.5 -36t-20.5 -33q-9 -11 -18.5 -24.5t-20.5 -26.5t-23.5 -24t-25.5 -17 q-7 -3 -24 -8.5l-36 -12l-36 -12.5t-24 -8h-31h-17q-8 0 -16 0.5t-12 5.5q-9 14 -12 21.5t-3 20.5z" />
<glyph unicode="&#x3c;" horiz-adv-x="902" d="M411 289l-21 24l-47 29t-12 7q-9 0 -16.5 7t-13 16.5t-9.5 19t-7 13.5l-15.5 7t-12 6t-10.5 8t-12 15l-52 54q-13 3 -30 11.5t-32 20.5t-25 27t-10 31q0 18 12.5 31.5t30 24t36 19.5t30.5 18q4 1 8.5 7.5l9 13t9 12t9.5 5.5q10 10 17.5 16t13 10t11 8.5t13.5 12.5 q5 4 6 8.5t1 6.5q0 8 14 20l50 15l54 54q10 0 20 2q4 1 8 3q5 2 7 8.5t10 8.5l27.5 20.5t15.5 11.5l9 6q11 1 21.5 13t21 26l20 26t18.5 15q13 5 19.5 10.5t11 11.5t8.5 12t13 13q25 17 52.5 25.5t49.5 25.5q11 -6 20.5 -20t9.5 -30q0 -20 -7.5 -30.5t-18.5 -18.5t-24 -16 t-25 -23q-8 0 -21.5 -8.5t-28 -19.5t-27 -21.5t-18.5 -14.5q-3 -1 -9 -6l-13 -11l-13 -11.5t-7 -7.5l-53 -37q-6 -6 -13.5 -14.5t-16 -17t-17.5 -14.5t-19 -6h-5q-2 -4 -6.5 -15t-9.5 -14q-2 -2 -5 -3q-6 -2 -7 -2q-18 -5 -25.5 -16t-20.5 -19q-20 -15 -34.5 -24l-27 -17 l-26 -17t-32.5 -25q0 -13 9.5 -24.5t18.5 -11.5q34 -22 61 -44.5t58 -45.5q0 -2 7.5 -5.5t10.5 -4.5q2 0 11.5 -7l21.5 -15.5l22.5 -16t14.5 -8.5q9 -16 14 -20t9.5 -4.5t10.5 -2t17 -11.5q3 -5 13 -17t22.5 -24.5t24.5 -22t19 -9.5l37.5 -26t35.5 -27t24 -23.5t26 -18.5 l27.5 -15.5t30 -19t24.5 -24t10 -31.5q0 -11 -6.5 -26.5t-18 -29.5t-26.5 -24t-32 -10q-14 0 -26.5 11t-25.5 20q-8 5 -21 6.5t-26 9.5l-38 50l-19 9q-9 5 -16.5 14.5l-15.5 20.5t-18.5 21.5t-25.5 17.5q-8 3 -19.5 12t-22 18.5l-18.5 17t-9 7.5z" />
<glyph unicode="=" horiz-adv-x="933" d="M138 310q-5 1 -5 19v20q0 14 0.5 34t5 39.5t14.5 34.5t28 19h49q10 0 19 3l18 6t18.5 5.5t20.5 2.5l57 -12q16 0 23.5 2.5t17.5 2.5q17 0 35 -3t36 -7q14 -7 28 -9.5t28 -2.5q27 0 54 8.5t55 8.5l39 -5q8 0 14.5 2.5t12.5 6t12.5 6t14.5 2.5q23 0 44.5 -9.5t35.5 -30.5 v-26q0 -15 -1.5 -27.5l-3 -24.5t-3 -25.5t-1.5 -32.5q-7 -15 -18 -24t-24 -14.5t-26 -7t-25 -1.5l-104 7q-69 0 -138 -1.5t-139 -3.5q-29 -2 -59.5 -10t-61.5 -8q-11 0 -22.5 5t-21.5 12.5t-17.5 17.5t-9.5 21zM121 663v41q0 14 0.5 34t5 39t14.5 32.5t28 15.5h47 q10 1 19.5 4.5t18.5 7.5t19 7.5t22 3.5q16 0 27.5 -9t29.5 -9l40 7q17 0 33.5 -3t32.5 -7q17 -4 31.5 -6.5t27.5 -2.5l111 12l39 -5q8 0 14 3.5t12 8t12.5 8t15.5 3.5q22 0 43 -12.5t35 -32.5v-19l-7 -104v-26q-16 -20 -42.5 -27.5t-52.5 -7.5l-104 11q-70 0 -138.5 -2 t-136.5 -7q-29 -2 -61 -7t-62 -5q-8 0 -19.5 4.5t-23 12t-20 17t-11.5 20.5z" />
<glyph unicode="&#x3e;" horiz-adv-x="900" d="M491 296h-28q-2 0 -10.5 -7.5l-19.5 -17t-24 -19t-24 -12.5q-11 -7 -19.5 -17.5t-16 -21t-15.5 -20t-18 -15.5l-17 -5l-40 -54q-11 -5 -25.5 -6t-23.5 -8q-11 -10 -24 -19.5t-26 -9.5q-18 0 -32.5 9.5t-25.5 23t-17 28.5t-6 27q0 18 9.5 31t23.5 23t29.5 18t27.5 16 q19 10 26 20.5t24 24.5l36.5 25.5l36.5 25.5q8 0 20 9.5t24 21.5t21.5 24.5t13.5 18.5q11 10 17.5 11.5t11.5 2t10 4t13 18.5q1 3 12 11.5t24 16.5l23.5 14.5t11.5 6.5q4 0 9 5l7 7l57.5 44t63.5 44q8 0 17.5 11t9.5 25q-19 16 -32.5 26t-26.5 17.5l-27.5 16t-35.5 23.5 q-12 8 -19.5 19t-24.5 18q-4 0 -7 1q-3 0 -7 1q-6 8 -9.5 18.5t-12.5 10.5q-10 0 -19 6.5t-17 15.5l-15 17.5t-11 12.5l-54 41q-2 0 -8 4.5t-12.5 10l-12.5 10.5t-8 7q-7 4 -20 14.5l-27.5 21.5t-28.5 20t-23 9q-11 15 -23.5 23l-23.5 15.5t-18.5 18t-7.5 30.5 q0 17 10.5 30.5t20.5 21.5q10 -9 23 -15.5t26.5 -12l27 -11.5t24.5 -15q8 -6 13 -12t9.5 -12t11.5 -11.5t19 -9.5q7 -3 16.5 -15l20.5 -26t22.5 -26t22.5 -14q1 0 3 -1q4 -2 4 -3q19 -14 29.5 -23t16.5 -15l9 -9t7 -5h28q10 -9 23.5 -26.5t27.5 -28.5q25 -12 38 -20 t19.5 -14t8.5 -11t5 -9q7 -6 13.5 -10t13 -7.5t14 -9.5t16.5 -16q3 0 8 -5.5t9.5 -13t9.5 -14t8 -8.5q12 -8 30.5 -16.5t35.5 -20t29 -25.5t12 -32q0 -15 -10 -30t-24 -27t-30.5 -21t-28.5 -12q-6 -1 -14 -9.5t-15 -18t-13.5 -17t-9.5 -7.5q-14 -20 -24 -24.5l-26 -11.5 q-3 -4 -8 -13.5t-11 -19t-13.5 -17t-16.5 -7.5q-1 0 -5 -2q-2 -1 -5 -2q-13 -2 -23.5 -7.5t-21.5 -16.5z" />
<glyph unicode="?" horiz-adv-x="750" d="M164 391q0 3 1 13t2.5 21.5t2.5 21.5t1 13v327q11 20 29 35t40 15q13 0 21.5 -3t20.5 -12q24 -11 46 -11q23 0 50 11q5 1 15.5 5.5t12.5 6.5q12 6 19.5 10.5t13 9.5t11 12l13.5 18q2 2 6.5 8t5.5 6q3 2 12 3.5t11 1.5q2 3 6 8.5t6 7.5q13 20 27 49.5t14 59.5v1 q0 2 -2 7.5t-4 8.5q-17 24 -27.5 53l-22 58t-26.5 55.5t-40 46.5q-5 4 -15.5 9t-12.5 5q-20 -5 -40.5 -6t-42.5 -1q-21 0 -41.5 1t-43.5 6q-14 2 -27.5 13t-25 26.5t-18.5 32.5t-7 30q0 40 13.5 66t37.5 41.5t56.5 21.5t69.5 6q17 0 43.5 -1t44.5 -8q3 -1 13.5 -5.5 t22 -10.5t21 -11.5t12.5 -7.5q13 -6 27 -9.5t23 -17.5q1 -1 2.5 -5.5l3.5 -10.5l4 -11.5t2 -7.5q17 -26 36.5 -49t26.5 -55q1 -1 2.5 -8t2.5 -15t1.5 -15t0.5 -8q3 -12 10 -23.5t14.5 -22.5t13 -22t5.5 -24q0 -20 -4.5 -39.5t-4.5 -40.5q0 -20 1 -34.5t8 -39.5 q0 -2 3.5 -9.5t3.5 -9.5v-7v-9q-2 -8 -4.5 -22t-4.5 -28t-4 -25t-3 -13q0 -1 -2.5 -6.5t-6 -11.5l-6.5 -11t-4 -6q-2 -2 -4.5 -7.5t-2.5 -7.5q-1 -2 -4 -13t-4 -15q0 -2 -6 -9.5t-6 -9.5q-3 -4 -8.5 -14.5t-5.5 -13.5q-2 -2 -4.5 -11t-4.5 -11q-11 -14 -25.5 -28t-32 -26.5 t-36 -21.5t-37.5 -12h-16h-38q-2 -1 -7.5 -3t-11.5 -5t-10.5 -5t-5.5 -3h-57q-13 -5 -16 -20.5l-5 -26.5v-51v-52q2 -20 8 -39t6 -39q0 -16 -6.5 -32t-17.5 -29.5t-25.5 -22t-29.5 -8.5q-14 0 -25 7t-18.5 18.5t-11.5 25t-4 27.5zM115 52q0 3 -1 12l-2 18.5l-2 18.5t-1 13v7 v14q0 14 2 30t10 25q29 28 66.5 42t76.5 14q23 0 41.5 -13.5t32 -33t21 -42t7.5 -41.5q0 -20 -6.5 -34.5t-17.5 -25.5t-25 -20l-29 -19q-1 0 -6 -4.5t-11 -9t-11 -9t-6 -4.5h-9q-16 0 -34 5.5t-35.5 14t-33.5 19.5t-27 23z" />
<glyph unicode="@" horiz-adv-x="1554" d="M589 502q0 -14 4 -24.5t15 -15.5q4 -4 9 -7t10 -3q26 0 44.5 10.5t36.5 28.5q14 12 34.5 32l40.5 39l47 47l83 111l43 46l47 96l20 79q0 2 1 5.5t1 4.5q0 8 -2 18t-8 15l-2 4l-2 4l-3 3h-4q-4 0 -5 1h-7t-5 2h-16l-3 -2q-3 0 -10.5 -3.5l-16.5 -7.5l-17.5 -8t-12.5 -5 q-5 -1 -7.5 -3.5t-4.5 -6.5q-3 -2 -12 -10l-20 -17.5l-20 -17.5t-12 -10l-9 -11h-12l-76 -81q-13 -13 -16 -30q-2 -5 -3 -11t-4 -11q-8 -13 -18 -22t-18 -20l-5.5 -8.5l-7 -11.5t-6.5 -10.5t-3 -5.5l-64 -114v-9q-2 -14 -3 -29.5t-1 -30.5zM830 417q1 3 4 9l6.5 13.5 l6.5 14.5t5 10q7 10 7 29q-1 2 -1 5q-1 2 -1 4.5v4.5q0 4 -5 11.5t-12 7.5q-3 0 -4 -1l-3 -3q-2 0 -4.5 -1.5t-4.5 -1.5q-2 -2 -2.5 -3t-2.5 -2t-3 -2l-5 -5t-9 -8.5t-9.5 -9t-6.5 -5.5l-59 -38q-2 -3 -7 -8l-10.5 -10.5l-10.5 -10.5t-8 -7q-23 -25 -58.5 -40.5t-67.5 -20.5 h-30q-15 0 -29.5 0.5t-28.5 5.5q-2 0 -4.5 2t-4.5 5q-21 11 -35.5 32t-21.5 45q-4 14 -4.5 24.5t-0.5 24.5v22q0 14 4.5 28.5t10.5 28.5q14 34 30.5 66.5l33.5 63.5q7 8 12.5 17t10.5 16q0 1 2 7q1 2 3 5q4 4 11.5 13.5l15.5 19l15 18t10 11.5q4 8 13.5 11.5t14.5 9.5l84 71 l2 4q1 1 2 3l10 10.5l17 19l17 20t11 12.5q2 2 5.5 4.5t5.5 4.5l1 2h6q2 0 5 1q8 2 13.5 6.5t10.5 11.5q39 31 78 49t90 27q15 4 31.5 4.5t33.5 0.5h9q11 -2 17 -7t14 -7q6 -3 11 -3h24l2 1q9 7 14 14l11 16l27.5 24.5t33.5 11.5h12q14 -14 20 -31.5t6 -35.5q0 -32 -11 -57 t-25 -51q-3 -9 -4 -16.5t-3 -15.5q0 -7 -4 -11l-110 -226q-2 -5 -2 -7.5v-6.5v-7.5t-2 -8.5l-16 -35t-17 -36v-3q-2 -8 -4 -13l-3.5 -9t-2.5 -6q-2 -4 -5.5 -9t-3.5 -13q0 -9 2 -18.5t14 -9.5q11 0 20 6t18 13l112 64l6.5 4.5t7.5 4.5l59.5 51.5t54 56t41.5 62t22 70.5 q4 17 5.5 36.5t1.5 38.5q0 13 -3.5 29t-5.5 33l-41 100t-40 76h-2l-71 97q-32 12 -55 29.5t-51 32.5q-34 21 -61 35.5t-54 18.5q-15 -2 -22.5 -3.5t-12.5 -1.5h-17h-13t-13 -2l-37 17q-29 0 -60 -4.5t-52 -27.5q-62 -6 -105 -18.5t-75.5 -34t-59.5 -53t-58 -76.5l-27 -28 l-38 -57q-7 -7 -10 -18t-3 -20l-50 -124q-5 -11 -8.5 -26t-6 -30t-4 -29.5t-3.5 -25.5q-1 -5 -4.5 -14.5l-7.5 -21l-7.5 -22.5t-3.5 -18q5 -84 25.5 -151.5t47.5 -123.5q8 -11 11 -25t7.5 -29t13 -30t27.5 -27q11 -23 26 -48t36 -40q13 -11 23.5 -22t20.5 -23.5l21.5 -26 t28.5 -27.5q12 -2 27 -6.5t29 -9.5l26 -9.5t18 -5.5l62 -19l94 2q24 4 43.5 5.5t35.5 1.5q30 0 46.5 -3t24.5 -3q7 0 12 -2.5t21 -2.5q13 0 22 2.5t16.5 6.5t16.5 8t23 6q2 2 21 13.5t42 24l42 23t21 10.5q32 0 43.5 -8.5t11.5 -21.5q0 -17 -14.5 -36.5t-24.5 -30.5 q-14 -21 -24 -33t-18 -17.5t-14.5 -7t-13.5 -1.5q-13 0 -23.5 -3t-21.5 -8q-26 -11 -57.5 -20t-71.5 -9l3 2q-6 -2 -17 -2h-23h-136h-26.5t-18.5 2q-30 0 -60.5 4.5t-61.5 11.5t-61 14.5t-59 12.5q-2 0 -7.5 2.5t-6.5 4.5l-58.5 42t-62.5 38l-35 6q-5 1 -22 15l-36.5 31 t-35.5 33.5t-18 23.5l-80 140q-8 19 -21 58t-25 82t-21 81.5t-9 56.5q0 11 3.5 16.5t3.5 16.5l-7 59q0 22 5.5 56t12 70t13.5 68t10 52q1 6 8.5 20t12.5 19q10 12 15 24t8.5 24.5t7.5 24.5t12 24q5 9 11.5 13.5l12 8.5t9.5 10t4 17l119 121l85 43q2 2 5.5 6.5t8.5 9.5l50 17 l135 66l263 52h57l52 -25l26 4l71 -24l27 -10.5l40 -16t39.5 -17t26.5 -14.5q13 -13 23.5 -22.5t21 -17l22 -15t25.5 -15.5q9 -5 25.5 -25t33 -43.5t29.5 -45t15 -28.5q3 -13 3 -25t1 -22t5.5 -19t16.5 -16l16 -71.5l14.5 -70t10.5 -56t4 -28.5q0 -23 -4.5 -35t-9.5 -31 q-14 -22 -25 -36t-11 -25q-14 -18 -20.5 -32l-13 -27t-15.5 -25.5t-27 -27.5l-59.5 -47.5t-45 -32.5l-45 -28l-58.5 -34l-65 -55l-9 -7q-2 -2 -10 -9t-11 -8q-9 -8 -19 -10.5t-21 -7.5q-15 -11 -28 -24t-29 -21l-34 -10h-4l-65 10q-2 1 -5 2l-4 2t-4 1q-4 5 -11 10t-9 9 q-7 10 -9.5 19t-2.5 20v10z" />
<glyph unicode="A" d="M472 711v-2l3 -12t2 -10q7 -13 15.5 -25.5t18 -22t22 -15.5t28.5 -6q19 0 35 7.5t35 7.5q18 0 34.5 -4t34.5 -4h7q4 1 10.5 4t13 6.5l12 6.5t7.5 3q5 5 6 19t1 21q0 25 -11.5 50.5t-17.5 48.5l-28 90.5l-28 90.5l-4.5 13.5l-8 24l-8.5 26.5t-6 19q-2 3 -5 11t-6 17t-6 17 t-4 11q-4 11 -5 13t-9 2q-9 0 -16 -7.5t-12.5 -17.5t-9 -21t-4.5 -18v-20q0 -2 -3.5 -8l-7 -12.5l-7 -12.5t-4.5 -7q0 -3 -0.5 -12.5t-1.5 -20.5t-2 -20t-1 -11q-5 -21 -18 -42t-17 -41q0 -2 -1 -9t-2 -15.5t-2 -15.5t-2 -9q-1 -1 -4 -7l-6.5 -13.5t-7 -14t-4.5 -8.5l-2 -16 l-2 -14t-1 -12v-3zM1221 -7h-113q-2 0 -12.5 1t-23.5 2.5t-24 2.5t-14 1q-16 0 -53.5 1t-79.5 1q-44 0 -81 -1t-51 -1q-8 7 -14.5 15.5t-6.5 19.5q0 9 2 12.5t7 14.5q0 3 3.5 11t8.5 10q2 0 8.5 1l13.5 2t13 2t7 2q3 1 9 5l13 9l13 9t8 5q1 1 6.5 2.5t12.5 2.5t13.5 1.5 t8.5 0.5t4 3q1 1 2 3v35q0 27 -5 54t-12.5 53.5t-15.5 52t-14 49.5q-1 3 -3 13t-5 22t-5 22t-3 13q0 2 -2 7l-4 10.5l-4 10.5t-2 6q-3 9 -6 19t-7.5 19t-11 15.5t-16.5 8.5q-4 1 -11.5 2.5t-15.5 2.5t-14.5 1.5t-9.5 0.5l-6 -4q-3 -2 -6 -3q-4 -1 -11 -3t-11 -2h-55 q-37 0 -75.5 -1.5t-70.5 -6.5q-2 0 -8 -4q-3 -2 -6 -3q-5 -1 -16.5 -2t-25 -2t-25.5 -2t-16 -1l-7 -7l-27 -152q-14 -16 -20 -33.5t-8 -36.5t-2.5 -38t-4.5 -38q0 -4 -7 -15t-8 -12l8 -16q2 -2 6.5 -9.5t5.5 -9.5q3 -1 11.5 -3t17.5 -4.5t17 -5l11 -3.5q16 -4 39 -9 t43.5 -14.5t35 -24.5t14.5 -38v-17q-1 -2 -4.5 -6.5t-8 -9t-8.5 -8t-7 -4.5q-12 0 -39.5 -1t-58 -2.5t-58 -2.5t-39.5 -1h-139h-138q-2 2 -4 7.5t-5 8.5q-2 14 -7 34t-5 38q0 14 15 20.5t27 10.5q1 0 7 0.5t13.5 1.5t14 2t8.5 2q10 4 25.5 12l30.5 15.5l26.5 13.5t12.5 7 l10 16v97q10 1 17.5 15.5t13.5 32.5t11 36t10 26q1 1 5.5 5l9.5 8.5t9 8.5t4 6q1 1 2 9t2 17.5t2 18t1 10.5q2 4 6.5 15t9.5 15l12 116q14 20 18.5 44l8.5 47q3 3 5 11t2 10q2 2 8 9.5t8 9.5q1 3 2.5 11.5t3.5 18.5t3.5 19.5t2.5 14.5v28q1 3 5.5 11t9 17t9 17t5.5 10 q1 1 3 7.5l4 13.5t3.5 13t1.5 8q2 3 5.5 11t7 17t6 17.5t4.5 11.5q11 29 17.5 64t17.5 67q9 26 23.5 50t15.5 54q2 2 2 10t-1 18.5t-1 13.5q1 2 6 10l10.5 17t9.5 17t4 11v15v39q1 4 6 14.5t8 14.5q4 2 8 5l6.5 4.5t5.5 4.5q16 10 28.5 19t25 16t27 11t34.5 4q5 0 19 -1 t19 -1l20.5 -18t13.5 -23q12 -41 15.5 -81t14.5 -78q0 -3 2 -9q1 -3 3 -5q2 -5 4.5 -12t2.5 -9v-35q5 -22 14 -43t13 -41q1 -3 3.5 -15t5 -26t4 -26.5t1.5 -15.5q1 -2 3 -8l4.5 -13l4.5 -13t4 -6q2 -10 7.5 -33l12 -48.5l12.5 -48t8 -31.5q34 -57 49 -118.5t27 -125.5 q1 -2 4 -9.5t4 -9.5q17 -43 31.5 -84.5t31.5 -83.5q-1 -3 -2 -10l-2 -14.5t-2.5 -14t-2.5 -9.5v-9v-5q1 -2 5.5 -8t9 -13l9 -13.5t5.5 -8.5q13 -22 19 -43.5t13 -41.5t17.5 -38.5t33.5 -34.5q0 -2 3.5 -4.5t3.5 -4.5q5 -1 15.5 -7t12.5 -6q3 -1 16.5 -3t29 -4t29 -3.5 t17.5 -1.5q4 -2 11 -6t14 -8.5t11.5 -9.5t4.5 -11q0 -3 -3.5 -16.5t-9 -28.5t-11.5 -27t-10 -13h-23h-12q-8 0 -14.5 1t-14.5 6z" />
<glyph unicode="B" horiz-adv-x="1296" d="M502 932q0 -34 9 -60.5l20 -58.5q7 -15 12 -27.5t12.5 -22t20 -14.5t33.5 -5h5q2 1 8.5 4.5l13.5 7t13 7t7 3.5q3 1 12 2t19.5 2t19.5 2t11 1q11 1 27 9t32 18.5t30 22t22 20.5q9 8 14 15t9 14.5l8 15t12 17.5q0 2 9.5 10.5t9.5 10.5q4 4 9 14.5l7 14.5q0 2 1.5 13 t4 25.5t4.5 28.5t4 21v11v10q0 3 -1 9t-2 13t-2 12.5t-2 6.5q-4 14 -12 18.5t-16 16.5q-2 2 -7 14t-7 14l-10.5 11l-16.5 17l-17 17.5l-11 11.5q-12 9 -36.5 21t-52 22.5t-52.5 18t-37 7.5q-26 0 -46 -1.5t-48 -5.5q-8 -14 -12 -29t-5.5 -31t-1.5 -32t-1 -32 q-2 -23 -12.5 -40.5t-10.5 -36.5q0 -20 4.5 -37t4.5 -37q0 -21 -4.5 -40t-4.5 -40zM511 112l64 -39q0 -4 10 -4q21 0 44 3t41 6q10 1 25 3.5t29 4.5t24.5 4t11.5 2q3 0 10 5.5l15 11.5l15 11.5t10 5.5q23 16 47.5 37.5t44.5 46.5t33 54t13 61v11q0 1 -3.5 12.5t-3.5 13.5v70 q-3 6 -6 11q-2 5 -4.5 9t-4.5 6q0 3 -2.5 5t-2.5 4q-2 2 -6 10l-8.5 17.5t-9 17.5t-6.5 10q0 1 -3 5t-7.5 9.5l-9 11.5t-7.5 9q-8 11 -20.5 17.5t-21.5 17.5q-1 1 -3.5 5.5t-6 9t-6 8.5t-3.5 4q-29 23 -67.5 32t-72.5 19q-2 0 -10 2t-17.5 4t-17.5 4t-9 2q-2 0 -14 0.5 t-19 0.5q-4 0 -15.5 -0.5t-15.5 -0.5q-1 -2 -6.5 -10t-7.5 -9l-5.5 -11t-6.5 -14l-5.5 -12.5t-2.5 -6.5q-1 -3 -2 -13t-2 -21.5t-2.5 -21.5t-2.5 -13q-2 -26 -7 -51t-5 -53v-22q0 -2 1 -9.5t2.5 -17t2.5 -17.5t1 -10q0 -13 1 -44t1 -65q0 -35 -1 -65t-1 -42zM94 -5 q-12 2 -20 10t-8 19t2 26.5t10 22.5q3 0 10.5 1.5t12.5 3.5q4 0 13.5 1t21 2.5t21 2.5t13.5 1h69q6 0 17 2.5t21.5 6.5t19 8.5t11.5 9.5q1 3 2.5 11.5l3 17.5t2.5 17.5t1 11.5q0 1 -4.5 12.5t-4.5 12.5t1.5 7.5t3 14t3 14t1.5 8.5v34q0 45 -8 87t-8 86v7q0 1 1 6.5t2.5 11 t2.5 10.5t1 7v40v100q1 3 3.5 13.5l5.5 23.5t5 24.5t2 14.5q0 2 -3.5 13t-3.5 15v7v20q-2 2 -8 10t-8 9v6v1q2 5 8 15.5t8 12.5q4 23 4.5 43.5t0.5 43.5q0 26 1.5 51.5t12.5 50.5q0 5 0.5 18t0.5 27.5t0.5 27.5t0.5 18q0 9 -0.5 23.5t-0.5 29t-0.5 25.5t-0.5 12 q0 2 -0.5 9.5t-1.5 16t-2.5 16.5t-2.5 12q-2 13 -4.5 25t-16.5 18q-6 0 -23 1l-35.5 2l-35.5 2t-23 2q-4 0 -11.5 1l-15.5 2t-14.5 2t-7.5 2q-2 1 -7.5 3.5t-12 6l-12.5 6.5t-9 5q-5 2 -12.5 10l-10.5 11v5q0 18 9.5 34t25.5 23h98q121 0 239 -8t239 -8q6 0 21 0.5t31.5 0.5 t31.5 0.5t21 0.5q5 2 12 4.5t11 2.5q1 0 7 -4q3 -2 5 -3q3 -1 11.5 -3t18 -4t17.5 -4t10 -3q1 0 5 -2t9 -5t9 -5t5 -2q32 -14 60 -27.5t59 -34.5q9 -6 13 -11t7 -10.5t6 -12t9 -16.5q15 -29 25.5 -47t17 -36t9.5 -40.5t3 -58.5v-22q0 -38 -3.5 -82t-17.5 -76q-2 -1 -7.5 -9 t-11 -17l-10.5 -17t-5 -10q-5 -8 -8.5 -15l-6.5 -13t-7.5 -12t-12.5 -11q-16 -9 -33 -16.5l-33.5 -15.5t-32 -18t-27.5 -24q6 -11 15.5 -16.5t20 -9t21 -6.5t19.5 -9q13 -11 27.5 -19t27.5 -16q35 -27 58 -68t41 -79q16 -34 25.5 -66t9.5 -71v-8q-10 -42 -26 -89.5 t-38 -85.5q-7 -11 -13 -18t-12.5 -13.5l-14 -13.5t-16.5 -17q-2 -2 -8 -9.5l-12.5 -15.5l-12.5 -15t-8 -9t-12.5 -6.5t-15.5 -8.5l-20 -6.5t-29.5 -10l-29 -10.5t-18.5 -8q-10 0 -35.5 -0.5t-54.5 -1.5t-54.5 -1.5t-35.5 -1.5q-3 0 -14.5 -1t-24.5 -2.5t-24.5 -2.5t-14.5 -1 h-7q-6 0 -10 1t-10 6h-19q-33 0 -63.5 4t-63.5 4q-18 0 -34.5 -2t-34.5 -6q-2 0 -8 -3.5t-7 -3.5h-2q-12 0 -23 3.5t-22 3.5q-23 0 -43.5 -3.5t-43.5 -3.5q-36 0 -69.5 1.5t-73.5 5.5z" />
<glyph unicode="C" horiz-adv-x="1362" d="M127 562l-16 28q0 1 -1.5 15l-3.5 32.5l-4 38.5t-3 33v12v16q1 13 4 41l6 56.5t6 52.5t5 30q6 45 28.5 84t47.5 75l15 22l23 34l23 33.5l15 21.5q23 13 43 29.5t39 34l38 35t39 32.5q4 4 12.5 9t10.5 7l4 1t8.5 2.5t9 2.5t5.5 1q3 0 15 4.5t26 9t26.5 9t15.5 4.5 q34 10 72.5 12t76.5 2h80h84q4 -1 15 -4l23 -6l23 -6t16 -4l61.5 -26t62.5 -23h2q15 0 29 4.5t27.5 10t27 10t27.5 4.5q10 0 13.5 -12t3.5 -26q0 -10 -1 -19t-1 -15q0 -4 2 -14t2 -12v-55v-21q1 -15 5 -28.5l8 -27t7.5 -27t3.5 -28.5q0 -20 -1 -38t-6 -33.5t-15.5 -27.5 t-29.5 -20q-5 -3 -15.5 -6t-12.5 -3l-57 29l-2 6q-2 6 -3 8l-10 29.5l-14.5 44l-14.5 44t-9 28.5q-3 3 -9 11l-12.5 17l-13 17.5t-9.5 11.5t-10 9.5l-14.5 13t-14 11.5t-7.5 5q-2 1 -10.5 2.5t-18 2.5t-18 1.5t-11.5 0.5q-1 0 -9 3.5t-10 5.5h-25h-9q-4 0 -9 8.5t-7 10.5 q0 4 2.5 13t2.5 11q-4 0 -15 2.5t-16 2.5h-1q-2 0 -7 -6.5t-7 -6.5q-4 -3 -15 -9.5t-13 -6.5h-55q-3 0 -11 -2.5t-10 -2.5h-10q-10 0 -19.5 2.5t-18.5 2.5q-12 0 -29.5 -6t-26.5 -13l-13 -13.5l-22 -22.5l-22.5 -22l-13.5 -13q-2 -2 -5 -3q-2 -2 -4 -2.5t-3 -1.5 q-2 -1 -7 -5l-10.5 -8.5t-10.5 -9t-6 -5.5q-5 -6 -15 -20l-21.5 -30.5t-21 -31.5t-12.5 -21q-1 0 -3.5 -6.5l-6 -15.5t-6.5 -18t-6 -14q0 -2 -1.5 -8.5t-4 -14l-4.5 -13.5t-2 -7q-2 -2 -5.5 -9t-7 -15l-6.5 -15.5t-4 -9.5v-55v-22q0 -3 -1.5 -10t-3.5 -14.5t-4 -14t-3 -8.5 v-154q8 -12 7.5 -23.5t4.5 -25.5q0 -2 3 -3l4 -2q14 -30 17.5 -65.5t10.5 -67.5q0 -2 3.5 -7t3.5 -7l23.5 -53.5t24.5 -51t30 -47.5t41 -43l26 -19t29 -16q3 -1 12.5 -2.5t20 -3.5t19.5 -3.5t11 -2.5q3 -2 8 -7l10.5 -10.5t10 -10.5t5.5 -7q3 -1 13 -2.5t21 -2.5t21.5 -1.5 t14.5 -0.5q2 0 8 -1.5t13 -3t13 -2.5t7 -1q30 2 61.5 17.5t49.5 37.5q2 3 4.5 8.5t3.5 5.5q5 7 12.5 8.5t15.5 1.5q7 0 12.5 -0.5t10.5 -0.5h3q2 0 8 2t8 5q1 2 6 7.5l10.5 12l10.5 12t7 7.5l5 10l8.5 16.5l8.5 15.5t6 9q13 19 25.5 34.5t22.5 41.5q8 20 15.5 48t12.5 49 l1 5t2.5 11t2.5 11.5t1 6.5q7 32 26.5 50.5t51.5 18.5q20 0 33 -8t21 -20.5t11.5 -29t3.5 -32.5q0 -11 -1 -20.5t-8 -20.5v-154q5 -5 7 -9t2 -10v-7l-4 -11.5l-6.5 -18.5l-6.5 -19t-5 -13q-2 -5 -4.5 -9.5t-2.5 -6.5q-18 -13 -37 -18t-37.5 -8t-37 -7t-35.5 -14 q-2 -2 -8 -7.5l-12.5 -11l-12.5 -10.5t-7 -5q-23 -17 -48 -30.5t-51 -19.5l-99 -28t-103 -14q-32 0 -66.5 3t-69.5 8.5t-68.5 13.5t-63.5 17q-11 3 -17 9t-10.5 13l-9.5 14.5t-14 13.5q-2 1 -11 6l-20 11.5l-21.5 13t-16.5 9.5l-9 4.5t-5.5 3t-5.5 5t-7 9.5q-1 1 -5 6.5 t-8.5 13t-9 14t-5.5 8.5q-2 1 -7 6l-10.5 10.5l-11 10.5t-6.5 7q-1 1 -4.5 6.5t-8 11.5t-8.5 12.5t-5 9.5q-24 40 -41 75t-28 69.5t-16.5 72t-5.5 82.5z" />
<glyph unicode="D" horiz-adv-x="1526" d="M504 362q1 -7 2 -24l2 -35.5l2 -35.5t2 -23q2 -21 5 -41t9 -38.5t17.5 -34t29.5 -26.5h43h41q2 1 8.5 3l13 4t12.5 4.5t8 3.5q3 0 11 1t17 2t17 2t10 1q32 6 57 17.5t47.5 27t44 34.5l47.5 40q10 8 19 14l17 11.5t16.5 12t16.5 16.5q2 2 4.5 7.5t2.5 7.5q2 3 12 13 l22 21.5l22 21.5l13 13q1 2 5 7t8.5 10t8.5 10t6 8q11 17 12.5 35t8.5 34q1 2 4.5 7t7 11t6.5 10.5t4 6.5q7 16 12.5 38t9 45.5t5 46t1.5 39.5q0 4 -0.5 12t-0.5 15.5t-0.5 13t-0.5 6.5q0 2 -3.5 9.5t-3.5 9.5v12q0 14 4.5 27t4.5 27q0 25 -11 47.5t-25.5 44l-28.5 43 t-20 45.5q-1 0 -2 5t-1.5 10.5l-1 11t-0.5 7.5q-3 4 -8.5 13t-12.5 19l-13 19t-9 12q-35 9 -59 30t-52 39q-3 1 -9 4t-11.5 6.5l-9.5 6t-5 2.5q-14 11 -29.5 27t-32.5 23l-12 4l-20 6.5l-20 6.5l-12 4q-2 0 -8.5 3l-15 7t-15.5 7t-8 3h-24h-61q-1 0 -13 3t-14 3t-4 1 q-4 2 -7 2q-15 0 -31.5 -2.5t-30.5 -9t-24.5 -17.5t-13.5 -28q-1 -3 -2 -12t-2 -19.5l-2 -21t-1 -16.5q0 -2 -1 -4.5t-1 -4.5q0 -3 1 -4q0 -2 1 -3q0 -1 2.5 -9t4.5 -10l-3 -188v-35l-4 -175q5 -6 6 -12t1 -14q0 -22 -6.5 -44.5t-8.5 -45.5v-22v-47q0 -18 -1.5 -36.5 t-4.5 -32.5q0 -2 -2 -8.5t-5 -14t-5 -13.5t-2 -7v-9q0 -17 6.5 -32t13.5 -28zM303 9q-14 0 -24 -1t-23 -8h-142q-1 0 -5.5 1.5t-10 4t-10.5 5.5t-8 5q-9 8 -10.5 18.5t-1.5 20.5v9q0 5 0.5 11t5.5 10q2 1 14 5.5t14 6.5l5 5t8.5 9t8.5 9t6 5h14q11 0 20 -3t19 -3 q19 0 36 1.5t37 4.5q27 5 38.5 23t15.5 46q0 2 1.5 14.5t2.5 29t2.5 33t1.5 27.5v8q0 7 -1 10.5t-7 10.5v52v52q0 4 2.5 21.5l5.5 37.5t5 37t2 21v134l1 4.5l2 9l2 9l1 4.5v2v5q-7 39 -14 73.5t-7 75.5v52q0 1 1 5.5t2.5 9t3 8.5t1.5 5v71v25q0 3 1 12.5t2.5 20t2.5 20 t1 11.5v64v54q-1 3 -3.5 12t-6 18.5t-6.5 18.5t-6 12q-6 2 -21 4t-31.5 4.5t-31 4t-20.5 2.5q-19 2 -38.5 2t-36 4.5t-27 17t-10.5 39.5v6q0 5 1 9.5t7 4.5q5 1 18 4.5t27.5 7t27.5 6t19 3.5h28q4 0 9 1t11 1q8 0 15 -2t11 -7q11 -1 38 -3t57 -4t56.5 -4t37.5 -3h7 q34 0 65.5 5t65.5 9h2h5q10 -1 37 -3t57 -4t57 -4t38 -3q1 0 9 -2.5t10 -4.5h8h7q2 0 13 3.5t15 3.5l2 2q1 0 1.5 -0.5t1.5 -0.5q1 -1 2 -1q2 0 10.5 -3.5t10.5 -3.5q4 0 20 -3t35 -6t35 -6t20 -4q2 -2 10.5 -4.5t10.5 -3.5q1 0 5 -2t8.5 -5t8 -5t4.5 -2q4 -2 15.5 -4.5 t14.5 -2.5q1 -2 9.5 -6.5t10.5 -7.5q2 -1 8.5 -6t13 -11l12.5 -11.5t8 -6.5q13 -10 27.5 -13t27.5 -16q6 -5 17.5 -16l23.5 -23l22 -22l13 -13t12 -15.5l19.5 -26.5l20 -26t11.5 -15l7.5 -7.5t7.5 -8.5q12 -15 18 -31t9.5 -32.5t6.5 -33.5t8 -34q0 -1 2 -5t4 -8.5l4 -9 t2 -5.5q2 -2 4.5 -9.5t3.5 -9.5q8 -21 15.5 -34t13.5 -25t9.5 -26.5t3.5 -39.5q0 -14 -4.5 -26t-9.5 -24t-9.5 -24.5t-4.5 -25.5q0 -23 3.5 -45t3.5 -45v-28l-2 -4t-5 -8.5t-5 -9t-2 -5.5v-12v-30q-1 -2 -7 -10.5t-8 -10.5q-11 -20 -16 -45t-12 -45q-7 -26 -27 -46.5 t-33 -43.5q-23 -38 -54 -75t-66 -63q-1 -2 -7 -5l-13 -6.5l-13 -6.5t-7 -4q-17 -10 -31 -22t-33 -18q-34 -16 -69 -27.5t-62 -36.5q-9 -1 -31 -2.5t-46 -4t-46 -4.5t-31 -3q-2 0 -13 -3.5t-15 -3.5q-7 -1 -27 -2t-43.5 -2t-44.5 -2t-30 -1h-90h-85q-34 2 -68 9t-70 7z" />
<glyph unicode="E" horiz-adv-x="1450" d="M510 1261v2v-2zM68 48q0 14 13 30.5t33 16.5q7 0 19 1t23 1q30 0 41.5 -1t13.5 -1h11q13 0 27.5 1t28 4t24 9t13.5 17v50q0 44 1.5 85t5.5 82l4 19.5t6 23.5q-1 3 -1 15q0 22 0.5 37.5t2.5 42.5q0 4 1 7t2 5q0 20 1 40t3 40q-2 5 -3.5 17.5t-3.5 20.5q-1 4 -2 14l-2 20 t-2 18t-1 10v111q-2 2 -3.5 12.5t-1.5 21.5q1 10 1.5 28t1.5 35.5t1.5 31t0.5 14.5q0 2 1 7t3 9l2 10t1 7q0 8 -2 17t-5 18q-5 17 -5 34v29.5t2 29.5q1 14 2 29.5t1 29.5q0 11 -1 26.5l-2 32.5q-2 16 -2 29v21q-5 12 -18 19t-29.5 11.5t-33 6t-26.5 1.5q-5 0 -11.5 -1.5 t-11.5 -3.5q-7 -2 -12.5 -3t-13.5 -1q-12 0 -29 2.5t-32.5 8.5t-26 16t-10.5 25q0 12 1 19t9 9q7 2 23 5.5t29 4.5q9 -1 34 -2t54 -3q27 -2 53 -2.5t37 -0.5q14 -5 27 -6t39 -1q5 1 9 2l15 3q4 2 5.5 2h6.5h118q1 0 6.5 0.5t12.5 2.5q5 2 10 3t9 2h304q5 0 27 -1t44 -4 q18 -3 30 -3q27 0 53 3q14 2 26.5 3.5t25.5 1.5q27 0 48 -3.5t21 -4.5q3 0 12.5 -1t20.5 -2t20 -2t11 -2q17 -4 26.5 -21.5t11.5 -30.5q5 -23 6 -39t1 -36v-51.5t-1 -34t-2 -22l-2 -16.5q-2 -17 -4.5 -32.5t-2.5 -17.5v-28q0 -9 -2 -18t-8 -17q-3 -1 -10.5 -1h-10.5 q-18 0 -38.5 19t-39.5 44.5t-34.5 51t-22.5 39.5l-7 17t-12 26l-11.5 26.5t-9.5 16.5q-5 8 -17.5 19.5t-25.5 11.5h-173q-30 11 -64 12.5t-69 3.5q-18 0 -36 1l-35 2q-9 0 -17 2.5t-16 4.5q-8 3 -17.5 6t-18.5 3q-8 0 -16.5 -10t-13.5 -18q-5 -5 -5 -8q2 -11 2 -36v-51v-52 t-2 -34q0 -20 -5 -33q-2 -9 -4.5 -18.5t-2.5 -23.5q2 -8 4 -18.5t5 -19.5q5 -18 8.5 -37t3.5 -42q0 -12 -1 -24.5t-3 -26.5l-5 -51v-35l5 -9q0 -1 15.5 -2t24.5 -1q5 -2 19.5 -2h32.5h32t22 2q1 0 2 -1t3 -1q8 -5 15 -6t16 -1q8 0 15.5 1t15.5 3q8 1 14.5 3t20.5 2l10 -2 t9.5 -2t7.5 -1q7 -2 13.5 -3t12.5 -1q12 0 21.5 7t16 17.5t10.5 23t6 23.5q0 4 0.5 15.5t1.5 24.5t2 23.5t3 12.5q5 14 8.5 21.5t3.5 4.5v9q2 9 4.5 21.5t14.5 16.5q1 1 5.5 3t10.5 4t11.5 3.5t8.5 1.5q20 0 32.5 -13t16.5 -23v-237v-13t2 -22q1 -12 2 -22t1 -13 q0 -6 -3 -26t-7 -43q-5 -22 -7 -40t-2 -22q-3 -11 -3 -24l-4 -29t-7 -27t-15 -19.5t-28 -7.5q-16 0 -26 8.5t-15 21t-7 27.5t-2 29q0 3 -1 7.5t-1 6.5l-9 42t-14.5 43.5t-24 35t-37.5 17.5l-38 4q-17 2 -36.5 2.5t-29.5 2.5q-17 0 -31 -1t-26 -1h-18t-9 2q-7 0 -11 2 q-11 3 -14 3h-17q-11 0 -17 -3t-11 -7q-2 -2 -4.5 -3.5t-5.5 -3.5q-4 -2 -7 -3h-29q1 -7 1 -14.5v-13.5q0 -5 -0.5 -7.5t-2.5 -6.5q-2 -7 -5.5 -14.5t-3.5 -11.5q0 -2 1 -8t3 -13q2 -5 2 -10q1 -3 2 -10.5t1.5 -16t1.5 -16.5t1 -12q2 -2 2 -4.5v-4.5v-2q7 -4 7 -5 q5 -14 8.5 -29.5t5.5 -32.5q1 -7 1.5 -28t1.5 -45.5t1.5 -47t0.5 -32.5v-103q2 -20 13.5 -30.5t28 -16t35 -6.5t34.5 -1h34q5 2 26.5 3.5t69.5 1.5q4 0 9 1t11 1q17 2 36.5 3.5t24.5 3.5q2 0 4 1t4 1.5t4 2.5q8 3 9.5 4t6.5 3q5 0 17.5 -5.5t14.5 -8.5q6 -1 15 -1.5 t18.5 -0.5h17.5h12h15.5h19.5t17.5 0.5t7.5 1.5q1 0 2 1q1 0 2 0.5t2 0.5q20 0 30 3.5t21 10.5q8 6 10 7t3 1h-2q14 7 21.5 8t14.5 3q11 2 20 5t13 7q2 2 4 3t5 4q5 4 11 9.5l12 10.5l10.5 9t5.5 5q2 2 2.5 3t3.5 8q5 13 7 15l17 38.5t18.5 32.5t25 27t35.5 22q3 0 5 1t11 6 q2 1 5.5 2.5t5.5 2.5l6 2q4 0 12.5 -7.5t8.5 -11.5v-35q0 -1 5 -16q4 -9 7.5 -18.5t3.5 -14.5v-29q0 -30 -2.5 -66t-4.5 -59q-6 -28 -23 -43.5t-39.5 -23.5t-48 -10t-48.5 -2h-87q-9 7 -16.5 8t-18.5 1q-1 0 -2.5 -0.5t-12.5 -3.5q-11 -4 -14 -4.5t-5 -0.5q-6 -2 -20 -3 l-29 -2t-28 -1.5t-17 -0.5h-479q-11 0 -20 2t-18 5q-9 2 -18.5 5.5t-14.5 3.5q-2 0 -4 -0.5t-11 -3.5q-2 0 -6.5 -1t-9.5 -2q-5 -2 -9.5 -2h-5.5q-5 0 -17.5 -2.5t-29.5 -6.5q-21 -4 -40 -8t-29 -4h-21l-139 -3q-2 0 -6 8t-7.5 18.5l-7 21.5t-4.5 16v1z" />
<glyph unicode="F" horiz-adv-x="1255" d="M96 73q0 11 5 21.5t13.5 19t19.5 14t23 5.5q16 0 30 -4t32 -4q6 0 15 1t18 3t16.5 6.5t11.5 11.5q0 3 2 9.5t4.5 13.5t4 12.5t1.5 7.5v19v23q0 1 -1 8t-1.5 15t-1.5 15t-1 9q0 5 1.5 18.5t3.5 17.5v465q-4 20 -4.5 31.5t-0.5 29.5v15q0 5 0.5 10.5t4.5 10.5v168 q11 27 13 59t2 62v23q0 8 -5 25t-13 34.5t-17.5 31.5t-19.5 16q-7 -2 -20 -3t-27 -1t-27 1t-18 3q-18 0 -34 14t-16 32q0 8 2.5 11t6.5 12q11 20 25 32t39 15q3 0 17 1.5t31.5 2.5t34.5 2.5t26 1.5h69q69 0 136 -7.5t136 -7.5q29 0 53 1t59 6q2 1 10 4t11 4h242 q14 -6 36 -9.5t33 -5.5q4 0 22 0.5t33 0.5h14.5t8.5 -1q1 0 6.5 -3t12 -7.5l13.5 -9.5t10 -8q1 -2 3 -5l2 -4t1 -3q1 -5 3.5 -14t4.5 -18t4 -16t2 -9v-45v-17q0 -3 1 -12t2.5 -19.5t2.5 -20t1 -11.5v-12v-8q-1 -10 -3 -25t-4.5 -29.5t-4.5 -25t-3 -10.5l-35 -35h-12 q-9 7 -19 13l-17 11t-14 11t-11 13.5t-8 13.5q-2 2 -6.5 9t-9 15.5l-8 15.5l-4.5 9l-34.5 56t-43.5 49q-1 0 -5 1.5t-8.5 4l-8 4.5t-4.5 2l-16 15.5t-13 14.5q-4 0 -14 1t-21.5 2t-21 1.5t-12.5 0.5h-187q-3 0 -14.5 1t-24.5 2.5t-24.5 2.5t-14.5 1h-7q-25 0 -39.5 -12.5 t-22 -31.5t-10 -41l-4.5 -40l-10.5 -119.5t-5.5 -118.5q0 -38 1 -66t8 -64q4 -21 22.5 -28t36.5 -7q26 0 48.5 8t48.5 8q18 0 35 -4.5t34 -4.5q12 0 28 5.5t31 15.5t25.5 22t10.5 26q0 1 -1.5 6.5l-3 11.5t-3 11t-1.5 6q0 45 17.5 83.5t46.5 70.5q7 7 12 9.5t16 2.5 q13 0 22 -12t15 -28.5t9 -32.5t4 -24q0 -4 -1 -26.5t-1 -42.5v-18t2 -10q0 -1 2 -6t4 -11t4 -11t2 -6v-14v-12q0 -4 -3.5 -15.5t-3.5 -14.5v-117q0 -3 -2 -14.5t-4 -24.5t-4.5 -24t-2.5 -13v-21v-7q-3 -23 -5.5 -34.5t-8.5 -29.5q-2 -5 -5 -14.5t-6.5 -18.5l-6 -15.5 t-3.5 -7.5q-4 -10 -16.5 -11.5t-21.5 -1.5q-17 0 -27 7.5t-16 19t-10 25t-8 24.5q0 2 -1.5 7.5t-3.5 11l-4 10.5t-3 5q-7 19 -9.5 37t-7 33.5t-14.5 28t-31 21.5h-24q-24 0 -44 2.5l-39.5 5l-39.5 5t-43 2.5q-3 0 -10 -0.5l-14.5 -1t-13.5 -1t-9 -0.5q-5 -8 -10 -20.5 t-9 -26.5t-6.5 -28t-2.5 -24q0 -25 1.5 -47.5t5.5 -47.5q0 -2 3.5 -13.5t3.5 -14.5t-1 -15t-2.5 -26t-2.5 -26.5t-1 -15.5v-38v-39q0 -6 1 -21t2.5 -31.5t2.5 -31t1 -20.5q4 -14 19.5 -26t29.5 -16h15h40q2 0 10 -1.5t11 -3.5q1 -2 7.5 -4.5t7.5 -2.5q4 -1 15 -2.5l23 -3 t22.5 -2.5t15.5 -1q14 -5 17.5 -22.5t3.5 -34.5v-10q0 -7 -1 -15t-8 -14q-1 -3 -11.5 -8t-15.5 -6q-1 -1 -6 -2t-11 -2l-11.5 -2t-6.5 -1l-39.5 -14t-39.5 -7q-26 0 -54 9.5t-54 11.5q-8 0 -31 1t-51 2l-54 2t-38 2h-104q-17 0 -34.5 4t-32 12.5t-23.5 21.5t-9 33z" />
<glyph unicode="G" horiz-adv-x="1432" d="M102 555v70v69q0 2 1 9t2.5 15t2.5 15.5t1 10.5v76q5 50 28.5 104t49.5 97q1 1 7 9.5l13.5 20l15 22.5l11.5 17l7 7q1 1 5 8.5l8.5 15.5l8.5 15.5t6 8.5q2 3 8.5 10t14.5 14.5l15.5 14.5t11.5 10q0 1 6 5.5t13 9l13.5 8.5t8.5 4q1 1 4.5 5l8 9t9 9t6.5 5q1 1 6.5 4.5 t12.5 7.5t13.5 7t8.5 4q24 13 45 32.5t45 36.5q13 7 22 7.5t27 4.5q3 1 15.5 5.5l26 9l26 9t15.5 5.5h48q2 0 10.5 2.5t10.5 2.5h9q59 0 116.5 -8.5t116.5 -10.5q12 -9 27.5 -14t32.5 -8.5t34.5 -6.5t32.5 -7q18 -5 31 -16t38 -19q38 -12 61.5 -17.5t36 -16.5t17 -31.5 t4.5 -62.5q0 -22 -4.5 -50t-15.5 -53.5t-30 -43t-48 -17.5h-12t-9 2q-3 0 -8 2.5t-10.5 6t-10.5 7t-6 5.5q-4 4 -14 16l-21 25.5l-21 25t-13 16.5q-2 10 -5 23.5t-11 24.5l-21 29.5t-24.5 28.5t-29.5 22t-35 10h-35h-12q-2 0 -8.5 3.5l-14 7.5t-13.5 7.5t-7 4.5 q-12 5 -23.5 5.5t-23.5 0.5h-33h-52q-15 -2 -25 -8t-19 -13.5t-18 -17t-21 -18.5q-2 -1 -14 -5.5t-13 -6.5q-1 -1 -5 -5.5t-8.5 -9l-9 -9l-5.5 -5.5q-13 -11 -27.5 -21.5t-21.5 -27.5q0 -1 -2 -6l-4.5 -11t-5 -11t-3.5 -6q-1 -2 -5.5 -7t-10.5 -11l-11.5 -11t-7.5 -6 q0 -1 -3 -6t-6 -11t-6 -11t-4 -6q-1 -2 -5.5 -7t-9 -11l-8.5 -11t-4 -6q-11 -13 -12.5 -30.5t-10.5 -33.5l-5 -5q-9 -12 -13.5 -26t-7 -29t-4.5 -29.5t-5 -26.5q0 -2 -2 -7.5l-4 -11.5t-4 -10.5t-2 -5.5q-14 -40 -20.5 -74.5t-6.5 -78.5q0 -37 4 -69t12.5 -62t21.5 -59.5 t31 -60.5q9 -19 17.5 -42.5t22.5 -39.5l9.5 -10l14.5 -15l15.5 -15l10.5 -10q8 -6 23.5 -7.5t24.5 -6.5q4 -1 15 -5.5t13 -6.5l15 -14.5l23 -23l22.5 -24t15.5 -16.5q42 -14 85 -18t88 -4q23 0 43 8t40 21l30.5 24.5t19.5 31.5q0 3 1 12t2 19.5t2 19.5t2 11q0 2 2.5 13 t4.5 16q0 2 2.5 10t2.5 9v44q2 17 6 32.5t7.5 31.5t6.5 32.5t3 36.5q0 16 -1 37t-4.5 42t-10.5 40t-19 31q-14 14 -28.5 17.5t-31.5 3.5h-11h-20q-11 1 -26 7t-29.5 15.5t-24.5 21.5t-10 25v7q2 5 10.5 13t9.5 8h168q7 7 16.5 8t18.5 1q12 0 23.5 -3.5t22.5 -8t22 -8 t23 -3.5q3 0 5.5 1t7.5 1q1 0 7 3l12.5 6.5l12.5 6.5t7 3q3 0 14 1t17 1h18q11 0 20 -2t16 -10h138q7 0 11.5 -4t7 -10t3.5 -12.5t1 -10.5q0 -23 -14 -34.5t-35 -16.5t-45.5 -7t-46.5 -6.5t-37.5 -15t-17.5 -32.5q0 -9 -2 -30t-4.5 -44t-5 -43.5l-3.5 -28.5q0 -4 1 -23.5 t1 -36.5v-15.5t-2 -8.5q0 -2 -1 -8t-1.5 -13t-1.5 -13t-1 -8v-57v-59q1 -4 3 -9t2 -6l6.5 -6.5t9 -10.5l8.5 -11t5 -7q1 -3 3.5 -9.5t4.5 -14t3.5 -14.5t2.5 -9q-1 -12 -9.5 -18.5t-19.5 -11t-22.5 -7.5t-17.5 -6q-2 0 -6 -3.5t-8.5 -7t-8.5 -7t-5 -3.5l-5.5 -2t-12.5 -4 l-13.5 -4t-9.5 -3q-3 0 -14.5 -3t-13.5 -4q-1 0 -5.5 -2t-9 -5t-8.5 -5t-5 -2q-3 -1 -15.5 -2t-26.5 -2t-26.5 -2.5t-15.5 -2.5q-3 0 -11 -1.5t-16.5 -3.5t-16 -4t-10.5 -3h-265q-22 0 -45.5 14t-44.5 21q-20 5 -34 8t-28 12q-1 0 -4.5 2t-7.5 5t-7 5l-3 2q-2 1 -8 3 l-13 4.5l-13 4.5t-8 4q-16 6 -28.5 20.5t-26.5 25.5q-3 3 -8 7l-10.5 8.5t-10.5 8t-6 4.5t-6.5 4l-12.5 6.5t-13.5 6t-8.5 4.5q-1 1 -4 6l-6.5 11l-6.5 11.5t-4 7.5l-4 2q-3 1 -3 5q-13 16 -26 35t-23 40q-1 2 -3 14.5t-2 14.5q-11 26 -28 52t-29 52q-6 14 -9 29.5 t-5.5 31.5l-5 32t-8.5 31z" />
<glyph unicode="H" horiz-adv-x="1720" d="M97 62q0 3 3.5 11.5t8.5 17.5t10 16t8 9q2 2 15 4.5t19 2.5q5 1 16 2t23 2.5t23 2.5t16 1l17 12t19 15t16.5 17t10.5 19q-2 6 -2 23.5v38.5v38t2 24v34t0.5 52t1.5 60.5t1.5 60t1.5 51t2 33.5q0 4 2.5 14.5t2.5 14.5v4q0 14 -2.5 27.5t-2.5 29.5q0 4 -1 9t-1 10 q0 10 7 17v263q6 17 7 30t1 27q0 20 -4 36.5t-4 36.5q0 13 3.5 25t3.5 25v9q0 2 -1.5 7.5t-4 12t-4.5 13t-2 10.5q-7 18 -19.5 19.5t-31.5 6.5q0 1 -4 3t-8.5 5t-9 5t-5.5 3q-3 0 -9 2l-13 4.5t-13 4t-7 1.5q-2 1 -9 2.5t-15 2.5t-15 1.5t-9 0.5q-5 2 -14.5 5.5t-18.5 8.5 t-16 11t-7 14q0 7 4.5 16.5t11.5 18.5t15.5 15.5t15.5 6.5q4 0 19 -1.5t19 -3.5h2h3q48 11 95.5 12.5t95.5 1.5h58q14 -9 22 -11.5t20 -2.5h16q1 0 10 2.5t10 2.5q20 5 45 7t47 2q19 0 36 -1.5t30.5 -6.5t24 -16.5t18.5 -30.5v-5v-2q-12 -20 -30.5 -32t-40 -18t-44.5 -8.5 t-44 -3.5l-21 -30q-8 -11 -14.5 -21t-6.5 -12l-3 -211v-19l-4 -175q3 -3 10 -14t13.5 -23.5t12 -22t6.5 -9.5h624q5 -1 15.5 -4t14.5 -3q7 0 11 4t6 9.5t2.5 11.5t1.5 10q0 6 1.5 19t2.5 27.5t2 27.5t1 18v181q0 1 1 8.5l2 15.5t2 15t1 8q0 4 -3.5 12t-8.5 10v139q0 2 -3 9 t-7 12q-1 1 -2 3q-1 1 -2.5 2t-2.5 2q-4 0 -13.5 1t-20.5 2t-21 2t-14 1h-5q-16 0 -28 -3t-28 -3q-13 0 -30 4t-32 11.5t-25.5 19.5t-10.5 29q0 15 8.5 26t21 18.5t26.5 11.5t25 4q23 0 48 -1.5t45 -12.5h201q2 0 7 1t11 1.5t10.5 1.5t6.5 1q2 3 7 9.5t7 6.5h12 q17 0 28.5 -4.5t28.5 -4.5q18 0 30 4.5t30 4.5h18q1 0 9 -3.5t10 -3.5q7 -1 20 -2t25.5 -4.5t22 -11t9.5 -20.5q0 -20 -11 -32t-27 -19t-34 -10.5t-31 -5.5q-3 0 -14.5 -0.5t-24.5 -1.5t-24.5 -2.5t-14.5 -2.5q-2 0 -6.5 -2t-5.5 -4q-3 -2 -8 -8l-10.5 -12.5l-10.5 -12 t-6 -8.5v-5v-2q2 -11 4 -18l4 -13.5t3 -14t1 -18.5q0 -46 -3.5 -90t-3.5 -90q0 -45 3.5 -90.5t3.5 -91.5q0 -24 -3.5 -47t-3.5 -48v-27q0 -3 1 -16t2.5 -27t2.5 -26.5t1 -15.5v-121v-121q-1 -3 -3 -11.5l-4 -17.5t-3.5 -17t-1.5 -11v-6q0 -11 2.5 -21.5t2.5 -19.5 q0 -23 -2.5 -46t-2.5 -46v-14q0 -4 9 -9q4 -3 10 -5q4 -1 14 -4l21 -6.5l21 -6.5t13 -3q10 -3 30.5 -6.5t40 -9.5t34.5 -16.5t15 -26.5q0 -20 -9.5 -33t-24 -20.5t-32 -11t-33.5 -3.5q-8 0 -14.5 1t-13.5 6q-42 5 -78.5 7t-75.5 2h-53h-113q-1 -2 -6.5 -4.5t-12.5 -4.5 t-13 -4l-9 -3q-2 0 -13 3.5t-15 3.5t-15 1t-23 1q-11 0 -22.5 -1t-15.5 -1l-14.5 22t-6.5 23q0 14 4.5 25t11.5 20q2 1 9.5 3.5t16 5t16.5 4.5t11 3h13q23 0 44 -4.5t42 -4.5q22 0 32 17t10 37v3q-2 2 -4.5 7t-4.5 7v38v14q0 12 1 24t8 23v40q0 61 3.5 120.5t3.5 121.5 q0 27 -1 42t-6.5 22.5t-18.5 9.5t-37 4q-3 0 -14.5 1t-24 2.5t-23.5 2.5t-14 1q-26 1 -51.5 3.5t-50.5 2.5q-22 0 -44 -6.5t-42 -6.5q-16 0 -32.5 6.5t-31.5 6.5h-14q-5 0 -15 -1t-21 -2t-21 -2t-13 -1l-4 -1t-8.5 -2.5t-9 -2.5t-5.5 -1q-2 0 -13 3.5t-13 3.5h-78q-1 0 -6 1 t-11 2l-11.5 2t-6.5 1t-15 1t-21 1q-5 0 -14.5 -1t-11.5 -1l-7 -6v-68q0 -50 4.5 -98t4.5 -97q0 -6 -0.5 -15.5t-0.5 -18.5t-0.5 -16t-0.5 -8t-1 -6t-2.5 -10.5t-2.5 -10.5t-1 -7v-4q0 -54 21 -88t69 -55q3 0 14 -6t16 -6q11 -3 27.5 -5t31.5 -6.5t26 -13.5t11 -27 q0 -19 -10 -30.5t-25 -18t-31.5 -8.5t-29.5 -2h-301q-9 -6 -22.5 -10.5t-27.5 -7t-27.5 -3.5t-23.5 -1q-13 0 -35 7t-43 18.5t-36.5 26.5t-15.5 32z" />
<glyph unicode="I" horiz-adv-x="844" d="M391 7q-53 0 -104.5 -4.5t-103.5 -4.5h-7q-12 2 -30 4.5t-34.5 9t-28 17.5t-11.5 30q0 4 1 11t6 11q2 3 10 5t11 2q28 3 56 4t55 6t51.5 17t44.5 36q-1 44 3 86.5t4 84.5q0 17 -3.5 31t-3.5 29v18q0 3 1 10t2.5 15.5t2.5 15.5t1 9v150q0 2 1 7.5t2.5 11.5t2.5 10.5t1 5.5 q0 2 0.5 10.5t0.5 19.5t0.5 22t0.5 17q0 4 -0.5 14.5t-0.5 21.5t-0.5 20.5t-0.5 12.5q0 4 -2.5 15t-4.5 15v8q0 16 8 30t8 33v12q0 9 -2 17.5t-7 16.5v70q0 36 4.5 70t4.5 68v14q-1 1 -2.5 5.5l-3 9t-2.5 8.5l-1 4q0 5 3.5 15.5t5.5 12.5v7q0 18 -14 35t-29 22q-9 1 -32 5 l-48 8.5l-47.5 8.5t-31.5 6q-24 5 -36.5 19t-12.5 40q0 21 17.5 32.5t40.5 17t47 6.5t37 1h10q4 0 19.5 -2t33 -4t32.5 -4t19 -2q5 -2 19 -2h30h29t21 2q11 -7 24.5 -8t20.5 -1q41 0 79 8t83 8h56q12 -8 25 -13.5t24.5 -12t19 -16.5t7.5 -28q0 -8 -3 -17.5t-8.5 -18.5 t-13.5 -15t-17 -6q-22 -4 -44 -6t-46 -2q-25 0 -49 2t-49 6q-2 0 -3.5 -4.5t-1.5 -7.5q0 -2 1 -7.5t1.5 -11t1.5 -10.5l1 -5v-16q0 -11 -3.5 -20l-7 -18l-7 -17.5t-3.5 -18.5v-14q2 -3 4.5 -12t4.5 -11v-40v-15q1 -5 3 -9q4 -10 4 -12q2 -27 3.5 -51t1.5 -53 q0 -32 -10.5 -63.5t-10.5 -65.5v-2q1 -2 3.5 -7.5l5.5 -12.5t5 -13.5t2 -8.5v-36q0 -38 -8 -74.5t-8 -74.5q0 -49 4.5 -96.5t4.5 -95.5v-86q-2 -5 -4.5 -18.5t-4.5 -16.5q0 -1 -1 -5.5t-2.5 -9t-2.5 -9t-1 -5.5q0 -2 1 -10.5t2 -19l2 -20t2 -13.5q3 -14 10 -22t16 -12.5 t20 -6.5t23 -5q1 -2 7.5 -4t13.5 -4.5t13.5 -4.5t8.5 -3q5 -1 18.5 -2t29 -2t29.5 -2t20 -1q9 -6 11.5 -12t2.5 -15v-9q0 -23 -8.5 -34t-25.5 -27q-3 0 -8 -3.5t-6 -3.5h-4h-5q-75 5 -148.5 14t-148.5 9z" />
<glyph unicode="J" horiz-adv-x="825" d="M-157 -382v29q0 1 3 8t7.5 16l9 18l7.5 15q14 23 30 29t45 6q28 0 40.5 -8t19.5 -20t14 -25.5t24 -24.5q2 0 11 -3.5t12 -3.5q2 0 6 -3.5t6 -3.5q26 -18 61 -23t67 -5q12 0 22.5 8.5t19 20.5t14.5 25.5t11 22.5l8 16.5l9.5 20t7.5 17t3 8.5t0.5 5.5t1.5 11t2.5 13 t2.5 11.5q0 2 1 10.5t1.5 18t1.5 17.5t1 10q1 2 3 8t3 12.5l2 12.5t1 8q0 3 -1.5 11.5t-3 18t-3 17t-1.5 9.5q-2 57 -2.5 115t-2.5 115q0 1 -1 6t-2.5 10.5t-2.5 10.5t-1 7v21q0 18 3.5 36t3.5 37q0 17 -3.5 33.5t-3.5 31.5v7q1 4 4 20.5l6.5 35.5l6.5 35.5t4 21.5v45v15 q0 5 3.5 15.5t3.5 12.5v12q0 14 -2.5 22.5t-13.5 22.5q2 7 2 24.5v37.5v37.5t-2 25.5q0 31 -6 60.5t-6 58.5q0 51 3.5 101t3.5 100v41l-3 26t-4.5 34.5t-4 32t-2.5 18.5q-1 3 -3.5 8.5t-6 12l-7 12.5t-4.5 8q-2 2 -7 5.5t-6 3.5h-132q-2 0 -15 5t-20 7q-24 11 -30 26t-6 40 v15t2 11q0 4 10.5 15t15.5 13h43h42q2 -1 11 -3t19.5 -5t19.5 -5t12 -3h28q49 -2 97.5 -7t99.5 -5q22 0 42.5 9.5t43.5 9.5h7q9 0 30 -1l44 -2l44 -2t29 -2q63 -15 63 -81q0 -9 -1 -16t-6 -14q-2 -1 -7 -3t-9 -2q-21 -7 -45 -9.5t-47 -2.5q-18 0 -34.5 1l-32.5 2 q-25 -18 -41 -40t-16 -55v-5.5t1 -7.5t2 -9q0 -3 1 -13t1.5 -21.5t1.5 -21.5t1 -13v-141q0 -69 -1 -135t-4 -134q-1 -3 -2.5 -14t-2.5 -24.5t-2 -24.5t-1 -14v-10q0 -11 4 -18.5t4 -15.5v-6q-2 -1 -4.5 -9t-3.5 -10q1 -45 1 -88v-88v-120.5t-1 -120.5q0 -5 -1 -15.5 t-2 -22.5t-2.5 -23t-1.5 -15v-10q0 -20 4 -39t4 -39q0 -2 -0.5 -5t-0.5 -5v-6q0 -4 -7 -15t-7 -12q-1 -3 -3 -15.5t-4 -27t-3.5 -27t-1.5 -15.5q-2 -6 -4.5 -16l-5 -20t-4 -17.5t-2.5 -8.5q-1 -3 -7.5 -18.5t-15.5 -34l-18.5 -37t-15.5 -28.5q-5 -12 -11.5 -19.5t-14.5 -13 t-16.5 -10.5t-18.5 -12q-1 -3 -10 -12t-10 -9q-2 -2 -14 -7t-14 -7q-12 -6 -19 -10.5l-13 -8.5t-13 -7.5t-19 -7.5q-2 -3 -9.5 -5t-9.5 -2q-64 -14 -123.5 -21t-122.5 -7q-65 0 -100.5 30.5t-35.5 99.5z" />
<glyph unicode="K" horiz-adv-x="1439" d="M573 0h-410q-9 0 -22.5 3.5t-26 9.5t-21 14.5t-8.5 19.5q0 12 6.5 20t16.5 14t21 9.5l20 6.5q3 1 13 3l21.5 4.5t21.5 5t13 2.5q12 3 25 11.5t24 19.5t18.5 24.5t8.5 26.5v15v42q0 3 1 12t2.5 19t3 19t2.5 12v83l12 28v304q0 3 1 15.5t2.5 27t2.5 27t1 15.5v95 q0 77 -3 151.5t-16 149.5q-7 28 -17 49t-33 41q-12 9 -28 9q-11 0 -18.5 -1t-16.5 -1q-32 3 -60 25t-43 51v5q0 7 5 14t12.5 13t15.5 10.5t13 6.5q5 1 14 2.5t18 2.5t16 1.5t9 0.5q1 0 7.5 -2t13.5 -4.5t13 -5.5l8 -4q23 -2 53 -3.5t56 -1.5q22 0 38 7t36 7h19 q2 -2 13.5 -5.5t12.5 -3.5h132q15 -9 18.5 -29.5t3.5 -34.5v-10q-3 -3 -8.5 -9l-12 -13l-12 -13t-8.5 -7q-2 -2 -7.5 -4.5t-8.5 -2.5q-23 -14 -37 -28t-21 -30.5t-9 -35.5t-2 -41v-50v-66q2 -17 5.5 -32.5t7.5 -30.5t6.5 -31t2.5 -35v-2q0 -2 -3 -11t-3 -12q-1 -9 -1 -17 q-1 -8 -1 -15.5v-12.5v-22q0 -18 4.5 -34.5t22.5 -29.5h7q11 0 21 5t19 11t18.5 11.5t19.5 7.5q3 4 12 13l19 18.5l19 18.5t13 12q0 2 5 6.5t11 9l11.5 8.5t6.5 5l17.5 17.5t14 15l13.5 16l17 20.5q0 2 3 4l4 2q32 26 55.5 54l48.5 58q2 2 7.5 8l11.5 13t10.5 13t5.5 8 q1 1 4 10.5t3 11.5q3 3 9.5 12t14.5 18.5l15.5 18.5t10.5 13v25q0 23 -6 40.5t-29 31.5q-1 0 -5.5 1l-9 2l-9 2t-5.5 2q-2 0 -13 6t-15 6q-1 1 -7 2.5t-13 2.5t-13 1.5t-8 0.5q-17 5 -20 16.5t-8 26.5l-4 6q-3 4 -3 8v4q0 13 10.5 23t25.5 16.5t30.5 9.5t25.5 3h7 q9 0 17.5 -2.5t16.5 -13.5q6 0 22.5 -0.5t35.5 -1.5t35.5 -1.5t22.5 -1.5q2 0 11 -3.5t12 -3.5h27q39 0 78 6t80 6q20 0 39.5 -8.5t19.5 -31.5q0 -16 -14.5 -35t-35 -37t-42 -34l-35.5 -27q-1 0 -6 -2.5t-8 -2.5q-4 -4 -11 -5q-4 -1 -9 -2q-2 -1 -6 -5t-8.5 -9t-8.5 -9 l-5 -5q-2 -2 -14 -8l-14 -7q-2 -2 -4 -3q-3 -3 -3 -4t-3 -5l-7 -9l-7 -9t-3 -5l-12 -12l-20 -19.5l-20 -19.5t-12 -11q-2 0 -6.5 -9t-6.5 -12q-23 -26 -46.5 -44l-49.5 -39q-17 -13 -28.5 -30.5t-28.5 -33.5q-2 -2 -14 -9.5t-14 -9.5l-11.5 -11t-17 -17l-16 -16.5 t-9.5 -10.5q-6 -17 -10.5 -35t-4.5 -35q0 -22 5 -33.5t15 -30.5l9.5 -15l15.5 -26l15 -25.5t9 -14.5q13 -20 34 -33t35 -29l52.5 -63.5t53.5 -62.5q11 -15 24 -27t29 -24q12 -7 20 -18t15 -23l14 -24.5t15 -22.5l21 -21q32 -38 66 -73t79 -60l19.5 -10l33 -17l33 -17 t18.5 -11q1 -1 7 -6t13 -11.5t13.5 -13.5t9.5 -11q3 -5 5 -9.5t2 -10.5v-7q-14 -19 -37 -24.5t-48 -5.5q-15 0 -29 1t-28 1h-12l-4 -1t-8.5 -2.5t-9 -2.5t-5.5 -1h-4q-27 0 -53 4.5t-52 4.5h-16q-12 0 -24.5 -2t-23.5 -7h-139q-10 6 -21 10.5t-20.5 10.5t-16 15t-6.5 23 q0 20 10 29t24.5 13t32 5.5t32 7.5t24.5 19t10 40v9q-3 1 -8 5.5t-10.5 10t-10 10.5t-5.5 8q-3 0 -5 6l-2 6l-11.5 11l-18 17.5l-17.5 18l-10 10.5q-2 3 -12 16.5l-22 29l-22 28.5t-13 16q-3 5 -13.5 15t-14.5 11q-2 3 -14 8.5t-14 7.5t-6.5 10.5t-7.5 8.5l-36.5 41.5 t-32.5 43.5q-2 0 -3 3l-2 4q-2 1 -11.5 7t-10.5 8q-3 1 -11 8l-17.5 15.5t-17.5 15t-10 8.5q-5 5 -16 13.5t-13 8.5h-69q-4 0 -9.5 -10t-11 -23.5t-9.5 -26t-5 -17.5v-77v-76q0 -3 1 -13.5t2.5 -22.5t2.5 -24t1 -18q1 0 2.5 -5l3 -10.5t2.5 -11t1 -7.5v-50v-19 q0 -16 10.5 -26t23.5 -21q4 -5 11 -11.5t15 -13l14.5 -11.5t8.5 -6q8 -6 23 -11.5t30 -13t26 -17.5t11 -25v-3q-10 -25 -24.5 -37t-43.5 -12q-9 0 -17 1t-19 6z" />
<glyph unicode="L" horiz-adv-x="1476" d="M66 26q0 19 7.5 33t20 23t28.5 13t33 4q18 0 34 -4.5t33 -4.5h10q33 23 52.5 58.5t23.5 74.5q7 57 6 110t3 112q0 3 1 12t2.5 20t2.5 20t1 12v27v28q-5 65 -10.5 129t-5.5 130v115q5 6 7 14.5t2 18.5q0 8 -1 15t-1 14q0 10 2 14q0 3 2 11t4 17.5t4 17.5t2 11v5v7 q0 4 -1 18t-1.5 30.5t-1.5 31t-1 17.5v64q-1 3 -8 11.5l-15 17.5t-16 16t-11 7h-139q-4 3 -8 7q-4 3 -8 5.5t-6 4.5q-13 13 -16 22.5t-3 26.5q0 29 21.5 38.5t47.5 9.5q13 0 25 -3.5t24 -3.5q20 0 38.5 7t38.5 7q0 1 5 1.5t12.5 0.5h15h12.5h13h16t14.5 -0.5t8.5 -1.5 q4 0 20 -1t35 -2.5t35 -2.5t21 -1h221q9 -3 19 -10.5t18.5 -17.5t14.5 -20t6 -18q0 -7 -4 -11t-10 -6t-12.5 -3t-10.5 -2q-8 -6 -13.5 -12.5t-11.5 -12.5t-13 -9.5t-19 -3.5q-8 0 -17 1t-16 7h-90q-14 0 -29 -13.5t-19 -29.5q-1 -3 -1.5 -11.5t-0.5 -17.5v-17v-11 q0 -59 8 -116t8 -116v-15q0 -6 -1 -28.5t-2.5 -48.5t-2.5 -48.5t-1 -28.5q0 -2 1 -14t2.5 -26t2.5 -26.5t1 -15.5q0 -6 -1 -29.5t-2.5 -50.5t-2.5 -51t-1 -30v-109q-1 -8 -2 -25.5l-2 -36.5t-2 -35t-1 -22q-2 -2 -5.5 -11t-3.5 -11v-9q0 -26 3.5 -54t12.5 -55t24 -50.5 t38 -39.5h9q11 0 18.5 2t21.5 5h200q6 1 20.5 2t31 2.5t31.5 2.5t21 2q4 0 15 3t13 3h8q7 0 15.5 -4t10.5 -11q35 -5 65.5 -8.5t62.5 -3.5q17 0 29.5 5t22.5 13.5t18.5 20t18.5 23.5q2 3 12.5 15l22.5 25.5l22 25.5t12 15q5 7 6.5 12.5t2 11.5t1.5 12.5t4 14.5l7 7t8 6l7 11 t5 10q1 2 3 9t5 15t5 15.5t3 9.5q5 17 20.5 31.5t26.5 23.5h5h1q19 -6 28 -17t12 -25t2.5 -30t1.5 -32q0 -1 1 -6.5t2.5 -11.5t2.5 -11l1 -5v-11q0 -25 -7 -47.5t-9 -45.5v-125q-2 -18 -12.5 -29t-28.5 -12q-5 -1 -20 -2t-31.5 -2.5t-31.5 -2.5t-21 -2h-187q-3 0 -10.5 -3.5 t-10.5 -3.5q-2 0 -13.5 -0.5t-25.5 -1.5t-28.5 -2.5t-22.5 -2.5h-8h-7q-1 0 -5.5 1t-10.5 2.5t-11.5 2.5t-7.5 1q-6 1 -27 1.5t-45 1.5t-46.5 1.5t-32.5 0.5h-22q-15 0 -49.5 0.5t-77 0.5t-86 0.5t-76.5 0.5h-50q-66 0 -131.5 -7t-133.5 -7h-55q-18 5 -26.5 13.5t-8.5 26.5z " />
<glyph unicode="M" horiz-adv-x="1872" d="M276 7h-189q-4 0 -8.5 6.5t-8.5 15t-7 15.5t-3 8q0 20 14.5 36t31.5 16q5 0 20 1t31 1q15 0 29 -1t19 -1q3 2 7.5 4.5t6.5 3.5q3 1 8.5 7l12 13l12.5 13t8 9q0 5 1 18.5t2.5 29t2.5 29.5t1 20q2 2 4.5 16t4.5 18v45v18q0 2 2 9t4 15t4 15t2 9l15 73t8 74q0 2 -4.5 13 t-4.5 15v64q0 45 3 90t13 88q0 1 2 7t4 13l4 13.5t2 8.5q0 5 2.5 25t5 43.5t5 44.5t2.5 27q0 1 1 8t2.5 15t2.5 15t1 8q0 2 -2 7.5t-5 11l-5.5 10.5t-2.5 6q0 3 3.5 12t4.5 11q1 3 2 9.5l2 13t2 12t1 6.5q0 4 -1 13.5t-2 20.5t-2 20.5t-2 14.5q-14 17 -36.5 18t-41.5 3 q-2 0 -8 2t-12.5 5t-12.5 5t-8 2q-22 6 -39 9t-30.5 8t-23.5 16.5t-18 35.5q0 3 6 7.5t8 6.5h21q3 0 12 2t20 5t20 5t12 2h53h63q2 0 7.5 -1t11 -2.5t10.5 -2.5l5 -1h147q34 -14 55.5 -37.5t41.5 -52.5q1 -2 4.5 -6l7.5 -8.5t6.5 -9t2.5 -6.5q2 -1 4 -12t5 -15 q8 -21 21.5 -39.5t17.5 -42.5q0 -2 1 -11.5t2.5 -20t2.5 -20t1 -12.5q5 -14 14.5 -32t13.5 -30q0 -2 3.5 -14t3.5 -14q1 -2 5 -7t9 -10.5t9 -10.5t5 -6q1 -2 2.5 -9t2.5 -15t1.5 -15.5t0.5 -9.5q10 -34 26.5 -58.5t30.5 -58.5q0 -2 1 -9t2 -15t1.5 -15.5t0.5 -9.5t3.5 -13.5 t3.5 -13.5q4 -12 13 -17.5t19 -11t17.5 -12.5t7.5 -20v-17q0 -2 -3.5 -13t-3.5 -13q0 -1 1.5 -6.5t3.5 -12l4 -13.5t3 -11q3 -7 8 -16.5t11.5 -18.5t14.5 -15.5t16 -6.5q6 0 10 4t6.5 10l5 12.5t6.5 11.5q11 13 28.5 27.5t26.5 34.5l2 10t2 9t1 7q5 19 11 32.5t13 26 t15.5 25t17.5 28.5q12 19 18 38.5t17 37.5q1 1 5 6.5t9 11.5l9 11t5 6q3 4 5 12t3.5 16t2.5 15.5t3 11.5q15 43 37 80.5t40 80.5q8 17 10.5 37.5t8.5 37.5q3 4 10.5 20.5l15.5 35.5t15.5 35t9.5 21q1 3 3 10.5t2 10.5v3v2q0 3 -2.5 8.5t-2.5 7.5v1v6q7 14 15 28t18 25.5 t24 19.5t33 11q4 0 24.5 -0.5t39.5 -0.5q20 0 24 1q2 0 8.5 1.5t14 4l13.5 4.5t7 2q32 8 61 12t65 4q6 0 16 -0.5t19.5 -0.5t17 -0.5t8.5 -0.5q11 0 24.5 -5t25.5 -14t20 -20.5t8 -24.5q0 -8 -6.5 -17t-15.5 -17t-18 -13.5t-14 -5.5q-17 0 -32 3.5t-32 3.5t-34 -2.5 t-37 -11.5q-12 -6 -19 -18t-10.5 -26.5t-4 -30.5t-0.5 -29v-17q0 -12 1 -19.5t3 -14.5t4.5 -14t4.5 -18q0 -5 0.5 -17t0.5 -24.5t0.5 -24t0.5 -15.5q0 -92 -5 -182.5t-3 -182.5q0 -2 -3.5 -10t-3.5 -10v-5v-3q5 -26 10 -55t5 -56q0 -26 -7.5 -48.5t-7.5 -48.5v-12 q0 -8 1 -14.5t6 -14.5v-11.5t0.5 -18t0.5 -18v-11.5v-16t-0.5 -19.5t-0.5 -17v-8.5t-3.5 -12t-3.5 -15v-16v-10q0 -3 5.5 -14t7.5 -14q1 -2 5.5 -7.5l9 -11.5t8.5 -10.5t5 -5.5q2 -1 4.5 -7t2.5 -8q2 -2 4 -4.5t5 -2.5h27q1 0 7.5 -2l13.5 -4t13 -4t8 -2q1 -1 7 -2 t12.5 -2.5t12.5 -2.5t8 -2q3 -1 9 -3.5l13 -5.5t12.5 -6t6.5 -4q0 -2 1 -8t1 -7q0 -14 -13 -24.5t-30 -10.5h-332q-5 0 -15.5 -3.5t-12.5 -3.5h-7h-7q-1 0 -6.5 -2l-11.5 -4t-11 -4t-6 -2h-55h-16q-13 0 -27 13t-14 27v7q7 0 25 3.5t25 3.5q2 0 9.5 3.5t9.5 3.5t7.5 1 l11.5 2t10.5 2.5t5.5 2.5q12 4 18.5 16.5t10 27t4.5 29t1 24.5q11 64 15.5 128t12.5 130q0 10 0.5 36.5t1.5 56t1.5 55.5t0.5 37q0 19 -0.5 49.5t-1.5 60.5t-1.5 53t-0.5 25q0 7 -0.5 26.5t-1.5 41.5t-1.5 42t-1.5 29q0 3 -2 12t-5.5 18.5t-8 17t-8.5 7.5q-9 0 -14.5 -4.5 t-9.5 -10.5t-7.5 -13t-8.5 -12q-1 -2 -5.5 -7t-10.5 -11t-11.5 -10.5t-7.5 -5.5q0 -3 -2.5 -8t-2.5 -8q-12 -27 -28.5 -51.5t-28.5 -52.5q-9 -26 -14.5 -54.5t-13.5 -55.5q-1 -12 -8.5 -18t-10.5 -17q-1 -1 -2.5 -6.5t-2.5 -11.5l-2 -11.5t-1 -6.5l-8 -8l-13 -12.5 l-13.5 -13t-7.5 -8.5q-7 -6 -9 -20.5t-5 -20.5q-1 -3 -3 -11t-2 -10q-2 -2 -8 -9.5t-8 -9.5q-10 -26 -14 -53.5t-13 -53.5q-3 -5 -7.5 -15.5l-9 -22t-8.5 -20.5t-5 -11q0 -2 -5 -12l-10.5 -22t-11 -22.5t-7.5 -13.5q0 -1 -0.5 -8t-1.5 -15t-2 -15t-1 -8q0 -5 -3.5 -15.5 t-3.5 -12.5q-3 -5 -8.5 -17.5t-12.5 -26t-12.5 -25.5t-8.5 -16q-11 -6 -22 -14t-25 -8q-13 0 -26 12.5t-23.5 29.5t-18 35t-9.5 30q-5 18 -8.5 33t-6.5 29.5t-7.5 29.5t-12.5 33q-1 2 -6.5 11.5l-11.5 20l-11 19.5t-6 11q-18 32 -27 64.5t-23 68.5q-18 50 -42 99t-41 102 q-1 1 -2 7t-1.5 13t-1 13t-0.5 8q-2 2 -8 10.5t-8 10.5q0 2 -3 9.5t-3 9.5q-1 2 -3 7.5t-4.5 11.5t-5 10.5t-3.5 5.5q0 3 -0.5 10.5t-1.5 15.5t-2 15t-1 9q-2 3 -4.5 8.5l-5.5 12t-6 12t-5 8.5l-21 21q-9 12 -15 28.5t-13.5 32.5t-19 27t-31.5 11h-6q-5 -18 -6.5 -33 t-2.5 -29.5t-1.5 -30t-1.5 -34.5l-1 -4.5t-2.5 -9t-2.5 -9l-1 -4.5v-11q0 -11 3.5 -22t3.5 -24v-6l-10 -48t-5 -50q0 -34 7.5 -66t7.5 -66l-1 -4t-2.5 -8.5t-2.5 -9t-1 -5.5v-104q0 -2 -2 -9t-4.5 -15l-5 -15.5t-3.5 -9.5v-10q0 -9 2 -15.5t7 -17.5v-150q5 -9 8 -20l6 -22 t7.5 -20.5t12.5 -15.5q21 -2 51.5 -6t52.5 -13q2 -3 9.5 -8.5t9.5 -7.5q8 -4 16 -6t14 -5t9.5 -9t3.5 -16q0 -14 -6 -22t-15 -12t-20 -5t-21 -1q-42 0 -84 3.5t-84 3.5h-26q-1 0 -5.5 -1t-9 -2.5t-9 -2.5t-5.5 -1q-2 0 -8.5 1.5t-14 4t-14.5 4.5t-10 4z" />
<glyph unicode="N" horiz-adv-x="1681" d="M154 2q-11 3 -19.5 4t-15.5 3.5t-10.5 8t-3.5 17.5q0 11 2 17.5t10 20.5q16 21 40 28t48.5 10t47 8t34.5 23q1 3 4 9t6.5 11t6 9.5l2.5 4.5v203q2 2 4.5 9.5t2.5 9.5v21v50q0 2 1 8t2.5 12.5l3 12.5t1.5 8v35q0 11 -1.5 18.5l-3 14.5t-2.5 14t-1 17v17q1 2 2 7.5 t2.5 11.5t2.5 10.5t1 5.5q0 5 0.5 23t1.5 38t2.5 37t2.5 21q0 2 3 11t3 12v69q1 8 3 31.5t4 50l4 50.5t2 34q2 2 5.5 13.5t3.5 14.5q0 20 -6.5 41.5t-18.5 40.5t-29 34t-38 22q-2 1 -10 2.5t-17 3.5t-17 4t-11 4q-1 1 -5 4l-8.5 6.5t-9 6.5t-5.5 4q-1 0 -6 1.5t-11 2.5 t-11 2t-6 1q-9 3 -22 15t-25.5 26.5t-21.5 28t-9 20.5q0 5 1 8q0 3 1 5q1 3 5.5 9.5t10 13.5l10.5 13t8 8q2 0 15 3.5t20 3.5h154q13 4 21 4.5t19 0.5q25 0 43.5 -10.5t33.5 -26t28.5 -34t27.5 -33.5q1 -2 8 -8.5t15 -15l15 -15.5l9 -9q14 -16 21.5 -35t21.5 -35 q18 -22 40.5 -38.5t42.5 -37.5q18 -20 40 -51l46 -62.5t48 -57.5t47 -36q29 -53 67.5 -98t83.5 -84l16 -29.5t19 -27.5q10 -9 22.5 -15t24.5 -13t20.5 -16.5t9.5 -24.5q5 -4 17 -15.5l25 -25l24.5 -25.5t16.5 -16q9 -10 14 -19t11 -16t14.5 -11t23.5 -4q9 0 17 2t10 14 q14 39 21 79.5t7 82.5v32q0 2 -2.5 13.5t-2.5 15.5q-2 2 -2 15q0 14 1 28.5t1 16.5q-2 10 -3 32t-2 46.5t-2 45.5t-2 29q0 6 -1 17l-2 23t-2 22.5t-2 13.5q0 4 -2.5 12t-4.5 10v173q0 2 -2 7t-5 7q-15 29 -36.5 57t-52.5 35q-2 0 -8.5 1.5l-13 3l-12.5 3t-8 2.5 q-1 0 -5.5 2.5t-9 5.5l-8.5 5.5t-5 2.5q-20 14 -32.5 27t-10.5 40q1 11 7 19t13.5 13.5t14.5 8l10 3.5q2 0 8.5 0.5t13.5 0.5h18l220 -14q45 0 94.5 7t95.5 7q0 -1 9.5 -2t11.5 -3q12 -4 21 -4.5t15 -3t9 -10.5t3 -27q0 -16 -8.5 -27t-21.5 -18.5t-28 -12.5l-27 -9 q-1 0 -14 -4.5t-17 -6.5q-8 -4 -20.5 -11t-24.5 -16q-8 -8 -15.5 -16.5t-12.5 -13.5q-9 -9 -13.5 -27t-6.5 -32q0 -8 -1 -26.5t-2 -39.5l-2 -40t-2 -27v-64v-24q0 -2 -3.5 -10.5t-3.5 -10.5v-33q0 -23 4.5 -42t4.5 -44v-19q0 -9 -2 -18.5t-7 -16.5v-119q0 -2 -1 -7t-1.5 -11 t-1.5 -11t-1 -6v-97q0 -2 -3.5 -13.5t-3.5 -15.5q-1 -4 -2 -13t-2.5 -19t-2.5 -18.5t-2 -11.5v-45q0 -43 8 -85t8 -85v-5q0 -4 -3.5 -15.5t-3.5 -14.5q-2 -5 -2 -17.5v-27.5v-27t2 -18l-27.5 -28.5t-33.5 -14.5q-3 0 -5 1q-2 0 -3 1q-28 9 -50 26t-40.5 38t-35.5 44t-35 44 q-3 4 -15.5 17.5l-26.5 28.5l-26 28t-15 16q-37 41 -68 86t-66 87q0 4 -5 9q-3 2 -11.5 9l-18 15l-17.5 15t-10 9q-1 1 -5 8.5l-8.5 15.5l-9 15.5t-5.5 9.5q-2 1 -3 3q-3 3 -3 4q-1 0 -5.5 4t-10.5 8.5l-11.5 9t-7.5 5.5q-8 7 -13 15.5t-9 18t-8.5 19t-11.5 17.5q-1 2 -9 10 l-17 17.5t-17.5 17.5t-11.5 10q-2 2 -8 10.5t-6 10.5q-5 7 -12.5 12t-15 9.5l-14.5 9t-13 10.5q-1 1 -3.5 6.5t-6.5 11.5l-7.5 11t-5.5 6q0 1 -5 7t-7 8q-2 1 -7.5 4.5t-11 8t-10.5 9t-5 6.5q-3 1 -11 9l-17.5 17.5l-17.5 17.5t-11 10q-8 10 -15.5 16t-19.5 6 q-11 0 -19.5 -10.5t-14.5 -24.5t-9.5 -28t-3.5 -22v-7t-0.5 -15.5t-0.5 -17.5v-13v-13.5t0.5 -16.5t0.5 -14v-6q0 -3 2 -12.5l4 -20t4 -19.5t2 -11q2 -4 2 -16.5v-29.5q0 -18 -0.5 -37.5t-0.5 -36.5t-0.5 -30t-0.5 -18l1 -5t2.5 -10.5t2.5 -11t1 -7.5t1 -18t1 -27 q0 -25 -4.5 -47t-4.5 -47q0 -15 3.5 -31.5t3.5 -33.5q0 -12 -3.5 -23t-3.5 -24q0 -45 17 -65.5t44 -29.5t59 -12.5t62 -15.5q18 -8 29 -20t26 -30q7 -7 8 -13.5t1 -15.5v-18q-3 -3 -9 -3.5t-13 -1t-13 -1t-8 -2.5q-12 -5 -20.5 -8t-16 -4.5t-14.5 -1.5h-17h-22 q-34 0 -67.5 5t-67.5 5q-38 0 -74.5 -5t-72.5 -5h-17q-5 1 -19.5 2t-30 1.5t-29.5 1.5t-18 2z" />
<glyph unicode="O" horiz-adv-x="1451" d="M343 443q14 -14 27.5 -36t23.5 -40q0 -2 1.5 -14t3.5 -14q6 -13 15 -29t19.5 -31.5l21.5 -30.5t20 -25q1 -1 4 -4.5l6.5 -7.5t7 -7t4.5 -3q2 -2 7.5 -14t5.5 -14l22 -22q1 -1 8 -4t15 -6t15 -6t9 -4t4.5 -1.5t4.5 -1.5q3 -1 6 -3q33 -24 71 -40t80 -16q16 0 28 8.5 t29 12.5q1 0 6.5 1l11.5 2t11 2t5 2q8 3 15.5 9t15 13t14 14l11.5 12q2 1 10 6l17.5 11l18 11t11.5 7q8 6 19 19.5l22.5 29t20.5 30.5t14 25q0 1 2.5 10t2.5 10q7 12 14.5 21t15.5 17t15 17.5t12 21.5q12 29 12.5 55t6.5 57q2 2 5.5 9.5t3.5 9.5v45v17q2 23 10.5 43t8.5 42 v7q-1 13 -3 35l-4 43l-3.5 36.5t-1.5 17.5q-1 2 -4 10.5t-7 18l-7.5 17.5t-4.5 11q-9 29 -16 61t-18 61q-17 58 -51.5 104.5t-73.5 89.5q-1 4 -6 9t-8 7l-38.5 24t-35.5 24l-13 7.5t-9 6.5q-19 9 -38.5 9.5t-38.5 4.5q-1 0 -6.5 3.5t-6.5 3.5q-2 0 -5 1q-2 0 -4.5 0.5 t-4.5 0.5q-3 0 -8 -1t-8 -1q-2 -2 -5 -4q-5 -3 -7 -3h-35q-4 0 -16.5 -5.5t-17.5 -8.5q-3 -1 -11.5 -7l-18.5 -13l-19 -13.5l-13 -9.5q-3 0 -9 -6q-3 -3 -5 -6q-3 -2 -13 -6l-22 -8.5l-22 -8.5t-12 -5t-8 -9.5l-14 -19l-16 -22l-13 -18.5q-15 -25 -28.5 -51.5l-26.5 -52.5 q-5 -10 -7 -20.5t-2.5 -22t-2.5 -22t-7 -20.5q-2 -1 -8 -9t-8 -10q0 -1 -1 -5.5l-2 -9l-2 -9t-1 -5.5q-7 -23 -17.5 -46t-10.5 -46v-12q0 -1 1 -6t2.5 -11l3 -11.5t1.5 -6.5q0 -2 -1.5 -10t-3 -17t-2.5 -17t-1 -11v-24v-17q2 -3 7.5 -14.5t7.5 -13.5q0 -3 0.5 -13t1.5 -21.5 t2 -21.5t2 -13q1 -5 3 -17t4 -25.5t4 -25.5t2 -17zM606 -16q-1 5 -11.5 9.5l-15.5 6.5q-2 1 -11.5 3.5t-21.5 6t-24.5 6t-18.5 3.5q-1 1 -5.5 2t-10.5 2.5t-11.5 2.5t-7.5 2q-1 0 -7 5t-12.5 11l-13 11.5t-7.5 6.5l-46.5 35t-48.5 37.5t-46 39.5t-40 41q-2 1 -5 6t-6 11 t-6 11t-4 6l-30 43t-26 47q0 2 -3 14t-3 14q-8 26 -18 49t-17 49q-8 29 -14 58t-14 58q0 7 -0.5 22t-0.5 31.5t-0.5 31.5t-0.5 21q0 10 0.5 27t0.5 33.5t0.5 29t0.5 14.5q3 52 23 102l40 100q0 1 2 7l4 12.5l4 12.5t3 8t7.5 8l14 13l14 13t8.5 7q25 31 44.5 64.5t51.5 62.5 q10 10 19 14.5t18 7.5t18.5 6.5t21.5 10.5q0 1 3.5 5.5t8 9.5t9 9t6.5 6l12 8l19 13l19 13t13 9q5 1 9 2q3 1 6 1.5t4 1.5q14 6 28.5 15.5l29 19t29.5 16t30 6.5q14 0 27 -4t27 -4h10q3 0 13.5 3.5t12.5 3.5h7t13.5 0.5t14.5 0.5h12q14 0 32 -1.5t36.5 -4t36 -6.5t30.5 -10 q3 -1 11 -5l17.5 -9l17.5 -9t11 -5q2 -2 13 -4.5t13 -2.5q21 -6 38 -21.5t33 -26.5q14 -11 32.5 -17.5t36.5 -17.5l7 -7q1 -2 2.5 -7.5t3.5 -11t3.5 -10.5t2.5 -5q9 -14 19.5 -17t23.5 -11q12 -8 25.5 -23t26 -33t23 -36.5t15.5 -33.5q2 -2 3.5 -13.5t1.5 -14.5 q3 -4 5 -11.5t4 -7.5q2 -3 7.5 -9l12.5 -13l13 -13t9 -7v-5v-3l-4 -6q-3 -5 -3 -8v-3q0 -24 8 -44.5t12 -42.5q7 -41 10.5 -81.5t3.5 -81.5v-58q0 -3 -2.5 -14.5t-2.5 -13.5q-2 -2 -2 -6.5v-10.5q0 -14 1 -27.5t1 -17.5q-1 -2 -3.5 -7.5l-5 -11.5l-4.5 -10.5t-2 -5.5 q0 -3 -1 -12t-2.5 -19.5t-2.5 -19.5t-1 -11q0 -3 -2.5 -8t-4.5 -8q-1 -2 -5 -8t-9 -12.5t-9 -12.5t-5 -8t-3 -8l-4.5 -13t-5 -13t-3.5 -8q-4 -10 -10 -23t-13.5 -26.5t-15.5 -26l-14 -21.5q-2 -1 -7 -5.5t-9 -6.5q-23 -20 -44.5 -41l-43 -42l-43.5 -41t-47 -37 q-23 -2 -35.5 -10t-33.5 -17q-3 -2 -10.5 -4.5t-12.5 -2.5q-40 -12 -79 -22.5l-80 -21.5q-11 -1 -20.5 -6.5t-20.5 -5.5h-7q-2 0 -10.5 3t-10.5 3q-5 1 -19 2t-30 2t-30 1.5t-20 0.5z" />
<glyph unicode="P" horiz-adv-x="1189" d="M537 659q25 -2 51.5 -7t51.5 -5h10l9.5 10t14.5 14.5l14.5 14l9.5 9.5q2 0 15 8.5t20 12.5q9 4 25 12t25 16l19 19.5l26 27.5t23.5 26.5t12.5 16.5q16 21 26.5 47.5t15.5 55t7 56.5t2 52q0 17 -10 30t-18 30q-2 1 -4.5 7.5t-6 13.5t-7 13t-5.5 6q0 4 -8.5 12.5 l-10.5 10.5q0 1 -3 7l-6.5 13.5t-7 13.5t-5.5 7q0 1 -5 4.5l-11.5 8t-13 8.5t-10.5 7q-2 2 -8 4.5t-7 2.5q-1 1 -4 5.5l-6 9t-6 8.5t-3 5q-2 0 -5 3q-1 1 -2 3q-3 1 -10 3l-15 4.5t-15.5 4.5t-10.5 2q-1 0 -7 1t-13 2.5t-13 2.5t-8 1q-2 1 -9 3t-15 5t-15.5 5t-9.5 3h-8h-12 l-8 -11.5t-13 -17.5l-13.5 -17t-9.5 -11q-2 -4 -5 -9.5l-6 -11.5l-8 -14v-124q-10 -19 -13.5 -41t-3.5 -44v-18t2 -17q-2 -2 -6.5 -9.5t-5.5 -9.5v-7v-8q0 -11 1.5 -29.5t2.5 -36t2 -31t1 -14.5q0 -2 2 -7.5l4.5 -12.5l4.5 -13t3 -7v-29v-28q0 -2 -3.5 -6.5t-5.5 -9.5 q0 -1 -6 -9t-6 -10v-3v-4q0 -1 3 -4l4 -4q1 0 10 4t10 4q14 0 14 -12q0 -4 -0.5 -6.5t-0.5 -6.5q0 -9 6 -11zM108 78q-1 4 6.5 13t18.5 17.5t22 15.5t16 7q3 1 13 2t21.5 2t21.5 2t13 1q2 2 12.5 9.5t15.5 11.5q1 3 7 8t8 8q0 4 0.5 14.5t1.5 23t2.5 23.5t2.5 15q0 1 2 9 t4 17.5t4 18t2 10.5v4q0 15 -6 30t-6 32q0 21 6 42t6 44v9q0 4 -1 25.5t-2.5 46t-2.5 46t-1 27.5v13q0 9 4.5 18t10.5 17.5t10.5 18t4.5 20.5q0 9 -4.5 19t-4.5 19q0 13 7 24t7 24q0 21 -6 51t-6 55q-2 9 -2 31v47v47.5t2 31.5q-8 12 -12 26.5t-4 27.5v3q1 1 3 6.5t5 11.5 t5 11t3 6v36q0 25 -7 50t-28 39q-5 0 -16.5 2l-23.5 4l-23 4t-15 3q-1 2 -9 5.5t-10 3.5t-12 -1t-19 -1q-10 0 -12 2q-8 1 -15.5 7t-13.5 14t-9.5 17t-3.5 16q0 12 6 23t15 19.5t20 13.5t22 6q3 1 16.5 2t30.5 2.5t33 2.5t24 2h17h17q3 -1 14.5 -2.5t24.5 -3t24.5 -2.5 t14.5 -1h230q2 0 12 -3.5t14 -3.5h4q18 0 32 4.5t37 4.5q8 0 22.5 -1t17.5 -1q1 0 12 -3.5t15 -3.5q18 -2 41.5 -3.5t40.5 -8.5q38 -14 69.5 -33t63.5 -45q20 -15 43 -45.5t43.5 -66.5t35.5 -72.5t18 -64.5v-31v-12q0 -2 3.5 -13t3.5 -13v-4v-5q-7 -37 -15.5 -73t-21 -70.5 t-31 -66.5t-45.5 -60l-2.5 -2.5t-6 -5t-7 -4.5t-4.5 -2q-2 -1 -9 -10l-16 -20l-18 -22.5t-13 -17.5q-2 -2 -8 -10t-6 -10q-22 -1 -35 -2.5t-27 -12.5q-12 -6 -29 -12.5t-35.5 -11.5t-36.5 -8t-32 -3q-26 0 -49 9.5t-46 13.5h-30q-20 2 -35 11.5t-36 9.5h-8q-8 0 -17 -2 t-16 -7q0 -3 -1.5 -10t-4 -14.5l-4.5 -14t-2 -8.5q-1 -2 -3 -7.5t-4.5 -11t-4.5 -10.5l-2 -5q-2 0 -2 -4v-3v-4.5t2 -4.5q0 -2 7 -13t7 -13t1.5 -8.5t2.5 -14t2 -13.5t1 -7l5 -14l3 -5q0 -13 -6.5 -29.5t-8.5 -27.5q-1 -2 -3 -8l-4.5 -13l-4.5 -13t-2 -8q0 -3 2 -13l4.5 -22 t4.5 -22.5t3 -13.5q3 -14 4 -29t4.5 -30t11 -28t21.5 -23q4 -3 15 -8t13 -5h90q5 0 16 -7.5t21.5 -17t18.5 -17.5t8 -9v-6q-8 -14 -14.5 -23t-14 -15.5t-17 -10t-23.5 -6.5q-9 0 -30.5 1t-44.5 1t-43.5 -1t-28.5 -1q-5 0 -18.5 -2.5t-16.5 -4.5h-237q-13 9 -24 9 q-5 0 -10 -1t-13 -1h-8q-30 5 -45 26.5t-18 51.5z" />
<glyph unicode="Q" horiz-adv-x="1519" d="M397 396q3 -5 11 -14.5l17 -20.5l16.5 -20.5l10.5 -13.5q2 -4 8 -12.5t6 -10.5q1 -2 4.5 -12l8 -22t9 -22t6.5 -13l10 -10t11 -10q6 -7 8 -11t3.5 -8t4.5 -7.5t9 -8.5q2 -2 7.5 -5.5l12.5 -8l13.5 -9t10.5 -6.5q1 -1 6 -4t11 -6t11 -6t6 -4q1 0 5.5 -4t9 -9t9 -9t6.5 -5 q1 -1 6 -3l11.5 -4.5t13 -4.5t9.5 -2q2 -1 20 -2.5l41 -3.5t46.5 -4.5t37.5 -3.5h8q9 0 16 3.5t13 8l12 9t13 7.5q2 1 7.5 2l11.5 2t10.5 2t5.5 1q11 4 23 16t20 18l36.5 39.5t35.5 42t31 44.5t22 49q1 2 3.5 13t4.5 13q9 22 21 41t19 44q12 40 15.5 82.5t13.5 83.5q0 1 2 7 t4 13t4 13t2 8v35q0 2 1 10.5t2.5 18t2.5 17.5t1 9q0 2 1 7t1 9q0 11 -2 27.5t-5 34.5t-7 34l-7 27l-16.5 49.5t-12.5 47.5q-2 5 -3.5 16t-1.5 13l-8.5 17l-14.5 28.5l-15.5 30t-11.5 21.5q-2 2 -7 10.5t-7 10.5l-5 5t-9 8.5t-9 9t-5 6.5q-4 4 -8.5 12.5l-9.5 18.5t-11 18.5 t-12 12.5q-3 0 -14.5 2.5t-13.5 4.5q-2 0 -10.5 6t-10.5 6q-16 9 -29.5 15.5t-26.5 10.5t-28 6t-34 3q-1 5 -7.5 7t-11.5 2h-5h-19q-2 -2 -9.5 -5.5t-9.5 -3.5q-39 -2 -71 -2.5t-69 -9.5q-1 -2 -6 -3t-11 -2t-11.5 -1.5t-6.5 -0.5q-11 -7 -18.5 -20.5t-15.5 -22.5 q-2 -2 -7 -8l-10.5 -13t-11 -13t-6.5 -8q-8 -11 -14 -23l-12 -24t-13.5 -23t-17.5 -20q-2 -2 -13 -10t-13 -11q-2 -1 -10 -14t-11 -20q-10 -16 -15 -34t-14 -35q-11 -28 -24 -55.5t-16 -57.5q-5 -36 -9.5 -72t-12.5 -71v-6v-3q0 -1 1 -5t2.5 -8.5t2.5 -8t1 -4.5v-12v-31 q0 -3 3 -12t7 -20t7 -20t3 -12v-35q1 -1 5.5 -9l9.5 -17t9 -17t6 -10q0 -5 1 -12t1 -16t-1 -17t-1 -11zM104 583v221q2 5 4.5 18.5t2.5 18.5q1 2 2 11t2 19.5t1.5 19.5t0.5 10q2 5 7.5 15.5t7.5 12.5q1 3 3.5 11.5t6 18t6 17.5t3.5 10l15 20l25.5 34.5l24.5 35t13 21.5 l5.5 10.5t9 18l8.5 17.5t6 9q1 1 2 3q2 4 4 4q1 1 6 5.5t11 9l11 8.5t6 5t5.5 5t9 9t9 9t6.5 4q0 2 3 4t7 4q4 3 9 6q1 1 4 5.5t6.5 9l6.5 8.5t3 5q2 1 8.5 3t14 5t13 5t6.5 3q13 5 24.5 16t25.5 18q1 1 7 2.5t13 3.5t13 4t9 2q1 1 8 3.5t15 5t15.5 4.5t9.5 3q9 3 14.5 6 t10 5t10 4t14.5 4q2 1 10.5 2.5t17.5 2.5t17 1.5t10 0.5q2 2 13.5 8t15.5 7q2 1 5 1.5t6 2.5q4 1 8 3h140q14 4 21.5 6.5t20.5 2.5t25.5 -5t24 -12l23.5 -14.5t24 -11.5q30 -14 59 -25.5l59 -23.5q2 -2 7 -4.5t6 -3.5q2 -1 8.5 -7l13.5 -13t12.5 -13.5t7.5 -8.5 q8 -6 17 -10.5t16.5 -9.5t14 -11t9.5 -16q0 -4 1.5 -15t3.5 -12q3 -5 15 -13l15 -10q5 -6 19.5 -20.5l31 -31l31.5 -31.5l21 -21q2 -27 11.5 -49t16.5 -48q1 -2 2.5 -10.5t3.5 -18t3.5 -17.5t2.5 -11q1 -1 4.5 -8l7.5 -15t7 -15t4 -8q1 -5 4 -18.5t3 -16.5v-92v-90 q-3 -44 -12.5 -94.5t-22.5 -93.5q0 -2 -7 -9.5t-7 -9.5q-9 -17 -11 -29.5t-4 -32.5q-4 -9 -16.5 -29l-27 -42l-27.5 -41.5l-18 -26.5q-1 -3 -9 -11l-18.5 -18l-20.5 -20t-14 -15q-2 -2 -11 -7t-11 -7l-9 -9l-15 -15l-15.5 -15t-9.5 -9q-8 -7 -21 -13.5t-25 -14.5t-21 -18 t-9 -23v-9q2 -7 4.5 -20t2.5 -15q1 -1 12 -8.5t16 -10.5q3 -2 13 -7l21.5 -11t21.5 -10.5t13 -5.5q1 -1 7 -5l13 -9t13.5 -9t9.5 -5q2 -2 16 -4.5t19 -2.5q1 -2 9 -8t10 -7l12 -4t19.5 -6t19.5 -6t11 -3q2 -1 6.5 -3.5t9 -5.5t8.5 -5t5 -2q2 0 10 -1t17.5 -2.5t17.5 -2.5 t11 -1q20 -2 38 -12.5t38 -15.5q1 0 8 -1t15.5 -2t16 -2t10.5 -1q2 -2 16 -7.5t19 -6.5q5 -2 17.5 -5t27 -6t27 -6l16.5 -4t20.5 -3t35.5 -4t35.5 -4t20.5 -3q2 0 10 -3.5t9 -3.5h23q2 -1 11 -4l19.5 -6.5t19.5 -6t12 -2.5q4 -2 24 -2q9 0 18.5 0.5t18.5 0.5t15.5 0.5 t8.5 0.5q8 -2 21.5 -8t18.5 -14q9 0 18 0.5t18 0.5q20 0 37 -2t37 -6q2 -1 8.5 -3t14 -4t13 -4t6.5 -3q29 -5 58.5 -6t57.5 -1h38q2 0 10.5 3.5t10.5 3.5h1h6q1 0 13 -3.5t14 -3.5h49q11 -5 12.5 -10.5t1.5 -13.5q0 -14 -7.5 -23t-20.5 -15q-9 -3 -23 -9l-27 -12t-23.5 -10 t-11.5 -4q-3 -1 -18 -3.5t-32.5 -4.5l-33.5 -4t-20 -2q0 -1 -5 -2t-10.5 -2.5t-11 -2.5t-7.5 -1h-26q-28 0 -55 4t-54 4q-20 0 -35 -7.5t-33 -7.5q-14 0 -29.5 4t-29.5 4q-9 0 -15.5 -7t-16.5 -7h-4q-2 1 -7 3t-11 4t-11 4t-6 2h-22h-54q-24 1 -45.5 9t-44.5 13q-2 0 -8.5 1 t-14.5 1.5t-15.5 1.5t-11.5 1q-60 9 -121.5 20.5t-120.5 29.5q-20 5 -39 13l-37 15q-2 0 -7 1t-11 2t-11 2t-6 2q-35 8 -70.5 21.5l-69.5 26.5q-20 8 -38 20.5t-38 23.5q-2 0 -10.5 1.5t-10.5 3.5q-2 1 -8 4.5t-13 7l-13 6.5t-7 3q-2 0 -9 2l-15 4.5t-15.5 4.5t-9.5 3 q-8 2 -12.5 7.5t-7.5 11.5t-6.5 12t-9.5 10q-10 6 -21 10t-23 7t-23 7t-21 11q-11 6 -20.5 15.5t-22.5 11.5q-2 0 -13.5 3.5t-12.5 3.5q-38 17 -71 40.5t-70 37.5q-2 0 -13.5 2.5t-15.5 4.5q-14 7 -29.5 18.5t-30.5 16.5q-17 5 -24 4.5t-20 7.5l-31.5 22l-39.5 27.5 l-35 23.5t-18 11l-13 13l-21.5 22l-22 22l-13.5 13l-13 7q-2 0 -4 4q-1 2 -2 3q-15 23 -29 48l-28 48q0 1 -4.5 6.5l-9 11.5t-9 11t-4.5 6q-2 2 -7 13.5t-7 14.5q-2 4 -4 15t-5 12q-2 7 -7 17l-10 20.5l-10 21t-7 17.5q-5 30 -4 55t-9 51z" />
<glyph unicode="R" horiz-adv-x="1362" d="M533 702q9 0 31.5 -1.5t47.5 -2.5t47.5 -2.5t30.5 -1.5h9h7q7 1 20 4t15 4q34 13 56 31.5t39 41t31.5 48t34.5 52.5q2 5 7 12.5t5 10.5q0 1 1.5 9t2.5 17t2 17t1 10q1 2 3.5 14t4.5 14v17q0 21 -2 44t-13 43q-14 25 -23.5 49.5t-23.5 47.5q-2 1 -5.5 5.5l-7 9t-6.5 9 t-4 5.5q0 1 -4 7.5t-8.5 13l-9 12.5t-5.5 7q0 3 -2.5 5t-4.5 2q-8 5 -17 6t-18 1t-17.5 1t-16.5 8q-13 7 -23.5 13.5t-21 11t-23 7t-29.5 2.5h-14q-5 0 -15.5 -1t-22.5 -2.5t-23.5 -2.5t-16.5 -1l-6 -6l-10.5 -10.5l-11 -10.5t-7.5 -7q0 -2 -1.5 -9.5t-3.5 -11.5 q0 -4 -3.5 -14.5t-3.5 -15.5q-4 -10 -5.5 -23.5t-9.5 -22.5v-45v-47q1 -6 2 -31.5t2.5 -55t2.5 -55t1 -31.5q0 -5 -1 -24t-2.5 -41t-2.5 -41.5t-2 -24.5v-18q0 -15 12.5 -31t30.5 -21zM1158 9q-21 0 -42 -4.5t-41 -4.5q-5 0 -18 6t-26.5 14.5t-25 16.5t-14.5 13 q-14 20 -22.5 41t-20.5 40q-2 5 -10.5 15.5t-8.5 12.5q-2 3 -6.5 11t-9 17.5l-8 17.5t-3.5 11q-3 2 -8.5 9.5t-7.5 11.5l-49.5 71.5t-47.5 73.5q0 2 -2.5 7t-4.5 7q-13 32 -29 60l-33 58q0 1 -2 5.5t-4.5 9t-4.5 9t-3 5.5q-2 0 -12.5 7.5t-15.5 11.5q-2 1 -8 5.5l-12.5 9 l-12.5 8.5t-8 5l-10.5 11l-10.5 11q-2 1 -7.5 4l-12 6.5l-12.5 6.5t-9 4q-2 0 -14 2.5t-14 4.5q-3 0 -14 6t-16 6h-1q-6 0 -15 -10.5t-18 -24t-15 -26.5t-6 -18q0 -19 4.5 -35t4.5 -35q0 -18 -4.5 -33t-4.5 -31q0 -18 6.5 -35.5t9.5 -33.5v-64v-62q0 -3 -3.5 -14.5 t-3.5 -13.5v-7q0 -29 13.5 -48.5t33.5 -33t43.5 -23.5t43.5 -19.5t33.5 -20.5t13.5 -26q0 -12 -8.5 -20.5t-21 -14t-25.5 -8t-22 -2.5q-7 0 -23 0.5l-33.5 1t-33 1.5t-21.5 2l-237 2q-8 -5 -20 -6t-23 -1h-26h-49q-6 2 -17 9t-11 15q0 7 5.5 15t13 14.5t15.5 11t13 4.5h113 q2 0 5.5 3.5t6.5 8.5l5.5 9.5t2.5 6.5v19v50q1 3 2.5 14.5t3 24.5t2.5 24.5t1 14.5q0 4 -1 19t-1 29v13t2 8q0 1 0.5 6.5t1.5 26.5t2 63.5t1 118.5q12 18 14 32t2 33q0 7 -1 18.5t-1 13.5t-3.5 7.5t-3.5 7.5v2q0 26 4.5 53.5t4.5 53.5q0 20 -4.5 30t-4.5 24v3q0 3 3.5 13.5 t3.5 12.5q1 4 2 12.5t2.5 17.5t2.5 16.5t2 10.5v61v24q0 4 2.5 23.5t6 42l6.5 42t4 24.5v53q0 2 1 8.5t2.5 14t2.5 13.5t1 7v7v7q0 2 -6 10.5t-8 10.5q-2 3 -6.5 7t-9 8.5t-8 7.5t-4.5 3q-2 2 -16 4.5t-18 4.5q-5 0 -17 3l-25 6t-24.5 6l-15.5 4q-20 5 -38.5 20.5 t-18.5 36.5q0 8 5.5 14t13 10.5t16.5 7t15 2.5q12 0 21 -1t21 -6q36 -2 72 -5t70 -3t66 3t62 5q9 5 15 6t14 1q13 0 21.5 -7.5t21.5 -7.5q25 0 49.5 3.5t48.5 7.5t47.5 7.5t48.5 3.5h38q6 -5 15 -7t18 -3t17 -1.5t13 -2.5q4 -1 12 -9.5l10 -10.5l111 -35l6 -5.5t13.5 -13.5 l15 -16t11.5 -13q2 -2 8 -10.5t8 -10.5q13 -17 33.5 -27t28.5 -22q14 -27 22 -54.5t20 -57.5q0 -1 2 -5t4 -8.5l4 -9t2 -5.5v-1v-6q0 -1 -2 -6l-4 -10.5l-4 -10.5t-2 -7v-21v-55q0 -2 -2 -6t-5 -8.5l-5.5 -8.5t-3.5 -5q0 -1 -0.5 -6.5t-1.5 -11.5t-2.5 -11t-2.5 -6 q-7 -30 -24.5 -63t-41.5 -62.5t-53 -53.5t-59 -37q-2 0 -14.5 -2t-14.5 -5q-16 -9 -27.5 -31l-19.5 -38q1 -2 2 -3q2 -2 5 -2q35 -30 66 -62t58 -71q0 -2 3 -10.5t4 -10.5q0 -2 2.5 -7t4.5 -7q8 -14 14 -27.5t14 -27.5q7 -14 13 -23t12 -17t13 -16t16 -20l48.5 -67.5 t56.5 -57.5q19 -14 43.5 -22.5t45.5 -19t35.5 -28t14.5 -49.5v-16q0 -5 -0.5 -11t-5.5 -8q-2 0 -13 -2.5t-16 -4.5q-2 0 -11 -0.5t-21.5 -1.5t-25 -2.5l-20.5 -2.5h-2q-6 0 -12 3.5t-12.5 8t-14.5 8t-19 3.5z" />
<glyph unicode="S" horiz-adv-x="1074" d="M106 149q-5 13 -6 22t-1 23q0 21 4 41t9.5 39l11 37.5t9.5 37.5l9.5 47.5t25.5 37.5q3 1 11 2t17 2t16.5 2t10.5 1q4 0 11.5 -5t9.5 -9q16 -29 25 -53l23 -59l7 -12v-42q3 -12 8.5 -20.5t12.5 -15t14.5 -12.5t15.5 -14q7 -10 12.5 -20.5t12.5 -19.5t17 -15.5t27 -6.5 q7 -2 28.5 -4l46 -4.5l46 -4.5t29.5 -3h9q22 0 42.5 10.5t40.5 17.5q2 2 14 4.5t14 2.5q1 1 9.5 8.5t12.5 11.5q2 3 6.5 9l9 11.5l8 9.5t4.5 5q0 1 0.5 6.5t1.5 11.5t2 11t3 6q0 1 2 5.5l4 9l4 9t2 5.5q1 2 2 8l2 12.5t2 12t1 7.5q0 4 -3.5 15.5t-3.5 13.5q-1 4 -2 17t-2 28 t-2 27.5t-1 17.5q-1 5 -7 13.5t-13.5 18t-15.5 18l-13 13.5q-11 15 -27 28t-33 20q-3 2 -12 4.5t-11 2.5q-1 1 -6 5.5t-10.5 9l-10.5 8.5t-7 5l-7 3.5t-9 2.5q-1 1 -8 4l-15 6.5l-15 6.5t-8 4q-6 2 -9 4q-3 1 -5 3q-2 1 -6 5t-8.5 9t-8.5 9l-5 5t-5.5 3.5t-10 6l-11 7 l-8.5 5.5q-30 16 -57.5 37l-54.5 42.5l-54.5 42t-56.5 37.5q-4 5 -13 19l-18.5 30t-18.5 29.5t-12 18.5q-2 2 -5 8l-6.5 12.5t-6 12.5t-3.5 9v52q0 38 2.5 76t11.5 73q8 28 28.5 60.5t47.5 63t56 54t55 33.5q1 0 7 0.5t13.5 1t14 1.5t8.5 2q3 0 12 2t19 5t19 5t12 2h9.5 t20 0.5t23.5 0.5h18h15t23 -0.5t22.5 -0.5h14.5q9 -4 19 -5.5l19.5 -3t19 -3.5t18.5 -7q2 -3 7 -8.5t7 -7.5q20 -25 44 -41t58 -16q24 0 36 6.5t20 15t16 15t25 6.5q9 0 13 -1.5t11 -12.5q2 -3 6 -11l8.5 -17l8 -16.5t5.5 -10.5v-5v-9q-1 -1 -2.5 -6t-3 -11t-2.5 -11t-1 -6 v-83q-13 -19 -16.5 -35t-11.5 -36q0 -2 -5 -13.5t-7 -12.5l-8.5 -22.5t-9 -16t-15 -9.5t-26.5 -3q-23 0 -38 9t-24 23t-14.5 32t-10.5 36.5t-11 36t-16 30.5q-2 2 -8.5 10l-14.5 17l-15.5 17.5t-11.5 12.5q-5 6 -16 16l-23 20.5t-24 18t-20 7.5h-90q-7 5 -12.5 6t-11.5 1 h-11q-31 -20 -59 -45t-53 -52v-14q0 -18 -3.5 -30t-3.5 -30v-11q0 -2 3.5 -13t3.5 -13q1 -17 1 -30t1.5 -25t5.5 -24t13 -26q3 -2 6 -5l9 -9q3 -3 14 -13l23.5 -21.5l24 -21.5t14.5 -13l5 -5t8.5 -9t9 -9t5.5 -5q2 -1 10.5 -5l19.5 -9.5l22 -11.5t17 -9q26 -11 53.5 -26 t57.5 -15l102 -67t99 -73q4 -2 8.5 -7t6.5 -7q1 -2 3.5 -7.5t6 -12.5t6 -13t3.5 -7q17 -26 35 -47.5t27 -50.5q1 -2 2.5 -9t2.5 -15.5t2 -16t2 -8.5q0 -2 3.5 -10t3.5 -11v-14q0 -17 -6.5 -27.5t-9.5 -29.5q0 -4 1 -20.5t1 -32.5q0 -19 -2 -23q0 -1 -2.5 -6t-6 -10.5 l-6.5 -10.5t-4 -7q-2 -3 -9 -17.5l-15.5 -31l-15.5 -31t-10 -17.5q0 -2 -6.5 -9l-15.5 -16l-17.5 -17.5l-13.5 -13.5q-32 -29 -66 -50.5t-74 -32.5q-5 -1 -23 -5l-39 -8.5l-40.5 -8.5t-29.5 -5h-7q-54 0 -111.5 3t-111.5 17q-10 3 -18 8.5l-16.5 11.5l-16.5 12t-18 10 q-7 3 -23 8.5l-32.5 11.5l-30.5 11.5t-18 9.5q-3 4 -11 13l-17 19l-16.5 19t-10.5 12z" />
<glyph unicode="T" horiz-adv-x="1552" d="M934 0h-212q-3 1 -8.5 3l-12.5 4.5l-12.5 4.5t-8.5 4h-5h-4q-27 -10 -53 -13t-57 -3q-18 0 -40.5 2.5t-43 10.5t-34.5 22t-14 38q0 18 12.5 33.5t29.5 18.5q5 0 20 1t31.5 2t31 2t20.5 1q17 3 29 11.5t21 20.5t15.5 25.5t12.5 27.5q-1 8 -2 29t-1 44t1 43t2 30 q0 4 2 20.5t4 35.5t4 35t2 21v3v2q0 3 -3 12t-3 11v7q0 9 3 17.5t3 20.5q0 13 -3 25t-3 25v15q1 5 3 26.5l4.5 46.5t4 46.5t1.5 27.5v21v61q2 23 9 44t7 44q0 17 -4.5 27.5t-4.5 27.5q0 8 1 15.5t8 14.5v161q0 1 -2.5 8t-4.5 12q-5 12 -9.5 27t-18.5 22q-3 1 -9.5 4 l-14.5 6.5l-15.5 6.5t-10.5 4h-59q-63 0 -120 -3.5t-118 -3.5h-42q-25 -14 -42.5 -28.5t-33.5 -34.5q-2 0 -4.5 -5t-4.5 -7q-4 -11 -6 -18t-4.5 -13t-6.5 -11.5t-10 -14.5l-22.5 -28.5t-24.5 -27.5t-29 -21t-35 -8q-14 0 -24.5 6t-10.5 24v5q0 6 1 17.5t2.5 23.5t2.5 22.5 t1 14.5q1 5 1.5 13t1.5 15.5t1.5 13.5l0.5 6q3 2 12 10.5l11 10.5q1 2 5.5 13t9 24l8.5 24.5l5 14.5v35q1 11 8 15.5t14 12.5q9 12 16 24.5t16 23t21 17.5t30 7q16 0 30 -6.5t27.5 -16l26.5 -19t27 -15.5q2 -1 7.5 -1.5t11.5 -0.5h11h6q23 0 39.5 4.5t36.5 4.5q41 0 80 -8 t81 -8q17 0 34.5 4.5t34.5 4.5h4l43.5 -2.5l52 -3t44.5 -2.5t21 -1q1 0 7 -1l12.5 -2l12.5 -2t8 -1h6q53 0 103.5 3t102.5 3q20 0 39.5 -3t40.5 -3h22q29 0 57 2t52 13q5 0 9.5 2.5t6.5 4.5q2 1 10 7l17.5 13.5l17 13.5t9.5 8q1 0 6.5 1t12 1.5t13.5 1.5t11 1h12 q16 0 22 -13.5t14 -26.5q2 -3 7.5 -12t8.5 -11q0 -1 0.5 -8t1 -15t1.5 -15t2 -8q1 -3 5 -11l8.5 -17.5t9 -17.5t6.5 -11q0 -2 2 -10.5t4 -10.5q3 -8 11 -26.5l17 -39.5l17.5 -40t11.5 -27q0 -2 0.5 -9.5t1.5 -16.5t2 -17t3 -11v-9q0 -27 -23 -41t-47 -14q-4 0 -12 1t-10 1 q-16 14 -33.5 31t-28.5 38l-32.5 63.5t-36.5 56.5t-49.5 41t-70.5 19h-35h-88q-4 2 -15 5.5t-12 3.5h-58h-55q-4 -3 -17 -8.5t-17 -7.5q-2 -2 -4 -3q-3 -3 -3 -4q-1 -3 -2 -11t-2 -17t-2 -16.5t-1 -10.5v-4v-3q0 -3 1 -13t2.5 -22t2.5 -22t1 -12v-14q0 -30 -3.5 -61 t-3.5 -62q0 -29 3.5 -58.5t3.5 -60.5q0 -11 -8 -20t-8 -19q0 -18 4.5 -35.5t4.5 -34.5v-32l-1 -4.5t-2.5 -9t-2.5 -9l-1 -4.5v-11v-24q-1 -2 -2 -8l-2 -12.5t-2.5 -12.5t-2.5 -8q-8 -85 -13.5 -168.5t-5.5 -169.5v-19q0 -11 1 -21t6 -27q3 -9 10.5 -21.5t18 -24.5t22 -20.5 t22.5 -8.5q15 0 29 4.5t29 4.5q17 0 39 -3t41.5 -11t33 -22t13.5 -37q0 -10 -4.5 -21.5t-12 -21.5t-18 -17.5t-22.5 -8.5q-5 0 -17.5 1t-27 2t-27.5 2t-18 2q-4 0 -14.5 3.5t-15.5 3.5z" />
<glyph unicode="U" horiz-adv-x="1585" d="M229 514v15q0 14 1 34.5t1.5 41t1.5 36t1 20.5v24q0 13 -2.5 24t-2.5 25q0 15 2.5 29.5t2.5 30.5v5q0 3 -2.5 15t-2.5 15l-0.5 5.5t-1 13l-1 15t-0.5 11.5q0 27 4 44t4 42q0 16 -2.5 32.5t-2.5 35.5q0 23 2.5 44.5t2.5 50.5q0 32 -0.5 57t-4.5 59q-12 15 -32.5 23.5 t-39.5 15.5t-33 15t-14 22v7q0 6 3.5 19t3.5 15q1 5 9.5 8.5t10.5 5.5q38 11 76 13.5t77 2.5h77q16 0 31.5 3.5t31.5 3.5q6 0 22.5 -0.5t35.5 -0.5t36 -0.5t25 -0.5q17 -3 38 -11.5t36 -17.5q5 -5 6 -10.5t1 -10.5v-9q0 -18 -6 -23l-21 -17q-7 -2 -20 -8.5t-15 -6.5 q-2 -2 -12.5 -4.5t-15.5 -4.5q-2 0 -8 -1t-13 -2.5t-13 -3.5t-7 -3q-12 -5 -22 -16t-18 -25.5t-12.5 -30t-4.5 -27.5q0 -18 2 -32.5t6 -34.5v-305q-6 -14 -7 -27t-1 -30v-28q5 -72 14 -148t36 -144q0 -2 7 -10.5t7 -10.5q1 0 3 -5t4 -11l4 -11.5t3 -6.5q6 -17 17 -31.5 t17 -31.5q0 -1 1 -5t2 -8.5t2 -8t2 -4.5q5 -12 11.5 -19t14 -11.5t16.5 -8.5t20 -11l7 -7q5 -1 12 -4t11 -3t21 -2l36.5 -4.5t37 -4.5t21.5 -2q1 0 10.5 -3.5t11.5 -3.5q5 -2 14 -4.5t18 -4.5l16 -3.5t8 -1.5q7 1 14 3q5 1 11 2t9 2q28 6 51.5 17.5t44.5 26t41.5 31.5 l42.5 35q14 12 33.5 23t28.5 28q2 0 4.5 7t4.5 12q4 15 10.5 35t8.5 36q1 2 2.5 9t2.5 15t1.5 15t0.5 9q1 1 4.5 7l7.5 12.5t7 12.5t3 8q1 3 2 13t2 22t1.5 24t0.5 19q0 1 0.5 8.5t1 17.5l1 19.5t0.5 14.5q0 32 -4.5 65t-4.5 65v24q0 8 0.5 15.5t5.5 12.5q4 43 6 92t2 95v13 t-1 11q0 1 -2 8t-4.5 15t-4.5 15t-2 9q-1 5 -2 18t-1 27t1 27.5t2 18.5l-13 29t-21 27l-12 7l-14.5 8.5t-14 7.5t-9.5 3q-2 0 -9 1.5t-15.5 2.5t-15.5 2.5t-9 1.5q-1 0 -5.5 2.5t-6.5 4.5q-6 5 -19 15t-24 13q-6 2 -14.5 3t-16 3.5t-13 8t-5.5 16.5q0 5 5 13.5t13 16.5 t18 14t20 6q32 0 49.5 1t33.5 1h126q1 0 8 1t15.5 2t15 2.5t8.5 3.5h14q13 0 25 -4.5t25 -4.5q16 0 30.5 4.5t31.5 4.5q41 0 78 -16.5t62 -47.5q0 -2 2.5 -10.5t4.5 -10.5v-5v-2q-2 -2 -4.5 -7.5t-2.5 -8.5l-14 -7t-21 -10l-21.5 -10l-14.5 -7q-13 -4 -26 -4.5t-25.5 -2.5 t-24 -8t-21.5 -20q-1 -5 -3 -18t-4 -29t-4 -30t-2 -20v-69q0 -3 -1 -12t-2.5 -19t-2.5 -19t-1 -12q0 -2 3.5 -11t3.5 -12v-8v-11q0 -3 -1 -12t-2.5 -19t-2.5 -19t-1 -12q-2 -16 -2 -55v-82v-42v-39t0.5 -31.5t1.5 -20.5q-3 -9 -7.5 -26t-6.5 -24l-14 -189q-6 -8 -10 -18 t-7 -21.5t-5.5 -22t-5.5 -19.5q0 -2 -2.5 -7.5t-4.5 -8.5q-18 -32 -35.5 -67t-41.5 -64q-1 -1 -4.5 -5l-7.5 -8.5l-8 -9t-6 -6.5q-2 -1 -6 -4t-8.5 -6t-8.5 -6t-5 -3l-7 -7l-11 -11l-11 -11l-6 -6q-2 -1 -8.5 -2t-13.5 -2.5t-13.5 -2.5t-7.5 -2q-13 -2 -24 -11.5t-24 -14.5 q-2 0 -9 -2l-16 -4.5l-18 -5t-13 -3.5q-11 -2 -28 -4.5t-29 -7.5q-10 -5 -15.5 -9.5t-11 -7.5t-11.5 -4.5t-17 -1.5h-26q-3 0 -11 1t-17.5 2.5t-17.5 2.5t-11 1h-75q-1 0 -5.5 1t-9 2.5t-9 2.5t-5.5 1h-17h-45q-2 2 -10.5 7.5t-10.5 8.5l-57 27t-50 25.5t-48.5 30.5 t-52.5 41q-1 1 -5.5 3.5t-9 6t-9 6t-5.5 3.5q-10 9 -16 21t-11 25.5t-9.5 27t-10.5 25.5q-2 2 -6.5 9t-9 15.5l-8 15.5t-3.5 8q-9 14 -13 31t-5.5 35t-2 35t-2.5 32q0 2 -2 13.5t-4 24.5t-4 24t-2 13z" />
<glyph unicode="V" horiz-adv-x="1297" d="M607 -14q-2 4 -5.5 15.5l-7 23.5l-6.5 22.5t-4 14.5q-2 4 -3.5 12t-1.5 11l-5.5 11t-9 19.5t-9 19.5t-5.5 12q-2 2 -4 14t-2 14q-1 0 -4.5 4t-7 8.5t-6.5 9t-4 5.5t-2 6.5l-2 11.5t-2 11t-1 6q0 2 -5.5 15l-8.5 20q-23 54 -40.5 113.5l-35.5 116.5q-8 27 -19 55.5 t-23 54.5q0 1 -3 7.5t-7 13.5t-7 13.5t-3 9.5q-2 1 -3 8t-2 15t-1.5 15t-0.5 8q-2 14 -4.5 26.5t-9.5 24.5q-1 0 -4.5 4t-7 8.5l-6.5 8.5l-3 4q-1 3 -2 11.5t-2 18t-2 17t-1 9.5t-2 7.5t-4 12t-4.5 12.5t-4.5 9q-4 12 -15 40l-23 59l-22.5 58.5l-14.5 38.5q0 4 -2.5 17 t-4.5 17q0 1 -3.5 7.5t-7 14t-7 14t-4.5 8.5v19q0 5 -2.5 15.5t-2.5 11.5q-2 1 -8 8.5l-14 17l-16 20t-12 17.5q-5 9 -11 11t-17 4q-2 0 -7 1t-10.5 2l-11 2t-6.5 2q-1 0 -5 1t-8.5 2.5t-8 2.5t-4.5 1q-2 0 -8.5 0.5t-13.5 1.5l-13.5 2t-7.5 1q-3 2 -9 7.5l-13 12.5 l-12.5 13t-6.5 9v8q0 20 10.5 31.5t27 17.5t35.5 7.5t36 1.5h20q16 0 29 -1t30 -8h151q18 9 35 11.5t34 2.5h38h19q1 0 6 1t11 2.5t11 2.5t7 1h13q8 0 18 -2t18.5 -6t14.5 -10.5t6 -16.5q0 -28 -11.5 -40.5t-28.5 -17.5t-37 -5.5t-37 -4.5t-28.5 -15.5t-11.5 -37.5 q0 -25 8.5 -42t11.5 -38q1 -3 2 -10.5l2 -15.5t2 -15t2 -9q1 -3 6.5 -14.5l11 -24l10.5 -23.5t7 -14q0 -1 1 -5.5t2.5 -10t2.5 -11t1 -7.5v-49q1 -17 14.5 -32t19.5 -32q2 -2 4.5 -9.5t2.5 -9.5q1 -1 2 -6.5l2 -11.5t2 -11t1 -6q13 -34 30 -66t25 -67q1 -1 2 -7t2 -13.5 t2 -13.5t1 -7q1 -2 4 -7.5l6.5 -12t6.5 -13t4 -9.5q3 -2 12 -13.5t11 -14.5l1.5 -7t3 -16t3.5 -18.5t4 -15.5l1 -5t2.5 -10.5t2.5 -11t1 -7.5q3 -5 8.5 -16.5l12 -25t13 -25t9.5 -15.5q2 -5 9.5 -12.5l9.5 -9.5q2 -1 6 -1q2 -1 5 -1h5h2q3 0 5 1q3 0 6 1q3 2 13.5 13 t14.5 16q14 22 20.5 42.5t10 41.5t6.5 43t10 46q2 4 4.5 10.5t4.5 13.5t4 12.5t2 7.5q1 1 5 8.5l9 16.5t9 17t5 11t2 16.5t2 29t1.5 28.5t1.5 16q0 2 3 9t7 15.5l7.5 16t4.5 9.5q0 2 1.5 11.5t4 20l4.5 19.5t3 10q8 32 17.5 63.5t16.5 62.5q0 2 1 10t2.5 17.5t2.5 17.5t1 11 q1 2 3 7t4.5 10.5t4.5 10.5t4 6v23v27q-2 5 -3 15l-2 20t-2 17.5t-2 8.5q-4 16 -15 37t-27 34q-15 10 -32.5 11.5t-33.5 3.5t-26.5 10.5t-10.5 33.5q0 20 16 36t36 16q9 0 18 -3.5t18 -3.5h9q10 0 30 0.5t45.5 1t53 1.5t53 1.5t45.5 1t30 1.5q2 1 10 4t9 3h78q2 0 13.5 2.5 t14.5 2.5q1 0 3 1q2 2 4 2q6 0 11 -2t11 -6q4 -5 11 -12l13.5 -13.5l11 -11t4.5 -5.5v-7q0 -1 -4.5 -6.5t-11 -12.5t-13.5 -13.5l-11 -10.5q-16 -12 -35.5 -19.5t-39 -14t-38.5 -14.5t-34 -21q-12 -10 -20.5 -18.5t-14.5 -18t-11 -20.5l-11 -25q-1 -3 -6 -13l-11 -22 l-11.5 -22t-5.5 -12v-36v-14l-2 -6q-1 -2 -2.5 -4t-2.5 -4q-2 -2 -6.5 -10.5l-5.5 -10.5q-4 -30 -10 -55t-13.5 -49.5t-16.5 -49.5t-18 -53q0 -1 -1 -5.5t-1.5 -10t-1.5 -11t-1 -8.5q-1 -3 -2.5 -10.5t-2.5 -15.5t-2 -15t-1 -9q0 -3 -3.5 -12t-8 -19.5t-8.5 -21t-6 -16.5 q-2 -3 -6.5 -11t-9 -17.5t-9 -17.5t-5.5 -10v-7v-13q-1 -2 -5 -7t-9 -10.5t-9 -11t-4 -6.5q-8 -15 -11.5 -34.5t-6 -40t-4.5 -40.5t-6 -37q-2 -4 -4.5 -12.5t-2.5 -10.5q-20 -39 -36 -78.5l-33 -80.5q-7 -16 -16.5 -31.5t-11.5 -32.5q-1 -2 -2 -13t-1.5 -24t-1.5 -24t-2 -13 t-5 -8l-9 -13t-9 -13.5t-5 -7.5q-6 -12 -8 -28t-5.5 -30t-13 -23.5t-30.5 -9.5q-14 0 -27 12.5t-19 21.5z" />
<glyph unicode="W" horiz-adv-x="1874" d="M143 1202l-12 12t-18.5 19.5t-18.5 19.5l-12 12q-8 6 -18.5 8l-22 4t-23 8t-21.5 21v4q0 9 6 15.5t15 8.5q46 8 90.5 12t89.5 10q2 0 11 3t12 3h5h7q2 0 8.5 -1l13.5 -2t12.5 -2t6.5 -1q7 -1 22 -2t34 -1q18 0 34 1t23 2q20 -6 31.5 -25.5t11.5 -39.5q0 -2 -0.5 -5 t-0.5 -6q-1 -4 -1 -8q-1 -2 -6.5 -7.5l-11.5 -11l-11 -10.5t-5 -6q-5 -8 -6 -17.5t-1 -18.5v-14v-26q0 -2 2 -6t4 -8.5t4 -8.5t2 -5q1 -2 2.5 -7.5t2.5 -11t1.5 -10.5l0.5 -5q10 -33 22.5 -63.5t20.5 -63.5q5 -20 7.5 -45t11.5 -45q1 0 4.5 -4t7 -8.5l7 -9t3.5 -5.5 q1 -3 4.5 -8.5t7 -12.5t6 -12.5t3.5 -8.5q0 -2 2 -9t4.5 -15t4.5 -15t3 -9t4 -7l6.5 -11l6.5 -11.5t4 -7.5q6 -13 7.5 -26.5t6.5 -26.5q5 -19 16.5 -33t17.5 -30q2 -2 4.5 -11t2.5 -11q1 -3 5.5 -12t9 -19l8.5 -19t5 -12q1 -2 2 -9.5l2 -15.5t2 -15t1 -9q1 -3 5.5 -11 t10 -16.5t11.5 -16.5t9 -11q19 -14 45 -14q12 0 21.5 11t17 26t12.5 30.5l8 24.5q3 6 9 23l13.5 36.5l14.5 37.5l10 26q5 13 14.5 24.5t14.5 25.5q2 2 3.5 13.5t1.5 13.5q1 2 2.5 10.5t2.5 17.5t1.5 17t0.5 9q1 2 3 7.5t5 11.5t5 10.5t3 5.5q9 26 12 47.5t3 50.5v21 q0 16 -1.5 29.5t-6.5 27.5q-2 1 -5.5 7t-7 13l-6.5 12.5t-4 7.5q0 3 -0.5 12t-1.5 20t-2.5 20t-2.5 12q0 1 -2.5 9l-5.5 17.5l-6 19.5t-5 16q-2 2 -4.5 6.5t-3.5 5.5l-10 16.5l-14.5 24l-14 23t-8.5 14.5q-7 10 -23 16t-36 10t-42 7.5t-40 7.5t-29.5 10.5t-11.5 17.5 q1 3 3 6q2 2 3 4.5t3 3.5q17 22 39 33.5t46.5 16.5t50 7t49.5 5q2 0 7.5 1t11.5 2.5t10.5 2.5t5.5 1h19h10q7 0 13.5 -1t14.5 -6h64q52 0 103 -1t102 -5q12 -5 14 -20.5t2 -26.5v-9q-6 -13 -16 -18t-21.5 -6.5t-24 -1.5t-23.5 -2q-1 0 -6 -2.5t-8 -3.5q-3 -3 -8.5 -8 t-10.5 -11t-9.5 -10.5l-5.5 -5.5q-7 -8 -8 -18.5t-1 -21.5q0 -2 0.5 -8.5t3.5 -8.5q1 -7 6.5 -25l12 -37.5l12.5 -37.5t8 -25q1 -2 4.5 -8l7.5 -12.5t6.5 -12.5t2.5 -8q11 -25 11.5 -48t2.5 -49q2 -13 8.5 -23t14.5 -19t15 -19t10 -22q1 -2 2 -12t2.5 -22t2.5 -22t2 -13 q0 -3 2.5 -13.5t4.5 -14.5q1 -4 4.5 -14.5t8 -22.5l8.5 -23.5t7 -17.5q0 -2 2 -6t5 -6q5 -10 14.5 -32t21 -44.5t23.5 -39.5t22 -17q8 0 10.5 1t11.5 6q4 2 10.5 6t11.5 8q6 4 13 8q2 2 3.5 13t1.5 15q17 45 30.5 91.5l26.5 93.5q7 25 19 49.5t16 49.5q1 3 2 14.5l2 24l2 24 t1 14.5t2.5 16.5t2.5 18.5q3 10 9.5 19t13.5 17.5t12.5 17.5t7.5 20v35v16l2 5t5 11t5 11.5t2 6.5q5 17 7 28.5t2 28.5q0 36 -16 51t-39 22.5t-48 13.5t-44 22q-3 2 -8 7l-10.5 10.5l-10.5 10.5t-6 7v7q0 18 11 27.5t26.5 14t32 5.5t27.5 1q8 1 28.5 2t44 2t44 2t28.5 3 q3 0 11 1.5t10 3.5q2 0 7 2t11 5t10.5 5t6.5 2t8 -2t13 -5t13 -5t7 -2q19 -5 37 -5.5t36.5 -0.5t36.5 -1.5t37 -6.5q2 0 13 -4.5t15 -9.5q7 -5 21.5 -12t19.5 -15v-24q0 -27 -9 -39t-23 -16.5t-33 -5.5t-38 -7q-2 0 -8 -2.5t-13.5 -6l-14 -6.5t-8.5 -4q-1 -2 -9 -4.5 t-10 -2.5q-14 -8 -22.5 -21.5t-15.5 -29.5t-12.5 -32t-11.5 -29q-2 -2 -8 -10t-7 -9q-11 -20 -17.5 -42l-13.5 -44t-16 -43t-23 -39q-4 -50 -10 -91.5t-24 -88.5q-6 -16 -14 -29l-15.5 -26t-14 -26.5t-10.5 -29.5q-2 -2 -2 -15q0 -11 1 -22t1 -13q-5 -14 -13.5 -30 l-18 -32.5l-18.5 -32.5t-14 -30q-2 -4 -4 -11.5t-5 -7.5q0 -3 -0.5 -12t-1.5 -20t-1.5 -20t-1.5 -12q0 -1 -3.5 -6.5t-3.5 -6.5q-1 -3 -4 -11t-3 -10t-2 -10.5t-4.5 -18t-5 -18t-3.5 -9.5l-1.5 -4.5t-4 -9t-4.5 -9l-2 -4.5q-3 -5 -6.5 -13.5t-7.5 -16.5q-4 -10 -9 -19 q0 -3 -1 -12t-1.5 -19t-1.5 -19t-1 -12q-3 -17 -8 -42t-14.5 -48.5t-23.5 -40t-35 -16.5h-12q-7 0 -13.5 1t-12.5 6l-20 19.5t-15 16.5q-1 1 -5 11l-9.5 23l-11.5 26.5t-9 21.5q-13 34 -14.5 66t-10.5 67l-20.5 54.5t-23.5 54.5q-12 32 -21 65.5l-18.5 66.5t-21.5 65t-30 61 q-5 10 -8 12.5t-11 2.5t-12.5 -2.5t-8.5 -12.5q-2 -2 -5.5 -9l-8 -16t-9 -17t-7.5 -12q-1 -5 -4 -13t-6.5 -15.5t-6 -13.5t-2.5 -8t-1.5 -8t-2.5 -13t-2 -13t-1 -8q-1 -1 -6 -7t-11 -12.5l-11.5 -13t-7.5 -7.5q-11 -20 -15 -38.5t-11 -38.5q-9 -25 -16.5 -53t-17.5 -51 q-1 -2 -4 -9l-6.5 -15l-6.5 -15.5t-4 -9.5q-13 -32 -20.5 -64t-17 -63t-24.5 -59t-42 -51q-2 0 -13 -6t-16 -8h-4h-2q-4 0 -8.5 3.5t-6.5 3.5q-3 3 -10 9.5t-13.5 13.5t-12 12t-6.5 7q0 2 -3 10.5t-7 18t-7 17.5t-3 9q-17 41 -35 80t-35 81q-11 27 -18 55t-16 54 q-25 66 -46 130t-46 128q0 2 -2.5 8.5t-6 14l-6.5 13.5t-4 7q-2 4 -8 19.5t-8 22.5q0 1 -1.5 9t-3.5 17.5t-4 17.5t-3 9q-1 3 -6.5 11.5l-11.5 18l-11 17.5t-5 10q-3 3 -5 8t-2 6q-1 2 -2 9t-2.5 15.5t-2.5 15.5t-2 9q-11 42 -29 83t-31 83q-1 2 -2 8.5t-2.5 13.5t-2.5 13 t-2 6q0 2 -2.5 7l-4.5 9l-32.5 63.5t-22.5 67.5z" />
<glyph unicode="X" horiz-adv-x="1485" d="M934 16q-4 2 -14.5 12.5t-13.5 14.5v2q0 6 4.5 13.5t10.5 13.5l11.5 11t8.5 7q6 5 13.5 7.5l14 4.5t11 6.5t4.5 14.5v8q-2 5 -8 13t-8 10t-5 7.5t-6 12.5t-6 12.5t-5 7.5q-9 25 -24.5 54.5t-29.5 52.5q0 1 -4.5 5.5t-9 10.5l-9 11.5t-4.5 7.5q-3 3 -10 17l-15.5 30.5 l-15.5 30.5l-9 18q-1 1 -7 9.5l-13 18t-13.5 17.5t-8.5 9q-6 9 -10 14.5t-8.5 8.5t-11 4t-17.5 1q-26 0 -38.5 -6.5t-18 -18t-7 -28t-5.5 -37.5q-2 -2 -4.5 -7t-4.5 -7q0 -1 -5 -6l-11 -10.5l-11.5 -11t-6.5 -7.5q-2 -2 -8.5 -12l-14.5 -22l-15.5 -23.5t-10.5 -16.5 q-6 -11 -13.5 -28.5t-14 -37t-11 -37.5t-4.5 -30q0 -25 14 -38t35 -19.5t46 -10t46 -8.5t35 -15.5t14 -31.5q0 -23 -16 -30.5t-37 -7.5q-12 0 -23 1t-20 1h-9q-2 -1 -7.5 -3t-12.5 -5t-13.5 -5t-8.5 -3h-12q-11 0 -19 1t-17 6h-424q-2 0 -13 5.5t-16 10.5q-4 0 -8 6 q-3 3 -4 6l7 62q0 5 9.5 10.5t10.5 5.5l70.5 15.5t69.5 16.5t67 22.5t63 33.5q0 2 3.5 4.5t3.5 3.5l18.5 20.5l23 25l19.5 21.5t8 10q2 0 5 5.5l6.5 11.5l6.5 11t5 6q13 18 31 37t31 39q2 3 7 14.5t5 13.5q2 3 7 9.5l11 14.5l11.5 15.5t8.5 10.5q3 2 6 5q2 2 3.5 4t2.5 3 q7 7 17.5 20t10.5 15q1 2 2 8.5l2 13.5t1.5 13t1.5 6q3 12 9 21.5l12 19t10 20t4 24.5v7q-1 4 -2 12l-2 16t-2 14l-1 6q-7 9 -14 17l-12 14t-9 11q-2 2 -7 8t-7 6q0 2 -7 4t-7 4q-1 1 -5.5 7t-9 13l-8.5 13t-4 7q-2 3 -6.5 8l-9 10.5l-8 10t-4.5 6.5t-6 7l-11 10.5 l-11.5 10.5t-6.5 6q-10 15 -19.5 35l-20 40.5l-21 40t-22.5 32.5l-15.5 15l-26.5 26l-26.5 26.5l-15.5 15.5q-1 0 -4 5.5l-6.5 11.5l-6.5 11t-4 6q-18 27 -46.5 55l-50.5 49q-14 13 -28.5 18t-29 9t-28 11t-25.5 24q-3 3 -6 10t-6.5 14t-6 12.5t-3.5 6.5q0 5 4 12.5t10 14.5 l11.5 13t8.5 9h50h49q1 0 5.5 -1t9 -2.5t8.5 -2.5t5 -1h50q3 0 16 -1t28 -2.5t28.5 -2.5t17.5 -1q3 -1 6 -1q3 -1 9 -1q3 0 6 1q2 0 5 1q4 0 15 3.5t12 3.5h51h48q6 -1 19 -5t26 -10.5t23 -14t10 -15.5q0 -12 -7 -19.5t-17 -11t-21 -5.5t-19 -4q-9 -1 -20 -1.5t-20.5 -3 t-16.5 -8t-7 -16.5v-4t1 -4q0 -3 1 -4q0 -2 6.5 -14t6.5 -14q2 -2 4 -14t2 -14q5 -10 10.5 -15.5t12 -11l13.5 -11t14 -15.5q0 -2 2.5 -7.5l5 -11.5t4.5 -11.5t2 -7.5q9 -17 21.5 -38t26.5 -37q1 -2 6 -7l11 -10.5l11 -10.5t7 -6q3 -3 10.5 -14t16.5 -23l17.5 -23.5 t12.5 -15.5l9.5 -21.5t13 -23.5t17.5 -18.5t24 -7.5q22 0 32 5t14.5 14t7.5 20.5t13 24.5q3 2 7 5q2 2 4.5 4t2.5 4q1 1 1.5 7.5t1.5 13t1.5 12.5t0.5 7q3 12 12.5 18.5t20 11.5t19.5 11t12 16v9v26q1 12 5 21l8 17.5l8 17t7 20.5q0 1 1 6.5t2.5 11t2.5 10.5t1 7 q4 10 10 16.5l11.5 12.5t9 13t3.5 18q0 7 -4.5 12.5t-10.5 9t-13 5.5t-13 3h-49q-1 0 -7.5 2.5t-14 6l-15 7t-11.5 6.5q-5 1 -12 5.5t-13.5 10t-11.5 12t-5 12.5q0 2 2.5 7.5t4.5 7.5q4 6 11.5 9.5t16 5t16 2.5t12.5 3q2 1 8 3.5t12.5 4.5l12.5 4t8 3h35h12q2 0 11.5 3.5 t10.5 3.5h11q11 0 18.5 -2.5t21.5 -13.5h297q12 0 27.5 -1t30 -5t24.5 -13.5t10 -25.5v-8q-13 -26 -33.5 -39t-44.5 -19.5t-49.5 -10t-49.5 -9.5l-14.5 -3.5t-22.5 -6t-22.5 -6l-14.5 -3.5q-2 -3 -8 -8.5t-8 -7.5q-2 -3 -12 -17l-21.5 -30.5l-22 -31l-13.5 -18.5 q-20 -26 -44 -51t-44 -52q-2 -2 -5.5 -8.5l-7 -13.5l-6.5 -13t-3 -7l-8 -8t-8 -7q-2 -3 -6 -8.5t-8.5 -11l-8 -10t-3.5 -5.5q-2 -2 -7 -16t-7 -19q-6 -10 -14.5 -15.5l-17 -11l-17 -11t-15.5 -15.5q0 -2 1 -5t1 -6v-3t-2 -2q-1 -3 -5 -11t-9 -17t-9 -17t-4 -10v-14 q0 -12 6 -22.5t14.5 -19.5t18.5 -17.5t18 -16.5q6 -9 7.5 -21t5.5 -22q1 -2 4.5 -8t6.5 -12.5t6 -12t4 -7.5q9 -17 25.5 -21t30.5 -14q0 -1 4.5 -5.5t10 -9.5l11 -10.5l8.5 -8.5t9 -10l11.5 -13.5t9.5 -12t5 -6.5l10 -19.5l12 -23.5q0 -1 1.5 -6t4 -11t4.5 -11.5t2 -6.5 q5 -10 13 -15.5t17 -9.5t17.5 -9t15.5 -14q2 -2 7.5 -14t5.5 -14q1 -1 6.5 -6l11.5 -10.5l11 -10.5t6 -7q2 -2 7.5 -10.5t8.5 -10.5q16 -30 32 -46.5t42 -36.5q3 -2 12 -10.5l11 -10.5q13 -10 40 -21.5t53 -25.5t46 -31t20 -38q0 -17 -9.5 -27t-23 -15.5t-29 -7.5t-27.5 -2 h-36q-2 0 -9 1t-15.5 2.5t-15.5 2.5t-10 1h-35q-1 1 -9 3t-17.5 5t-17.5 5t-9 3h-63q-11 0 -37.5 0.5t-56.5 1.5t-57 2t-37 3z" />
<glyph unicode="Y" horiz-adv-x="1290" d="M272 45v5q6 12 14 26t18.5 26t23.5 20.5t29 8.5h76q9 1 21.5 5.5t25 11t22.5 15.5t14 19q1 3 2.5 10.5t2.5 16t1.5 16t0.5 10.5q-2 16 -2 54v83v82t2 55q0 3 1 17t2.5 30.5t2.5 30.5t1 18v51q0 32 -3.5 56.5t-24.5 50.5q-1 2 -11 14l-23 27.5l-26.5 31t-22.5 24.5 q-9 11 -15.5 16t-11.5 18q-1 3 -3 10.5t-5 16t-5 15.5t-3 9q-1 4 -3 10.5l-4 13.5q-3 8 -5 17q-2 1 -6 5.5t-9 9l-9.5 8.5t-5.5 5l-11 16.5l-19.5 29l-19.5 29t-12 16.5l-5.5 5.5l-10.5 10.5t-11 11.5t-7 7.5t-7.5 13t-5.5 15q-15 25 -35 46.5t-42 41.5q-7 7 -20 17.5 t-15 10.5q-16 6 -35.5 7.5t-36 5.5t-28 13t-11.5 32q0 12 1.5 23t10.5 17q5 2 17.5 6.5l26 9l25 8t16.5 4.5h37q28 0 55 -3.5t54 -8t53.5 -8t53.5 -3.5q11 0 16 1t17 8l166 21q11 1 21 -4t18 -13.5t13 -19t5 -20.5q0 -11 -6 -17t-14.5 -10t-18.5 -7.5t-18 -7.5q-2 0 -7 -2.5 t-7 -2.5q-3 -1 -12 -2t-20 -2t-20 -1.5t-12 -1.5q-3 -2 -13.5 -12.5t-14.5 -15.5v-39q0 -20 4 -37.5t11 -33t16 -31l19 -32.5q2 -4 4.5 -8.5t2.5 -6.5q2 -2 3.5 -13.5t1.5 -14.5q2 -2 8.5 -9l14 -15t13.5 -15t8 -9q1 -2 5 -8l8.5 -13t8 -13t4.5 -8q6 -2 8 -8q2 -1 8.5 -5.5 t13.5 -10.5t12.5 -11.5l7.5 -7.5q3 -2 9.5 -8.5l14.5 -14t14.5 -14.5l9.5 -10h35q11 12 24 23l26.5 21.5t25.5 21.5t21 24q1 1 4 7.5l6.5 13.5l6.5 13l4 8q9 14 23.5 21t26.5 20q0 2 3.5 7.5t3.5 8.5v26q3 16 13 23.5t21 15t19.5 19t8.5 37.5q0 33 -11 47.5t-28 21t-38 11.5 t-42 19q-4 2 -8 5.5t-9 7.5l-11 9v55l3 3q1 2 2 2.5t2 1.5q19 14 40 21t43 10t45 3.5t45 0.5q20 0 35.5 -3.5t35.5 -3.5t40.5 3.5t40.5 8t40.5 8t40.5 3.5q16 0 29 -1t23.5 -5t20.5 -12t22 -21q1 -2 2 -5q2 -5 5 -7v-5q0 -11 -3 -28.5t-12 -28.5q-3 -3 -8 -9t-10.5 -11.5 t-10.5 -9.5t-6 -5t-6.5 -3l-12.5 -4.5t-13.5 -4t-8.5 -1.5q-7 -3 -19 -9.5t-24.5 -14.5t-23.5 -16.5t-15 -15.5q-1 -1 -3.5 -5.5t-4.5 -9l-4 -9t-3 -5.5l-3 -3l-4 -2q-2 -3 -10.5 -8.5t-10.5 -7.5t-8 -9l-13 -15l-13 -15t-7 -9q-2 -2 -7.5 -6.5t-11.5 -10.5t-10.5 -11 t-5.5 -7q-2 -2 -8 -14t-6 -14q-1 0 -3.5 -3t-6 -6.5t-7 -6.5t-4.5 -4q-1 0 -10.5 -6t-11.5 -8q-1 -1 -2.5 -6l-3.5 -11.5l-3.5 -11.5t-2.5 -6q-8 -14 -23.5 -22t-26.5 -19q0 -2 -5.5 -10.5t-6.5 -10.5q-2 -3 -10.5 -11l-18 -17.5l-18 -17.5l-11.5 -11q-6 -5 -9 -13 t-5.5 -16.5t-5.5 -17t-7 -15.5q-14 -21 -33 -37t-28 -40q-1 -4 -1.5 -13.5t-0.5 -20.5v-21v-14v-17.5v-22.5t0.5 -19.5t1.5 -9.5q0 -1 1 -6t2.5 -11t2.5 -11.5t1 -6.5v-17q0 -20 -5 -40.5t-10 -38.5q0 -2 -2 -8t-5 -13t-5 -13t-2 -8v-3q0 -11 3.5 -21t7.5 -20t7.5 -20.5 t3.5 -21.5t-4 -19t-4 -20q0 -23 11 -49.5t16 -46.5l63 -64q2 0 9.5 -3t12.5 -3q1 -1 8 -2.5t15 -2.5t15 -1.5t9 -0.5q4 -2 14 -5l20 -6t18.5 -6t11.5 -5q9 -4 11.5 -8t2.5 -11v-5.5t-2 -3.5q-9 -39 -33.5 -50.5t-63.5 -11.5q-18 0 -36 4.5t-35 4.5q-3 0 -7 -0.5t-8 -0.5 q-4 -1 -9 -1q-2 0 -8 -3.5t-8 -3.5q-3 0 -11.5 -1t-19.5 -2.5t-21.5 -2.5t-16.5 -1h-16q-20 0 -40 3.5t-41 3.5q-59 0 -117 -3.5t-115 -3.5h-45q-7 2 -16 7.5t-16.5 13t-12.5 16t-5 15.5z" />
<glyph unicode="Z" horiz-adv-x="1316" d="M611 2q-79 0 -159 -1t-162 -1h-154q-14 4 -22 8t-12 10.5t-5 16t-1 24.5q0 29 15 61t36.5 63t45.5 59t41 50q3 5 11 15.5t10 12.5q1 1 4 6.5l6.5 11.5t7 11t4.5 6q0 1 9 7t10 8q5 3 7 5.5t2.5 5.5t2 7t4.5 10l11 23l14.5 30l13.5 28t8 16q2 2 11 9.5t11 9.5l56.5 68 t52.5 70q3 4 8.5 15.5t7.5 14.5q43 65 88.5 126l91.5 124q3 2 7 8l8.5 13l8 12.5t3.5 6.5q2 3 4.5 12t2.5 11q2 1 4.5 6.5t4.5 5.5q1 3 10 14.5l19.5 24.5l20 24.5t12.5 14.5l25 31.5t24.5 35.5t19 39t7.5 41v10q0 5 -1 9.5t-6 6.5q-24 2 -49 8.5t-47 6.5q-5 0 -9.5 -0.5 t-6.5 -0.5t-9.5 -3.5t-9.5 -3.5h-45h-47q-1 0 -10 3.5t-10 3.5h-7h-7q-4 0 -18.5 -1t-31 -2.5t-30.5 -2.5t-17 -1h-9q-27 0 -56 4t-56 4q-21 0 -39 -9.5t-33 -23.5t-28 -31.5t-23 -33.5q-2 -4 -3 -7l-4 -7q-2 -2 -14 -6.5t-14 -5.5q0 -2 -3 -8.5t-6 -14t-6 -14t-4 -7.5 q-3 -5 -16.5 -13l-29 -16.5t-30 -14.5t-19.5 -6q-16 0 -20 8t-4 22q0 29 6 62t15 62q1 3 5.5 13.5t9 22.5l8 22t3.5 13q1 1 2.5 9.5t2.5 17.5t2 17t1 10t5 15t9 19q6 13 12 29.5t15 30.5t21.5 24t31.5 10q1 -1 2 -1h3q2 -1 5 -1l35 -64l6 -2q6 -2 7 -3q20 -9 36 -14.5 t31 -8.5t32 -4.5t40 -1.5q41 0 79.5 7.5t79.5 7.5q35 0 62.5 -7t56.5 -21h308q2 0 9 1t14.5 2.5t14 2.5t9.5 1h10q12 0 26.5 -5.5t27 -14.5t20.5 -20.5t8 -24.5v-4q-2 -6 -4.5 -15t-4.5 -18t-4 -16t-3 -8q0 -1 -3 -5t-7.5 -9.5t-8.5 -11.5t-7 -9l-3.5 -3t-7 -6.5t-7 -6.5 t-4.5 -4q-4 -5 -20.5 -27.5l-35 -48.5l-35.5 -48.5t-22 -28.5q-17 -24 -37.5 -44t-36.5 -46q-2 -2 -7 -12.5l-11 -22.5l-11 -22l-6 -12q-2 -3 -9 -10l-15 -15l-15 -15t-9 -10q-2 -1 -6.5 -7l-10 -13.5t-10.5 -15.5t-8 -12q-1 -2 -4 -7t-4 -7t-5.5 -7t-10.5 -10.5l-11.5 -11 t-7.5 -6.5q-18 -23 -35 -50.5l-34 -53.5q-1 -1 -2.5 -5.5t-3.5 -9l-4 -9t-2 -5.5q-14 -17 -30 -33t-27 -36q-1 -1 -3 -5.5t-4 -10.5t-3.5 -11.5t-1.5 -7.5q-3 -2 -8.5 -10l-7.5 -11q-2 -2 -8.5 -8l-13.5 -12.5l-13 -12.5t-7 -8q-2 -3 -9 -15l-15.5 -26l-15.5 -26t-10 -14 q0 -2 -5 -7.5l-10.5 -11.5t-11 -10.5t-7.5 -5.5q-1 -2 -6 -9l-11 -16l-12.5 -18t-10.5 -14q-8 -10 -21 -28t-25 -38t-21 -39.5t-9 -31.5v-1q0 -3 3.5 -7t8 -8.5t9 -8t6.5 -4.5h2h5q2 0 10 3.5t9 3.5h6h3q2 0 13 -3.5t13 -3.5h57q27 -2 53.5 -3.5t53.5 -1.5q45 0 88 10t85 10 q7 0 19 -1.5t14 -1.5q1 0 7.5 -2l13.5 -4t13 -4t8 -2q1 0 6 2t10.5 4t10.5 4t7 2q14 4 33 6.5t39 5.5t38 8t29 15q4 5 14.5 15l22 21t20.5 20.5l12 12.5q11 13 21.5 34.5t22.5 42.5t26.5 36t33.5 15q7 0 16.5 -5.5t18 -14t14.5 -18t6 -18.5v-119q5 -8 10.5 -18.5t5.5 -21.5 v-1q-7 -20 -11.5 -39t-12 -35t-20 -28t-34.5 -18h-66q-42 0 -82 3.5t-82 3.5q-17 0 -34 -3.5t-35 -3.5q-68 0 -134.5 8t-134.5 8z" />
<glyph unicode="[" horiz-adv-x="875" d="M860 1436q14 -3 16.5 -11.5t2.5 -19.5v-14q0 -22 -1.5 -39.5t-10.5 -40.5q0 -5 -5 -8.5t-11.5 -5.5t-12 -3.5t-7.5 -1.5q-35 -6 -66 -8t-64 -2h-52q-13 -9 -27 -9h-11q-22 0 -42 5.5t-41 5.5h-14t-12 -2q-8 0 -22 -1.5l-27.5 -3t-24 -3t-12.5 -1.5t-7.5 -5l-11.5 -11 t-11.5 -12.5t-7.5 -9.5q-7 -13 -9 -38.5t-2 -47.5v-23q0 -47 3 -102.5t8 -96.5q0 -3 2.5 -10t6 -15.5t6.5 -15t4 -7.5v-16q0 -11 -2.5 -18.5t-16.5 -14.5v-67q0 -2 -1.5 -7.5t-4 -12t-4 -12t-1.5 -6.5q0 -3 0.5 -10.5t0.5 -17t0.5 -20.5t0.5 -21v-18.5t-2 -9.5 q0 -2 -2.5 -7.5l-5.5 -12t-6.5 -12t-4.5 -6.5v-5v-5q0 -1 1.5 -6.5t4 -12.5t4 -13t1.5 -7v-41v-16q0 -2 1 -8t2.5 -12.5t3 -12t1.5 -6.5v-9v-10q0 -2 -1.5 -7.5t-3 -12t-2.5 -12t-1 -6.5v-6v-3q0 -4 1 -17t2.5 -27.5t3 -27t1.5 -16.5q0 -2 0.5 -15.5t1.5 -30t1.5 -33.5 t0.5 -27q0 -6 -0.5 -21t-1.5 -31.5t-1.5 -31.5t-0.5 -21q-1 -5 -4.5 -19.5t-3.5 -18.5q0 -5 -1 -19t-1 -30t1 -29.5t1 -18.5q-5 -5 -12 -14.5t-7 -13.5t4 -16t4 -13q5 -25 5 -50.5t14 -48.5l7 -7t9.5 -11l8.5 -11.5t5 -6.5l4 -11.5t6 -18.5l5.5 -18t3.5 -9q4 -7 14.5 -14 t14.5 -9q7 0 25 -1.5l37.5 -3l37.5 -3t25 -1.5h15h16q2 0 13 1.5t24 3t24 3t13 1.5q2 2 7.5 2h11.5q14 0 30 -1t19 -1q4 2 15.5 6t15.5 4h22h26q2 0 13.5 -4t12.5 -6q3 0 12.5 1t17.5 1q10 0 12 -2q18 -2 29 -12.5t17 -25t8.5 -31.5t2.5 -31v-6q-27 -33 -67 -40.5t-82 -7.5 q-44 0 -87 3.5t-86 8t-85.5 8t-85.5 3.5h-68l-5.5 -2l-12 -4.5t-12.5 -4.5t-8 -2q-20 0 -43.5 5.5t-44 16.5t-34 28.5t-13.5 41.5q0 52 5.5 104t5.5 105q0 46 -8.5 91.5t-10.5 90.5v28v69q-1 4 -2 22.5t-2.5 39.5t-3.5 39.5t-3 23.5v3v7q1 9 2 29.5t2 46l2 53.5l2 54t2 46 t1 30q2 3 5 14t3 16v3v5q-1 3 -7.5 14.5t-11.5 15.5v308q3 2 7 12.5t4 15.5q0 3 -1.5 14.5t-4 24t-4 24t-1.5 14.5v173q0 1 -1.5 7t-3 13t-2.5 12.5l-1 5.5q-1 1 -1.5 12t-0.5 25v28v22v18.5v26t0.5 25t1.5 16.5q13 18 28.5 26t32.5 10.5t35 2.5t37 1q3 0 13.5 1.5l21.5 3 t20.5 3t11.5 1.5h30h79q1 0 5 1.5t8.5 3.5t8.5 3.5l4 1.5q6 1 25.5 2.5t42.5 3t45 2.5t34 1h18h50q2 2 13 6t13 4h12h7q5 0 16.5 -1.5l23.5 -3l23 -3t16 -2.5z" />
<glyph unicode="\" horiz-adv-x="587" d="M546 -445q-3 17 -7 24t-8 11.5l-9 10.5t-11 22v29q-2 14 -7.5 22.5t-12.5 15.5t-14.5 13.5t-13.5 17.5q-5 5 -8 15t-4.5 21t-1.5 22.5v19.5v25q-7 5 -13 16t-6 22l-19 36q-4 4 -10.5 14.5t-6.5 18.5q0 5 3.5 11t3.5 8q0 19 -4 31.5t-9.5 22t-12 16.5t-11.5 15 q-3 11 -5 29.5t-4.5 37.5t-6 36t-10.5 25l-6.5 5t-14.5 12l-14.5 13t-7.5 9l-7 40q0 2 -3.5 6t-8 7.5t-8 7t-4.5 3.5q-11 11 -11 32l2 43q0 16 -2 28t-8 24l-19 23.5l-24 30.5l-22 30t-13 23q-4 18 -4.5 36t-16.5 38q-9 14 -12.5 22.5t-5.5 16t-5.5 16.5t-12.5 25v28 l-40 116q-5 5 -10 12t-9 19v29t2 17q-38 47 -50 109v33q0 11 -1.5 17t-10.5 11l-20.5 27l-25.5 34l-25 35t-18 30q0 30 -0.5 39t-4.5 18q-10 13 -18.5 22.5t-15 18.5t-10.5 20t-4 28v53q-2 1 -5 6l-6 10.5t-5 10.5t-2 6v64q14 7 34 15t36 8q31 0 51 -14t39 -37q3 0 10 -21.5 t14.5 -49t13 -52.5t5.5 -32q11 -29 27.5 -56t27.5 -57l36.5 -114t41.5 -112q7 -18 16.5 -30l18 -23t14.5 -24t6 -32l2 -21q0 -2 4.5 -10.5l5.5 -10.5q12 -12 19.5 -33t13 -44.5l10.5 -46.5t11 -39q3 -16 10.5 -30.5t15.5 -28.5t15.5 -28.5t10.5 -31.5q0 -4 1 -11.5t6 -21.5 q11 -40 26 -83t36 -78q3 3 12 -16t22 -50l28 -69.5l29.5 -75l27.5 -66.5t21 -44q4 -11 7.5 -19.5t3.5 -24.5q0 -14 0.5 -21t2.5 -13q1 -1 6 -5.5l11.5 -10t11.5 -10.5t6 -7q0 -2 1 -9.5t2 -16.5t1.5 -17.5t0.5 -12.5q4 -14 13.5 -24t14.5 -19v-19q3 -20 12 -38.5l18.5 -37.5 t17 -38t7.5 -40q0 -3 -8 -15.5t-18.5 -26.5t-21 -25t-16.5 -11z" />
<glyph unicode="]" horiz-adv-x="921" d="M74 -471q-13 3 -16 12t-3 20v13q0 23 1.5 40.5t10.5 39.5q1 4 6 8t11.5 6t12 3.5t7.5 1.5q35 7 66 8.5t63 1.5h52q8 5 14.5 7t13.5 2h10q23 0 43 -5t40 -5h14.5t11.5 1q9 0 23 1.5l27.5 3t24 3t12.5 1.5q2 1 7.5 5.5t11.5 10.5t11.5 12.5t7.5 9.5q7 13 8.5 38.5t1.5 48.5 v22q0 47 -2.5 102.5t-7.5 96.5q0 3 -2.5 10t-6 15.5t-6.5 15t-4 7.5v16q0 12 2.5 19t16.5 14v67q0 2 1.5 8t3.5 12t3.5 11.5t1.5 6.5v10.5t-0.5 17.5t-0.5 21v21v18t1 9q0 2 2.5 8t6 12l6.5 11.5t4 6.5v6v5q0 1 -1.5 6.5t-3.5 12t-3.5 12t-1.5 7.5v41v16q0 2 -1.5 8l-3 12.5 t-3 12t-1.5 7.5v8v11q0 1 1.5 6.5t3 12t3 12t1.5 7.5v5v3q0 4 -1.5 17t-3 27.5t-3 27.5t-1.5 17q0 2 -0.5 15t-1 29.5l-1 33.5t-0.5 27q0 6 0.5 21t1 32t1 32t0.5 21q2 4 5.5 19t3.5 19q0 5 1 18.5t1 29.5t-1 30t-1 19q5 4 12 13.5t7 13.5q0 5 -4.5 16.5t-4.5 13.5 q-5 25 -5 50t-14 48q-2 1 -6.5 6.5t-9 12t-8.5 11.5t-5 7l-4 11.5t-6 18l-5.5 17.5t-3.5 10q-4 6 -14.5 13t-14.5 9q-7 0 -25 1.5l-37.5 3l-37.5 3t-25 1.5h-16h-15q-2 0 -13 -1.5t-24 -3t-24.5 -3t-13.5 -1.5q-1 -1 -6.5 -1h-12.5q-14 0 -30 0.5t-18 0.5q-4 -2 -15.5 -6 t-15.5 -4h-23h-26q-1 0 -12.5 4t-13.5 6q-2 0 -11.5 -0.5t-17.5 -0.5q-10 0 -12 1q-18 2 -29 12.5t-17 25.5t-8.5 32t-2.5 31v5q13 17 30.5 26.5t36.5 14.5t40 6t42 1q43 0 86.5 -3.5t86.5 -7.5t85.5 -7.5t85.5 -3.5h67q1 0 6 2t11.5 4l12.5 4t8 2q20 0 43.5 -5.5t44 -16.5 t34 -28.5t13.5 -41.5q0 -52 -5 -103.5t-5 -105.5q0 -46 8.5 -91t10.5 -91v-27v-70q1 -5 2 -22.5t2.5 -38.5t3 -39.5t2.5 -23.5v-4v-7q-1 -10 -2 -30t-1.5 -45.5t-1.5 -53.5l-2 -53.5t-1.5 -46t-1.5 -30.5q-2 -3 -5.5 -14t-3.5 -16v-3v-5q2 -3 8.5 -14t10.5 -16v-308 q-2 -2 -6 -12.5t-4 -14.5q0 -3 1.5 -14.5t3.5 -24.5t3.5 -24.5t1.5 -14.5v-173q0 -1 1.5 -7l3 -12.5t3 -12t1.5 -6.5q1 -2 1.5 -12.5t0.5 -24.5v-28v-22v-18.5v-26t-0.5 -25.5t-1.5 -16q-14 -18 -29 -25.5t-32 -10.5t-35 -3t-37 -1q-3 0 -13.5 -1.5l-21.5 -3t-21 -3 t-12 -1.5h-29h-80l-4 -1.5t-8.5 -3.5t-8.5 -3.5t-5 -1.5q-6 -1 -25 -2.5t-42 -3t-45.5 -2.5t-34.5 -1h-17h-50q-2 -1 -13 -5.5t-13 -4.5h-12h-7q-5 1 -16.5 2.5l-23.5 3l-23.5 3t-16.5 1.5z" />
<glyph unicode="^" horiz-adv-x="964" d="M473 988h-5q-14 -7 -25 -22t-20 -32t-16.5 -34.5t-14.5 -29.5q-2 -1 -6.5 -6.5l-9.5 -12l-9 -12t-5 -7.5q-8 -15 -12.5 -33.5t-10.5 -35t-16.5 -27.5t-32.5 -11q-10 0 -23 7.5t-10 21.5q3 18 11.5 33.5t19 31l20.5 31t16 32.5q8 24 14 51.5t13.5 55.5t17 54.5t23.5 49.5 q4 7 14 21.5l20.5 30l20 28.5l12.5 17t14 14.5t16 13.5q1 0 3 1q2 0 2.5 0.5t2.5 0.5t5 -1t6 -1q28 -7 43.5 -13t32.5 -25q1 -3 4.5 -10t5.5 -9q17 -61 30.5 -121l26.5 -121q3 -17 11 -37.5t8 -40.5v-9q0 -1 -1.5 -6.5t-3 -12t-2.5 -11.5t-1 -6v-7q0 -14 4 -28.5t4 -28.5 q0 -20 -6 -36.5t-21 -27.5q-3 3 -10.5 8.5l-15.5 11.5l-14.5 11t-8.5 7t-5.5 9t-4.5 12q-2 2 -5 9t-6 15l-5.5 14.5t-2.5 7.5q-2 2 -5 8l-6 12.5t-5.5 12.5t-2.5 7q-2 3 -5 17.5t-6 31l-5.5 30t-2.5 16.5q-3 9 -7.5 20t-11 22t-14 21.5t-16.5 16.5h-5z" />
<glyph unicode="_" horiz-adv-x="966" d="M20 -206v45q0 13 1 32.5t7 38t19 32.5t37 16h67q26 5 50 12.5t56 7.5l73 -13q20 0 30.5 3.5t26.5 3.5q22 0 44 -4t43.5 -8.5t43 -8t42.5 -3.5l147 19l55 -9q11 0 17.5 3.5t17.5 7.5l17.5 6.5t22.5 2.5q31 0 58.5 -10t44.5 -30q6 -3 6 -9q0 -4 -1 -7t-2 -5q-2 -3 -3 -5 q0 -14 -1 -26.5t-4 -23.5l4 -45l-6 -28q-12 -11 -27.5 -18t-32.5 -10.5t-34.5 -5t-33.5 -1.5q-31 0 -70 4.5t-71 4.5q-189 0 -376 -9q-43 -1 -85 -8t-81 -7q-14 0 -30 4.5t-30.5 12.5t-26 17.5t-15.5 20.5z" />
<glyph unicode="`" horiz-adv-x="1071" d="M233 1401q0 19 8 35.5t21 28.5t30 19t35 7q22 0 41.5 -9t36 -23t31.5 -31.5l28 -33.5q2 -3 5 -6t5 -6q2 -2 7.5 -9t11.5 -16l11.5 -18t7.5 -14q1 -2 4 -7t6 -11.5l5.5 -12t3.5 -7.5q2 -2 5.5 -5t6.5 -6q11 -9 28.5 -21.5t26.5 -26.5q2 -1 7.5 -9l12 -18l12 -18.5 t6.5 -11.5q2 -2 8.5 -7t13 -11.5l12.5 -12t8 -7.5q4 -7 8 -22.5t7 -32t4.5 -32t1.5 -22.5q-10 0 -23.5 0.5t-28 2.5t-27.5 6.5t-22 12.5q0 3 -3.5 10.5t-3.5 8.5q-1 1 -5.5 3t-9.5 3.5t-10 2.5t-6 2q-2 1 -8.5 8l-14.5 15l-15 15t-10 8q-2 3 -13 6t-13 5q-13 8 -27.5 20.5 l-29 26l-28 26.5t-24.5 22q-4 4 -19.5 18.5l-33.5 31l-33.5 30.5t-19.5 17q-15 17 -26.5 35.5t-11.5 40.5z" />
<glyph unicode="a" horiz-adv-x="892" d="M368 439q0 -18 7.5 -29t18.5 -17.5t25 -8.5t28 -2h33q11 5 13.5 11t2.5 14q-1 1 -1 2v3q-1 2 -1 5q-1 2 -5.5 9t-9 15t-9 15t-5.5 9q-4 10 -6 21t-5 21.5t-8 19.5t-16 16h-9q-12 0 -17.5 -5.5t-8 -14t-3 -18.5t-2.5 -19q-3 -8 -6.5 -13.5t-7 -10t-6 -10t-2.5 -13.5z M-6 52q0 25 13 36.5t32 17t39.5 9t34.5 11.5l6 6l6 6q16 13 26.5 23.5t18 22t13 25.5t12.5 35q0 2 3 9t7 15l7.5 15l4.5 9q0 3 0.5 12t1.5 19.5t2 19.5t1 12l2 4t5 8.5t5 9t2 5.5q1 3 3 14l4.5 24t4.5 24.5t4 13.5q9 41 27 82l35 79q0 2 2.5 10.5t4.5 10.5q1 5 4 16.5 t6.5 23.5l6.5 22.5t4 13.5q0 1 1 6t2 11t2 11t2 7q0 2 3.5 10.5t3.5 10.5l10 14q5 5 9.5 11t7.5 9t14.5 9.5l25.5 14t26.5 13t15.5 5.5q14 0 27.5 -13t25 -33t21 -44.5t17.5 -48t13 -42t8 -27.5q0 -2 3.5 -10.5t3.5 -10.5q20 -45 33 -95t29 -100v-28q3 -13 14 -21.5 t16 -19.5q0 -3 3.5 -13l8 -22t9 -22t6.5 -13q1 -2 5.5 -12t10.5 -22l11.5 -22t7.5 -13q0 -1 1.5 -6.5t3.5 -11.5t4 -11t3 -5q6 -14 21.5 -30l31 -32.5t27.5 -31.5t12 -26q0 -15 -6 -30.5t-22 -24.5q-32 -2 -66.5 -8t-66.5 -6h-12l-30.5 3.5t-45 4.5t-44 3.5t-27.5 2.5 q-28 19 -28 50q0 24 12 34t27 18t27 21t12 43t-7 47t-20.5 25.5t-32.5 10.5t-42 2h-28h-52q-13 -3 -27.5 -9.5t-27 -16.5t-20.5 -22.5t-8 -27.5q0 -19 9.5 -33t21.5 -27t21.5 -26t9.5 -30q0 -27 -8.5 -40.5t-22.5 -19t-33.5 -5.5t-40.5 -1q-4 0 -22.5 -1t-39.5 -2.5 t-40 -2.5t-23 -1h-7h-7q-7 1 -20 2.5t-26.5 2.5t-24 1.5t-13.5 0.5q-17 4 -32 18t-15 34z" />
<glyph unicode="b" horiz-adv-x="905" d="M371 657v-31q0 -17 1 -36t5.5 -35.5t13.5 -27.5t24 -11l6 -0.5t13.5 -1.5t15 -1.5t11.5 -0.5h16q23 0 45 5.5t31 32.5v19q0 2 2.5 7.5t2.5 8.5q2 0 7.5 5l11.5 10.5t10.5 11t5.5 7.5q2 0 2.5 6t0.5 8q0 52 -19 83t-59 62q-2 0 -7 3.5t-6 3.5q-5 0 -15.5 -1t-22.5 -2.5 t-23.5 -2.5t-16.5 -1q0 -1 -5.5 -3.5t-6.5 -4.5q-29 -23 -36.5 -51t-7.5 -62zM442 431q-8 0 -21.5 -3.5t-26 -9.5t-21.5 -15t-9 -21l-2 -64.5t-1 -64.5q0 -28 1 -54l2 -54l6 -8q2 -3 5 -6l5 -5q3 -5 11 -13.5t10 -8.5h104q8 10 23 13t30 4t27.5 4t15.5 13q0 2 1 8.5t2 14 t2.5 13t1.5 6.5q3 10 8 18.5t9.5 17t7.5 17.5t3 20v5q-2 1 -7 9t-7 10q-2 3 -8 15.5l-13 26.5l-13 27t-7 16q-4 7 -21 17.5t-38 21t-41.5 19t-31.5 11.5h-7zM122 35q0 21 8 32.5t20 19l25 16t23 23.5q5 7 10 28.5t9 46t6.5 48t2.5 35.5q0 29 -1.5 59.5t-5.5 59.5 q0 3 -3.5 14.5t-3.5 13.5v7v8q0 1 2 8.5t5 15.5t5 15t2 8q0 16 -3.5 31t-7.5 30t-7.5 30t-3.5 30q0 25 7.5 47.5t7.5 46.5v20q0 17 -3.5 33.5t-20.5 16.5q-13 0 -24 -4t-24 -4h-9q-5 1 -14 3l-19.5 4.5t-19 5t-11.5 2.5q-14 3 -17.5 14t-3.5 24q0 12 9.5 20.5t23 14t28 7.5 t24.5 2h173q2 -2 12.5 -3.5t15.5 -1.5q1 0 7 1t13 1.5t13 1.5t8 1q3 0 7 1q8 2 10 2q14 0 22.5 -1t22.5 -7l201 -14l14 -6q6 -2 11.5 -5l9.5 -5q10 -2 22 -11t19 -17l9.5 -12.5l13.5 -18.5l12.5 -18l7.5 -11q0 -2 0.5 -9t1.5 -15.5t2.5 -16t2.5 -9.5q0 -2 2.5 -13t2.5 -15 v-9v-10q0 -2 -1 -7.5t-1.5 -11.5t-1.5 -10.5t-1 -5.5q-1 -4 -2 -12t-1 -19t1 -19.5t2 -11.5q-3 -3 -9.5 -10.5t-14.5 -15.5t-15.5 -14.5t-10.5 -9.5q-2 -2 -14 -9.5t-14 -9.5v-9v-7l42.5 -48l40.5 -49q3 -2 5 -7t2 -6l15.5 -67.5t7.5 -66.5v-20q0 -1 -2.5 -7t-6.5 -13.5 t-7.5 -15t-6.5 -11.5q-3 -5 -7 -14t-8.5 -18l-8 -16t-3.5 -9q-5 -9 -24 -25t-42 -32t-45.5 -28t-35.5 -12q-14 0 -25.5 3.5t-24.5 3.5q-25 0 -47.5 -3.5t-48.5 -3.5t-51.5 3.5t-51.5 3.5q-14 0 -21 -3.5t-16 -3.5q-8 0 -16.5 3.5t-16.5 3.5q-11 0 -21 -3.5t-22 -3.5h-28 q-14 0 -31 1t-31 4.5t-23.5 10.5t-9.5 19z" />
<glyph unicode="c" horiz-adv-x="867" d="M83 407q0 29 10.5 57t17.5 55q0 2 1 8.5t2.5 14t2.5 13.5t1 7q4 18 8.5 29.5t4.5 24.5v7t-1 8q3 3 11 13l17 21l17.5 21.5t11.5 14.5l30 42t39 34q14 8 32.5 17.5t38 17.5t39 14t35.5 8q3 0 14.5 -1t22.5 -1q10 0 12 2q2 0 7 2t10.5 4t10.5 4t6 2h26h18q10 0 19.5 -1 t19.5 -6q14 -5 26 -12.5l24 -14.5t25 -11.5t29 -4.5q13 0 25 4t25 4q14 0 27 -4.5t20 -15.5q1 -3 2 -11.5t2.5 -17t2.5 -16t2 -9.5q0 -4 3.5 -15.5t3.5 -13.5v-4v-2q-4 -21 -7 -46t-10.5 -46t-22.5 -35t-45 -14q-2 0 -6.5 3.5t-5.5 4.5q-5 3 -12.5 10.5l-15 15l-14 14 t-8.5 9.5l-2 4.5l-4 9t-4.5 9t-3.5 4.5q-3 7 -11 20t-10 15l-9.5 10t-9.5 12q-18 14 -32.5 23t-29.5 14.5t-32.5 7.5t-40.5 2q-20 0 -38.5 -5t-34.5 -16q-2 0 -4.5 -2.5t-3.5 -4.5q-2 -2 -6.5 -8t-8.5 -13t-7.5 -12.5t-3.5 -7.5q-2 -1 -5.5 -7t-7 -13l-6.5 -13.5t-4 -8.5 q-8 -14 -15 -23t-12 -25q0 -2 -1 -9t-2.5 -15t-2.5 -15t-1 -9q-5 -21 -10.5 -41.5t-5.5 -43.5q0 -34 11.5 -62.5t17.5 -60.5q4 -19 7 -41t7 -44t11 -43t19 -38q6 -10 14.5 -15.5l17.5 -11t18.5 -12t18.5 -18.5h35q19 0 35 1.5t34 12.5l66 68t72 63q0 25 10.5 45.5t36.5 20.5 q5 0 15.5 -1t12.5 -8l22 -64v-53v-78q-1 -31 -9.5 -48t-21.5 -25.5t-29.5 -11t-34 -4.5t-34.5 -6t-32 -16h-159q-12 6 -24 8.5t-24.5 4l-24.5 3t-24 6.5q-38 15 -72 38t-62.5 52t-51 64t-35.5 73q-1 3 -2 10t-2 15.5t-2 15.5t-1 9q-1 1 -3 5t-4 8.5l-4 9t-3 5.5 q-4 17 -5.5 38.5t-1.5 41.5z" />
<glyph unicode="d" horiz-adv-x="1063" d="M385 299v-40q0 -23 1.5 -51t8.5 -52t20.5 -40.5t36.5 -16.5q18 0 29.5 3.5t29.5 9.5l14 4.5t24 6.5t24 6t14 4q2 0 6 2.5t6 2.5q3 3 13.5 10.5l22 16l21.5 15.5t12 9q7 4 16 7.5t18 8.5t17 11t12 14q11 21 17 45t17 45q1 1 4.5 6.5t7.5 11t7 10.5t4 7q8 23 11.5 56 t3.5 56q0 26 -2.5 44.5t-9.5 34.5t-18 31t-27 34l-4 4t-3 4l-24 38t-23.5 32.5t-29 26t-40.5 19.5q-9 3 -30 9.5l-44 13.5t-43.5 12l-28.5 7q-4 1 -9.5 1h-7.5q-18 0 -28.5 -5.5t-23.5 -14.5v-69q-1 -3 -2 -12.5t-2.5 -20t-2.5 -19.5t-1 -11v-116v-45q0 -6 -1 -22l-2 -33.5 t-2.5 -33t-1.5 -21.5q0 -2 -3.5 -10.5t-3.5 -10.5v-35zM53 33q0 7 7 17t13 14l11 3.5t18 6l19 6.5t13 5q2 0 8.5 1t14 2t13.5 2t7 2q12 4 18.5 15t10 24.5t4.5 27t2 23.5v98q0 1 1 7t2.5 13t2.5 13t1 7v7q0 8 -1 14.5t-1 13.5q0 6 2 13.5t7 15.5q-2 75 2 148t4 148v15 q0 1 -1.5 6l-3.5 11.5l-4 13t-4 9.5q-7 19 -23.5 24.5t-35.5 8.5t-37.5 9t-28.5 27v16q0 23 17.5 31.5t37.5 10.5h92q4 0 15.5 0.5t24.5 1.5t24.5 2t16.5 2q2 0 14 3t14 3q2 1 9 2.5t16 2.5l18 2t14 1h2h5q16 -1 42 -1.5t50 -2.5q28 -2 59 -4q4 0 21.5 -5t28.5 -7 q25 -8 52 -9.5t52 -13.5q42 -17 84.5 -41.5t74.5 -62.5l11 -19q5 -8 10 -15t8 -12q0 -5 5.5 -15.5l6.5 -12.5t6 -7l11.5 -11l11.5 -11l6 -6q2 -2 4.5 -11.5t2.5 -10.5q2 -2 4.5 -6.5t2.5 -5.5q0 -9 2 -32t4.5 -48.5t4.5 -48.5t3 -32v-11v-10l-5 -10t-9 -17t-9 -17t-5 -11 v-18v-45l-4 -6q-2 -3 -3 -6q-2 -4 -7 -19t-7 -19l-4 -2q-3 -2 -3 -3q-3 -3 -8.5 -10l-11 -13.5l-10 -12t-4.5 -6.5q-1 -2 -4.5 -7.5t-8 -11.5l-9 -12.5l-6.5 -9.5q-6 -10 -11 -15.5t-10 -9.5t-11.5 -7.5t-16.5 -9.5q-1 -1 -7 -6.5t-8 -6.5q-15 -12 -33 -20.5l-36.5 -16.5 t-36 -17t-32.5 -23h-75l-7 -3.5t-7 -2.5q-3 -1 -10.5 -2t-16.5 -2.5t-17 -2.5t-11 -2q-66 -4 -126 -5.5t-123 -1.5h-78q-11 -4 -18.5 -4.5t-17.5 -0.5h-25q-12 0 -25.5 1t-25 5t-19 11.5t-7.5 20.5z" />
<glyph unicode="e" horiz-adv-x="986" d="M75 28q0 9 10 22.5t18 18.5q4 1 14.5 3t22.5 5t23 5t16 3q20 2 29.5 8t13.5 26q3 23 4.5 50.5t1.5 51.5v14q0 3 -3 12t-3 11q-1 4 -2 18t-2 30.5t-2 31t-2 17.5q0 1 -3.5 10.5t-3.5 11.5v2v3q15 114 15 225q0 29 -4 57t-4 57v16l-11 7t-10 7t-7 7.5t-7 7.5 q-15 7 -34.5 9.5t-37 7t-29 14.5t-11.5 32v12q0 4 1 7q2 4 12.5 9.5t15.5 5.5h208q4 -4 14.5 -9l12.5 -6h7q34 0 66 11t66 11h29q23 -2 50 -8.5t51 -6.5q11 0 22 4t24 4h5q9 -3 24.5 -6.5t31.5 -8.5t29.5 -12t18.5 -16l19 -34t18.5 -37t14 -39t5.5 -39q0 -11 -5.5 -22 t-16.5 -16q-3 -2 -13.5 -2h-14.5q-18 0 -27 2t-15 7.5t-11.5 14t-15.5 20.5q-1 2 -7 8l-13 12.5l-13.5 12.5t-8.5 8q-1 2 -3 10.5t-2 10.5q-6 15 -17.5 21t-25.5 9l-28.5 6t-26.5 12h-106q-13 0 -22.5 -9l-18.5 -18q-21 -26 -24.5 -59.5t-3.5 -65.5q0 -35 1 -65t8 -66 q1 -14 8.5 -17.5t17.5 -3.5h15q2 0 9.5 2.5t9.5 2.5q3 1 13.5 2.5t22 2.5t22 1.5t13.5 0.5q14 3 22.5 9t13.5 14.5t9 18.5t10 20l11 22.5t13.5 23.5t17.5 19t24 8q13 0 18 -8.5t6 -22.5q5 -35 6 -61t1 -60v-37q0 -6 -1 -20.5l-2 -29.5t-2 -28.5t-2 -17.5q0 -5 -3.5 -16 t-3.5 -14v-9v-24q0 -8 -0.5 -16t-4.5 -13l-14.5 -11t-14.5 -10h-17q-5 0 -8.5 -1t-5.5 -1q-6 0 -9 7q-4 4 -9 14.5t-6 15.5v83q-1 13 -8 21.5t-18 12.5t-24.5 5.5t-26.5 1.5h-38h-19q-10 0 -19.5 -1t-17.5 -4.5t-13 -11t-5 -19.5v-10q1 -3 2 -16t2.5 -27t2.5 -26.5t2 -15.5 v-66v-26q0 -1 1.5 -5.5l3.5 -11l4 -13t4 -10.5q5 -12 12.5 -17.5t16.5 -7.5t19.5 -2t21.5 -2q17 -2 34 -7t37 -5h31q31 0 63.5 2t62.5 10q2 0 8 3.5t8 3.5q2 3 9 8.5t14.5 12t14 13t8.5 9.5q3 2 11 10l17.5 17.5l17.5 17t11 9.5q5 5 10.5 6.5t12.5 1.5h14q11 0 24 -1t21 -7 q20 -14 35 -29.5t15 -40.5v-12q-1 -4 -3.5 -12.5t-6 -17.5t-7 -16.5t-4.5 -10.5q-5 -8 -19 -18.5t-22 -15.5l-15.5 -8l-18.5 -9.5t-16 -7.5t-8 -3h-583q-14 -5 -29 -6t-31 -1h-24h-47q-4 0 -12.5 2.5t-8.5 4.5q-2 4 -8 14.5t-6 13.5z" />
<glyph unicode="f" horiz-adv-x="838" d="M79 22v4q1 1 4.5 5.5l8 10.5l9 11.5t7.5 8.5q6 7 22 13.5t32 14t28.5 15.5t12.5 18v147l9 19v43q0 75 4.5 147.5t4.5 146.5v59q-2 25 -11.5 39.5t-23 22.5t-30 12.5t-34.5 10.5q-20 6 -31 16t-24 24v5v2q7 13 19 18.5t25.5 7t27.5 1t25 0.5q1 0 12 3.5t15 3.5q3 2 11 5.5 t10 3.5h48q19 0 36 -2.5t33 -5.5t32.5 -5.5t35.5 -2.5q38 0 76 3.5t76 3.5h4q8 0 28.5 -0.5t44 -1.5t44 -2.5t28.5 -2.5q32 -14 50 -29.5t27 -36t11 -45.5t2 -57v-45q-2 -5 -6 -6.5t-8 -1.5h-7q-15 0 -27.5 5t-23 13.5t-20 18t-20.5 18.5q0 2 -5.5 4.5t-6.5 2.5l-4.5 4.5 t-2.5 4.5q-1 0 -4 5l-6.5 10.5t-6.5 11t-4 7.5q-2 1 -3 2q-2 1 -4 5q-26 17 -53 33t-60 16q-1 0 -3 -0.5t-4 -0.5q-3 -1 -6 -1q-2 0 -9 -2t-15 -4t-15 -4t-8 -2h-43q-9 -2 -15.5 -8.5t-10 -15.5t-6 -18t-3.5 -15v-35v-12q0 -2 -1 -9t-2.5 -15.5t-2.5 -15.5t-1 -10v-26 q0 -25 12.5 -48t39.5 -23q21 0 47 2t40 7q18 4 31.5 21.5t26 37t25.5 35t29 15.5h9q4 0 6 -0.5t4 -5.5q18 -48 23.5 -95t5.5 -95q0 -35 -0.5 -65t-5.5 -65q-5 -23 -18.5 -28.5t-33.5 -5.5h-25l-4 2q-2 1 -3 3l-4 12l-6.5 20l-6.5 20t-3 12q-6 11 -21 21t-33 17.5t-36 12 t-30 4.5q-20 0 -41 -9.5t-28 -31.5v-54v-52q0 -1 3.5 -12.5t3.5 -13.5v-12v-31q1 -3 2 -9t2.5 -12.5t2.5 -12t2 -7.5l7 -6q1 -2 6.5 -11t5.5 -11q6 -7 18.5 -14l26 -14.5t23.5 -16t10 -19.5q0 -5 -2.5 -13.5t-7 -17t-9.5 -15t-9 -6.5l-235 -16q-5 -5 -10.5 -5.5t-12.5 -0.5 h-10q-9 0 -27 2t-36.5 7t-32 13.5t-13.5 21.5z" />
<glyph unicode="g" horiz-adv-x="972" d="M89 336q0 10 -1 33.5t-2 50t-2 50t-1 33.5v2v5q5 21 13 45.5l14 44.5l5 15.5l6 18.5l8 22l12.5 16l21 26l22.5 27.5l17 20.5q1 3 9 11.5l18 18.5t20 19t15 13q10 9 24.5 19.5t30.5 19.5t32 16t29 9q4 0 19 -1t28 -1h10.5t6.5 2q12 2 21 6.5t17.5 9.5t18.5 8.5t23 3.5 q29 0 61 -7t60 -16q2 0 7.5 -2.5t7.5 -2.5q2 -3 10 -5t9 -2q1 -1 6.5 -2t11.5 -2.5t11 -2.5t6 -2q3 0 9 -4l13 -8.5l13 -8.5t8 -5q1 0 8.5 -2.5l15.5 -5l15 -4.5t8 -3q36 -13 46.5 -42t10.5 -64v-19q0 -8 -1 -14.5t-6 -11.5q-4 -5 -13.5 -15.5t-21 -21.5t-21 -21l-13.5 -14 h-28h-10q-9 0 -18.5 1t-14.5 7q-25 51 -60.5 88.5t-84.5 57.5q-14 5 -34.5 10t-40.5 5h-14q-7 0 -24.5 -3.5t-37 -9t-36 -13.5t-21.5 -17l-4 -8l-6.5 -12.5t-6.5 -13t-4 -8.5q-8 -13 -18.5 -24.5t-20 -23.5t-17 -25.5t-8.5 -29.5v-78q-1 -23 -7.5 -46t-6.5 -48 q0 -18 2.5 -32t7.5 -27t11.5 -26t15.5 -29q0 -1 1.5 -6.5t3.5 -11.5t4 -11t3 -5q2 -3 4.5 -8.5t2.5 -7.5l53.5 -53t58.5 -51q5 -3 11 -7q4 -3 8 -5h11h24q3 0 10.5 -1t16 -2.5t15.5 -2.5t8 -1q2 0 9.5 -1t9.5 -1q22 0 35.5 13t22 32t13 39.5t7.5 35.5v5v9q-1 3 -2 11.5 t-1.5 19t-1 19.5t-0.5 14q-13 18 -29 26t-32.5 11t-31.5 4t-27 6t-19.5 16t-7.5 35q0 18 3 29.5t18 22.5q32 5 71 7t74 2h45h121q9 -1 22.5 -3.5t25.5 -7.5t21 -13.5t9 -20.5q0 -17 -12 -26.5t-27 -17.5t-27 -17.5t-12 -26.5v-7l4 -12l6.5 -19.5l7 -20t4.5 -11.5t2 -10 t2 -17.5t1.5 -17.5t0.5 -10q1 -1 4.5 -7t7 -13.5l6.5 -14t4 -8.5q5 -13 6 -24.5t1 -27.5v-10q0 -7 -1 -12.5t-6 -13.5q-2 -3 -6.5 -8.5t-7.5 -7.5q-45 -26 -88.5 -38.5t-92.5 -23.5q-2 0 -10.5 -3.5t-10.5 -3.5h-9h-10q-6 0 -26.5 1t-44.5 2.5t-44.5 2.5t-26.5 1h-10 q-12 0 -24.5 -1t-26.5 -1t-28.5 2t-26.5 7q-15 6 -32.5 15t-34.5 19.5l-34 22l-30 20.5q-3 0 -5 2.5t-4 4.5l-41 55.5t-40.5 59t-35 62.5t-22.5 66z" />
<glyph unicode="h" horiz-adv-x="1118" d="M648 40q0 13 6.5 21t16.5 13t21.5 9t21.5 9q8 4 15.5 16t13.5 26.5t9.5 28.5t3.5 22q0 23 -5 48t-9 47q-2 7 -4.5 19.5t-4.5 15.5q-1 4 -9.5 7.5t-20 6t-22.5 4t-17 3.5h-235q-2 0 -7 -6t-9 -10q0 -2 -2 -9.5t-5 -9.5q0 -2 -6 -7.5t-6 -8.5q-6 -10 -7 -19.5t-1 -19.5v-14 q0 -29 2.5 -62t17.5 -58q7 -10 21 -14l28 -8t25 -11.5t11 -23.5q0 -12 -6 -22.5t-15 -17.5t-20 -11t-21 -4h-258q-11 0 -24.5 1.5t-25.5 7t-20 14.5t-8 24v5t1 10.5t3 10t5 5.5l91 29q14 3 17 19t3 28v28q0 3 -1 17.5t-2.5 31.5t-2.5 31.5t-1 17.5v69q0 1 -1 6.5t-2.5 11.5 t-2.5 11t-1 6v5q0 25 7 48t7 46v19q0 2 -1 10t-2.5 17.5t-2.5 18t-1 11.5v131q-3 27 -16 33t-31 7.5t-37.5 4.5t-35.5 24q-8 12 -10 19.5t-2 20.5q0 11 7 23t21 14h97q2 0 10 2l17.5 4.5t18 5t11.5 3.5h50q34 0 61.5 -1t61.5 -7q2 0 10 -4.5t11 -9.5q1 -3 4 -11t6 -17t6 -17 t4 -11l2 -7q0 -10 -13 -17t-30.5 -13.5t-34 -14t-22.5 -17.5q-7 -13 -10.5 -35t-3.5 -38q0 -15 7 -25t7 -26t-3 -30.5t-3 -30.5q0 -24 14 -36.5t34 -18t42.5 -6t39.5 -0.5q41 0 83 3.5t78 5.5q16 1 31.5 3t27.5 7.5t19 16t7 30.5v19q-1 9 -2 29t-2.5 42t-2.5 41.5t-2 26.5 q-2 17 -10.5 25t-21 13t-26 8.5t-25.5 11t-19.5 21.5t-7.5 40q0 21 19 33.5t38 16.5q11 0 25.5 -7.5t27.5 -7.5q32 0 64 7.5t64 7.5h26q3 -1 12 -2.5t19.5 -2.5l21 -2t16.5 -1l27 -4t22.5 -6.5t15.5 -13.5t6 -25q0 -1 -0.5 -2t-0.5 -2v-3q0 -4 -3 -12.5t-4 -8.5t-5.5 -1.5 t-10.5 -2.5l-11.5 -2t-7.5 -1q-22 -5 -44.5 -15t-31.5 -35q-1 -6 -2 -22.5t-2 -35t-2.5 -35t-2.5 -23.5v-19q0 -11 4.5 -20.5t4.5 -20.5v-2q-2 -4 -4 -12.5t-5 -9.5q2 -8 2 -26.5v-39.5v-40t-2 -26q0 -2 -1 -8t-1.5 -12.5t-1.5 -12.5t-1 -8q0 -3 2.5 -14.5t2.5 -13.5 q1 -4 2.5 -18t2.5 -30.5t2 -31t2 -17.5q0 -7 5 -24.5t9 -25.5q2 -5 7.5 -15.5t7.5 -12.5q12 -10 29.5 -18t34 -17.5t28.5 -23t12 -34.5q0 -7 -1 -13t-6 -11q-23 -19 -52 -24.5t-60 -5.5q-17 0 -33.5 1t-32.5 1h-60q-2 0 -13 3.5t-15 3.5q-11 1 -31 1.5t-39.5 4t-34.5 12.5 t-15 27z" />
<glyph unicode="i" horiz-adv-x="670" d="M375 -24q-4 2 -17 7l-18 7h-10h-16q-7 -1 -20.5 -2l-27 -2t-24 -2.5t-13.5 -2.5q-1 0 -10 -2.5t-10 -2.5h-4h-3q-2 0 -9.5 2.5t-9.5 2.5q-21 3 -42.5 3.5t-38.5 4.5t-28 16.5t-11 39.5q0 29 18.5 39.5t44 16t51.5 12.5t40 29v7q0 17 -4 34t-4 37q0 65 5.5 128t8.5 126v85 q2 26 7.5 52.5t5.5 56.5q0 32 -7 59.5t-27 54.5q-2 1 -4.5 4t-4.5 6q-3 4 -5 7h-78q-2 0 -12 11.5t-14 18.5q-1 2 -1 5q-1 3 -1 9q0 11 6 18.5t16 13t21.5 8t22.5 3.5h81q10 9 20 11.5t22 2.5q9 0 19 -1t21 -1h10q2 0 13 3.5t15 3.5q2 0 9.5 -2.5t9.5 -4.5h126q2 2 10 4.5 t11 2.5q2 -1 5 -2q2 -1 4.5 -2.5t4.5 -2.5q4 -2 11.5 -7t9.5 -5q4 -5 9.5 -13l11 -15.5t9.5 -13.5t4 -8v-19l-9 -3t-12.5 -5t-12.5 -5l-9 -3q-2 0 -9.5 -6t-9.5 -6l-27.5 -17t-25 -17.5t-18.5 -22t-7 -30.5q0 -15 4.5 -29t4.5 -28v-10q0 -2 -1 -8t-2.5 -12.5t-2.5 -13 t-1 -8.5v-27v-69q-2 -20 -11.5 -38.5t-9.5 -38.5q0 -9 2.5 -19t2.5 -19v-12l-8 -72t-4 -75v-12q3 -19 5 -38.5t8 -35.5t19 -26.5t37 -10.5q14 0 23 8t22 8h4q5 0 5 -2q3 -2 10.5 -7.5t15.5 -12t14.5 -12.5t9.5 -9q7 -5 17.5 -16t10.5 -24v-2q-5 -13 -16.5 -27l-18.5 -23 q-1 0 -4 -3q-2 -1 -3 -2q-1 0 -7.5 -1t-14 -2.5t-15 -2.5t-11.5 -1h-9h-14q-7 0 -25.5 1t-39.5 2.5t-39.5 2.5t-26.5 1z" />
<glyph unicode="j" horiz-adv-x="600" d="M-118 -543q-12 5 -29 15.5t-32 23.5t-25.5 27t-10.5 27q0 47 30 77t78 30q29 0 46 -18t31.5 -39.5t32.5 -39.5t49 -18h10q4 0 11.5 0.5t15 1.5t14 2t9.5 2q2 0 6.5 2t6.5 4q2 1 7 5.5t11 9t10.5 9l5.5 5.5q2 1 7.5 4l11.5 6.5t10.5 6.5t5.5 4q6 4 13 14t9 12q1 6 1.5 20 t1.5 29.5t1.5 29t0.5 18.5v41q0 45 -2.5 86.5t-2.5 86.5v23q0 4 2 21.5t4 37t4 36.5t2 22q0 2 0.5 13t0.5 25.5t0.5 29t0.5 22.5t-0.5 20.5t-0.5 25t-0.5 22t-0.5 10.5q0 4 -4 19l-8.5 32.5t-9 32.5t-5.5 20v5q0 12 4 22.5t4 19.5v8q0 2 -1.5 9t-2.5 15.5t-2.5 15.5t-1.5 9 v114v45q0 4 -1 13t-2 19t-2.5 18.5t-1.5 11.5t-6 14t-6 16q-2 0 -3 6t-2 13t-1.5 13t-0.5 7q-2 3 -8 8.5t-8 5.5l-90 16q-11 1 -21.5 15t-12.5 25q-2 10 9 18.5t27 15t31.5 10.5t22.5 4h6q3 0 14.5 -3.5t13.5 -3.5h5q14 0 24.5 4.5t27.5 4.5q4 0 15 -1t13 -1t13.5 -3.5 t14.5 -3.5h65h64l9 3l13 4.5l13 4.5t9 2q0 2 7 2h12h8q10 0 22 -0.5t22.5 -3.5t17.5 -8.5t7 -15.5v-9q-1 0 -4.5 -6t-3.5 -8q2 -1 8 -6.5t7 -5.5v-5v-3l-4 -4l-3 -3q-2 -1 -9.5 -2.5t-16.5 -4t-17 -4.5l-12 -3q-2 -1 -9.5 -1.5t-15.5 -1.5t-15.5 -1.5t-9.5 -0.5 q-2 -3 -15 -15.5l-20 -19.5q-5 -6 -6 -11t-1 -11v-7q0 -2 1 -12t2.5 -22t2.5 -22.5t1 -12.5v-4v-5q0 -5 -0.5 -20.5t-1.5 -33t-2.5 -33.5t-2.5 -22q-4 -7 -4.5 -10.5t-0.5 -10.5v-8q0 -3 2.5 -13.5t2.5 -14.5l-1 -173v-28l-4 -187q0 -1 2 -14.5t3 -19.5q3 -2 5 -14t2 -14 q1 -1 1.5 -7t0.5 -14.5v-17v-13.5v-13v-16.5t-0.5 -15t-1.5 -7.5q0 -9 -1.5 -31.5t-3.5 -48t-4 -48t-3 -31.5q-1 -3 -3 -8.5l-4.5 -12t-4 -12.5t-2.5 -8q-3 -5 -6 -13.5l-6 -16.5t-5.5 -14t-2.5 -7q-2 0 -9.5 -9l-17.5 -21l-20.5 -24.5t-16.5 -21.5l-3 -3q-2 -1 -3 -2 q-2 -1 -8.5 -5l-13.5 -8.5t-12.5 -9t-6.5 -6.5q-2 -1 -6.5 -5t-9 -9l-8 -9t-4.5 -5q-12 -10 -21 -15.5t-18.5 -9.5t-20.5 -7.5t-25 -9.5l-35.5 -13.5t-33.5 -11t-35.5 -7t-40.5 -2.5h-7q-5 0 -18.5 1t-29 2.5t-29.5 2.5t-20 1z" />
<glyph unicode="k" horiz-adv-x="1031" d="M569 55q0 13 11 20.5t23.5 13.5t23.5 12.5t11 17.5q0 17 -11.5 39t-23.5 36q-3 3 -13 15.5l-21.5 26.5l-21.5 27t-13 16q-20 24 -41 41t-44 42q-1 0 -5.5 0.5t-6.5 0.5q-13 0 -22 -7t-15 -18t-9 -23.5t-4 -22.5q-1 -6 -2.5 -20t-3.5 -30.5t-4.5 -31.5l-3.5 -21v-13v-10 q0 -1 3.5 -5.5t8 -11t10 -13.5l8.5 -11q7 -10 18.5 -16.5t23 -14t19.5 -17.5t8 -25q0 -13 -8.5 -21.5t-20.5 -13t-25 -6.5t-22 -2h-52h-130q-3 0 -14 -1t-24 -2.5t-24 -3t-14 -2.5h-16q-14 0 -30 11t-16 27v5q0 3 3 8.5l6.5 12.5l6.5 12.5t4 8.5q4 8 12 10t17 2.5t18 1.5 t17 7q17 14 25 32.5t22 36.5q0 13 1.5 40.5t3 62.5l3 73.5l3 73.5t2.5 62.5t1 40.5q0 1 0.5 11t0.5 22.5t0.5 25.5t0.5 20q0 5 -0.5 16.5t-0.5 24.5t-0.5 24t-0.5 15l-8 33.5t-13 30.5q-11 15 -24 20t-27 9t-27.5 11.5t-25.5 28.5q-8 16 -8 31q0 17 9.5 20.5t23.5 3.5 q31 0 62 -3l61.5 -6t61 -5.5t62.5 -0.5q6 -2 18 -9t23 -16.5t19.5 -19.5t8.5 -17q0 -8 -7.5 -14.5t-17.5 -13.5t-19.5 -15t-12.5 -18v-80v-79l2 -23t5 -21.5t10.5 -15.5t18.5 -6q3 0 7.5 1t6.5 1q1 1 7.5 6t13.5 11l13 11t8 6q4 5 15 13t12 10q2 0 10.5 2t8.5 5q15 10 29 25 t25.5 32t19.5 36t11 38q-3 3 -7 12l-8.5 19t-8 19t-3.5 13q-1 5 -2 9q-2 10 -2 15t2 15q1 4 2 9q1 2 8 10.5t12 10.5q3 1 11 3l18 4.5t19.5 4.5t14.5 2h20h56q2 0 7 1t10.5 1.5t10.5 1.5t6 1q5 1 17 2.5t25 2.5t24.5 2t16.5 1h30q18 0 37 -3t30 -17q3 -4 9.5 -15t6.5 -13 q0 -4 -6.5 -14.5t-9.5 -14.5l-11.5 -8l-18.5 -13t-19 -12.5t-13 -6.5q-2 -2 -7 -3t-10.5 -2t-11 -1.5t-6.5 -0.5q-25 -7 -51.5 -19.5t-43.5 -30.5q-4 -2 -12.5 -13t-9.5 -13q-11 -13 -25 -20.5t-29 -14.5t-28.5 -15t-21.5 -21q-2 -2 -6 -10l-8.5 -17.5l-8.5 -17.5t-5 -9 q-2 -2 -8 -11.5t-7 -10.5v-19q0 -26 9 -46.5t23 -38t31 -34t34 -35.5q2 -2 7.5 -10.5t7.5 -10.5l16 -20.5l20 -24.5l17.5 -21t8.5 -10q22 -23 48 -41.5l52 -37l51 -38t45 -44.5q5 -5 6 -10.5t1 -12.5v-12v-10q0 -7 -1 -12.5t-6 -11.5q-3 -2 -8 -7l-10.5 -10.5l-10.5 -10.5 t-6 -7h-10q-35 0 -70 7t-67 7h-26h-71q-10 1 -28.5 4t-36.5 10t-31.5 17t-13.5 24z" />
<glyph unicode="l" horiz-adv-x="962" d="M157 -5q-2 0 -14 -3.5t-14 -5.5h-16q-20 0 -36.5 8.5t-16.5 31.5v9q2 2 10.5 7.5t10.5 5.5q1 1 5 5.5t8.5 9t8 8.5t4.5 5q2 1 8.5 2l13.5 2t13 2t8 1q34 10 55 35v167q1 1 2.5 6.5l3 11.5t2.5 11t1 6v43q0 25 -4.5 48.5t-4.5 46.5q0 51 14 99v173q0 2 -1.5 7t-3.5 7 q-3 3 -7.5 7t-9 8.5l-8.5 8.5l-5 5t-7 2.5t-13 3.5t-13 4l-6 2q-16 5 -25.5 14t-18.5 21v5q0 5 5 8t11 4.5t11.5 2.5t7.5 3q4 1 17 5.5t18 6.5h181q1 0 7.5 1t13 2.5t12.5 2.5t7 1t7.5 0.5t15 0.5h16.5h13h14.5h16.5t14 -0.5t7 -0.5q9 0 21.5 -0.5t23.5 -4t19 -11t8 -21.5 q0 -15 -8 -21t-19 -8t-23.5 -1.5t-21.5 -2.5q-1 0 -4.5 -2t-8 -5t-8.5 -5t-5 -2l-32.5 -12.5t-16.5 -26.5q0 -14 3 -25.5t3 -24.5v-7q0 -2 -3 -14t-3 -14v-57q0 -2 -2.5 -6.5t-4.5 -5.5q-6 -69 -7 -137t-8 -137q0 -6 -5 -22t-7 -24v-132q2 -2 5 -4q4 -3 7 -3q22 -9 47.5 -13 t51.5 -5.5t50.5 -1.5t45.5 -2q1 0 6.5 -1t11.5 -1.5t11.5 -1.5t7.5 -1h7h5q25 6 45 11.5t40 22.5q18 15 34.5 31.5l34 32.5t36 30t40.5 24h3h4q29 -9 38.5 -27.5t9.5 -47.5v-15q-1 -4 -6.5 -15t-7.5 -13q-3 -12 -5 -27.5t-6 -31t-11 -29.5t-19 -24q-4 -3 -10.5 -7 l-13.5 -8.5l-12 -7.5t-6 -3q-1 -2 -13 -2q-11 0 -22.5 1t-14.5 1q-1 -3 -12 -9.5t-15 -6.5q-19 -1 -42.5 5.5t-39.5 15.5h-251q-4 -2 -17 -3.5t-17 -1.5q-2 -2 -19 -2q-14 0 -31 1t-19 1q-2 -2 -8.5 -5.5l-13.5 -7.5t-13 -7t-7 -3q-2 0 -11 3.5t-11 3.5q-2 1 -12.5 2 t-22.5 2t-22 2t-13 1q0 1 -4.5 2.5l-9 3t-9 2.5z" />
<glyph unicode="m" horiz-adv-x="1272" d="M809 61q0 4 0.5 9.5t2.5 5.5q0 2 9.5 10t9.5 13q2 1 4.5 12t2.5 14q2 5 6.5 7t10 3.5l11 3t8.5 6.5q0 3 3 8l4 6q14 52 17.5 104t3.5 104q0 4 -0.5 11t-0.5 14t-0.5 12t-0.5 6q0 7 -4 22.5t-15 17.5q-2 0 -7.5 -2t-7.5 -3q-2 -3 -13 -11t-15 -12q-13 -9 -15.5 -24.5 t-10.5 -29.5q-2 -2 -6.5 -7t-9 -11t-8.5 -10.5t-5 -5.5q-14 -20 -19 -44.5t-16 -47.5q-1 -4 -8.5 -19l-15.5 -32l-15.5 -32.5t-8.5 -20.5q-7 -17 -9 -31t-5.5 -26.5t-10.5 -23.5t-24 -22q-23 -14 -45 -14q-35 0 -52 27q-17 26 -27.5 51.5l-22.5 52.5q-3 10 -5.5 15.5 t-5.5 10l-6.5 10t-8.5 14.5q-7 11 -17 33.5l-22.5 49.5l-26.5 55t-27 51.5t-25.5 38.5t-21.5 15q-11 0 -17.5 -10.5t-8.5 -19.5q-5 -52 -7 -95.5t-2 -94.5q0 -32 14.5 -63t41.5 -51l33.5 -28t16.5 -40q0 -16 -12.5 -25t-30.5 -13.5t-37.5 -5.5t-33.5 -1h-14h-9t-10 1 q-6 0 -12 1q-6 0 -21.5 1l-32 2l-32 2t-21.5 2l-10 5t-16.5 10t-15 13t-5.5 13q0 2 5 12.5t7 15.5l52.5 85.5t46.5 87.5v5q0 11 -3.5 22.5t-3.5 24.5v17q0 3 1 12t2.5 19.5t2.5 20t1 11.5v15.5t0.5 31.5t0.5 36v29v21.5t-0.5 33t-0.5 33.5v23q-5 10 -10 24l-10.5 28.5 t-12.5 28t-16 23.5q-6 7 -15 14.5t-16.5 16t-13 18t-5.5 20.5q0 15 7.5 28t19 22.5t26 15t28.5 5.5q19 0 44 -4t49 -12t44.5 -20t32.5 -28q11 -14 13.5 -30.5t8.5 -32.5q7 -17 17.5 -30.5t17.5 -29.5q0 -4 3.5 -15.5t3.5 -14.5q9 -34 25 -64.5t37 -59.5q1 -2 5.5 -8 t10.5 -12.5l11.5 -13t7.5 -8.5l2 -4.5t4.5 -9t4 -9l1.5 -4.5q2 -2 8 -11t7 -12q0 -1 1 -5.5t2 -10.5t2.5 -11t1.5 -7q2 -2 10.5 -13t10.5 -15q1 -2 5 -8.5t8.5 -15l8 -15.5t4.5 -8q5 -6 12 -10.5t14 -4.5h3q3 1 8 4t6 4q1 5 3 9q1 7 4 10q14 25 34 47t35 45q2 2 8 12.5 t6 15.5q1 1 2 7t2 13t2 13t3 8q6 15 17 30.5l23 31t23 31.5t18 32q11 20 14.5 44.5t8.5 46.5l2 6q2 6 3 7l30 42t38 42.5t45 33t51 13.5q18 0 34 -9.5t28 -23.5t18.5 -32t6.5 -34q0 -34 -10.5 -68t-10.5 -68q0 -14 3.5 -24t3.5 -23q0 -38 -3.5 -75t-3.5 -75v-45 q0 -3 3.5 -14.5t3.5 -13.5v-16q0 -9 -1 -16t-6 -18v-104q0 -1 3 -7.5l7.5 -15.5t9.5 -18l8 -14q6 -12 18 -18t23 -12.5t19.5 -16.5t8.5 -30q0 -14 -4 -25.5t-17 -22.5l-16 -12.5t-13 -8.5h-116q-4 2 -11.5 4.5t-11.5 2.5h-1q-12 0 -22 -3.5t-22 -3.5q-17 0 -37 4t-39 12.5 t-34 21.5t-23 31q-2 0 -2.5 5.5t-0.5 7.5z" />
<glyph unicode="n" horiz-adv-x="1078" d="M106 -7q-14 4 -17.5 15t-3.5 20v8q0 5 1 9.5t6 9.5q4 3 16 8.5t25.5 12.5l25 13.5l16.5 9.5q30 17 39 50t9 66v8q0 1 -2 7.5t-4.5 13.5t-4.5 13.5t-2 8.5q0 3 2.5 13.5t4.5 14.5v324q0 41 -19.5 64.5t-43 41t-43 36.5t-19.5 51q0 9 1.5 19.5t12.5 17.5q28 -2 51.5 3 t50.5 5q17 0 28.5 -2t30.5 -13q11 -7 20.5 -22.5t20.5 -24.5q4 -6 10.5 -9t13 -5t12.5 -5.5t11 -9.5q20 -23 38.5 -48.5t39.5 -48.5q3 -3 13 -14.5l22 -25l23.5 -26.5t17.5 -19q1 -1 5 -4.5l9 -8t9 -8.5l5 -5q2 -2 7 -10.5l10.5 -18l10.5 -17.5t6 -9q30 -45 69 -75.5 t83 -56.5q2 -2 10.5 -8t10.5 -7h16q13 0 16 8t3 19v7q0 16 -1 27.5t-6 28.5q1 12 2.5 40t2.5 59t1.5 58t0.5 38v19q0 10 -3.5 26t-9.5 32.5t-13.5 29.5t-15.5 18q-11 7 -24.5 11.5t-25.5 10t-20 15t-8 28.5q0 2 0.5 6.5t3.5 4.5q2 1 8.5 2t14 2l14.5 2t10 1q1 1 10.5 4.5 t11.5 3.5h38h16q1 0 7 2t13.5 4t14 4t8.5 2h2h5q43 -10 87.5 -16t90.5 -4q12 -4 14 -9t2 -14q0 -29 -18 -40.5t-41 -16.5l-46.5 -10t-33.5 -21q-18 -27 -22.5 -59.5t-4.5 -66.5v-42v-26q0 -2 -3.5 -13.5t-5.5 -15.5v-5v-7q2 -2 5.5 -11t3.5 -12q0 -2 0.5 -13t1.5 -24t2 -24 t2 -13q0 -2 2 -7l4.5 -11l4.5 -11t2 -6l1 -7q0 -20 -11 -39.5t-11 -39.5q0 -9 1 -14.5t7 -11.5q1 -5 2 -18l2 -27t1.5 -27t0.5 -18v-30q0 -27 -9 -49t-31 -39q-3 0 -8 -3.5t-8 -3.5h-1h-6q-2 0 -15.5 3.5t-18.5 3.5q-5 4 -16.5 14.5l-25 22.5l-25 23l-15.5 15q-2 2 -6 7.5 l-8.5 11.5l-9 11.5t-5.5 7.5q-8 9 -23 14t-17 12q-5 13 -8.5 23.5l-7 20t-8.5 19t-14 20.5q-5 7 -18.5 23.5t-29 33.5l-29.5 32l-20 21q-15 17 -30 31l-30 27l-31 26t-32 29q-3 3 -10.5 12l-15.5 19l-15 18t-10 8q-13 0 -18.5 -14t-7.5 -32t-2.5 -36t-4.5 -25 q-2 -2 -10.5 -10t-8.5 -9q-2 -2 -2 -8v-10q0 -20 7 -38.5t7 -39.5q0 -8 -2.5 -15.5t-2.5 -18.5q0 -29 10.5 -53.5t16.5 -53.5v-14v-7q0 -2 4 -6l8.5 -8.5t9 -8.5t4.5 -5q2 -2 4.5 -7.5t4.5 -7.5q1 -2 2 -3q1 -3 5 -3q21 -11 41.5 -18t39.5 -15.5t36.5 -19.5t32.5 -30 q2 -1 2 -4v-4q0 -9 -10.5 -15.5l-17.5 -10.5q-6 -1 -21 -2t-31.5 -2.5t-31.5 -2.5t-21 -2q-3 0 -10.5 -0.5t-15 -1.5t-14 -2.5t-9.5 -2.5q-1 0 -2.5 -1t-3.5 -2l-6 -2q-1 0 -10.5 2.5t-11.5 2.5h-56q-6 1 -23 2.5t-35.5 2.5t-35.5 1.5t-23 0.5z" />
<glyph unicode="o" horiz-adv-x="1023" d="M275 417q0 -52 18 -97.5t44 -91.5q7 -12 11.5 -23.5t9.5 -22t12 -19.5t21 -16q2 -1 7.5 -3t11.5 -5t10.5 -5t5.5 -3q10 -6 17 -14t14 -15t15.5 -12t20.5 -5q30 0 56.5 13t50.5 33t44.5 42.5l38.5 42.5q7 25 17 39.5t18 36.5q12 29 14 54.5t2 54.5q0 51 -9.5 104.5 t-29 104t-48 96t-67.5 79.5q-5 0 -20 1t-20 1q-48 0 -91 -15t-70 -56l-12.5 -16t-10.5 -13q-1 0 -10 -5.5t-9 -6.5q-4 -4 -8.5 -11.5t-6.5 -11.5q0 -1 -0.5 -8t-1.5 -15t-2.5 -15.5t-2.5 -8.5q0 -4 -6 -14.5t-6 -12.5q-7 -13 -9.5 -28t-6.5 -29l-3 -21l-4 -28t-3.5 -25.5 t-1.5 -14.5v-15zM407 -7q-11 6 -23.5 9t-25 5.5t-24 5.5t-19.5 8l-13.5 10.5l-20.5 16.5l-21 17.5t-14 12.5q-7 6 -19 17.5l-24 23.5l-21.5 22t-10.5 13q-1 0 -6 8.5l-12 20.5l-14 24.5t-11 20.5l-12.5 24.5t-14 29.5t-11 29.5t-4.5 24.5v173q8 22 14 46t7 50l10.5 21 l16.5 31.5l17.5 31t11.5 20.5q15 25 33 44t39 34t44.5 27.5l49.5 26.5q26 13 58 19t61 15q11 5 21.5 10.5t23.5 5.5h5.5t4.5 -2q1 0 5 -1t8.5 -2.5t9 -2.5t5.5 -1h49q14 0 23.5 -5.5t17.5 -11.5l16 -11.5t19 -5.5h45h17q1 0 5.5 -3t9 -6.5l8.5 -6.5t5 -3q1 -3 7 -5t8 -4 q1 0 5.5 -1t10.5 -2l11.5 -2t7.5 -2q7 -3 10 -8.5t5 -11.5l4 -11.5t7 -9.5q1 -1 5.5 -4t9 -6.5l8.5 -6.5t4 -4q2 0 4.5 -2.5t2.5 -4.5l14.5 -15l17 -18t14 -16t5.5 -8t1 -7t2 -13t1.5 -13t0.5 -7l4 -12.5t6.5 -19.5t6.5 -19.5t5 -12.5v-201q0 -3 -1.5 -11.5t-4 -19.5 l-5 -21.5t-4.5 -16.5q0 -2 -5.5 -14t-6.5 -14q-7 -17 -9.5 -36t-13.5 -33q0 -1 -6 -7q-3 -3 -6 -7q-16 -20 -27.5 -47t-29.5 -43q-18 -18 -42 -29.5t-39 -27.5q-2 0 -7.5 -5t-11 -11l-10.5 -11.5t-6 -6.5q-3 -1 -11 -4l-18 -6.5t-20 -6.5t-15 -4q-2 0 -13.5 -1.5t-25.5 -4 l-28.5 -5t-22.5 -3.5h-7h-7q-7 0 -25 1t-38 2.5t-37.5 2.5t-23.5 1z" />
<glyph unicode="p" horiz-adv-x="915" d="M400 529q0 -12 4.5 -26t13 -26t19.5 -21t25 -11h35q2 0 13.5 -3.5t14.5 -3.5h7h7q1 1 7 5l13 8.5t13 9t8 6.5q25 14 39 25.5t22.5 25.5t12.5 33t9 48v10q0 13 -4.5 31.5t-12 36.5t-17.5 34t-21 26l-14 7q-27 21 -55 38t-66 17h-12q-12 0 -19 -2t-23 -13 q-2 -3 -10.5 -10.5t-8.5 -8.5v-160q2 -2 4.5 -10t2.5 -12q0 -2 -3.5 -16t-3.5 -19v-19zM80 35q0 1 2.5 9.5t4.5 10.5q10 22 16.5 28.5t13.5 7.5t16 2t23 13q1 0 8.5 5.5t16.5 13l17.5 15t13.5 12.5q0 3 4 5q2 1 3 2q0 5 0.5 20t0.5 20q0 39 -5 78l-10 78q0 1 -1 7t-2 13.5 t-2 14t-1 8.5q-1 1 -2 3t-1 7q0 3 1 5l2 4q0 2 3 7.5t3 7.5q9 30 11.5 65t2.5 67v7q-4 27 -6 53t-5 51t-8 50.5t-16 52.5q-4 10 -13.5 13t-21 4.5t-21 4.5t-13.5 13q-1 3 -3 10t-4.5 14.5t-4.5 14.5t-2 10q2 5 5.5 10.5t8.5 9.5q4 0 16 0.5t25.5 0.5t25.5 0.5t17 0.5 q8 0 21.5 -0.5t26.5 -0.5t23 -0.5t11 -0.5q3 0 10.5 -1t16.5 -2t17 -2t13 -2q2 0 12.5 -3.5t15.5 -3.5q27 0 53 8t54 8q17 0 33 -8t33 -8q14 0 26.5 8t28.5 8q1 0 3.5 -0.5t4.5 -0.5q3 -1 6 -1q1 0 10 -3.5t11 -3.5q14 -3 29.5 -5t31 -5t30 -8.5t26.5 -15.5q13 -10 21 -19.5 t13.5 -19.5t10 -21t11.5 -23q1 -2 4.5 -6t7 -8.5l6.5 -8.5t4 -5q1 -3 5 -11l8.5 -17l8.5 -16.5t6 -10.5q5 -14 6 -25.5t1 -23.5v-21v-25q0 -21 -2.5 -44t-13.5 -34q-3 -5 -12.5 -14.5l-20 -20.5l-21 -21t-15.5 -14q-3 -4 -14 -12t-14 -10q-69 -27 -149 -43.5t-155 -18.5 q-32 -26 -41 -52.5t-9 -65.5q0 -12 1.5 -29t6 -34.5t11 -32.5t17.5 -22q10 -8 26.5 -11.5t32.5 -9t27 -15t11 -28.5q0 -17 -9 -26t-22 -13t-27.5 -5.5t-24.5 -3.5q-3 0 -12 -3.5t-11 -3.5h-12q-11 0 -18 1t-17 6h-133q-31 -14 -69 -14q-8 0 -23 3t-30 9.5t-26 15.5t-11 21z " />
<glyph unicode="q" horiz-adv-x="1043" d="M266 439q0 -7 1 -7q0 -1 3.5 -10.5t3.5 -11.5q0 -3 0.5 -15.5t1.5 -26l2 -26t2 -15.5q5 -46 27.5 -82t48.5 -70q11 -14 20 -32.5t23 -30.5l11.5 -11l15 -13.5t14 -11.5t7.5 -5q7 -7 10 -8t9 -1q34 0 59 8t45 23t36.5 35.5t34.5 46.5l45.5 64.5t30.5 73.5q1 3 3 13l4.5 22 t4.5 23.5t4 17.5v4q0 31 -7 63.5t-9 64.5v55q0 21 -3 40t-16 36l-7.5 7.5l-11 11.5t-10.5 10.5t-5 5.5q-9 11 -16.5 25l-15 28.5t-17.5 26.5t-24 18q-1 1 -4.5 2t-8 2t-8.5 2.5t-5 2.5q-2 0 -9.5 2.5t-15.5 6l-15 6.5t-8 4h-7q-30 0 -50.5 -8.5l-46.5 -19.5q-3 0 -12 -2.5 t-11 -4.5q-1 -2 -6.5 -7.5l-12 -11.5l-13 -12.5l-9.5 -9.5q-9 -12 -8 -28.5t-4 -26.5q-1 -2 -5 -7.5t-9 -11t-9 -10.5t-5 -6q-3 -3 -6.5 -8.5l-7 -11t-6 -10t-3.5 -5.5q-6 -18 -7 -37t-1 -39v-24q0 -13 -0.5 -26.5t-3.5 -27.5q-2 -2 -4 -5q-3 -5 -3 -8q-1 0 -1 -2v-4z M510 -19q-7 0 -23 1.5t-33.5 3.5t-33 4t-21.5 3q-14 4 -28 11t-27 12q-5 0 -15.5 2.5t-14.5 2.5q-1 0 -6 1t-11 2.5t-11 2.5t-6 1q-2 0 -9.5 3.5l-16.5 8l-17.5 9l-12.5 6.5q-2 1 -3 3l-4 4l-16.5 24l-21.5 30l-20 27.5t-11 15.5t-6.5 14t-9.5 16q0 1 -1.5 6t-3.5 11t-4 11 t-3 6q0 1 -3.5 5.5l-7 9t-7 8.5t-4.5 5v7q0 14 4.5 26.5t4.5 26.5v25q-2 1 -7.5 9t-6.5 10q-5 11 -7 26t-2 31q0 13 1 24.5t1 20.5q0 36 2 70t10 72q2 2 4 5q2 2 3 4l2 4q9 14 21 36.5l20 38.5q32 72 87.5 121t127.5 74q6 3 15.5 6l19.5 6t17.5 5.5t9.5 3.5h8q12 0 21 -6 t21 -6h16h39q5 -2 9 -4t7 -3t5 -2q1 0 8 -3l15.5 -6.5l16 -6.5t9.5 -3q1 -1 17 -1q13 0 27.5 0.5t19.5 0.5q1 -1 8 -5t16 -8.5l17 -8.5t12 -7q6 -3 19 -12l27.5 -18.5t26.5 -18.5l17 -13q3 -3 5 -14.5t2 -13.5q1 -1 2 -6t2 -11.5t2 -11.5t1 -6q1 -2 6.5 -7l11.5 -10.5 l11.5 -10.5t6.5 -6q0 -2 3 -11l4 -12l8 -19.5l10.5 -26.5t10 -28t6.5 -23q0 -1 1.5 -14.5l3.5 -31l4 -35.5t3 -29v-4v-2q-1 -6 -2.5 -22t-3.5 -34t-3.5 -34t-2.5 -22q-11 -13 -17.5 -28t-12.5 -30.5l-12 -30.5t-15 -29q-5 -10 -13.5 -21t-16.5 -23t-13.5 -24.5t-5.5 -24.5 v-6t2 -4q0 -2 8.5 -4.5t10.5 -4.5l4 -4q1 -2 3 -3q4 -2 11 -6.5l14 -9l12.5 -8t5.5 -4.5q1 0 8.5 -0.5t15.5 -1.5t15 -2.5t8 -2.5q7 -1 23 -5.5t20 -6.5q0 -1 6 -7.5t8 -7.5q7 -3 21 -4.5t21 -7.5q0 -2 3 -6l7 -9t7 -9.5t3 -5.5q7 -7 18 -9.5t24 -3.5l26 -2t24 -6q1 0 7 -3 l12.5 -6.5l12.5 -6.5t8 -3q1 -1 6 -2.5t11 -2.5t11 -2t6 -1q24 -5 43.5 -19t41.5 -23q2 0 13 -3.5t13 -3.5q2 -1 6 -1.5t8 -2.5t9 -3l6 -6l10.5 -11l10.5 -11t7 -6q9 -8 19 -13t21 -9t22 -9t21 -12q3 -2 7.5 -6.5l6.5 -6.5q2 -1 6 -13.5t6 -13.5q10 -10 23.5 -17.5 t25.5 -16.5t20.5 -20.5t8.5 -27.5q0 -15 -15 -18.5t-28 -3.5h-12q-3 1 -11 5l-17.5 9l-17.5 9t-11 5h-40q-3 0 -7.5 2t-6.5 5q-3 2 -13.5 10l-22 17l-21 17t-12.5 11q-23 17 -47.5 24t-49.5 17q-12 3 -19 11t-16 10q-3 0 -10.5 1l-15.5 2t-15 2t-9 2q-1 1 -7 5l-13 9l-13 9 t-8 5q-39 21 -81 36.5t-85.5 26.5t-87.5 19l-87 16q-3 0 -12 1l-18.5 2l-18.5 2t-13 1q-17 1 -42 1.5t-51 2.5t-50 7.5t-37 17.5z" />
<glyph unicode="r" horiz-adv-x="938" d="M348 453v-1q1 -3 4.5 -9t6.5 -13t6 -13t4 -9h24h25q6 1 22 4l34 6.5t34 7t22 5.5q13 10 24.5 25.5t19.5 33.5t13 37t5 35v4.5t-1 2.5q0 2 -3.5 14t-3.5 14q0 3 -0.5 12t-1.5 19t-2.5 19t-2.5 12q0 2 -2 7t-3 7l-15.5 15.5l-21.5 21.5l-20.5 20l-12.5 12q-2 2 -13 7t-16 7 l-7 3.5t-11 4.5t-11 4t-6 2h-5h-7q-3 -1 -9.5 -4.5l-14.5 -8l-15.5 -9t-10.5 -6.5q-14 -11 -18 -25.5t-4 -31.5q0 -9 0.5 -18.5t0.5 -17.5v-11q0 -2 -3.5 -10t-3.5 -10v-6q0 -20 4.5 -38.5t4.5 -38.5t-4.5 -39.5t-4.5 -42.5zM134 -35q-9 3 -22 12.5t-13 17.5q0 21 8.5 30.5 t20.5 16l25 13.5t22 23q1 1 4 7.5t6.5 15t6.5 17t4 13.5l3.5 10t4.5 15t3.5 15.5t2.5 10.5q1 0 2 5l2 10.5l2 11t1 7.5q2 2 5.5 13t3.5 13q-3 3 -9 14.5l-7 13.5v10q0 12 3.5 23.5t3.5 23.5q0 42 -7 81.5t-7 84.5q0 1 1 7t2.5 13t2.5 13.5t1 8.5v72v71q-2 18 -14.5 31 t-26.5 19q-5 3 -17 8l-25.5 10.5l-25.5 10l-17 6.5q-3 7 -8.5 21.5t-3.5 19.5q0 2 5 7t7 9q4 2 14.5 6t14.5 6h49h48q3 0 13 -1t21.5 -2.5t21.5 -2.5t13 -1h63q2 0 8 -2t12.5 -4.5t12.5 -4.5t8 -3h12q39 0 76 7t75 7h45q22 -2 38.5 -15.5t32.5 -24.5q46 -41 71 -86t25 -111 q0 -32 -2.5 -57.5t-17.5 -53.5q-3 -5 -10 -14t-13.5 -18.5l-12 -17.5t-6.5 -10q-7 -9 -16.5 -17t-18 -16.5t-14.5 -18t-6 -21.5q0 -15 5.5 -32t15.5 -27q19 -23 45 -41t43 -43q3 0 5 -6l2 -6q17 -26 31 -45.5t40 -39.5q9 -7 22 -14t25 -15t20.5 -19.5t8.5 -27.5 q0 -14 -13 -27t-30.5 -22.5t-35.5 -15t-28 -5.5h-32q-1 0 -10 3.5t-10 3.5h-42q-15 1 -28 20t-24 43.5t-19.5 48t-13.5 35.5q0 3 -3.5 10.5t-8 16l-8.5 16.5t-7 11q-7 14 -24 20.5t-30 14.5q-3 0 -5 4q-1 2 -2 3t-4 5.5t-6.5 9t-7 8.5t-4.5 4q-1 1 -2 1.5t-2 2.5q-1 1 -2 3 q-2 1 -8.5 4.5l-13.5 7t-12.5 6t-6.5 3.5l-8 8l-8 8q-14 8 -31 13.5t-33 5.5h-5l-4 -2q-3 -2 -3 -4q-1 -3 -4 -8.5t-6 -12t-6.5 -12t-4.5 -8.5v-45v-36q0 -20 2.5 -39.5t13.5 -33.5q0 -2 10.5 -15t17.5 -20q10 -11 23 -16t25 -11t20 -15.5t8 -29.5q0 -12 -10 -15t-21 -3h-14 h-5q-4 0 -15 -1t-23.5 -2t-23 -2t-14.5 -2q-2 0 -6.5 -1t-10.5 -2.5t-11 -2.5t-7 -1h-4h-3q-1 0 -7 1t-12.5 2.5t-13 2.5t-7.5 1q-8 0 -26 1t-38 1t-37.5 -1t-24.5 -1z" />
<glyph unicode="s" horiz-adv-x="714" d="M75 142v24q0 2 6 13t6 13q5 12 9 26.5t9.5 27.5t15 22t25.5 9h10q3 0 8 -9l8 -14l28.5 -54.5t36 -56.5t47 -44t61.5 -18q13 0 33.5 9.5t40 22.5t34.5 27.5t18 25.5q4 12 6.5 22t2.5 21q0 9 -2 20t-7 25q0 12 -20.5 33t-47.5 41.5t-52 37.5t-34 22q-11 4 -22 4.5t-19 7.5 q-1 2 -5 6t-9 8.5t-9 8.5t-5 4q-2 4 -12.5 11.5t-15.5 11.5l-13 7l-11 10.5l-17 16.5l-17 17l-11 11q-6 17 -11 34l-10 35q-1 5 -3 14t-4.5 17.5t-4 15t-1.5 7.5q-2 27 4 56.5t18 56.5t29.5 50.5t38.5 38.5q1 2 10.5 4.5t11.5 4.5q15 6 33 18.5l37 25t38 21.5t36 9 t38.5 -7.5t37.5 -12.5l51.5 -17t44 -21t31 -33t11.5 -52q0 -11 -2.5 -31.5t-8.5 -40t-16.5 -34t-27.5 -14.5h-7q-2 2 -7 14t-7 14q-14 25 -30.5 48t-37 40.5t-44.5 27.5t-54 10q-9 0 -20.5 -1t-21.5 -7q-34 -26 -51.5 -55t-17.5 -73q0 -24 11 -43.5t28 -34.5t38 -26t41 -17 q1 -1 7 -2t13.5 -2t13.5 -2t7 -1q2 0 7 -3.5t7 -3.5q22 -16 45.5 -31.5t46 -32t43.5 -35.5t38 -41q1 -1 4 -7l6.5 -13.5l7 -15l5.5 -11.5q0 -2 0.5 -8t1.5 -13l2 -13.5t3 -7.5q4 -12 9.5 -21.5l11 -18.5t9.5 -18t4 -21q0 -32 -13.5 -59l-27.5 -57q-14 -21 -34.5 -41 t-35.5 -33q-40 -35 -92 -49.5t-100 -14.5q-36 0 -73 4t-68 18q-2 1 -8 4.5l-13.5 8l-14 8.5t-8.5 5l-35 21.5t-25.5 21.5t-15.5 29t-5 44z" />
<glyph unicode="t" horiz-adv-x="919" d="M538 9q-14 0 -27.5 -4.5t-27.5 -4.5h-14q-3 0 -12 1t-19.5 2.5t-19.5 2.5t-12 1h-15h-35q-5 1 -15 2t-21 2.5t-20.5 2.5t-12.5 2q-12 1 -14 3.5t-2 11.5q0 29 11 40t27 16t33.5 11.5t29.5 27.5q9 20 9 41t3 41q0 3 2 10t5 15.5t5 15.5t2 9v9q0 4 0.5 8t0.5 7v6.5 t-0.5 9.5t-0.5 9.5v5.5q0 9 -1 32.5t-2 50.5t-2 51t-2 34q-2 2 -6.5 12t-5.5 14v3q0 8 2.5 15t2.5 16v9q-1 2 -3 12.5t-4 23.5t-3.5 24.5t-1.5 14.5q-2 4 -2 15v23v22t2 16q-11 23 -28 40t-41 17h-16q-3 -2 -11 -6t-17 -9l-17 -9.5t-10 -5.5q-3 0 -14 -2.5t-12 -2.5 q-3 0 -8.5 -3.5t-7.5 -3.5q-2 -2 -9.5 -8t-9.5 -7l-26 -12t-17 -7h-99l-12 7v13q0 19 4.5 36.5t11.5 34t15.5 32.5t15.5 34l10 21t11.5 20t15.5 15t23 6q20 0 37.5 -8.5t35.5 -10.5l66.5 -10t68.5 -5q16 0 30.5 4t28.5 4q2 0 8 -0.5t7 -0.5q6 0 18.5 -0.5t25.5 -1.5t24 -2.5 t14 -2.5q14 -2 24 -4t19 -4.5t19 -4t24 -1.5q7 0 19 1t14 1q1 0 5 2t8.5 4t8.5 4t6 2q22 9 44.5 13.5t45.5 15.5q1 1 7 5t12.5 9t12.5 9t7 5h7q14 0 30.5 -8t27.5 -15q0 -23 7.5 -40.5t16.5 -35t16.5 -37t7.5 -46.5v-34q-4 -8 -8.5 -11t-12.5 -3q-14 0 -29.5 6.5t-32 15 t-33 16t-31.5 10.5q-2 1 -12 2t-22 2.5t-22 2.5t-13 2q-2 0 -10 6t-9 6h-19q-24 0 -38 -7.5t-21.5 -19.5t-9.5 -27.5t-2 -32.5v-34v-23q0 -4 -3.5 -15.5t-3.5 -13.5v-12v-16q0 -1 1 -6t2.5 -10.5t2.5 -10.5t1 -7v-90q0 -3 2.5 -14.5t2.5 -15.5q0 -10 1 -19q1 -8 1.5 -15 t0.5 -12t-0.5 -13.5t-1.5 -16.5q-1 -10 -1 -19q0 -1 -1 -5.5t-1.5 -9t-1.5 -8.5t-1 -5v-10v-10q0 -2 2 -9.5l4 -15.5t4 -15t2 -9q1 -4 2 -13t2.5 -18.5t2.5 -18.5t1 -12q9 -12 21.5 -20.5t25.5 -16t24 -15t18 -17.5q2 -3 5.5 -10l7.5 -15t6.5 -15t2.5 -10q0 -9 -10 -17 t-24 -13.5t-28 -8.5t-23 -3q-15 0 -28.5 8t-31.5 8z" />
<glyph unicode="u" horiz-adv-x="1016" d="M156 180v92q0 72 4.5 141.5t4.5 141.5q0 9 -0.5 22.5t-0.5 26.5t-0.5 23t-0.5 11l-14 35v104q0 6 -8.5 8t-19 7t-19 16.5t-8.5 37.5v21q0 7 15 11.5t33 6.5t34.5 3t19.5 1q1 0 4.5 -0.5t3.5 -2.5q23 -2 56.5 -6.5t56.5 -12.5q8 -3 14.5 -13.5t11 -23t6.5 -24.5t2 -19 q0 -30 -5 -65.5t-10 -64.5q0 -1 -3.5 -12.5t-3.5 -13.5t1 -9.5t2.5 -16t2.5 -15.5t1 -9q1 -1 1.5 -14.5t0.5 -31v-35.5v-29v-23v-34t-0.5 -34t-1.5 -22q-1 -1 -4 -6.5t-6 -12.5t-6 -13t-3 -8v-14q0 -30 5 -48t15 -30.5t25 -22.5l36 -23q13 -9 30 -22t32 -13q23 0 45 6t45 6 q11 0 20 -3t20 -3q8 0 12 7.5t6.5 18l5 21.5t7.5 17q1 1 6.5 6l11.5 10.5l11 10.5t6 7t2 11t2 19.5t2 19.5t1 12t2 12l4.5 19.5l4.5 19.5t3 12v1v6l-1 4t-2 8.5l-2 9t-1 5.5v7q0 38 3 76t3 75q0 20 -7 43t-7 41q0 15 4 27t4 25q0 24 -11 49.5t-32 39.5q-9 5 -25.5 10 t-32.5 12t-28 17.5t-12 25.5v11q13 17 31 31.5t41 16.5q2 0 9.5 -3.5t9.5 -3.5q34 -4 69.5 -6t70.5 -2q16 0 31.5 0.5t29.5 0.5q13 -8 28 -20t15 -30v-138q-6 -12 -8 -26t-2 -28q0 -11 1 -21.5t1 -19.5v-9q0 -2 -1 -6.5t-2.5 -10t-2.5 -11t-1 -7.5v-34q0 -2 -2 -10 l-4.5 -17.5l-4.5 -17.5t-2 -11v-7q0 -9 3.5 -18t3.5 -20v-12q-2 -2 -4 -5q-3 -5 -3 -7q-5 -20 -6.5 -33.5t-1.5 -33.5q0 -33 5 -63t3 -65l10 -10l14.5 -14.5l14 -13.5t8.5 -9q3 -2 15 -8t15 -8q13 -8 16.5 -21t3.5 -29q0 -14 -15 -27t-35.5 -24t-41 -18.5t-32.5 -11.5 q-2 0 -7 -2t-11 -5t-11 -5t-6 -2q-5 -1 -14.5 -2.5t-20.5 -3t-20.5 -2.5t-13.5 -1q-5 0 -13 3.5t-9 5.5l-47 99q-5 8 -10 10t-13 2q-10 0 -14.5 -5.5t-7 -13.5l-5 -16t-7.5 -12q-3 -3 -8 -9t-10.5 -11.5t-10 -10.5t-6.5 -7q-1 -1 -6.5 -3.5t-11.5 -6t-11 -6t-5 -3.5 q-2 0 -4 -4l-3 -3q-20 -13 -40.5 -12t-42.5 -2q-2 0 -7.5 -1t-11 -2.5t-10.5 -2.5t-6 -1h-35q-36 0 -63 16.5t-56 39.5q-11 8 -22 24.5t-21.5 36t-19 39t-13.5 33.5z" />
<glyph unicode="v" horiz-adv-x="929" d="M-10 851q0 5 6 11.5t13.5 12t15 9.5t11.5 5h18h39q2 0 10.5 2.5t10.5 2.5q1 1 3 2q2 2 4 2l4 -2q1 -1 3 -2q2 0 7.5 -2.5t8.5 -2.5h60q2 0 9.5 -1t15.5 -2.5t15 -2.5t9 -1h103q20 0 25 -12t5 -27q0 -21 -9 -26.5t-19.5 -7t-19.5 -4.5t-9 -20q0 -16 4 -33.5t10 -35 l11.5 -34t8.5 -30.5q1 -1 2 -9t2 -17l2 -17.5t1 -11.5q2 -2 10.5 -13t10.5 -13l4.5 -9t2.5 -7q0 -4 1 -11t1 -16t-1 -16.5t-1 -9.5q10 -23 16.5 -41t12.5 -33t13 -29t20 -29q7 -6 17.5 -7t24.5 -1q27 0 42.5 19.5t19.5 42.5q2 4 6 21.5l8.5 38l8.5 37.5t6 22l5 10t9 17t9 17 l5 10q0 1 1 6.5t2.5 11.5t2.5 11l1 5q4 21 12.5 43t8.5 42v5q-2 3 -6 8l-8.5 11t-8.5 10.5t-5 5.5q-12 10 -27.5 16t-30 13.5t-24.5 18t-10 30.5q0 12 5.5 23.5t14.5 20.5t20.5 14.5t23.5 5.5q23 0 44 -4.5t46 -4.5q23 0 43 1.5l46 3.5q2 3 11 5t11 4h21q14 0 29.5 -1 t29.5 -5.5t26 -13t19 -23.5v-11q0 -15 -4.5 -24t-12 -14t-18 -9.5t-21.5 -10.5q-13 -8 -19 -22t-15 -25q-12 -14 -23 -23t-19 -27q-1 -1 -3 -7t-4 -13t-4.5 -13.5t-3.5 -8.5q0 -2 -5.5 -12.5l-7.5 -14.5q-5 -14 -6 -22t-7 -20q-17 -23 -32.5 -42t-23.5 -48q0 -1 -1.5 -6 t-2.5 -11l-2 -11.5t-1 -6.5q-4 -16 -11.5 -30.5t-16.5 -29l-18 -28.5t-16 -29q-20 -39 -32.5 -79.5t-29.5 -79.5q-2 -2 -5.5 -7.5l-7 -11l-6.5 -10.5t-4 -6q-6 -12 -11.5 -28.5t-7.5 -28.5v-9v-26q-4 -10 -8 -19q-4 -8 -8 -15t-6 -12q-3 -8 -9.5 -18t-18.5 -10 q-10 0 -23.5 14.5t-27 34t-24 39t-13.5 30.5q-3 6 -7 19l-8.5 26.5l-8 24l-4.5 13.5q-1 1 -2.5 7t-2.5 13t-1.5 13t-0.5 8q0 1 -2.5 5.5l-5 9t-5 8.5t-2.5 5l-4 11.5t-6 18.5t-6 19t-3 13q-12 32 -21 65.5t-23 66.5q0 3 -2 8l-4 10.5t-4 10t-3 5.5q-2 3 -7.5 14t-6.5 16 q0 1 -1 7l-2 12.5l-2 12.5t-2 7q0 5 -6 15.5t-8 14.5q-1 1 -5 4.5l-9 8t-9 8.5t-5 6q0 1 -3 7t-7 13t-7 13.5t-3 8.5q0 1 -3.5 4.5t-7 8l-7 9t-3.5 6.5q-2 3 -2 10q0 5 1 11.5t1 12.5q0 5 -0.5 10t-4.5 9q-3 2 -8.5 4.5t-7.5 4.5q-2 1 -7 6l-11 11l-11 11t-6 7 q-8 6 -25.5 14t-34.5 17.5t-30 21.5t-13 26z" />
<glyph unicode="w" horiz-adv-x="1326" d="M405 16q-3 4 -10 17.5l-15 29t-14.5 29.5t-8.5 20q-2 1 -4 9.5t-4.5 18t-4 18t-1.5 10.5q-9 30 -23 59l-27 58q0 2 -6 14t-6 14q-1 2 -2 9t-2 15l-2 15.5t-1 9.5q-3 8 -8.5 18.5t-12 21.5l-12.5 22t-10 21q-12 31 -20.5 62.5t-21.5 63.5q-9 21 -22 41l-26 40 q0 3 -2.5 8.5t-4.5 7.5q0 1 -2 6t-4 11t-4.5 11t-3.5 6l-5 7q-25 16 -40.5 37.5t-37.5 38.5q-16 11 -29 22t-13 32q0 13 6.5 20t16 10.5t20.5 4.5t20 1q3 1 12.5 2t20.5 2t21 2t15 1q2 0 4 1q2 0 3 0.5t2 0.5l5 -2q2 0 9 -2t15.5 -5t15.5 -5t8 -2q6 0 22 -2t34 -4.5t33.5 -4 t21.5 -1.5q36 -11 36 -48q0 -23 -7 -42t-7 -41q0 -29 5 -51t12 -42.5t15.5 -41.5t14.5 -47q1 -2 2 -9t2.5 -15t2.5 -15t2 -9q0 -3 3.5 -12l8 -20.5l9 -22t6.5 -16.5q1 -2 5.5 -10t9 -17.5l8 -17.5t3.5 -9q3 -4 5 -15.5t4 -13.5l23 -53.5t25 -50.5q2 0 9 -1t9 -1 q18 0 31.5 5.5t20.5 25.5q3 4 7 15.5t8 25l7.5 25t4.5 16.5q19 12 30 32t17 43t8 46t2 43v2q-1 6 -2.5 16.5t-2.5 20.5t-1.5 17.5t-0.5 9.5q0 1 -3.5 8t-7 15l-7 15.5t-4.5 9.5q-3 12 -4.5 29t-3.5 34.5t-6 33.5t-14 28q-1 2 -11.5 7t-15.5 7q-18 6 -34 8t-27 7.5t-17.5 16 t-6.5 32.5v7q0 5 1 10.5t8 9.5q3 1 10 4.5t15 6.5l14.5 5.5t8.5 2.5h10q16 0 30 -6t31 -6h157q2 0 7.5 -2.5t12 -6l13.5 -7t11 -6.5q1 -2 11 -11.5t8 -16.5q-2 -9 -11 -12.5t-18.5 -8.5t-17 -15.5t-7.5 -32.5q0 -26 4 -59.5t15 -58.5q2 -3 7.5 -13l11.5 -22t10.5 -22.5 t5.5 -13.5q1 -1 1 -12t-0.5 -22t-0.5 -12q2 -12 10 -25.5t12 -25.5q5 -14 7 -29t2 -31q0 -9 -1 -18t-1 -18q11 -14 18.5 -29.5t15.5 -30t18 -28t26 -23.5h2q9 0 18 7t14 14q5 6 6.5 12.5t2 13l1 13.5t3.5 16q0 2 6.5 10.5t6.5 10.5q14 31 22 62.5t22 63.5q0 2 6 10.5t6 10.5 q11 18 16.5 42t5.5 44v11q0 2 -3.5 10t-3.5 10q-1 5 -1 19v30v29t1 19q-7 16 -22 30l-30.5 28t-27 29t-11.5 33v5q11 22 30.5 25.5t41.5 3.5q30 0 59.5 -4t58.5 -4q7 0 19 0.5t14 0.5q1 0 6 2t11 4t11 4t6 2h9q9 0 19.5 -3.5t19.5 -9.5t15.5 -14.5t6.5 -17.5v-1l-14.5 -47 t-27.5 -38q-1 -1 -6 -3.5t-11 -6l-11.5 -7t-7.5 -4.5q-1 -1 -5 -6l-9.5 -11.5l-11.5 -13t-9 -10.5q-8 -12 -8.5 -24.5t-3.5 -24.5q-7 -20 -15 -47t-14 -43q0 -4 -6 -15t-6 -12q-2 -3 -5.5 -14.5t-6.5 -25l-6 -26.5t-5 -19v-14q-13 -43 -30.5 -74.5t-43.5 -63.5 q-3 -2 -8.5 -7.5t-7.5 -6.5q-1 -2 -2.5 -8t-3.5 -13t-4.5 -13.5t-3.5 -7.5t-3 -7q-1 -3 -2 -7q-1 0 -4.5 -3t-7.5 -7l-7 -7l-3 -3q0 -2 -3.5 -13t-3.5 -15q-4 -20 -11 -45t-19 -48t-29 -38.5t-42 -15.5t-39.5 8.5t-22.5 22t-13 31.5t-11 37l-2 4t-5 8.5t-5 8.5l-2 4 q-8 19 -9.5 43.5t-6.5 41.5q-4 38 -15 66.5t-31 58.5h-18q-14 0 -21 -5t-11.5 -12.5t-8.5 -18t-11 -20.5l-7 -7l-11 -10.5t-10.5 -10.5t-5.5 -6q-2 0 -4.5 -6t-4.5 -8q-2 -5 -5 -14t-6 -19t-5 -18t-3 -11t-4.5 -15.5l-7.5 -27t-7 -27t-3 -15.5q0 -1 -3 -9.5t-7.5 -19.5 l-9.5 -22.5t-8 -17.5q-8 -17 -18.5 -26t-31.5 -9q-20 0 -38 5.5t-30 24.5z" />
<glyph unicode="x" horiz-adv-x="1034" d="M873 0h-157q-3 2 -14.5 4.5t-13.5 2.5l-23 4l-36 6.5l-36.5 6.5t-24.5 4q-2 4 -7 10.5t-5 11.5q8 16 13 33t5 33q0 17 -5 33t-13 33l-3.5 5l-8 11.5t-9.5 13t-8 11.5q-2 2 -10.5 6.5l-10.5 5.5q-4 7 -7 17.5t-7.5 20.5t-11 17.5t-17.5 7.5q-19 0 -30.5 -9.5t-19.5 -23.5 t-13 -29.5t-11 -27.5q-1 -2 -5 -8.5t-9 -13t-9 -12.5t-5 -8v-15q0 -26 7 -38.5t17 -17.5t22 -5t22 -1t17 -6.5t7 -20.5q0 -16 -10.5 -24.5t-25.5 -12t-30.5 -4t-25.5 -0.5q-11 -2 -37.5 -2h-56.5h-54.5t-36.5 2q-5 -2 -19 -3.5t-19 -1.5l-2 -2q-1 -1 -2 -1t-1 -1 q-17 0 -26 13t-9 27q0 16 6 26.5t15 18t20 14t21 14.5l6 6l11 11l11 11t7 6q1 2 8 8l15.5 13l16 13t10.5 8q2 4 9.5 12l9.5 10q4 5 6.5 9.5t5 8l6 8t10.5 9.5q2 0 7.5 3t11 6.5l10.5 6.5t5 5q2 0 6 4.5l8.5 9.5t8 11t5.5 9q3 4 8 11.5t9.5 15.5l8 14t3.5 8v90q-5 4 -16 14 l-23.5 22t-23 23.5t-14.5 16.5l-2 4.5t-4.5 9l-5 9l-2.5 4.5l-5 5t-9 8.5t-9 9t-5 5.5t-3.5 6t-6 11t-6 11l-3.5 7q-2 2 -8.5 8l-14 13l-13.5 13l-7 7q0 2 -6 11l-8 12q-17 13 -40 21t-43.5 17t-35 23.5t-14.5 41.5q0 17 5 25t14 11t20.5 3t24.5 1l4 1t8.5 2.5t9 2.5t5.5 1 h16q31 0 62 -3.5t61 -3.5q23 0 44.5 3.5t41.5 3.5q18 0 35 -6t31 -15l2 -3q0 -1 -0.5 -1.5t-0.5 -1.5l-1 -1q0 -2 -2 -8t-5 -12.5t-5 -12.5t-2 -8v-10q0 -3 6.5 -16l14.5 -28t16.5 -27.5t11.5 -15.5q0 -9 -2 -19t-2 -21q0 -18 7 -31.5t29 -13.5q15 0 30.5 12.5t28 30 t20.5 36.5t8 32q0 16 -3 22.5t-8.5 9t-13.5 4t-17 7.5q-6 4 -13 10t-14 13.5t-11.5 15.5t-4.5 17t2.5 12.5t13.5 7.5q34 17 69.5 21t72.5 4h36q18 0 35 0.5t34 2.5q3 1 11 3l17.5 4.5l17.5 4.5t11 4h16q10 0 17.5 -3.5t14 -8t13.5 -10t15 -8.5q7 -2 18.5 -3.5t16.5 -10.5 q1 -2 2.5 -5.5t3.5 -6.5q2 -4 3 -8l-51 -75q0 -2 -5.5 -4.5t-7.5 -3.5q-3 -2 -14.5 -5t-24.5 -6t-24.5 -6t-14.5 -4q-2 -1 -8 -6t-12.5 -11l-12.5 -11.5t-7 -6.5q-2 -1 -7 -4l-10.5 -6.5t-11 -6.5t-6.5 -4q-2 0 -7 -5.5l-10.5 -11.5l-10.5 -11l-6 -6l-7 -3.5t-11 -6.5 l-11 -7.5t-6 -5.5q-1 0 -4.5 -5l-7.5 -10.5t-7 -11t-3 -7.5q-9 -16 -22 -31.5t-13 -37.5q0 -18 6 -31.5t15 -25.5t20 -23t21 -24q1 -1 4.5 -5.5t7.5 -10.5t7 -11.5t4 -7.5q1 -1 4 -4.5t6 -8t5.5 -9t3.5 -6.5q2 -1 8.5 -7l14 -13l13.5 -13t7 -8q6 -7 10.5 -15.5l8.5 -16.5 t9 -16t14 -14q1 0 10 -5.5t10 -6.5q2 -2 9.5 -8.5l15.5 -14t15 -13t9 -6.5q27 -21 54.5 -38t56.5 -40q10 -8 11.5 -10.5t1.5 -13.5t-7.5 -20.5t-18.5 -16.5t-23.5 -11t-22.5 -4q-12 0 -20 1t-20 6z" />
<glyph unicode="y" horiz-adv-x="850" d="M221 42q0 13 6.5 23.5t16 18.5t21 15t21.5 12q14 7 22.5 9t14.5 5.5t9.5 12t7.5 28.5v2v5q0 3 -1 14.5t-2.5 24t-2.5 23.5t-1 14v78q0 2 -2.5 12.5t-2.5 13.5q-2 2 -3 8t-2 13t-1.5 13t-0.5 9l-11.5 16l-17.5 24.5l-17 24t-11 16.5q-2 5 -10.5 15.5t-10.5 12.5 q-2 3 -8 14l-12.5 24l-12.5 24t-8 14q-1 2 -6 8t-11.5 13t-11.5 13.5t-6 9.5q-1 0 -1.5 5t-1.5 11l-2 11.5t-2 6.5t-5.5 7.5t-11 15l-13 17.5t-10.5 14q-10 12 -24 16.5l-27.5 8.5t-23 12t-9.5 28q0 13 8.5 27.5t21 26.5t27.5 20t29 8h3q3 -2 14.5 -4t15.5 -5q35 -2 82 -8 t91 -6h17.5t16.5 2q2 -2 4 -10t2 -12q0 -2 -0.5 -8t-1.5 -14t-2 -15t-2 -10q-2 -9 -7.5 -15.5t-11.5 -12.5t-10.5 -12.5t-4.5 -16.5v-5q1 -5 2.5 -14t3.5 -18t3.5 -16.5t2.5 -9.5q1 0 4 -4l6.5 -8.5t7 -8.5t4.5 -4q9 -19 14.5 -40t14 -39t23 -29.5t40.5 -11.5h24 q15 10 23 30l1 5t1.5 10.5t1.5 11t1 7.5q4 19 11.5 37l14.5 35.5t12 35.5t5 39q0 17 -8.5 26t-19 14.5t-19 9.5t-8.5 11v62q0 2 9 7l10 5q9 1 31 2.5t46 2.5l46 2t31 2h59h60q26 -4 33 -24t7 -42v-24q-12 -16 -27.5 -27.5t-32 -22l-33.5 -20.5t-31 -22q-12 -10 -16.5 -18 t-7.5 -16.5l-6 -16.5t-12 -18q-3 -2 -11 -10l-17 -17l-17 -17t-10 -11q-9 -9 -20.5 -23t-22.5 -29.5t-20 -31t-13 -27.5q-6 -9 -10 -21l-6 -14v-214q0 -2 3.5 -7t5.5 -7l9.5 -10t14.5 -14.5t14.5 -14.5l9.5 -10q10 -9 24 -13.5t27 -10t22.5 -15t9.5 -28.5q0 -16 -22.5 -27 t-51.5 -17.5t-58 -9.5t-41 -3h-21q-3 0 -11 1t-17.5 1.5t-17.5 1.5t-11 1h-116q-4 0 -11.5 1t-15.5 2.5t-14.5 2.5t-8.5 1q-9 4 -12 8.5t-3 14.5z" />
<glyph unicode="z" horiz-adv-x="913" d="M107 35q0 20 10.5 41t25.5 42t30.5 40.5t25.5 35.5q10 17 19.5 36t23.5 33q0 2 5 7.5l10.5 11.5t11 10.5t7.5 5.5q7 9 10.5 17.5t5.5 17t4.5 17t7.5 17.5q1 2 4.5 8.5t8 14t8.5 13.5t5 7q1 2 3 8l4.5 13l4.5 13t4 8q10 29 31.5 56t37.5 54q0 2 2.5 10.5t2.5 10.5l3.5 11 t5 17.5l4.5 17.5t3 11q0 1 4 7l8.5 13l9 13.5t5.5 8.5q11 17 12.5 37.5t1.5 39.5q0 24 -12.5 29.5t-37.5 5.5q-3 0 -7 -0.5t-9 -1.5t-10 -1q-9 -1 -28.5 -4l-40.5 -6t-39 -6t-24 -3q-4 -1 -12.5 -4l-17.5 -6.5l-16.5 -6.5t-10.5 -4q-14 -9 -26 -22.5t-25.5 -25.5t-28.5 -21 t-34 -9q-10 0 -18 7.5t-14 18t-9.5 21.5t-3.5 19q0 18 10.5 37.5t17.5 36.5q2 3 4.5 14t2.5 14v34q2 12 12 19.5t15 15.5l5.5 8.5t6.5 12l6 12.5t5 8h2q15 0 27 -9.5t24 -21.5t25 -23.5t31 -14.5q3 0 10.5 -1.5t15 -2.5t14 -2t8.5 -1h160q26 -1 49.5 -8t48.5 -7q17 0 31 7 t31 8h59h38l23 -20v-23v-22q0 -7 -1 -12t-6 -13q-2 -2 -11 -13.5l-12 -15.5q-5 -8 -7 -18t-4.5 -20t-6 -19.5t-9.5 -16.5q-2 -3 -10.5 -12l-10.5 -11t-3 -5q-2 -2 -2.5 -4t-1.5 -3q0 -2 -2.5 -11.5t-4.5 -10.5l-5 -5t-9 -8.5t-9 -9t-5 -5.5q-1 -2 -7 -13t-6 -13 q-41 -73 -90 -140q-2 -3 -8 -11t-6 -10q-1 -1 -3 -5.5l-4 -9t-4 -8.5t-3 -5q-2 -3 -8.5 -10l-13.5 -15l-13 -15t-7 -10q-10 -15 -16.5 -33t-11.5 -36.5l-10 -37.5t-12 -36q-3 -9 -8.5 -15.5l-11 -13t-10 -13.5t-4.5 -16t8.5 -17.5t20.5 -15t25 -10t22 -3.5h21q2 0 7 1 t11 1.5t10.5 1.5t5.5 1q5 0 19.5 -0.5t31 -1.5l32.5 -2t24 -1q1 0 4.5 -1t8 -2.5t8.5 -2.5t5 -1t7 0.5t13 1.5l14 2t10 3q10 2 13 7t13 12q1 1 5.5 4t9 6.5l8.5 6.5t4 4q14 12 23 27.5t18 29.5t21.5 24t34.5 10q6 0 15 -1t16.5 -4t13 -8.5t5.5 -13.5v-7q0 -7 -1.5 -18 t-2.5 -22t-2 -20t-1 -10q-1 -1 -4 -7l-4 -8q-3 -5 -4 -11q-2 -4 -3 -8v-36q-4 -19 -17.5 -29t-30.5 -14.5t-35.5 -5t-32.5 -0.5h-43q-5 5 -10.5 6t-12.5 1h-10q-26 0 -51.5 -3.5t-50.5 -3.5h-4q-2 0 -7 1t-10.5 2.5t-10.5 2.5t-6 1h-115h-115q-3 0 -14.5 -1t-24.5 -2.5 t-23.5 -2.5t-12.5 -1h-8q-25 0 -51 5t-39 30q-1 1 -1 3q-1 1 -1 4z" />
<glyph unicode="{" horiz-adv-x="851" d="M436 -119v16v19.5t0.5 16.5t1.5 7l92 201v16q0 60 -19.5 105.5t-53 80t-77.5 60t-92.5 45t-99 34.5l-96.5 29q-20 8 -24.5 19t-4.5 26t5.5 24t15 16t22 11.5t25.5 10.5q4 1 22 7l38.5 12.5t38 13t22.5 8.5q10 4 33 14.5l48.5 23l47.5 24l31 16.5q3 2 12 9.5l19.5 15.5 t20 16t13.5 12q8 8 11 19t4 22.5t0 22.5t-1 20q0 38 -1.5 72t-12.5 71q-9 30 -20.5 55.5l-22 51t-17.5 53.5t-7 63q0 57 22.5 112.5t61 99.5t90 71t108.5 27q17 0 39.5 -3.5t43 -11.5t34.5 -22.5t14 -36.5q0 -46 -20 -65.5t-49.5 -26.5t-64.5 -8t-64.5 -9.5t-49.5 -31 t-20 -72.5q0 -57 19 -108.5t42.5 -101t42.5 -99t19 -103.5q0 -44 -17 -77.5t-45 -60t-64 -46.5t-74.5 -36t-76.5 -28.5l-69 -23.5q-5 -2 -15 -7t-12 -7q-2 0 -2 -2.5v-4.5q0 -8 28.5 -18.5l71.5 -27.5t93.5 -41t93.5 -59t71.5 -83t28.5 -111v-34.5t-1.5 -39.5t-4.5 -38.5 t-8 -32.5q-14 -34 -32.5 -65.5t-35 -63t-28 -65t-11.5 -70.5q0 -39 11 -62t29 -36t40.5 -18t46.5 -7.5l46.5 -5t40.5 -10.5t29 -23.5t11 -44.5q0 -17 -7 -32.5t-19 -27.5t-28 -19t-34 -7q-21 0 -43 6t-44 16t-42 21.5t-37 22.5q-42 30 -68 61.5t-40.5 68t-19.5 78t-5 91.5z " />
<glyph unicode="|" horiz-adv-x="498" d="M208 -427v62q0 78 -2.5 155.5t-7.5 152.5q-2 32 -7 65.5t-5 71.5l17 45q0 15 -8.5 27t-8.5 33q4 48 5 86.5t1 74.5q0 26 -1 55t-4 59v102q-9 37 -13 71t-4 66q0 39 3 75t13 79q-2 4 -7.5 17.5t-6.5 22.5l14 50q0 11 -7 26.5t-7 33.5l7 116l-16 343q0 9 3.5 23t19.5 17 l24.5 3.5t20.5 1.5q19 0 30.5 -5t22.5 -9q0 -4 2.5 -20.5t2.5 -24.5q3 0 5 -10l4 -21v-21l10 -47l-26 -138l16 -123l-9 -45q4 -15 6.5 -23.5t4 -13t1.5 -6.5v-4q0 -15 -2 -21t-10 -17q7 -8 12.5 -33.5t9.5 -55t6 -56.5t2 -38l-21 -142q0 -13 3.5 -27l7 -28.5l7 -28 t3.5 -25.5q0 -16 -3.5 -33l-7 -34l-7 -33.5t-3.5 -30.5q0 -29 8 -60.5t8 -62.5l-6 -38v-46.5t-0.5 -25t-0.5 -11v-5.5q3 -5 8.5 -29l11.5 -52.5t10 -54t4 -34.5l-15 -59q0 -18 3.5 -27t3.5 -19l-21 -142q0 -26 6 -48.5t8 -53.5q-11 -3 -11 -18v-3q0 -9 -1 -20t-7 -21 t-18 -16.5t-34 -6.5q-17 0 -27.5 5t-19.5 28z" />
<glyph unicode="}" horiz-adv-x="864" d="M26 -445q0 41 21 61.5t52 30t67.5 13.5t67.5 12.5t52 26.5t21 56q0 1 -0.5 3t-0.5 4q-1 3 -1 6q-3 15 -11 45.5l-16.5 62l-16 58t-9.5 34.5q-9 28 -21 52t-22.5 48t-17.5 49.5t-7 57.5t12.5 65t33 62t47 52.5t55.5 37.5q25 13 55.5 19.5l61.5 13.5t60 17t50 30 q-11 16 -29 26t-38.5 17t-41.5 12.5t-38 12.5q-45 18 -90 44.5t-81.5 61.5t-59.5 79.5t-23 98.5t21.5 105.5t47 103.5t47 105.5t21.5 111.5q0 3 -0.5 9.5t-0.5 14t-0.5 14t-0.5 9.5q-15 24 -39.5 33.5t-53 13t-57.5 5t-52.5 9t-38.5 25.5t-15 54q0 24 9 38.5t24 22t34.5 10 t40.5 2.5q77 0 132.5 -31t91.5 -82t53.5 -116t17.5 -133q0 -44 -9 -69t-22 -43.5t-27 -36.5t-24 -48q-6 -18 -9 -30.5t-4 -24t-1 -24v-31.5q0 -48 22 -85t55.5 -66t73.5 -52.5l76 -44.5q25 -15 48.5 -24t47.5 -15t49.5 -9t55.5 -5q19 -8 23 -20t4 -27q0 -29 -18.5 -45.5 t-44 -26t-52.5 -15t-45 -14.5l-32 -14.5t-48.5 -23.5l-48 -24.5t-31.5 -17.5q-17 -9 -38 -25t-39.5 -35.5t-31 -41.5t-12.5 -43v-12q2 -14 6.5 -37.5t8.5 -47t7.5 -42t4.5 -21.5t7 -15l13 -25.5l13 -25t8 -14.5q10 -28 12 -47t2 -47q0 -3 -0.5 -9t-0.5 -12.5t-0.5 -11.5 t-0.5 -6q-1 -8 -4 -27t-7.5 -40.5l-8.5 -40t-6 -25.5q-10 -35 -39 -66.5t-66.5 -55.5t-78.5 -38t-77 -14q-14 0 -35 3t-41 10.5t-34.5 21t-14.5 33.5z" />
<glyph unicode="~" horiz-adv-x="1120" d="M172 497q0 22 6.5 37t17.5 27.5t25.5 23.5l30.5 24q2 0 8.5 8t8.5 9q5 3 14.5 9.5l18.5 12.5l16 11t8 5h31q2 0 9.5 1t16.5 3l17.5 4t12.5 4q2 0 8 1t12.5 2.5t11.5 2.5t6 1q3 0 15.5 -2t28 -5t31 -6.5t23.5 -5.5q15 -4 22.5 -9l14 -9.5t16.5 -7.5t30 -3q29 0 58.5 8 t57.5 21.5t54 31t47 36.5h46q7 0 9 -11.5t2 -19.5v-6v-14t-1 -9.5t-3.5 -10.5l-6.5 -16q-13 -35 -26 -56.5t-31 -35.5t-43 -23.5t-62 -19.5q-18 -5 -30 -10t-24 -9t-25.5 -7t-33.5 -3h-52q-17 2 -30 8.5l-26.5 13.5t-29 12.5t-36.5 5.5q-34 0 -64 -3.5t-63 -17.5 q-14 -5 -26 -14l-25 -19t-27 -17t-31 -7q-8 0 -15 5.5t-12 14t-8 17.5t-3 17z" />
<glyph unicode="&#xa1;" horiz-adv-x="603" d="M398 886v-2q-2 -2 -7 -13.5t-7 -14.5v-41q0 -34 6 -65.5t8 -66.5v-95q0 -3 2 -15.5t5 -26.5t5 -27t2 -16v-8q0 -12 -3.5 -21.5t-3.5 -20.5v-3q0 -9 1.5 -22.5t2.5 -26.5t2 -23t1 -11q0 -3 3.5 -14.5t3.5 -13.5v-3v-4q0 -1 -1 -7t-2.5 -13t-2.5 -13t-1 -7v-161 q-2 -19 -12.5 -43t-26.5 -45t-36.5 -35.5t-42.5 -14.5q-35 0 -59.5 21t-44.5 48q-2 5 -7 15.5t-5 12.5v12v29q0 2 -3.5 11.5t-3.5 11.5q-1 2 -1 5q-1 3 -1 7q0 2 1 8t1 8q0 6 2 29t4 49.5t4.5 49.5t3.5 29v54q0 2 2 6.5l4 9t4 8.5t2 5q1 1 2 7.5t2.5 14.5t2.5 15.5t2 11.5 q1 32 4 65t3 68q0 20 -4.5 40t-4.5 43v20t2 20q6 6 10.5 14.5t8 18t5.5 19t2 15.5q0 1 -1 7.5t-2.5 13.5t-2.5 13.5t-1 8.5t2.5 17t4.5 23q1 3 4 10.5t3 10.5q4 16 7.5 34.5t10 34t18.5 26t33 10.5q15 0 31 -12.5t29 -30.5t21.5 -38.5t8.5 -35.5zM370 1560q4 -2 14.5 -12.5 t13.5 -14.5q0 -2 3.5 -10.5t3.5 -10.5q3 -8 8.5 -13t11.5 -9.5t10 -8.5t4 -9v-8q0 -7 -1.5 -20t-2.5 -26.5t-2 -24t-1 -11.5q-1 -13 -8.5 -24t-18 -20.5t-22 -17.5l-20.5 -14q-2 -1 -7 -1.5t-11 -0.5h-11.5h-8.5q-23 0 -47.5 4t-47.5 13t-42.5 24t-31.5 37v35v16.5t0.5 21.5 t2 21t3.5 15q1 0 6 5.5l12 13.5l14 16.5t12 13.5q8 9 22.5 21.5t27.5 12.5h3q3 0 15 -3.5t15 -3.5q4 0 16 -1.5t24.5 -2.5l24 -2t16.5 -1z" />
<glyph unicode="&#xa2;" horiz-adv-x="1077" d="M223 -171l28.5 59.5l29.5 64.5q7 14 9 27.5t4 17.5q0 11 5 17t10 10.5t9.5 9.5t4.5 13q0 24 -15 45.5t-36 41.5t-43 38t-36 35q-2 29 -10.5 58l-17.5 58t-16.5 57.5t-7.5 57.5q0 13 11 16q1 12 1 26v28q0 39 4 80t29 77q2 0 18 18l35 41l48 59q15 44 49 66.5t75.5 34.5 t86.5 20t81.5 24.5t60.5 47t24 87.5v14l17 17l52 116q3 7 12 7q39 0 61 -14t22 -43v-24l-76 -196q0 -4 12.5 -14l31 -24.5l40.5 -33t40.5 -41t31 -47t12.5 -51.5q0 -8 -7 -19.5t-16 -22.5t-18.5 -19t-14.5 -10q-20 -8 -34.5 -10t-25.5 -2q-18 0 -28 5t-14.5 13.5t-5.5 20 t-1 25.5q0 12 -1 23t-5.5 21t-14 18.5t-27.5 13.5q-11 -22 -24 -52l-25.5 -61.5l-23.5 -61.5t-17 -51v-30q-2 -4 -4.5 -13t-4.5 -11q-19 -31 -36 -63.5t-30.5 -66t-21.5 -69.5t-8 -74q0 -23 11 -35.5t28 -18.5t36.5 -7.5t36.5 -1.5h35l5 12l111 61q7 3 17 22l100 78 q9 8 13 9.5t15 1.5q21 0 33 -13t12 -34q0 -14 -9.5 -27.5t-22 -27.5t-24.5 -29t-17 -32q-36 -30 -61.5 -54.5t-51.5 -44t-56.5 -34.5t-76.5 -26q-5 -1 -15.5 -4.5t-22.5 -8t-24 -8t-21 -3.5q-22 0 -39 8.5t-37 8.5q-18 0 -34.5 -10t-30 -25t-22 -32.5t-11.5 -31.5v-45 q-3 -9 -14 -27.5t-25 -37.5t-29 -33t-27 -14h-7zM358 337q8 -4 13.5 -4.5t10.5 -0.5q27 0 35 11.5t11 26t6.5 29t21.5 20.5q4 6 8 29.5t4 44.5q11 22 26.5 57t29.5 72.5t24 72.5t10 56q0 11 -15.5 13t-32.5 2h-28q-44 0 -74 -19t-49 -49.5t-27.5 -69t-8.5 -76.5 q0 -21 8.5 -35t8.5 -33l-12 -50q0 -26 10 -48.5t20 -48.5z" />
<glyph unicode="&#xa3;" horiz-adv-x="1418" d="M497 249v33q0 2 -5 6t-7 4q-3 1 -11 3t-17 4t-16.5 4t-10.5 3h-134q-23 7 -28.5 16t-5.5 31v17q0 9 2 17.5t10 15.5q3 3 9 8l13 10.5l13 10t8 6.5q8 2 27 5.5t40 7t40 6t26 3.5h26h9q1 0 6.5 4l12.5 9t14 11t12 9q4 3 12.5 11t8.5 10l12.5 24.5l17.5 34l16.5 33 t10.5 20.5q1 3 4 16l6.5 28l6.5 28t4 16t6 13l10.5 21.5l10.5 21.5t5 12q3 6 11 30.5t18 52.5t18 52.5t11 30.5q0 2 3 7t7 11t7.5 10.5t4.5 6.5q20 40 34 83.5t33 82.5q1 2 4 7t7 10.5t7 10.5t3 6l7.5 13t4.5 10q1 1 2.5 9t3 17.5t3 17.5t2.5 9q2 3 11.5 13t21 21l21.5 21 l13 13q1 2 4 8.5l6.5 14t7 14t5.5 8.5q0 1 5 6l10.5 10.5l10.5 10.5l7 7q1 1 4 7.5l6.5 14l6.5 14t3 8.5l16 16l26.5 26l28 27.5t19.5 20.5q2 1 10.5 4.5t10.5 5.5q3 0 7.5 5t6.5 5q15 12 29.5 21l29.5 18l30.5 19t33.5 24q30 11 57 15t52 4q29 0 56 -3t56 -8q15 -9 27 -18 l21.5 -15.5l17.5 -12.5q2 0 5.5 -4.5t4.5 -6.5q7 -7 16.5 -17.5t18.5 -21.5q11 -12 22 -26v-23q0 -22 -1 -38.5t-9 -39.5q-5 -10 -25 -19.5t-44 -17.5t-46.5 -13t-31.5 -5q-23 0 -41.5 11t-35 25l-32.5 26.5t-35 15.5h-5t-12 0.5t-13.5 0.5h-10.5q-7 0 -21 -0.5t-15 -0.5 q-2 0 -6.5 -3l-10 -7t-10.5 -8t-6 -5q-17 -10 -32.5 -25.5t-30 -33.5t-26.5 -37l-22 -35l-16.5 -30.5l-21 -39l-19 -35.5t-9.5 -20q-8 -14 -11 -27t-4.5 -26t-3 -27.5t-5.5 -31.5q0 -2 -3 -8t-7 -13l-8 -13.5t-5 -8.5q0 -2 -1.5 -10t-3 -17.5t-3 -18t-2.5 -10.5q-1 -1 -4 -6 l-6.5 -10.5l-7 -10.5t-4.5 -6q-25 -44 -37.5 -87t-30.5 -89q-20 -55 -37.5 -108.5t-17.5 -113.5v-12q0 -8 2 -15t10 -9h66q22 0 40 2l35 4l34.5 4t38.5 2q11 0 27.5 -3t32 -9.5t26.5 -17t11 -25.5q0 -10 -5.5 -21t-14 -22t-18 -20.5t-17.5 -16.5q-18 2 -35.5 3t-35.5 1 q-56 0 -110.5 -7t-109.5 -18q-4 -3 -13.5 -12t-20 -20l-19.5 -21t-12 -14q-3 -3 -11 -19.5l-18 -35.5t-18 -36t-11 -21q0 -2 -5 -8t-10.5 -13.5l-10.5 -14t-6 -8.5q-1 -1 -2.5 -6l-3 -10.5l-3 -10.5t-2.5 -6q-1 -5 -9 -21l-18 -34.5l-18.5 -34.5t-11.5 -20q-1 -3 -5.5 -15 l-9.5 -25.5t-10 -24.5t-6 -13q-2 -5 -5.5 -12l-7 -14l-6.5 -13l-4 -8q-5 -6 -12.5 -12.5l-15 -13.5t-13 -15.5t-5.5 -18.5v-3q0 -3 3 -3q16 -22 36.5 -36.5t50.5 -18.5h57h21q8 0 21.5 -0.5t27 -3.5t25 -10t16.5 -19q6 -1 23.5 -3t37.5 -4t37.5 -3.5t23.5 -1.5h38q46 0 83 4 t67.5 16.5t55 37t45.5 65.5q8 16 10 33t2 34v16q0 25 -5.5 44.5t-14.5 36.5t-21.5 33.5t-25.5 35.5l-13 18t-15 22l-12 19t-5 9q-1 4 -1 8q-1 3 -1 6v5q0 17 3 27.5t21 10.5l6 -2q2 -1 5 -1q2 -1 10 -6l18.5 -12l21.5 -14.5l17 -11.5q0 -1 5 -4.5t7 -5.5q4 -7 17 -25 l27.5 -37.5l27 -37t17.5 -23.5q0 -4 1 -13.5t2.5 -20.5t2.5 -21t1 -14q0 -6 0.5 -17l1 -21.5t1 -19t0.5 -10.5q-1 -10 -4.5 -27.5l-7 -34.5t-7 -30.5t-3.5 -16.5q-2 -3 -11.5 -14.5l-20.5 -24l-21 -23.5t-13 -14q-4 -4 -12 -17t-11 -17q0 -2 -3.5 -8.5t-7 -14t-7.5 -14 t-6 -7.5q-1 -1 -5.5 -3t-9.5 -3.5l-10 -3t-6 -2.5q-3 0 -12.5 -5l-20.5 -10.5t-20.5 -11t-12.5 -6.5q-3 0 -11.5 -2t-18 -3.5t-18 -3t-9.5 -1.5q-2 -2 -11 -6.5t-11 -7.5q-5 0 -25.5 1t-38.5 1q-21 0 -25 -2q-2 0 -8.5 -1.5t-13.5 -3.5t-13.5 -3.5t-7.5 -1.5q-3 1 -9.5 4.5 l-14 7.5l-14.5 7.5l-9 4.5h-46h-19q-38 9 -74 22.5t-72 25.5t-73.5 21t-78.5 9q-3 0 -7 -0.5t-8 -0.5q-4 -1 -9 -1q-2 0 -6 -5t-7.5 -11t-7 -11t-3.5 -6q-30 -43 -68.5 -71.5t-92.5 -28.5h-26q-3 1 -9 4l-13.5 6.5l-14.5 6.5t-10 5q-3 3 -9 8t-11 10.5l-9 10t-4 6.5 q-8 30 -8 57t8 54q0 1 4 5l9 9l11 10.5t9 8.5l16.5 11l21 13.5l19 12t11.5 6.5q3 2 16 4t28.5 4t29 3t16.5 1q1 2 10 6t10 4q2 1 10 4.5t17.5 7t18 7.5t10.5 6q1 0 5 8t7 12l34 82.5t32 83.5q10 32 16.5 63t15.5 60l31.5 83t15.5 85z" />
<glyph unicode="&#xa4;" horiz-adv-x="1037" d="M115 339q0 10 13 31t30.5 43t35.5 40t28 24v13q0 1 2.5 10.5t2.5 13.5q-3 15 -10 31.5l-14.5 34.5t-13 38t-5.5 43v66q6 5 14 23t15.5 39t12.5 40t5 27q0 10 -10.5 23.5t-24 27t-27 25t-18.5 19.5q-3 1 -10.5 9.5l-16 19l-16 20t-9.5 12.5q7 32 32 46.5t51 14.5 q10 0 17 -4.5t13.5 -10t13 -10t17.5 -5.5q5 -13 13 -28t19.5 -28.5t25.5 -22.5t32 -9h12q19 8 41 18.5t45 19.5t47 15t47 6h14q10 0 12 -2q4 -6 24.5 -15t46 -17t49.5 -14t34 -6q13 0 24 6t20 14t16.5 17t15.5 15l71 64h29q2 0 7 -4.5t10.5 -11t10.5 -13.5t7 -11 q0 -1 0.5 -13t0.5 -16l-1 -30q-3 -6 -9.5 -10.5t-15 -8.5l-16.5 -7.5t-13 -7.5q-4 -3 -13.5 -14t-19.5 -24.5t-18 -25.5t-9 -17v-2q0 -16 9.5 -33.5l20.5 -36.5t20.5 -38.5t9.5 -40.5l-10 -92q-2 0 -5 -8.5t-6 -20l-6 -22t-4 -13.5q-9 -6 -13 -10t-6 -5q-7 -6 -7 -18 q0 -8 1.5 -19t4 -20t5.5 -15.5t6 -5.5l30 -12q18 -12 35 -40.5t30 -54.5q5 -5 6 -8.5t1 -5.5q0 -9 -6 -19.5t-15 -19t-19.5 -14.5t-19.5 -6q-5 2 -12.5 4.5t-14 5.5l-11 5l-4.5 2l-97 92q-4 2 -10.5 4.5t-11.5 2.5h-2q-21 -3 -40.5 -12l-39.5 -18.5t-42 -16.5t-49 -7 q-4 0 -7.5 1.5t-8.5 9.5h-12q-43 0 -77 8.5t-61 20.5q-10 4 -14 7.5t-6 6.5t-5 5t-10 2q-10 0 -26 -19l-37.5 -42.5t-47.5 -42.5t-55 -19q-20 4 -34 20t-14 37zM393 509l23 -25q18 -5 34 -9q14 -4 28 -7.5t23 -5.5h20q66 0 111.5 25.5t77.5 85.5l7.5 11l12.5 17.5l13.5 19 t9.5 14.5l-9 43l9 36v13q-8 21 -18 36.5t-20.5 28.5l-21.5 26.5t-21 30.5q-2 2 -3.5 4.5t-3.5 2.5q-16 3 -29 8t-25.5 12l-26.5 15.5t-33 16.5q-11 -2 -33.5 -6.5l-47 -9t-46.5 -9t-31 -6.5q-15 -13 -27.5 -32t-31.5 -28l-48 -106v-86q5 -3 16 -18.5t21.5 -33.5t18.5 -34.5 t8 -21.5z" />
<glyph unicode="&#xa5;" horiz-adv-x="1374" d="M965 604q0 -12 -12 -19.5t-21 -11.5q-20 -5 -37 -7t-34 -2q-14 0 -33 1t-50 1l2 -14t1 -21q0 -16 -5 -36h64q30 -9 48.5 -25t36.5 -34q1 -1 1.5 -2t2.5 -3q1 -2 3 -4q0 -14 -9.5 -29t-18.5 -26q-11 -11 -27 -15.5t-30 -13.5q-4 0 -12 -0.5t-18.5 -1.5l-22 -2t-21.5 -2 q0 -2 0.5 -5.5t0.5 -7.5q0 -11 -4 -19t-4 -20q0 -23 11 -49.5t16 -46.5l63 -64q2 0 9.5 -3t12.5 -3q1 -1 8 -2.5t15.5 -2.5t15 -1.5t8.5 -0.5q4 -2 14 -5l20 -6t18.5 -6t11.5 -5q9 -4 11.5 -8t2.5 -11v-5.5t-2 -3.5q-9 -39 -33.5 -50.5t-63.5 -11.5q-18 0 -36 4.5t-35 4.5 q-3 0 -7 -0.5t-8 -0.5q-4 -1 -9 -1q-2 0 -8 -3.5t-8 -3.5q-3 0 -12 -1t-21 -2.5t-25.5 -2.5t-25.5 -1q-21 0 -41 3.5t-41 3.5q-59 0 -116.5 -3.5t-115.5 -3.5h-45q-7 2 -16 7.5t-16.5 13.5t-12.5 17.5t-5 18.5q6 12 14 26t18.5 26t23.5 20.5t29 8.5h76q9 1 21.5 5.5t25 11 t22.5 15.5t14 19q1 3 2.5 10.5t2.5 16t1.5 16t0.5 10.5q-2 14 -2 43.5v64.5q-14 0 -35 2.5t-29 2.5q-30 3 -45.5 11t-23 20.5t-9.5 29t-3 37.5q0 13 10 21.5t25 13t31.5 6.5t30.5 3h48q0 5 1 9.5t1 9.5q0 2 1 17.5t3 34.5l-58 -2q-1 2 -9.5 4.5t-12.5 2.5l-1 1h-1 q-5 0 -5 -1q-4 -2 -9 -2h-10q-22 0 -40.5 10.5t-18.5 32.5q0 18 14 40q2 2 8 3.5t13 1.5q9 0 17 -1t12 -1q1 0 7.5 1t14 2t14 2t7.5 1q3 0 14 1.5t16 1.5h16t15 -2q0 32 -4 56t-24 50q-1 2 -11 14l-23 27.5l-26.5 31t-22.5 24.5q-9 11 -15.5 16t-11.5 18q-1 3 -3 10.5t-5 16 t-5 15.5t-3 9q-1 4 -3 10.5l-4 13.5q-3 8 -5 17q-2 1 -6 5.5t-9 9t-9 8.5l-5 5l-11.5 16.5l-20 29l-19.5 29t-12 16.5l-34 35q-2 2 -7 13t-5 15q-16 25 -36 46.5t-42 41.5q-7 7 -20 17.5t-15 10.5q-16 6 -35.5 7.5t-36 5.5t-28 13t-11.5 32q0 12 1.5 23t10.5 17 q5 2 17.5 6.5l26 9l25 8t16.5 4.5h37q28 0 55 -3.5t54 -8t53.5 -8t53.5 -3.5q11 0 16 1t17 8l166 21q11 1 21 -4t18 -13.5t13 -19t5 -20.5q0 -11 -6 -17t-14.5 -10t-18.5 -7.5t-18 -7.5q-2 0 -7 -2.5t-7 -2.5q-3 -1 -12 -2t-20 -2t-20 -1.5t-12 -1.5q-3 -2 -13.5 -12.5 t-14.5 -15.5v-39q0 -20 4 -37.5t11 -33t16 -31l19 -32.5q2 -4 4.5 -8.5t2.5 -6.5q2 -2 4 -13.5t2 -14.5q2 -2 8.5 -9l13.5 -15l13 -15t8 -9q1 -2 5 -8l8.5 -13t8 -13t4.5 -8q6 -2 8 -8q2 -1 8.5 -5.5t13.5 -10.5t12.5 -11.5l7.5 -7.5q3 -2 9.5 -8.5l14.5 -14t14.5 -14.5 l9.5 -10h35q11 12 24 23l26.5 21.5t25.5 21.5t21 24q1 1 4 7.5l6.5 13.5l6.5 13l4 8q9 14 23.5 21t26.5 20q0 2 3.5 10.5t3.5 31.5q3 16 13 23.5t21 15t19.5 19t8.5 37.5q0 33 -11 47.5t-28 21t-38 11.5t-42 19q-4 2 -8 5.5t-9 7.5l-11 9l7 62q19 14 40 21t43 10t45 3.5 t45 0.5q21 0 36 -3.5t35 -3.5t40.5 3.5t40.5 8t40.5 8t40.5 3.5q16 0 29 -1t23.5 -5t21 -12t22.5 -21q1 -2 2 -5q2 -6 4 -7q0 -14 -3 -32.5t-12 -29.5q-3 -3 -8 -9t-10.5 -11.5t-10.5 -9.5t-6 -5q0 -1 -6 -3l-13 -4.5t-13.5 -4t-8.5 -1.5q-7 -3 -19 -9.5t-24.5 -14.5 t-23 -16.5t-15.5 -15.5q-1 -1 -3.5 -5.5t-4.5 -9l-4 -9t-3 -5.5l-3 -3l-4 -2q-2 -3 -10.5 -8.5t-10.5 -7.5t-8 -9l-13 -15l-13 -15t-7 -9q-2 -2 -7.5 -6.5t-11.5 -10.5t-10.5 -11t-5.5 -7q-2 -2 -10.5 -16.5t-24.5 -31.5q-1 0 -10.5 -6t-11.5 -8q-1 -1 -2.5 -6l-3.5 -11.5 l-3.5 -11.5t-2.5 -6q-8 -14 -23.5 -22t-26.5 -19q0 -2 -5.5 -10.5t-6.5 -10.5q-2 -3 -10.5 -11l-18 -17.5l-18 -17.5t-10.5 -11q-12 -11 -15.5 -29.5t-12.5 -32.5q-13 -21 -32.5 -37t-28.5 -40q-1 -8 -1 -27.5v-32.5q9 2 21 4t23 3.5t20 2.5t12 2h19q18 0 35.5 -3t31 -11 t22 -21t8.5 -34z" />
<glyph unicode="&#xa6;" horiz-adv-x="566" d="M180 981q0 20 -8.5 41.5t-8.5 39.5q0 23 8.5 43.5t8.5 43.5q0 9 -2 16l-5 18q-5 9 -7.5 20t-2.5 22q0 39 10.5 75.5t10.5 78.5v22q18 21 38 32.5t46 11.5q25 0 47.5 -8t39.5 -22.5t26.5 -35.5t9.5 -47l-7 -54q0 -13 0.5 -24.5t3.5 -26.5q3 -24 3 -54v-33q0 -9 -1 -21 t-6 -20q-5 -19 -6 -37.5t-1 -32.5q0 -18 1 -36t6 -36q9 -14 10.5 -24t1.5 -23q0 -14 -2.5 -33.5t-10 -37.5t-20 -30.5t-31.5 -12.5q-30 0 -61 7t-56 22.5t-41 41t-16 62.5q0 3 3 9l6.5 13l6.5 12.5t3 7.5zM180 -130q0 20 -8.5 41t-8.5 35q0 23 8.5 44t8.5 45q0 10 -2 18 t-5 16q-10 20 -10 43q0 38 10.5 76.5t10.5 79.5v17q18 23 38 36t46 13q25 0 47.5 -8.5t39.5 -24.5t26.5 -37.5t9.5 -47.5q0 -11 -3.5 -24.5t-3.5 -27.5q0 -11 0.5 -23t3.5 -23q3 -29 3 -56v-33q0 -13 -1 -23t-6 -18q-5 -18 -6 -37t-1 -36q0 -18 1 -34.5t6 -36.5 q9 -15 10.5 -23.5t1.5 -24.5q0 -14 -2.5 -33t-10 -36t-20 -29.5t-31.5 -12.5q-30 0 -61 7t-56 22.5t-41 40t-16 60.5v3q0 1 3 7l6.5 12.5l6.5 12t3 6.5z" />
</font>
</defs>
</svg>
